M48
;DRILL file {KiCad 4.0.7} date Tuesday, June 05, 2018 'PMt' 05:00:57 PM
;FORMAT={-:-/ absolute / inch / decimal}
FMAT,2
INCH,TZ
T1C0.016
T2C0.030
T3C0.031
T4C0.040
T5C0.059
T6C0.087
%
G90
G05
M72
T1
X1.23Y-3.41
X1.23Y-3.69
X1.24Y-3.97
X1.24Y-4.23
X1.24Y-4.51
X1.24Y-4.78
X1.24Y-5.04
X1.42Y-5.06
X1.43Y-3.54
X1.43Y-3.64
X1.45Y-3.3
X1.49Y-3.37
X1.49Y-3.45
X1.58Y-3.55
X1.67Y-4.91
X1.74Y-4.06
X1.77Y-4.1
X1.83Y-3.75
X1.83Y-3.81
X1.84Y-3.86
X1.84Y-3.91
X1.99Y-4.1
X2.Y-3.7
X2.07Y-3.99
X2.11Y-3.49
X2.12Y-3.41
X2.15Y-3.79
X2.19Y-3.6
X2.19Y-3.74
X2.21Y-3.89
X2.31Y-3.6
X2.36Y-3.7
X2.38Y-3.36
X2.39Y-3.5
X2.43Y-4.41
X2.44Y-3.79
X2.46Y-3.47
X2.46Y-3.89
X2.48Y-4.11
X2.52Y-4.68
X2.55Y-3.31
X2.6Y-3.55
X2.62Y-4.32
X2.67Y-4.61
X2.68Y-4.32
X2.79Y-3.53
X2.79Y-3.71
X2.79Y-3.79
X2.79Y-3.95
X2.79Y-4.18
X2.79Y-4.78
X2.8Y-4.5
X2.8Y-4.61
X2.81Y-4.07
X2.82Y-4.46
X2.83Y-3.44
X2.83Y-3.55
X2.83Y-3.9
X2.83Y-4.33
X2.83Y-4.72
X2.83Y-5.
X2.84Y-3.35
X2.84Y-3.62
X2.84Y-4.18
X2.85Y-3.7
X2.85Y-3.8
X2.85Y-3.95
X2.85Y-4.08
X2.85Y-4.5
X2.85Y-4.63
X2.85Y-4.78
X2.85Y-4.92
X2.86Y-4.22
X2.86Y-4.36
X3.02Y-4.46
X3.02Y-5.01
X3.03Y-4.74
X3.04Y-4.19
X3.06Y-3.91
X3.07Y-3.37
X3.07Y-3.64
T2
X1.7831Y-3.3378
X1.8957Y-4.9941
X2.0925Y-4.9941
X2.1611Y-4.3811
X2.165Y-3.3378
X2.2894Y-4.9941
X2.354Y-4.3811
T3
X1.19Y-3.47
X1.19Y-3.75
X1.19Y-4.02
X1.19Y-4.29
X1.19Y-4.57
X1.19Y-4.84
X1.19Y-5.12
X1.45Y-4.97
X1.56Y-4.92
X1.73Y-5.11
X1.74Y-4.78
X1.91Y-4.4
X2.68Y-4.7
X3.07Y-3.3
X3.07Y-3.58
X3.07Y-3.85
X3.07Y-4.13
X3.07Y-4.4
X3.07Y-4.68
X3.07Y-4.96
T4
X1.63Y-3.59
X1.63Y-3.69
X1.63Y-3.79
X1.63Y-3.89
X1.63Y-3.99
X1.63Y-4.09
X1.63Y-4.19
X1.63Y-4.29
X2.53Y-3.59
X2.53Y-3.69
X2.53Y-3.79
X2.53Y-3.89
X2.53Y-3.99
X2.53Y-4.09
X2.53Y-4.19
X2.53Y-4.29
T5
X0.7813Y-3.4646
X0.7813Y-3.7402
X0.7813Y-4.0157
X0.7813Y-4.2913
X0.7813Y-4.5669
X0.7813Y-4.8425
X0.7813Y-5.1181
X0.8757Y-3.3071
X0.8757Y-3.5827
X0.8757Y-3.8583
X0.8757Y-4.1339
X0.8757Y-4.4094
X0.8757Y-4.685
X0.8757Y-4.9606
X1.0588Y-3.4646
X1.0588Y-3.7402
X1.0588Y-4.0157
X1.0588Y-4.2913
X1.0588Y-4.5669
X1.0588Y-4.8425
X1.0588Y-5.1181
X2.4713Y-5.0148
X2.6287Y-4.8317
X2.6287Y-5.1093
X3.2038Y-3.3071
X3.2038Y-3.5827
X3.2038Y-3.8583
X3.2038Y-4.1339
X3.2038Y-4.4094
X3.2038Y-4.685
X3.2038Y-4.9606
X3.3869Y-3.4646
X3.3869Y-3.7402
X3.3869Y-4.0157
X3.3869Y-4.2913
X3.3869Y-4.5669
X3.3869Y-4.8425
X3.3869Y-5.1181
X3.4813Y-3.3071
X3.4813Y-3.5827
X3.4813Y-3.8583
X3.4813Y-4.1339
X3.4813Y-4.4094
X3.4813Y-4.685
X3.4813Y-4.9606
T6
X0.78Y-3.14
X1.56Y-5.11
X2.77Y-5.11
X3.48Y-3.14
T0
M30
