G04 #@! TF.FileFunction,Soldermask,Bot*
%FSLAX46Y46*%
G04 Gerber Fmt 4.6, Leading zero omitted, Abs format (unit mm)*
G04 Created by KiCad (PCBNEW 4.0.7) date Tuesday, June 05, 2018 'PMt' 05:00:48 PM*
%MOMM*%
%LPD*%
G01*
G04 APERTURE LIST*
%ADD10C,0.100000*%
%ADD11C,1.900000*%
%ADD12C,1.924000*%
%ADD13C,2.400000*%
%ADD14C,2.200000*%
%ADD15C,4.200000*%
G04 APERTURE END LIST*
D10*
D11*
X43942000Y-129794000D03*
D12*
X48150000Y-126850000D03*
X53150000Y-126850000D03*
X58150000Y-126850000D03*
D13*
X22244000Y-126000000D03*
X19844000Y-130000000D03*
X26894000Y-130000000D03*
X22244000Y-119000000D03*
X19844000Y-123000000D03*
X26894000Y-123000000D03*
X22244000Y-112000000D03*
X19844000Y-116000000D03*
X26894000Y-116000000D03*
X22244000Y-105000000D03*
X19844000Y-109000000D03*
X26894000Y-109000000D03*
X22244000Y-98000000D03*
X19844000Y-102000000D03*
X26894000Y-102000000D03*
X22244000Y-91000000D03*
X19844000Y-95000000D03*
X26894000Y-95000000D03*
X22244000Y-84000000D03*
X19844000Y-88000000D03*
X26894000Y-88000000D03*
X86026000Y-88000000D03*
X88426000Y-84000000D03*
X81376000Y-84000000D03*
X86026000Y-95000000D03*
X88426000Y-91000000D03*
X81376000Y-91000000D03*
X86026000Y-102000000D03*
X88426000Y-98000000D03*
X81376000Y-98000000D03*
X86026000Y-109000000D03*
X88426000Y-105000000D03*
X81376000Y-105000000D03*
X86026000Y-116000000D03*
X88426000Y-112000000D03*
X81376000Y-112000000D03*
X86026000Y-123000000D03*
X88426000Y-119000000D03*
X81376000Y-119000000D03*
X86026000Y-130000000D03*
X88426000Y-126000000D03*
X81376000Y-126000000D03*
X62770000Y-127376000D03*
X66770000Y-129776000D03*
X66770000Y-122726000D03*
D14*
X64262000Y-108966000D03*
X64262000Y-106426000D03*
X64262000Y-103886000D03*
X64262000Y-101346000D03*
X64262000Y-98806000D03*
X64262000Y-96266000D03*
X64262000Y-93726000D03*
X64262000Y-91186000D03*
X41402000Y-91186000D03*
X41402000Y-93726000D03*
X41402000Y-96266000D03*
X41402000Y-98806000D03*
X41402000Y-101346000D03*
X41402000Y-103886000D03*
X41402000Y-106426000D03*
X41402000Y-108966000D03*
D11*
X44196000Y-121412000D03*
X39624000Y-124968000D03*
X36830000Y-126238000D03*
X48514000Y-111760000D03*
X30226000Y-130048000D03*
X30226000Y-122936000D03*
X30226000Y-116078000D03*
X30226000Y-108966000D03*
X30226000Y-102108000D03*
X30226000Y-95250000D03*
X30226000Y-88138000D03*
X77978000Y-83820000D03*
X77978000Y-90932000D03*
X77978000Y-97790000D03*
X77978000Y-104902000D03*
X77978000Y-111760000D03*
X77978000Y-118872000D03*
X77978000Y-125984000D03*
X68072000Y-119380000D03*
D15*
X19812000Y-79756000D03*
X88392000Y-79756000D03*
X39624000Y-129794000D03*
X70358000Y-129794000D03*
D12*
X54892000Y-111280000D03*
X59792000Y-111280000D03*
X54992000Y-84780000D03*
X45292000Y-84780000D03*
M02*
