G04 #@! TF.FileFunction,Copper,L2,Bot,Signal*
%FSLAX46Y46*%
G04 Gerber Fmt 4.6, Leading zero omitted, Abs format (unit mm)*
G04 Created by KiCad (PCBNEW 4.0.7) date Tuesday, June 05, 2018 'PMt' 05:00:48 PM*
%MOMM*%
%LPD*%
G01*
G04 APERTURE LIST*
%ADD10C,0.100000*%
%ADD11C,1.500000*%
%ADD12C,1.524000*%
%ADD13C,2.000000*%
%ADD14C,1.800000*%
%ADD15C,3.800000*%
%ADD16C,0.660000*%
%ADD17C,0.250000*%
%ADD18C,0.254000*%
G04 APERTURE END LIST*
D10*
D11*
X43942000Y-129794000D03*
D12*
X48150000Y-126850000D03*
X53150000Y-126850000D03*
X58150000Y-126850000D03*
D13*
X22244000Y-126000000D03*
X19844000Y-130000000D03*
X26894000Y-130000000D03*
X22244000Y-119000000D03*
X19844000Y-123000000D03*
X26894000Y-123000000D03*
X22244000Y-112000000D03*
X19844000Y-116000000D03*
X26894000Y-116000000D03*
X22244000Y-105000000D03*
X19844000Y-109000000D03*
X26894000Y-109000000D03*
X22244000Y-98000000D03*
X19844000Y-102000000D03*
X26894000Y-102000000D03*
X22244000Y-91000000D03*
X19844000Y-95000000D03*
X26894000Y-95000000D03*
X22244000Y-84000000D03*
X19844000Y-88000000D03*
X26894000Y-88000000D03*
X86026000Y-88000000D03*
X88426000Y-84000000D03*
X81376000Y-84000000D03*
X86026000Y-95000000D03*
X88426000Y-91000000D03*
X81376000Y-91000000D03*
X86026000Y-102000000D03*
X88426000Y-98000000D03*
X81376000Y-98000000D03*
X86026000Y-109000000D03*
X88426000Y-105000000D03*
X81376000Y-105000000D03*
X86026000Y-116000000D03*
X88426000Y-112000000D03*
X81376000Y-112000000D03*
X86026000Y-123000000D03*
X88426000Y-119000000D03*
X81376000Y-119000000D03*
X86026000Y-130000000D03*
X88426000Y-126000000D03*
X81376000Y-126000000D03*
X62770000Y-127376000D03*
X66770000Y-129776000D03*
X66770000Y-122726000D03*
D14*
X64262000Y-108966000D03*
X64262000Y-106426000D03*
X64262000Y-103886000D03*
X64262000Y-101346000D03*
X64262000Y-98806000D03*
X64262000Y-96266000D03*
X64262000Y-93726000D03*
X64262000Y-91186000D03*
X41402000Y-91186000D03*
X41402000Y-93726000D03*
X41402000Y-96266000D03*
X41402000Y-98806000D03*
X41402000Y-101346000D03*
X41402000Y-103886000D03*
X41402000Y-106426000D03*
X41402000Y-108966000D03*
D11*
X44196000Y-121412000D03*
X39624000Y-124968000D03*
X36830000Y-126238000D03*
X48514000Y-111760000D03*
X30226000Y-130048000D03*
X30226000Y-122936000D03*
X30226000Y-116078000D03*
X30226000Y-108966000D03*
X30226000Y-102108000D03*
X30226000Y-95250000D03*
X30226000Y-88138000D03*
X77978000Y-83820000D03*
X77978000Y-90932000D03*
X77978000Y-97790000D03*
X77978000Y-104902000D03*
X77978000Y-111760000D03*
X77978000Y-118872000D03*
X77978000Y-125984000D03*
X68072000Y-119380000D03*
D15*
X19812000Y-79756000D03*
X88392000Y-79756000D03*
X39624000Y-129794000D03*
X70358000Y-129794000D03*
D12*
X54892000Y-111280000D03*
X59792000Y-111280000D03*
X54992000Y-84780000D03*
X45292000Y-84780000D03*
D16*
X53848000Y-86614000D03*
X53594000Y-88646000D03*
X42418000Y-124714000D03*
X36068000Y-128524000D03*
X55626000Y-91440000D03*
X58674000Y-91440000D03*
X36322000Y-92456000D03*
X36322000Y-89916000D03*
X55626000Y-94996000D03*
X66548000Y-109728000D03*
X61722000Y-112014000D03*
X72390000Y-124968000D03*
X72390000Y-121412000D03*
X72390000Y-117602000D03*
X72390000Y-114300000D03*
X72644000Y-110744000D03*
X72644000Y-107188000D03*
X72390000Y-103632000D03*
X72390000Y-100330000D03*
X72390000Y-96520000D03*
X72390000Y-93980000D03*
X71882000Y-90170000D03*
X71882000Y-87376000D03*
X66040000Y-90170000D03*
X64770000Y-84074000D03*
X56134000Y-98806000D03*
X62484000Y-98806000D03*
X52578000Y-101346000D03*
X62992000Y-104394000D03*
X50546000Y-104140000D03*
X44958000Y-104140000D03*
X31496000Y-128016000D03*
X44196000Y-103124000D03*
X31496000Y-121412000D03*
X46736000Y-99314000D03*
X31496000Y-114554000D03*
X46736000Y-98044000D03*
X31496000Y-107442000D03*
X46482000Y-96774000D03*
X31496000Y-100838000D03*
X46482000Y-95250000D03*
X31242000Y-93726000D03*
X50800000Y-93980000D03*
X31242000Y-86614000D03*
X77978000Y-85598000D03*
X72136000Y-85090000D03*
X60452000Y-85344000D03*
X59944000Y-93980000D03*
X77978000Y-92456000D03*
X72136000Y-91948000D03*
X71882000Y-99060000D03*
X77724000Y-99314000D03*
X72136000Y-106172000D03*
X77216000Y-106426000D03*
X71628000Y-113284000D03*
X76708000Y-113284000D03*
X71882000Y-119888000D03*
X76962000Y-120396000D03*
X71882000Y-127000000D03*
X76708000Y-127254000D03*
X54610000Y-96266000D03*
X61976000Y-96266000D03*
X40132000Y-90170000D03*
X37846000Y-87630000D03*
X37846000Y-85598000D03*
X36830000Y-83820000D03*
X62484000Y-88138000D03*
X60706000Y-88900000D03*
X68072000Y-109728000D03*
X70866000Y-121412000D03*
X71120000Y-117094000D03*
X71120000Y-114300000D03*
X71882000Y-109982000D03*
X70866000Y-106172000D03*
X71374000Y-103378000D03*
X70866000Y-100330000D03*
X70866000Y-96266000D03*
X70866000Y-94234000D03*
X70866000Y-89662000D03*
X67818000Y-117094000D03*
X64008000Y-118872000D03*
D17*
X53848000Y-86614000D02*
X53594000Y-86868000D01*
X53594000Y-86868000D02*
X53594000Y-88646000D01*
X41148000Y-123444000D02*
X42418000Y-124714000D01*
X37846000Y-123444000D02*
X41148000Y-123444000D01*
X35560000Y-125730000D02*
X37846000Y-123444000D01*
X35560000Y-128016000D02*
X35560000Y-125730000D01*
X36068000Y-128524000D02*
X35560000Y-128016000D01*
X58674000Y-91440000D02*
X55626000Y-91440000D01*
X36322000Y-89916000D02*
X36322000Y-92456000D01*
X72390000Y-95250000D02*
X66294000Y-95250000D01*
X66040000Y-94996000D02*
X55626000Y-94996000D01*
X66294000Y-95250000D02*
X66040000Y-94996000D01*
X64008000Y-114300000D02*
X64008000Y-112268000D01*
X64008000Y-112268000D02*
X66548000Y-109728000D01*
X72390000Y-115062000D02*
X64770000Y-115062000D01*
X64770000Y-115062000D02*
X64008000Y-114300000D01*
X64008000Y-114300000D02*
X61722000Y-112014000D01*
X72390000Y-121412000D02*
X72390000Y-124968000D01*
X72390000Y-114300000D02*
X72390000Y-115062000D01*
X72390000Y-115062000D02*
X72390000Y-117602000D01*
X72644000Y-107188000D02*
X72644000Y-110744000D01*
X72390000Y-100330000D02*
X72390000Y-103632000D01*
X72390000Y-93980000D02*
X72390000Y-95250000D01*
X72390000Y-95250000D02*
X72390000Y-96520000D01*
X71882000Y-87376000D02*
X71882000Y-90170000D01*
X66040000Y-90170000D02*
X64770000Y-88900000D01*
X64770000Y-88900000D02*
X64770000Y-84074000D01*
X62484000Y-98806000D02*
X56134000Y-98806000D01*
X52578000Y-101346000D02*
X64262000Y-101346000D01*
X62992000Y-104394000D02*
X62738000Y-104140000D01*
X62738000Y-104140000D02*
X50546000Y-104140000D01*
X44958000Y-108712000D02*
X44958000Y-104140000D01*
X37592000Y-116078000D02*
X44958000Y-108712000D01*
X37592000Y-121920000D02*
X37592000Y-116078000D01*
X31496000Y-128016000D02*
X37592000Y-121920000D01*
X44196000Y-108712000D02*
X44196000Y-103124000D01*
X31496000Y-121412000D02*
X44196000Y-108712000D01*
X43434000Y-102616000D02*
X46736000Y-99314000D01*
X40386000Y-102616000D02*
X43434000Y-102616000D01*
X39116000Y-103886000D02*
X40386000Y-102616000D01*
X39116000Y-106934000D02*
X39116000Y-103886000D01*
X31496000Y-114554000D02*
X39116000Y-106934000D01*
X44704000Y-100076000D02*
X46736000Y-98044000D01*
X38862000Y-100076000D02*
X44704000Y-100076000D01*
X31496000Y-107442000D02*
X38862000Y-100076000D01*
X45720000Y-97536000D02*
X46482000Y-96774000D01*
X34798000Y-97536000D02*
X45720000Y-97536000D01*
X31496000Y-100838000D02*
X34798000Y-97536000D01*
X46228000Y-94996000D02*
X46482000Y-95250000D01*
X32512000Y-94996000D02*
X46228000Y-94996000D01*
X31242000Y-93726000D02*
X32512000Y-94996000D01*
X50800000Y-92202000D02*
X50800000Y-93980000D01*
X45212000Y-86614000D02*
X50800000Y-92202000D01*
X31242000Y-86614000D02*
X45212000Y-86614000D01*
X77978000Y-85598000D02*
X77470000Y-85090000D01*
X77470000Y-85090000D02*
X72136000Y-85090000D01*
X60452000Y-85344000D02*
X59944000Y-85852000D01*
X59944000Y-85852000D02*
X59944000Y-93980000D01*
X77978000Y-92456000D02*
X77470000Y-91948000D01*
X77470000Y-91948000D02*
X72136000Y-91948000D01*
X77470000Y-99060000D02*
X71882000Y-99060000D01*
X77724000Y-99314000D02*
X77470000Y-99060000D01*
X76962000Y-106172000D02*
X72136000Y-106172000D01*
X77216000Y-106426000D02*
X76962000Y-106172000D01*
X76708000Y-113284000D02*
X71628000Y-113284000D01*
X76454000Y-119888000D02*
X71882000Y-119888000D01*
X76962000Y-120396000D02*
X76454000Y-119888000D01*
X76454000Y-127000000D02*
X71882000Y-127000000D01*
X76708000Y-127254000D02*
X76454000Y-127000000D01*
X61976000Y-96266000D02*
X54610000Y-96266000D01*
X40132000Y-89916000D02*
X40132000Y-90170000D01*
X37846000Y-87630000D02*
X40132000Y-89916000D01*
X37846000Y-84836000D02*
X37846000Y-85598000D01*
X36830000Y-83820000D02*
X37846000Y-84836000D01*
X62484000Y-88138000D02*
X61722000Y-88900000D01*
X61722000Y-88900000D02*
X60706000Y-88900000D01*
X70866000Y-110998000D02*
X69342000Y-110998000D01*
X69342000Y-110998000D02*
X68072000Y-109728000D01*
X70866000Y-117348000D02*
X70866000Y-121412000D01*
X71120000Y-117094000D02*
X70866000Y-117348000D01*
X70866000Y-114046000D02*
X71120000Y-114300000D01*
X70866000Y-110998000D02*
X70866000Y-114046000D01*
X71882000Y-109982000D02*
X70866000Y-110998000D01*
X70866000Y-103886000D02*
X70866000Y-106172000D01*
X71374000Y-103378000D02*
X70866000Y-103886000D01*
X70866000Y-96266000D02*
X70866000Y-100330000D01*
X70866000Y-89662000D02*
X70866000Y-94234000D01*
X65786000Y-117094000D02*
X67818000Y-117094000D01*
X64008000Y-118872000D02*
X65786000Y-117094000D01*
D18*
G36*
X21319057Y-82613106D02*
X20858722Y-83072637D01*
X20609284Y-83673352D01*
X20608716Y-84323795D01*
X20857106Y-84924943D01*
X21316637Y-85385278D01*
X21917352Y-85634716D01*
X22567795Y-85635284D01*
X23168943Y-85386894D01*
X23629278Y-84927363D01*
X23878716Y-84326648D01*
X23879284Y-83676205D01*
X23630894Y-83075057D01*
X23171363Y-82614722D01*
X22709644Y-82423000D01*
X80911147Y-82423000D01*
X80451057Y-82613106D01*
X79990722Y-83072637D01*
X79741284Y-83673352D01*
X79740716Y-84323795D01*
X79989106Y-84924943D01*
X80448637Y-85385278D01*
X81049352Y-85634716D01*
X81699795Y-85635284D01*
X82300943Y-85386894D01*
X82761278Y-84927363D01*
X83010716Y-84326648D01*
X83011284Y-83676205D01*
X82762894Y-83075057D01*
X82303363Y-82614722D01*
X81841644Y-82423000D01*
X87961147Y-82423000D01*
X87501057Y-82613106D01*
X87040722Y-83072637D01*
X86791284Y-83673352D01*
X86790716Y-84323795D01*
X87039106Y-84924943D01*
X87498637Y-85385278D01*
X88099352Y-85634716D01*
X88749795Y-85635284D01*
X89350943Y-85386894D01*
X89811278Y-84927363D01*
X90060716Y-84326648D01*
X90061284Y-83676205D01*
X89812894Y-83075057D01*
X89353363Y-82614722D01*
X88891644Y-82423000D01*
X90222000Y-82423000D01*
X90222000Y-131624000D01*
X86377104Y-131624000D01*
X86950943Y-131386894D01*
X87411278Y-130927363D01*
X87660716Y-130326648D01*
X87661284Y-129676205D01*
X87412894Y-129075057D01*
X86953363Y-128614722D01*
X86352648Y-128365284D01*
X85702205Y-128364716D01*
X85101057Y-128613106D01*
X84640722Y-129072637D01*
X84391284Y-129673352D01*
X84390716Y-130323795D01*
X84639106Y-130924943D01*
X85098637Y-131385278D01*
X85673545Y-131624000D01*
X72112968Y-131624000D01*
X72505816Y-131231837D01*
X72892559Y-130300455D01*
X72893439Y-129291969D01*
X72508322Y-128359914D01*
X72102245Y-127953128D01*
X72427914Y-127818564D01*
X72486580Y-127760000D01*
X75872944Y-127760000D01*
X75889436Y-127799914D01*
X76160658Y-128071610D01*
X76515208Y-128218832D01*
X76899108Y-128219167D01*
X77253914Y-128072564D01*
X77525610Y-127801342D01*
X77672832Y-127446792D01*
X77672910Y-127356971D01*
X77701298Y-127368759D01*
X78252285Y-127369240D01*
X78761515Y-127158831D01*
X79151461Y-126769564D01*
X79336560Y-126323795D01*
X79740716Y-126323795D01*
X79989106Y-126924943D01*
X80448637Y-127385278D01*
X81049352Y-127634716D01*
X81699795Y-127635284D01*
X82300943Y-127386894D01*
X82761278Y-126927363D01*
X83010716Y-126326648D01*
X83010718Y-126323795D01*
X86790716Y-126323795D01*
X87039106Y-126924943D01*
X87498637Y-127385278D01*
X88099352Y-127634716D01*
X88749795Y-127635284D01*
X89350943Y-127386894D01*
X89811278Y-126927363D01*
X90060716Y-126326648D01*
X90061284Y-125676205D01*
X89812894Y-125075057D01*
X89353363Y-124614722D01*
X88752648Y-124365284D01*
X88102205Y-124364716D01*
X87501057Y-124613106D01*
X87040722Y-125072637D01*
X86791284Y-125673352D01*
X86790716Y-126323795D01*
X83010718Y-126323795D01*
X83011284Y-125676205D01*
X82762894Y-125075057D01*
X82303363Y-124614722D01*
X81702648Y-124365284D01*
X81052205Y-124364716D01*
X80451057Y-124613106D01*
X79990722Y-125072637D01*
X79741284Y-125673352D01*
X79740716Y-126323795D01*
X79336560Y-126323795D01*
X79362759Y-126260702D01*
X79363240Y-125709715D01*
X79152831Y-125200485D01*
X78763564Y-124810539D01*
X78254702Y-124599241D01*
X77703715Y-124598760D01*
X77194485Y-124809169D01*
X76804539Y-125198436D01*
X76593241Y-125707298D01*
X76592760Y-126258285D01*
X76596954Y-126268436D01*
X76454000Y-126240000D01*
X72486851Y-126240000D01*
X72429342Y-126182390D01*
X72074792Y-126035168D01*
X71690892Y-126034833D01*
X71336086Y-126181436D01*
X71064390Y-126452658D01*
X70917168Y-126807208D01*
X70916833Y-127191108D01*
X70961763Y-127299847D01*
X70864455Y-127259441D01*
X69855969Y-127258561D01*
X68923914Y-127643678D01*
X68210184Y-128356163D01*
X68049400Y-128743375D01*
X67697363Y-128390722D01*
X67096648Y-128141284D01*
X66446205Y-128140716D01*
X65845057Y-128389106D01*
X65384722Y-128848637D01*
X65135284Y-129449352D01*
X65134716Y-130099795D01*
X65383106Y-130700943D01*
X65842637Y-131161278D01*
X66443352Y-131410716D01*
X67093795Y-131411284D01*
X67694943Y-131162894D01*
X68038878Y-130819559D01*
X68207678Y-131228086D01*
X68602901Y-131624000D01*
X41378968Y-131624000D01*
X41771816Y-131231837D01*
X41965448Y-130765517D01*
X43150088Y-130765517D01*
X43218077Y-131006460D01*
X43737171Y-131191201D01*
X44287448Y-131163230D01*
X44665923Y-131006460D01*
X44733912Y-130765517D01*
X43942000Y-129973605D01*
X43150088Y-130765517D01*
X41965448Y-130765517D01*
X42158559Y-130300455D01*
X42159179Y-129589171D01*
X42544799Y-129589171D01*
X42572770Y-130139448D01*
X42729540Y-130517923D01*
X42970483Y-130585912D01*
X43762395Y-129794000D01*
X44121605Y-129794000D01*
X44913517Y-130585912D01*
X45154460Y-130517923D01*
X45339201Y-129998829D01*
X45311230Y-129448552D01*
X45154460Y-129070077D01*
X44913517Y-129002088D01*
X44121605Y-129794000D01*
X43762395Y-129794000D01*
X42970483Y-129002088D01*
X42729540Y-129070077D01*
X42544799Y-129589171D01*
X42159179Y-129589171D01*
X42159439Y-129291969D01*
X41965452Y-128822483D01*
X43150088Y-128822483D01*
X43942000Y-129614395D01*
X44733912Y-128822483D01*
X44665923Y-128581540D01*
X44146829Y-128396799D01*
X43596552Y-128424770D01*
X43218077Y-128581540D01*
X43150088Y-128822483D01*
X41965452Y-128822483D01*
X41774322Y-128359914D01*
X41245545Y-127830213D01*
X47349392Y-127830213D01*
X47418857Y-128072397D01*
X47942302Y-128259144D01*
X48497368Y-128231362D01*
X48881143Y-128072397D01*
X48950608Y-127830213D01*
X52349392Y-127830213D01*
X52418857Y-128072397D01*
X52942302Y-128259144D01*
X53497368Y-128231362D01*
X53881143Y-128072397D01*
X53950608Y-127830213D01*
X53150000Y-127029605D01*
X52349392Y-127830213D01*
X48950608Y-127830213D01*
X48150000Y-127029605D01*
X47349392Y-127830213D01*
X41245545Y-127830213D01*
X41061837Y-127646184D01*
X40130455Y-127259441D01*
X39121969Y-127258561D01*
X38189914Y-127643678D01*
X37476184Y-128356163D01*
X37089441Y-129287545D01*
X37088561Y-130296031D01*
X37473678Y-131228086D01*
X37868901Y-131624000D01*
X27245104Y-131624000D01*
X27818943Y-131386894D01*
X28279278Y-130927363D01*
X28528716Y-130326648D01*
X28528719Y-130322285D01*
X28840760Y-130322285D01*
X29051169Y-130831515D01*
X29440436Y-131221461D01*
X29949298Y-131432759D01*
X30500285Y-131433240D01*
X31009515Y-131222831D01*
X31399461Y-130833564D01*
X31610759Y-130324702D01*
X31611240Y-129773715D01*
X31400831Y-129264485D01*
X31011564Y-128874539D01*
X30502702Y-128663241D01*
X29951715Y-128662760D01*
X29442485Y-128873169D01*
X29052539Y-129262436D01*
X28841241Y-129771298D01*
X28840760Y-130322285D01*
X28528719Y-130322285D01*
X28529284Y-129676205D01*
X28280894Y-129075057D01*
X27821363Y-128614722D01*
X27220648Y-128365284D01*
X26570205Y-128364716D01*
X25969057Y-128613106D01*
X25508722Y-129072637D01*
X25259284Y-129673352D01*
X25258716Y-130323795D01*
X25507106Y-130924943D01*
X25966637Y-131385278D01*
X26541545Y-131624000D01*
X20195104Y-131624000D01*
X20768943Y-131386894D01*
X21229278Y-130927363D01*
X21478716Y-130326648D01*
X21479284Y-129676205D01*
X21230894Y-129075057D01*
X20771363Y-128614722D01*
X20170648Y-128365284D01*
X19520205Y-128364716D01*
X18919057Y-128613106D01*
X18458722Y-129072637D01*
X18209284Y-129673352D01*
X18208716Y-130323795D01*
X18457106Y-130924943D01*
X18916637Y-131385278D01*
X19491545Y-131624000D01*
X17982000Y-131624000D01*
X17982000Y-126323795D01*
X20608716Y-126323795D01*
X20857106Y-126924943D01*
X21316637Y-127385278D01*
X21917352Y-127634716D01*
X22567795Y-127635284D01*
X23168943Y-127386894D01*
X23629278Y-126927363D01*
X23878716Y-126326648D01*
X23879284Y-125676205D01*
X23630894Y-125075057D01*
X23171363Y-124614722D01*
X22570648Y-124365284D01*
X21920205Y-124364716D01*
X21319057Y-124613106D01*
X20858722Y-125072637D01*
X20609284Y-125673352D01*
X20608716Y-126323795D01*
X17982000Y-126323795D01*
X17982000Y-123323795D01*
X18208716Y-123323795D01*
X18457106Y-123924943D01*
X18916637Y-124385278D01*
X19517352Y-124634716D01*
X20167795Y-124635284D01*
X20768943Y-124386894D01*
X21229278Y-123927363D01*
X21478716Y-123326648D01*
X21478718Y-123323795D01*
X25258716Y-123323795D01*
X25507106Y-123924943D01*
X25966637Y-124385278D01*
X26567352Y-124634716D01*
X27217795Y-124635284D01*
X27818943Y-124386894D01*
X28279278Y-123927363D01*
X28528716Y-123326648D01*
X28529284Y-122676205D01*
X28280894Y-122075057D01*
X27821363Y-121614722D01*
X27220648Y-121365284D01*
X26570205Y-121364716D01*
X25969057Y-121613106D01*
X25508722Y-122072637D01*
X25259284Y-122673352D01*
X25258716Y-123323795D01*
X21478718Y-123323795D01*
X21479284Y-122676205D01*
X21230894Y-122075057D01*
X20771363Y-121614722D01*
X20170648Y-121365284D01*
X19520205Y-121364716D01*
X18919057Y-121613106D01*
X18458722Y-122072637D01*
X18209284Y-122673352D01*
X18208716Y-123323795D01*
X17982000Y-123323795D01*
X17982000Y-119323795D01*
X20608716Y-119323795D01*
X20857106Y-119924943D01*
X21316637Y-120385278D01*
X21917352Y-120634716D01*
X22567795Y-120635284D01*
X23168943Y-120386894D01*
X23629278Y-119927363D01*
X23878716Y-119326648D01*
X23879284Y-118676205D01*
X23630894Y-118075057D01*
X23171363Y-117614722D01*
X22570648Y-117365284D01*
X21920205Y-117364716D01*
X21319057Y-117613106D01*
X20858722Y-118072637D01*
X20609284Y-118673352D01*
X20608716Y-119323795D01*
X17982000Y-119323795D01*
X17982000Y-116323795D01*
X18208716Y-116323795D01*
X18457106Y-116924943D01*
X18916637Y-117385278D01*
X19517352Y-117634716D01*
X20167795Y-117635284D01*
X20768943Y-117386894D01*
X21229278Y-116927363D01*
X21478716Y-116326648D01*
X21478718Y-116323795D01*
X25258716Y-116323795D01*
X25507106Y-116924943D01*
X25966637Y-117385278D01*
X26567352Y-117634716D01*
X27217795Y-117635284D01*
X27818943Y-117386894D01*
X28279278Y-116927363D01*
X28528716Y-116326648D01*
X28529284Y-115676205D01*
X28280894Y-115075057D01*
X27821363Y-114614722D01*
X27220648Y-114365284D01*
X26570205Y-114364716D01*
X25969057Y-114613106D01*
X25508722Y-115072637D01*
X25259284Y-115673352D01*
X25258716Y-116323795D01*
X21478718Y-116323795D01*
X21479284Y-115676205D01*
X21230894Y-115075057D01*
X20771363Y-114614722D01*
X20170648Y-114365284D01*
X19520205Y-114364716D01*
X18919057Y-114613106D01*
X18458722Y-115072637D01*
X18209284Y-115673352D01*
X18208716Y-116323795D01*
X17982000Y-116323795D01*
X17982000Y-112323795D01*
X20608716Y-112323795D01*
X20857106Y-112924943D01*
X21316637Y-113385278D01*
X21917352Y-113634716D01*
X22567795Y-113635284D01*
X23168943Y-113386894D01*
X23629278Y-112927363D01*
X23878716Y-112326648D01*
X23879284Y-111676205D01*
X23630894Y-111075057D01*
X23171363Y-110614722D01*
X22570648Y-110365284D01*
X21920205Y-110364716D01*
X21319057Y-110613106D01*
X20858722Y-111072637D01*
X20609284Y-111673352D01*
X20608716Y-112323795D01*
X17982000Y-112323795D01*
X17982000Y-109323795D01*
X18208716Y-109323795D01*
X18457106Y-109924943D01*
X18916637Y-110385278D01*
X19517352Y-110634716D01*
X20167795Y-110635284D01*
X20768943Y-110386894D01*
X21229278Y-109927363D01*
X21478716Y-109326648D01*
X21478718Y-109323795D01*
X25258716Y-109323795D01*
X25507106Y-109924943D01*
X25966637Y-110385278D01*
X26567352Y-110634716D01*
X27217795Y-110635284D01*
X27818943Y-110386894D01*
X28279278Y-109927363D01*
X28528716Y-109326648D01*
X28529284Y-108676205D01*
X28280894Y-108075057D01*
X27821363Y-107614722D01*
X27220648Y-107365284D01*
X26570205Y-107364716D01*
X25969057Y-107613106D01*
X25508722Y-108072637D01*
X25259284Y-108673352D01*
X25258716Y-109323795D01*
X21478718Y-109323795D01*
X21479284Y-108676205D01*
X21230894Y-108075057D01*
X20771363Y-107614722D01*
X20170648Y-107365284D01*
X19520205Y-107364716D01*
X18919057Y-107613106D01*
X18458722Y-108072637D01*
X18209284Y-108673352D01*
X18208716Y-109323795D01*
X17982000Y-109323795D01*
X17982000Y-105323795D01*
X20608716Y-105323795D01*
X20857106Y-105924943D01*
X21316637Y-106385278D01*
X21917352Y-106634716D01*
X22567795Y-106635284D01*
X23168943Y-106386894D01*
X23629278Y-105927363D01*
X23878716Y-105326648D01*
X23879284Y-104676205D01*
X23630894Y-104075057D01*
X23171363Y-103614722D01*
X22570648Y-103365284D01*
X21920205Y-103364716D01*
X21319057Y-103613106D01*
X20858722Y-104072637D01*
X20609284Y-104673352D01*
X20608716Y-105323795D01*
X17982000Y-105323795D01*
X17982000Y-102323795D01*
X18208716Y-102323795D01*
X18457106Y-102924943D01*
X18916637Y-103385278D01*
X19517352Y-103634716D01*
X20167795Y-103635284D01*
X20768943Y-103386894D01*
X21229278Y-102927363D01*
X21478716Y-102326648D01*
X21478718Y-102323795D01*
X25258716Y-102323795D01*
X25507106Y-102924943D01*
X25966637Y-103385278D01*
X26567352Y-103634716D01*
X27217795Y-103635284D01*
X27818943Y-103386894D01*
X28279278Y-102927363D01*
X28528716Y-102326648D01*
X28529284Y-101676205D01*
X28280894Y-101075057D01*
X27821363Y-100614722D01*
X27220648Y-100365284D01*
X26570205Y-100364716D01*
X25969057Y-100613106D01*
X25508722Y-101072637D01*
X25259284Y-101673352D01*
X25258716Y-102323795D01*
X21478718Y-102323795D01*
X21479284Y-101676205D01*
X21230894Y-101075057D01*
X20771363Y-100614722D01*
X20170648Y-100365284D01*
X19520205Y-100364716D01*
X18919057Y-100613106D01*
X18458722Y-101072637D01*
X18209284Y-101673352D01*
X18208716Y-102323795D01*
X17982000Y-102323795D01*
X17982000Y-98323795D01*
X20608716Y-98323795D01*
X20857106Y-98924943D01*
X21316637Y-99385278D01*
X21917352Y-99634716D01*
X22567795Y-99635284D01*
X23168943Y-99386894D01*
X23629278Y-98927363D01*
X23878716Y-98326648D01*
X23879284Y-97676205D01*
X23630894Y-97075057D01*
X23171363Y-96614722D01*
X22570648Y-96365284D01*
X21920205Y-96364716D01*
X21319057Y-96613106D01*
X20858722Y-97072637D01*
X20609284Y-97673352D01*
X20608716Y-98323795D01*
X17982000Y-98323795D01*
X17982000Y-95323795D01*
X18208716Y-95323795D01*
X18457106Y-95924943D01*
X18916637Y-96385278D01*
X19517352Y-96634716D01*
X20167795Y-96635284D01*
X20768943Y-96386894D01*
X21229278Y-95927363D01*
X21478716Y-95326648D01*
X21478718Y-95323795D01*
X25258716Y-95323795D01*
X25507106Y-95924943D01*
X25966637Y-96385278D01*
X26567352Y-96634716D01*
X27217795Y-96635284D01*
X27818943Y-96386894D01*
X28279278Y-95927363D01*
X28528716Y-95326648D01*
X28529284Y-94676205D01*
X28280894Y-94075057D01*
X27821363Y-93614722D01*
X27220648Y-93365284D01*
X26570205Y-93364716D01*
X25969057Y-93613106D01*
X25508722Y-94072637D01*
X25259284Y-94673352D01*
X25258716Y-95323795D01*
X21478718Y-95323795D01*
X21479284Y-94676205D01*
X21230894Y-94075057D01*
X20771363Y-93614722D01*
X20170648Y-93365284D01*
X19520205Y-93364716D01*
X18919057Y-93613106D01*
X18458722Y-94072637D01*
X18209284Y-94673352D01*
X18208716Y-95323795D01*
X17982000Y-95323795D01*
X17982000Y-91323795D01*
X20608716Y-91323795D01*
X20857106Y-91924943D01*
X21316637Y-92385278D01*
X21917352Y-92634716D01*
X22567795Y-92635284D01*
X23168943Y-92386894D01*
X23629278Y-91927363D01*
X23878716Y-91326648D01*
X23879284Y-90676205D01*
X23630894Y-90075057D01*
X23171363Y-89614722D01*
X22570648Y-89365284D01*
X21920205Y-89364716D01*
X21319057Y-89613106D01*
X20858722Y-90072637D01*
X20609284Y-90673352D01*
X20608716Y-91323795D01*
X17982000Y-91323795D01*
X17982000Y-88323795D01*
X18208716Y-88323795D01*
X18457106Y-88924943D01*
X18916637Y-89385278D01*
X19517352Y-89634716D01*
X20167795Y-89635284D01*
X20768943Y-89386894D01*
X21229278Y-88927363D01*
X21478716Y-88326648D01*
X21478718Y-88323795D01*
X25258716Y-88323795D01*
X25507106Y-88924943D01*
X25966637Y-89385278D01*
X26567352Y-89634716D01*
X27217795Y-89635284D01*
X27818943Y-89386894D01*
X28279278Y-88927363D01*
X28493156Y-88412285D01*
X28840760Y-88412285D01*
X29051169Y-88921515D01*
X29440436Y-89311461D01*
X29949298Y-89522759D01*
X30500285Y-89523240D01*
X31009515Y-89312831D01*
X31399461Y-88923564D01*
X31610759Y-88414702D01*
X31611240Y-87863715D01*
X31484836Y-87557793D01*
X31787914Y-87432564D01*
X31846580Y-87374000D01*
X36907414Y-87374000D01*
X36881168Y-87437208D01*
X36880833Y-87821108D01*
X37027436Y-88175914D01*
X37298658Y-88447610D01*
X37653208Y-88594832D01*
X37736102Y-88594904D01*
X39167125Y-90025927D01*
X39166833Y-90361108D01*
X39313436Y-90715914D01*
X39584658Y-90987610D01*
X39867071Y-91104878D01*
X39866735Y-91489991D01*
X40099932Y-92054371D01*
X40501182Y-92456323D01*
X40101449Y-92855357D01*
X39867267Y-93419330D01*
X39866735Y-94029991D01*
X39951856Y-94236000D01*
X32826802Y-94236000D01*
X32207096Y-93616294D01*
X32207167Y-93534892D01*
X32060564Y-93180086D01*
X31789342Y-92908390D01*
X31434792Y-92761168D01*
X31050892Y-92760833D01*
X30696086Y-92907436D01*
X30424390Y-93178658D01*
X30277168Y-93533208D01*
X30276878Y-93865044D01*
X29951715Y-93864760D01*
X29442485Y-94075169D01*
X29052539Y-94464436D01*
X28841241Y-94973298D01*
X28840760Y-95524285D01*
X29051169Y-96033515D01*
X29440436Y-96423461D01*
X29949298Y-96634759D01*
X30500285Y-96635240D01*
X31009515Y-96424831D01*
X31399461Y-96035564D01*
X31610759Y-95526702D01*
X31611071Y-95169873D01*
X31974599Y-95533401D01*
X32221160Y-95698148D01*
X32512000Y-95756000D01*
X39951697Y-95756000D01*
X39867267Y-95959330D01*
X39866735Y-96569991D01*
X39951856Y-96776000D01*
X34798000Y-96776000D01*
X34507160Y-96833852D01*
X34260599Y-96998599D01*
X31386294Y-99872904D01*
X31304892Y-99872833D01*
X30950086Y-100019436D01*
X30678390Y-100290658D01*
X30531168Y-100645208D01*
X30531090Y-100735029D01*
X30502702Y-100723241D01*
X29951715Y-100722760D01*
X29442485Y-100933169D01*
X29052539Y-101322436D01*
X28841241Y-101831298D01*
X28840760Y-102382285D01*
X29051169Y-102891515D01*
X29440436Y-103281461D01*
X29949298Y-103492759D01*
X30500285Y-103493240D01*
X31009515Y-103282831D01*
X31399461Y-102893564D01*
X31610759Y-102384702D01*
X31611240Y-101833715D01*
X31598586Y-101803090D01*
X31687108Y-101803167D01*
X32041914Y-101656564D01*
X32313610Y-101385342D01*
X32460832Y-101030792D01*
X32460904Y-100947898D01*
X35112802Y-98296000D01*
X39951697Y-98296000D01*
X39867267Y-98499330D01*
X39866735Y-99109991D01*
X39951856Y-99316000D01*
X38862000Y-99316000D01*
X38571161Y-99373852D01*
X38324599Y-99538599D01*
X31386294Y-106476904D01*
X31304892Y-106476833D01*
X30950086Y-106623436D01*
X30678390Y-106894658D01*
X30531168Y-107249208D01*
X30530868Y-107592937D01*
X30502702Y-107581241D01*
X29951715Y-107580760D01*
X29442485Y-107791169D01*
X29052539Y-108180436D01*
X28841241Y-108689298D01*
X28840760Y-109240285D01*
X29051169Y-109749515D01*
X29440436Y-110139461D01*
X29949298Y-110350759D01*
X30500285Y-110351240D01*
X31009515Y-110140831D01*
X31399461Y-109751564D01*
X31610759Y-109242702D01*
X31611240Y-108691715D01*
X31493598Y-108406998D01*
X31687108Y-108407167D01*
X32041914Y-108260564D01*
X32313610Y-107989342D01*
X32460832Y-107634792D01*
X32460904Y-107551898D01*
X39176802Y-100836000D01*
X39951697Y-100836000D01*
X39867267Y-101039330D01*
X39866735Y-101649991D01*
X40001593Y-101976372D01*
X39848599Y-102078599D01*
X38578599Y-103348599D01*
X38413852Y-103595161D01*
X38356000Y-103886000D01*
X38356000Y-106619198D01*
X31386294Y-113588904D01*
X31304892Y-113588833D01*
X30950086Y-113735436D01*
X30678390Y-114006658D01*
X30531168Y-114361208D01*
X30530868Y-114704937D01*
X30502702Y-114693241D01*
X29951715Y-114692760D01*
X29442485Y-114903169D01*
X29052539Y-115292436D01*
X28841241Y-115801298D01*
X28840760Y-116352285D01*
X29051169Y-116861515D01*
X29440436Y-117251461D01*
X29949298Y-117462759D01*
X30500285Y-117463240D01*
X31009515Y-117252831D01*
X31399461Y-116863564D01*
X31610759Y-116354702D01*
X31611240Y-115803715D01*
X31493598Y-115518998D01*
X31687108Y-115519167D01*
X32041914Y-115372564D01*
X32313610Y-115101342D01*
X32460832Y-114746792D01*
X32460904Y-114663898D01*
X39653401Y-107471401D01*
X39818148Y-107224840D01*
X39876000Y-106934000D01*
X39876000Y-106752414D01*
X40099932Y-107294371D01*
X40501182Y-107696323D01*
X40101449Y-108095357D01*
X39867267Y-108659330D01*
X39866735Y-109269991D01*
X40099932Y-109834371D01*
X40531357Y-110266551D01*
X41095330Y-110500733D01*
X41332259Y-110500939D01*
X31386294Y-120446904D01*
X31304892Y-120446833D01*
X30950086Y-120593436D01*
X30678390Y-120864658D01*
X30531168Y-121219208D01*
X30530868Y-121562937D01*
X30502702Y-121551241D01*
X29951715Y-121550760D01*
X29442485Y-121761169D01*
X29052539Y-122150436D01*
X28841241Y-122659298D01*
X28840760Y-123210285D01*
X29051169Y-123719515D01*
X29440436Y-124109461D01*
X29949298Y-124320759D01*
X30500285Y-124321240D01*
X31009515Y-124110831D01*
X31399461Y-123721564D01*
X31610759Y-123212702D01*
X31611240Y-122661715D01*
X31493598Y-122376998D01*
X31687108Y-122377167D01*
X32041914Y-122230564D01*
X32313610Y-121959342D01*
X32460832Y-121604792D01*
X32460904Y-121521898D01*
X36832000Y-117150802D01*
X36832000Y-121605198D01*
X31386294Y-127050904D01*
X31304892Y-127050833D01*
X30950086Y-127197436D01*
X30678390Y-127468658D01*
X30531168Y-127823208D01*
X30530833Y-128207108D01*
X30677436Y-128561914D01*
X30948658Y-128833610D01*
X31303208Y-128980832D01*
X31687108Y-128981167D01*
X32041914Y-128834564D01*
X32313610Y-128563342D01*
X32460832Y-128208792D01*
X32460904Y-128125898D01*
X34074517Y-126512285D01*
X35444760Y-126512285D01*
X35655169Y-127021515D01*
X36044436Y-127411461D01*
X36553298Y-127622759D01*
X37104285Y-127623240D01*
X37613515Y-127412831D01*
X38003461Y-127023564D01*
X38161774Y-126642302D01*
X46740856Y-126642302D01*
X46768638Y-127197368D01*
X46927603Y-127581143D01*
X47169787Y-127650608D01*
X47970395Y-126850000D01*
X48329605Y-126850000D01*
X49130213Y-127650608D01*
X49372397Y-127581143D01*
X49559144Y-127057698D01*
X49538353Y-126642302D01*
X51740856Y-126642302D01*
X51768638Y-127197368D01*
X51927603Y-127581143D01*
X52169787Y-127650608D01*
X52970395Y-126850000D01*
X52169787Y-126049392D01*
X51927603Y-126118857D01*
X51740856Y-126642302D01*
X49538353Y-126642302D01*
X49531362Y-126502632D01*
X49372397Y-126118857D01*
X49130213Y-126049392D01*
X48329605Y-126850000D01*
X47970395Y-126850000D01*
X47169787Y-126049392D01*
X46927603Y-126118857D01*
X46740856Y-126642302D01*
X38161774Y-126642302D01*
X38214759Y-126514702D01*
X38215240Y-125963715D01*
X38004831Y-125454485D01*
X37793001Y-125242285D01*
X38238760Y-125242285D01*
X38449169Y-125751515D01*
X38838436Y-126141461D01*
X39347298Y-126352759D01*
X39898285Y-126353240D01*
X40407515Y-126142831D01*
X40681035Y-125869787D01*
X47349392Y-125869787D01*
X48150000Y-126670395D01*
X48950608Y-125869787D01*
X52349392Y-125869787D01*
X53150000Y-126670395D01*
X53950608Y-125869787D01*
X53881143Y-125627603D01*
X53357698Y-125440856D01*
X52802632Y-125468638D01*
X52418857Y-125627603D01*
X52349392Y-125869787D01*
X48950608Y-125869787D01*
X48881143Y-125627603D01*
X48357698Y-125440856D01*
X47802632Y-125468638D01*
X47418857Y-125627603D01*
X47349392Y-125869787D01*
X40681035Y-125869787D01*
X40797461Y-125753564D01*
X41008759Y-125244702D01*
X41009240Y-124693715D01*
X40798831Y-124184485D01*
X40409564Y-123794539D01*
X39900702Y-123583241D01*
X39349715Y-123582760D01*
X38840485Y-123793169D01*
X38450539Y-124182436D01*
X38239241Y-124691298D01*
X38238760Y-125242285D01*
X37793001Y-125242285D01*
X37615564Y-125064539D01*
X37106702Y-124853241D01*
X36555715Y-124852760D01*
X36046485Y-125063169D01*
X35656539Y-125452436D01*
X35445241Y-125961298D01*
X35444760Y-126512285D01*
X34074517Y-126512285D01*
X38129401Y-122457401D01*
X38294148Y-122210839D01*
X38352000Y-121920000D01*
X38352000Y-116392802D01*
X41529000Y-113215802D01*
X41529000Y-120396000D01*
X41537685Y-120442159D01*
X41564965Y-120484553D01*
X41606590Y-120512994D01*
X41656000Y-120523000D01*
X43126155Y-120523000D01*
X43022539Y-120626436D01*
X42811241Y-121135298D01*
X42810760Y-121686285D01*
X43021169Y-122195515D01*
X43410436Y-122585461D01*
X43919298Y-122796759D01*
X44470285Y-122797240D01*
X44979515Y-122586831D01*
X45093479Y-122473065D01*
X45093685Y-122474159D01*
X45120965Y-122516553D01*
X45162590Y-122544994D01*
X45212000Y-122555000D01*
X54229000Y-122555000D01*
X54229000Y-126077727D01*
X54130213Y-126049392D01*
X53329605Y-126850000D01*
X54130213Y-127650608D01*
X54229000Y-127622273D01*
X54229000Y-131064000D01*
X54237685Y-131110159D01*
X54264965Y-131152553D01*
X54306590Y-131180994D01*
X54356000Y-131191000D01*
X61468000Y-131191000D01*
X61514159Y-131182315D01*
X61556553Y-131155035D01*
X61584994Y-131113410D01*
X61595000Y-131064000D01*
X61595000Y-128513208D01*
X61842637Y-128761278D01*
X62443352Y-129010716D01*
X63093795Y-129011284D01*
X63694943Y-128762894D01*
X64155278Y-128303363D01*
X64404716Y-127702648D01*
X64405284Y-127052205D01*
X64156894Y-126451057D01*
X63697363Y-125990722D01*
X63096648Y-125741284D01*
X62446205Y-125740716D01*
X61845057Y-125989106D01*
X61595000Y-126238726D01*
X61595000Y-123049795D01*
X65134716Y-123049795D01*
X65383106Y-123650943D01*
X65842637Y-124111278D01*
X66443352Y-124360716D01*
X67093795Y-124361284D01*
X67694943Y-124112894D01*
X68155278Y-123653363D01*
X68292126Y-123323795D01*
X84390716Y-123323795D01*
X84639106Y-123924943D01*
X85098637Y-124385278D01*
X85699352Y-124634716D01*
X86349795Y-124635284D01*
X86950943Y-124386894D01*
X87411278Y-123927363D01*
X87660716Y-123326648D01*
X87661284Y-122676205D01*
X87412894Y-122075057D01*
X86953363Y-121614722D01*
X86352648Y-121365284D01*
X85702205Y-121364716D01*
X85101057Y-121613106D01*
X84640722Y-122072637D01*
X84391284Y-122673352D01*
X84390716Y-123323795D01*
X68292126Y-123323795D01*
X68404716Y-123052648D01*
X68405284Y-122402205D01*
X68156894Y-121801057D01*
X67959291Y-121603108D01*
X69900833Y-121603108D01*
X70047436Y-121957914D01*
X70318658Y-122229610D01*
X70673208Y-122376832D01*
X71057108Y-122377167D01*
X71411914Y-122230564D01*
X71683610Y-121959342D01*
X71830832Y-121604792D01*
X71831167Y-121220892D01*
X71684564Y-120866086D01*
X71658678Y-120840155D01*
X71689208Y-120852832D01*
X72073108Y-120853167D01*
X72427914Y-120706564D01*
X72486580Y-120648000D01*
X76021993Y-120648000D01*
X76143436Y-120941914D01*
X76414658Y-121213610D01*
X76769208Y-121360832D01*
X77153108Y-121361167D01*
X77507914Y-121214564D01*
X77779610Y-120943342D01*
X77926832Y-120588792D01*
X77927122Y-120256956D01*
X78252285Y-120257240D01*
X78761515Y-120046831D01*
X79151461Y-119657564D01*
X79290054Y-119323795D01*
X79740716Y-119323795D01*
X79989106Y-119924943D01*
X80448637Y-120385278D01*
X81049352Y-120634716D01*
X81699795Y-120635284D01*
X82300943Y-120386894D01*
X82761278Y-119927363D01*
X83010716Y-119326648D01*
X83010718Y-119323795D01*
X86790716Y-119323795D01*
X87039106Y-119924943D01*
X87498637Y-120385278D01*
X88099352Y-120634716D01*
X88749795Y-120635284D01*
X89350943Y-120386894D01*
X89811278Y-119927363D01*
X90060716Y-119326648D01*
X90061284Y-118676205D01*
X89812894Y-118075057D01*
X89353363Y-117614722D01*
X88752648Y-117365284D01*
X88102205Y-117364716D01*
X87501057Y-117613106D01*
X87040722Y-118072637D01*
X86791284Y-118673352D01*
X86790716Y-119323795D01*
X83010718Y-119323795D01*
X83011284Y-118676205D01*
X82762894Y-118075057D01*
X82303363Y-117614722D01*
X81702648Y-117365284D01*
X81052205Y-117364716D01*
X80451057Y-117613106D01*
X79990722Y-118072637D01*
X79741284Y-118673352D01*
X79740716Y-119323795D01*
X79290054Y-119323795D01*
X79362759Y-119148702D01*
X79363240Y-118597715D01*
X79152831Y-118088485D01*
X78763564Y-117698539D01*
X78254702Y-117487241D01*
X77703715Y-117486760D01*
X77194485Y-117697169D01*
X76804539Y-118086436D01*
X76593241Y-118595298D01*
X76592760Y-119146285D01*
X76596954Y-119156436D01*
X76454000Y-119128000D01*
X72486851Y-119128000D01*
X72429342Y-119070390D01*
X72074792Y-118923168D01*
X71690892Y-118922833D01*
X71626000Y-118949646D01*
X71626000Y-117929056D01*
X71665914Y-117912564D01*
X71937610Y-117641342D01*
X72084832Y-117286792D01*
X72085167Y-116902892D01*
X71938564Y-116548086D01*
X71714665Y-116323795D01*
X84390716Y-116323795D01*
X84639106Y-116924943D01*
X85098637Y-117385278D01*
X85699352Y-117634716D01*
X86349795Y-117635284D01*
X86950943Y-117386894D01*
X87411278Y-116927363D01*
X87660716Y-116326648D01*
X87661284Y-115676205D01*
X87412894Y-115075057D01*
X86953363Y-114614722D01*
X86352648Y-114365284D01*
X85702205Y-114364716D01*
X85101057Y-114613106D01*
X84640722Y-115072637D01*
X84391284Y-115673352D01*
X84390716Y-116323795D01*
X71714665Y-116323795D01*
X71667342Y-116276390D01*
X71312792Y-116129168D01*
X70928892Y-116128833D01*
X70574086Y-116275436D01*
X70302390Y-116546658D01*
X70155168Y-116901208D01*
X70154993Y-117101698D01*
X70106000Y-117348000D01*
X70106000Y-120807149D01*
X70048390Y-120864658D01*
X69901168Y-121219208D01*
X69900833Y-121603108D01*
X67959291Y-121603108D01*
X67697363Y-121340722D01*
X67096648Y-121091284D01*
X66446205Y-121090716D01*
X65845057Y-121339106D01*
X65384722Y-121798637D01*
X65135284Y-122399352D01*
X65134716Y-123049795D01*
X61595000Y-123049795D01*
X61595000Y-122809000D01*
X64770000Y-122809000D01*
X64816159Y-122800315D01*
X64858553Y-122773035D01*
X64886994Y-122731410D01*
X64897000Y-122682000D01*
X64897000Y-119247416D01*
X64972832Y-119064792D01*
X64972904Y-118981898D01*
X66100802Y-117854000D01*
X67213149Y-117854000D01*
X67270658Y-117911610D01*
X67625208Y-118058832D01*
X67642612Y-118058847D01*
X67288485Y-118205169D01*
X66898539Y-118594436D01*
X66687241Y-119103298D01*
X66686760Y-119654285D01*
X66897169Y-120163515D01*
X67286436Y-120553461D01*
X67795298Y-120764759D01*
X68346285Y-120765240D01*
X68855515Y-120554831D01*
X69245461Y-120165564D01*
X69456759Y-119656702D01*
X69457240Y-119105715D01*
X69246831Y-118596485D01*
X68857564Y-118206539D01*
X68348702Y-117995241D01*
X68164210Y-117995080D01*
X68363914Y-117912564D01*
X68635610Y-117641342D01*
X68782832Y-117286792D01*
X68783167Y-116902892D01*
X68636564Y-116548086D01*
X68365342Y-116276390D01*
X68010792Y-116129168D01*
X67626892Y-116128833D01*
X67272086Y-116275436D01*
X67213420Y-116334000D01*
X65786000Y-116334000D01*
X65495161Y-116391852D01*
X65248599Y-116556599D01*
X64897000Y-116908198D01*
X64897000Y-113030000D01*
X64888315Y-112983841D01*
X64861035Y-112941447D01*
X64819410Y-112913006D01*
X64770000Y-112903000D01*
X53467000Y-112903000D01*
X53467000Y-111556661D01*
X53494758Y-111556661D01*
X53706990Y-112070303D01*
X54099630Y-112463629D01*
X54612900Y-112676757D01*
X55168661Y-112677242D01*
X55682303Y-112465010D01*
X55887457Y-112260213D01*
X58991392Y-112260213D01*
X59060857Y-112502397D01*
X59584302Y-112689144D01*
X60139368Y-112661362D01*
X60523143Y-112502397D01*
X60592608Y-112260213D01*
X59792000Y-111459605D01*
X58991392Y-112260213D01*
X55887457Y-112260213D01*
X56075629Y-112072370D01*
X56288757Y-111559100D01*
X56289181Y-111072302D01*
X58382856Y-111072302D01*
X58410638Y-111627368D01*
X58569603Y-112011143D01*
X58811787Y-112080608D01*
X59612395Y-111280000D01*
X59971605Y-111280000D01*
X60772213Y-112080608D01*
X61014397Y-112011143D01*
X61201144Y-111487698D01*
X61173362Y-110932632D01*
X61014397Y-110548857D01*
X60772213Y-110479392D01*
X59971605Y-111280000D01*
X59612395Y-111280000D01*
X58811787Y-110479392D01*
X58569603Y-110548857D01*
X58382856Y-111072302D01*
X56289181Y-111072302D01*
X56289242Y-111003339D01*
X56077010Y-110489697D01*
X55887432Y-110299787D01*
X58991392Y-110299787D01*
X59792000Y-111100395D01*
X60592608Y-110299787D01*
X60523143Y-110057603D01*
X59999698Y-109870856D01*
X59444632Y-109898638D01*
X59060857Y-110057603D01*
X58991392Y-110299787D01*
X55887432Y-110299787D01*
X55684370Y-110096371D01*
X55171100Y-109883243D01*
X54615339Y-109882758D01*
X54101697Y-110094990D01*
X53708371Y-110487630D01*
X53495243Y-111000900D01*
X53494758Y-111556661D01*
X53467000Y-111556661D01*
X53467000Y-109728000D01*
X53458315Y-109681841D01*
X53431035Y-109639447D01*
X53389410Y-109611006D01*
X53340000Y-109601000D01*
X45143802Y-109601000D01*
X45495401Y-109249401D01*
X45660148Y-109002839D01*
X45718000Y-108712000D01*
X45718000Y-104744851D01*
X45775610Y-104687342D01*
X45922832Y-104332792D01*
X45922833Y-104331108D01*
X49580833Y-104331108D01*
X49727436Y-104685914D01*
X49998658Y-104957610D01*
X50353208Y-105104832D01*
X50737108Y-105105167D01*
X51091914Y-104958564D01*
X51150580Y-104900000D01*
X62156944Y-104900000D01*
X62173436Y-104939914D01*
X62444658Y-105211610D01*
X62799208Y-105358832D01*
X63158004Y-105359145D01*
X62961449Y-105555357D01*
X62727267Y-106119330D01*
X62726735Y-106729991D01*
X62959932Y-107294371D01*
X63361182Y-107696323D01*
X62961449Y-108095357D01*
X62727267Y-108659330D01*
X62726735Y-109269991D01*
X62959932Y-109834371D01*
X63391357Y-110266551D01*
X63955330Y-110500733D01*
X64565991Y-110501265D01*
X65130371Y-110268068D01*
X65479941Y-109919108D01*
X67106833Y-109919108D01*
X67253436Y-110273914D01*
X67524658Y-110545610D01*
X67879208Y-110692832D01*
X67962102Y-110692904D01*
X68804599Y-111535401D01*
X69051160Y-111700148D01*
X69342000Y-111758000D01*
X70106000Y-111758000D01*
X70106000Y-114046000D01*
X70155006Y-114292370D01*
X70154833Y-114491108D01*
X70301436Y-114845914D01*
X70572658Y-115117610D01*
X70927208Y-115264832D01*
X71311108Y-115265167D01*
X71665914Y-115118564D01*
X71937610Y-114847342D01*
X72084832Y-114492792D01*
X72085141Y-114139244D01*
X72173914Y-114102564D01*
X72232580Y-114044000D01*
X76103149Y-114044000D01*
X76160658Y-114101610D01*
X76515208Y-114248832D01*
X76899108Y-114249167D01*
X77253914Y-114102564D01*
X77525610Y-113831342D01*
X77672832Y-113476792D01*
X77673132Y-113133063D01*
X77701298Y-113144759D01*
X78252285Y-113145240D01*
X78761515Y-112934831D01*
X79151461Y-112545564D01*
X79243547Y-112323795D01*
X79740716Y-112323795D01*
X79989106Y-112924943D01*
X80448637Y-113385278D01*
X81049352Y-113634716D01*
X81699795Y-113635284D01*
X82300943Y-113386894D01*
X82761278Y-112927363D01*
X83010716Y-112326648D01*
X83010718Y-112323795D01*
X86790716Y-112323795D01*
X87039106Y-112924943D01*
X87498637Y-113385278D01*
X88099352Y-113634716D01*
X88749795Y-113635284D01*
X89350943Y-113386894D01*
X89811278Y-112927363D01*
X90060716Y-112326648D01*
X90061284Y-111676205D01*
X89812894Y-111075057D01*
X89353363Y-110614722D01*
X88752648Y-110365284D01*
X88102205Y-110364716D01*
X87501057Y-110613106D01*
X87040722Y-111072637D01*
X86791284Y-111673352D01*
X86790716Y-112323795D01*
X83010718Y-112323795D01*
X83011284Y-111676205D01*
X82762894Y-111075057D01*
X82303363Y-110614722D01*
X81702648Y-110365284D01*
X81052205Y-110364716D01*
X80451057Y-110613106D01*
X79990722Y-111072637D01*
X79741284Y-111673352D01*
X79740716Y-112323795D01*
X79243547Y-112323795D01*
X79362759Y-112036702D01*
X79363240Y-111485715D01*
X79152831Y-110976485D01*
X78763564Y-110586539D01*
X78254702Y-110375241D01*
X77703715Y-110374760D01*
X77194485Y-110585169D01*
X76804539Y-110974436D01*
X76593241Y-111483298D01*
X76592760Y-112034285D01*
X76710402Y-112319002D01*
X76516892Y-112318833D01*
X76162086Y-112465436D01*
X76103420Y-112524000D01*
X72232851Y-112524000D01*
X72175342Y-112466390D01*
X71820792Y-112319168D01*
X71626000Y-112318998D01*
X71626000Y-111312802D01*
X71991706Y-110947096D01*
X72073108Y-110947167D01*
X72427914Y-110800564D01*
X72699610Y-110529342D01*
X72846832Y-110174792D01*
X72847167Y-109790892D01*
X72700564Y-109436086D01*
X72588469Y-109323795D01*
X84390716Y-109323795D01*
X84639106Y-109924943D01*
X85098637Y-110385278D01*
X85699352Y-110634716D01*
X86349795Y-110635284D01*
X86950943Y-110386894D01*
X87411278Y-109927363D01*
X87660716Y-109326648D01*
X87661284Y-108676205D01*
X87412894Y-108075057D01*
X86953363Y-107614722D01*
X86352648Y-107365284D01*
X85702205Y-107364716D01*
X85101057Y-107613106D01*
X84640722Y-108072637D01*
X84391284Y-108673352D01*
X84390716Y-109323795D01*
X72588469Y-109323795D01*
X72429342Y-109164390D01*
X72074792Y-109017168D01*
X71690892Y-109016833D01*
X71336086Y-109163436D01*
X71064390Y-109434658D01*
X70917168Y-109789208D01*
X70917096Y-109872102D01*
X70551198Y-110238000D01*
X69656802Y-110238000D01*
X69037096Y-109618294D01*
X69037167Y-109536892D01*
X68890564Y-109182086D01*
X68619342Y-108910390D01*
X68264792Y-108763168D01*
X67880892Y-108762833D01*
X67526086Y-108909436D01*
X67254390Y-109180658D01*
X67107168Y-109535208D01*
X67106833Y-109919108D01*
X65479941Y-109919108D01*
X65562551Y-109836643D01*
X65796733Y-109272670D01*
X65797265Y-108662009D01*
X65564068Y-108097629D01*
X65162818Y-107695677D01*
X65562551Y-107296643D01*
X65796733Y-106732670D01*
X65797054Y-106363108D01*
X69900833Y-106363108D01*
X70047436Y-106717914D01*
X70318658Y-106989610D01*
X70673208Y-107136832D01*
X71057108Y-107137167D01*
X71411914Y-106990564D01*
X71500917Y-106901716D01*
X71588658Y-106989610D01*
X71943208Y-107136832D01*
X72327108Y-107137167D01*
X72681914Y-106990564D01*
X72740580Y-106932000D01*
X76380944Y-106932000D01*
X76397436Y-106971914D01*
X76668658Y-107243610D01*
X77023208Y-107390832D01*
X77407108Y-107391167D01*
X77761914Y-107244564D01*
X78033610Y-106973342D01*
X78180832Y-106618792D01*
X78181121Y-106287178D01*
X78252285Y-106287240D01*
X78761515Y-106076831D01*
X79151461Y-105687564D01*
X79302511Y-105323795D01*
X79740716Y-105323795D01*
X79989106Y-105924943D01*
X80448637Y-106385278D01*
X81049352Y-106634716D01*
X81699795Y-106635284D01*
X82300943Y-106386894D01*
X82761278Y-105927363D01*
X83010716Y-105326648D01*
X83010718Y-105323795D01*
X86790716Y-105323795D01*
X87039106Y-105924943D01*
X87498637Y-106385278D01*
X88099352Y-106634716D01*
X88749795Y-106635284D01*
X89350943Y-106386894D01*
X89811278Y-105927363D01*
X90060716Y-105326648D01*
X90061284Y-104676205D01*
X89812894Y-104075057D01*
X89353363Y-103614722D01*
X88752648Y-103365284D01*
X88102205Y-103364716D01*
X87501057Y-103613106D01*
X87040722Y-104072637D01*
X86791284Y-104673352D01*
X86790716Y-105323795D01*
X83010718Y-105323795D01*
X83011284Y-104676205D01*
X82762894Y-104075057D01*
X82303363Y-103614722D01*
X81702648Y-103365284D01*
X81052205Y-103364716D01*
X80451057Y-103613106D01*
X79990722Y-104072637D01*
X79741284Y-104673352D01*
X79740716Y-105323795D01*
X79302511Y-105323795D01*
X79362759Y-105178702D01*
X79363240Y-104627715D01*
X79152831Y-104118485D01*
X78763564Y-103728539D01*
X78254702Y-103517241D01*
X77703715Y-103516760D01*
X77194485Y-103727169D01*
X76804539Y-104116436D01*
X76593241Y-104625298D01*
X76592760Y-105176285D01*
X76690155Y-105412000D01*
X72740851Y-105412000D01*
X72683342Y-105354390D01*
X72328792Y-105207168D01*
X71944892Y-105206833D01*
X71626000Y-105338597D01*
X71626000Y-104318007D01*
X71919914Y-104196564D01*
X72191610Y-103925342D01*
X72338832Y-103570792D01*
X72339167Y-103186892D01*
X72192564Y-102832086D01*
X71921342Y-102560390D01*
X71566792Y-102413168D01*
X71182892Y-102412833D01*
X70828086Y-102559436D01*
X70556390Y-102830658D01*
X70409168Y-103185208D01*
X70409096Y-103268102D01*
X70328599Y-103348599D01*
X70163852Y-103595161D01*
X70106000Y-103886000D01*
X70106000Y-105567149D01*
X70048390Y-105624658D01*
X69901168Y-105979208D01*
X69900833Y-106363108D01*
X65797054Y-106363108D01*
X65797265Y-106122009D01*
X65564068Y-105557629D01*
X65162818Y-105155677D01*
X65562551Y-104756643D01*
X65796733Y-104192670D01*
X65797265Y-103582009D01*
X65564068Y-103017629D01*
X65162818Y-102615677D01*
X65455211Y-102323795D01*
X84390716Y-102323795D01*
X84639106Y-102924943D01*
X85098637Y-103385278D01*
X85699352Y-103634716D01*
X86349795Y-103635284D01*
X86950943Y-103386894D01*
X87411278Y-102927363D01*
X87660716Y-102326648D01*
X87661284Y-101676205D01*
X87412894Y-101075057D01*
X86953363Y-100614722D01*
X86352648Y-100365284D01*
X85702205Y-100364716D01*
X85101057Y-100613106D01*
X84640722Y-101072637D01*
X84391284Y-101673352D01*
X84390716Y-102323795D01*
X65455211Y-102323795D01*
X65562551Y-102216643D01*
X65796733Y-101652670D01*
X65797265Y-101042009D01*
X65564068Y-100477629D01*
X65162818Y-100075677D01*
X65562551Y-99676643D01*
X65796733Y-99112670D01*
X65797265Y-98502009D01*
X65564068Y-97937629D01*
X65162818Y-97535677D01*
X65562551Y-97136643D01*
X65796733Y-96572670D01*
X65796833Y-96457108D01*
X69900833Y-96457108D01*
X70047436Y-96811914D01*
X70106000Y-96870580D01*
X70106000Y-99725149D01*
X70048390Y-99782658D01*
X69901168Y-100137208D01*
X69900833Y-100521108D01*
X70047436Y-100875914D01*
X70318658Y-101147610D01*
X70673208Y-101294832D01*
X71057108Y-101295167D01*
X71411914Y-101148564D01*
X71683610Y-100877342D01*
X71830832Y-100522792D01*
X71831167Y-100138892D01*
X71784073Y-100024915D01*
X72073108Y-100025167D01*
X72427914Y-99878564D01*
X72486580Y-99820000D01*
X76888944Y-99820000D01*
X76905436Y-99859914D01*
X77176658Y-100131610D01*
X77531208Y-100278832D01*
X77915108Y-100279167D01*
X78269914Y-100132564D01*
X78541610Y-99861342D01*
X78688832Y-99506792D01*
X78689167Y-99122892D01*
X78643932Y-99013415D01*
X78761515Y-98964831D01*
X79151461Y-98575564D01*
X79256004Y-98323795D01*
X79740716Y-98323795D01*
X79989106Y-98924943D01*
X80448637Y-99385278D01*
X81049352Y-99634716D01*
X81699795Y-99635284D01*
X82300943Y-99386894D01*
X82761278Y-98927363D01*
X83010716Y-98326648D01*
X83010718Y-98323795D01*
X86790716Y-98323795D01*
X87039106Y-98924943D01*
X87498637Y-99385278D01*
X88099352Y-99634716D01*
X88749795Y-99635284D01*
X89350943Y-99386894D01*
X89811278Y-98927363D01*
X90060716Y-98326648D01*
X90061284Y-97676205D01*
X89812894Y-97075057D01*
X89353363Y-96614722D01*
X88752648Y-96365284D01*
X88102205Y-96364716D01*
X87501057Y-96613106D01*
X87040722Y-97072637D01*
X86791284Y-97673352D01*
X86790716Y-98323795D01*
X83010718Y-98323795D01*
X83011284Y-97676205D01*
X82762894Y-97075057D01*
X82303363Y-96614722D01*
X81702648Y-96365284D01*
X81052205Y-96364716D01*
X80451057Y-96613106D01*
X79990722Y-97072637D01*
X79741284Y-97673352D01*
X79740716Y-98323795D01*
X79256004Y-98323795D01*
X79362759Y-98066702D01*
X79363240Y-97515715D01*
X79152831Y-97006485D01*
X78763564Y-96616539D01*
X78254702Y-96405241D01*
X77703715Y-96404760D01*
X77194485Y-96615169D01*
X76804539Y-97004436D01*
X76593241Y-97513298D01*
X76592760Y-98064285D01*
X76690155Y-98300000D01*
X72486851Y-98300000D01*
X72429342Y-98242390D01*
X72074792Y-98095168D01*
X71690892Y-98094833D01*
X71626000Y-98121646D01*
X71626000Y-96870851D01*
X71683610Y-96813342D01*
X71830832Y-96458792D01*
X71831167Y-96074892D01*
X71684564Y-95720086D01*
X71413342Y-95448390D01*
X71113284Y-95323795D01*
X84390716Y-95323795D01*
X84639106Y-95924943D01*
X85098637Y-96385278D01*
X85699352Y-96634716D01*
X86349795Y-96635284D01*
X86950943Y-96386894D01*
X87411278Y-95927363D01*
X87660716Y-95326648D01*
X87661284Y-94676205D01*
X87412894Y-94075057D01*
X86953363Y-93614722D01*
X86352648Y-93365284D01*
X85702205Y-93364716D01*
X85101057Y-93613106D01*
X84640722Y-94072637D01*
X84391284Y-94673352D01*
X84390716Y-95323795D01*
X71113284Y-95323795D01*
X71058792Y-95301168D01*
X70674892Y-95300833D01*
X70320086Y-95447436D01*
X70048390Y-95718658D01*
X69901168Y-96073208D01*
X69900833Y-96457108D01*
X65796833Y-96457108D01*
X65797265Y-95962009D01*
X65564068Y-95397629D01*
X65132643Y-94965449D01*
X65111806Y-94956797D01*
X65162554Y-94806159D01*
X64262000Y-93905605D01*
X63361446Y-94806159D01*
X63412035Y-94956327D01*
X63393629Y-94963932D01*
X62961449Y-95395357D01*
X62810547Y-95758769D01*
X62794564Y-95720086D01*
X62523342Y-95448390D01*
X62168792Y-95301168D01*
X61784892Y-95300833D01*
X61430086Y-95447436D01*
X61371420Y-95506000D01*
X55214851Y-95506000D01*
X55157342Y-95448390D01*
X54802792Y-95301168D01*
X54418892Y-95300833D01*
X54064086Y-95447436D01*
X53792390Y-95718658D01*
X53645168Y-96073208D01*
X53644833Y-96457108D01*
X53791436Y-96811914D01*
X54062658Y-97083610D01*
X54417208Y-97230832D01*
X54801108Y-97231167D01*
X55155914Y-97084564D01*
X55214580Y-97026000D01*
X61371149Y-97026000D01*
X61428658Y-97083610D01*
X61783208Y-97230832D01*
X62167108Y-97231167D01*
X62521914Y-97084564D01*
X62793610Y-96813342D01*
X62810489Y-96772692D01*
X62959932Y-97134371D01*
X63361182Y-97536323D01*
X62961449Y-97935357D01*
X62952945Y-97955837D01*
X62676792Y-97841168D01*
X62292892Y-97840833D01*
X61938086Y-97987436D01*
X61879420Y-98046000D01*
X56738851Y-98046000D01*
X56681342Y-97988390D01*
X56326792Y-97841168D01*
X55942892Y-97840833D01*
X55588086Y-97987436D01*
X55316390Y-98258658D01*
X55169168Y-98613208D01*
X55168833Y-98997108D01*
X55315436Y-99351914D01*
X55586658Y-99623610D01*
X55941208Y-99770832D01*
X56325108Y-99771167D01*
X56679914Y-99624564D01*
X56738580Y-99566000D01*
X61879149Y-99566000D01*
X61936658Y-99623610D01*
X62291208Y-99770832D01*
X62675108Y-99771167D01*
X62952559Y-99656527D01*
X62959932Y-99674371D01*
X63361182Y-100076323D01*
X62961449Y-100475357D01*
X62915506Y-100586000D01*
X53182851Y-100586000D01*
X53125342Y-100528390D01*
X52770792Y-100381168D01*
X52386892Y-100380833D01*
X52032086Y-100527436D01*
X51760390Y-100798658D01*
X51613168Y-101153208D01*
X51612833Y-101537108D01*
X51759436Y-101891914D01*
X52030658Y-102163610D01*
X52385208Y-102310832D01*
X52769108Y-102311167D01*
X53123914Y-102164564D01*
X53182580Y-102106000D01*
X62915154Y-102106000D01*
X62959932Y-102214371D01*
X63361182Y-102616323D01*
X62961449Y-103015357D01*
X62804540Y-103393236D01*
X62738000Y-103380000D01*
X51150851Y-103380000D01*
X51093342Y-103322390D01*
X50738792Y-103175168D01*
X50354892Y-103174833D01*
X50000086Y-103321436D01*
X49728390Y-103592658D01*
X49581168Y-103947208D01*
X49580833Y-104331108D01*
X45922833Y-104331108D01*
X45923167Y-103948892D01*
X45776564Y-103594086D01*
X45505342Y-103322390D01*
X45160952Y-103179387D01*
X45161167Y-102932892D01*
X45014564Y-102578086D01*
X44780844Y-102343958D01*
X46845706Y-100279096D01*
X46927108Y-100279167D01*
X47281914Y-100132564D01*
X47553610Y-99861342D01*
X47700832Y-99506792D01*
X47701167Y-99122892D01*
X47554564Y-98768086D01*
X47465716Y-98679083D01*
X47553610Y-98591342D01*
X47700832Y-98236792D01*
X47701167Y-97852892D01*
X47554564Y-97498086D01*
X47322676Y-97265793D01*
X47446832Y-96966792D01*
X47447167Y-96582892D01*
X47300564Y-96228086D01*
X47084716Y-96011861D01*
X47299610Y-95797342D01*
X47446832Y-95442792D01*
X47447167Y-95058892D01*
X47300564Y-94704086D01*
X47029342Y-94432390D01*
X46674792Y-94285168D01*
X46474302Y-94284993D01*
X46228000Y-94236000D01*
X42852303Y-94236000D01*
X42936733Y-94032670D01*
X42937265Y-93422009D01*
X42704068Y-92857629D01*
X42302818Y-92455677D01*
X42702551Y-92056643D01*
X42936733Y-91492670D01*
X42937265Y-90882009D01*
X42704068Y-90317629D01*
X42272643Y-89885449D01*
X41708670Y-89651267D01*
X41098009Y-89650735D01*
X40981471Y-89698887D01*
X40950564Y-89624086D01*
X40679342Y-89352390D01*
X40617522Y-89326720D01*
X38811096Y-87520294D01*
X38811167Y-87438892D01*
X38784354Y-87374000D01*
X44897198Y-87374000D01*
X50040000Y-92516802D01*
X50040000Y-93375149D01*
X49982390Y-93432658D01*
X49835168Y-93787208D01*
X49834833Y-94171108D01*
X49981436Y-94525914D01*
X50252658Y-94797610D01*
X50607208Y-94944832D01*
X50991108Y-94945167D01*
X51345914Y-94798564D01*
X51617610Y-94527342D01*
X51764832Y-94172792D01*
X51764833Y-94171108D01*
X58978833Y-94171108D01*
X59125436Y-94525914D01*
X59396658Y-94797610D01*
X59751208Y-94944832D01*
X60135108Y-94945167D01*
X60489914Y-94798564D01*
X60761610Y-94527342D01*
X60908832Y-94172792D01*
X60909167Y-93788892D01*
X60783741Y-93485336D01*
X62715542Y-93485336D01*
X62741161Y-94095460D01*
X62925357Y-94540148D01*
X63181841Y-94626554D01*
X64082395Y-93726000D01*
X64441605Y-93726000D01*
X65342159Y-94626554D01*
X65598643Y-94540148D01*
X65808458Y-93966664D01*
X65782839Y-93356540D01*
X65598643Y-92911852D01*
X65342159Y-92825446D01*
X64441605Y-93726000D01*
X64082395Y-93726000D01*
X63181841Y-92825446D01*
X62925357Y-92911852D01*
X62715542Y-93485336D01*
X60783741Y-93485336D01*
X60762564Y-93434086D01*
X60704000Y-93375420D01*
X60704000Y-91489991D01*
X62726735Y-91489991D01*
X62959932Y-92054371D01*
X63391357Y-92486551D01*
X63412194Y-92495203D01*
X63361446Y-92645841D01*
X64262000Y-93546395D01*
X65162554Y-92645841D01*
X65111965Y-92495673D01*
X65130371Y-92488068D01*
X65562551Y-92056643D01*
X65796733Y-91492670D01*
X65797063Y-91114010D01*
X65847208Y-91134832D01*
X66231108Y-91135167D01*
X66585914Y-90988564D01*
X66857610Y-90717342D01*
X67004832Y-90362792D01*
X67005167Y-89978892D01*
X66953195Y-89853108D01*
X69900833Y-89853108D01*
X70047436Y-90207914D01*
X70106000Y-90266580D01*
X70106000Y-93629149D01*
X70048390Y-93686658D01*
X69901168Y-94041208D01*
X69900833Y-94425108D01*
X70047436Y-94779914D01*
X70318658Y-95051610D01*
X70673208Y-95198832D01*
X71057108Y-95199167D01*
X71411914Y-95052564D01*
X71683610Y-94781342D01*
X71830832Y-94426792D01*
X71831167Y-94042892D01*
X71684564Y-93688086D01*
X71626000Y-93629420D01*
X71626000Y-92781116D01*
X71943208Y-92912832D01*
X72327108Y-92913167D01*
X72681914Y-92766564D01*
X72740580Y-92708000D01*
X77037993Y-92708000D01*
X77159436Y-93001914D01*
X77430658Y-93273610D01*
X77785208Y-93420832D01*
X78169108Y-93421167D01*
X78523914Y-93274564D01*
X78795610Y-93003342D01*
X78942832Y-92648792D01*
X78943167Y-92264892D01*
X78843883Y-92024606D01*
X79151461Y-91717564D01*
X79314968Y-91323795D01*
X79740716Y-91323795D01*
X79989106Y-91924943D01*
X80448637Y-92385278D01*
X81049352Y-92634716D01*
X81699795Y-92635284D01*
X82300943Y-92386894D01*
X82761278Y-91927363D01*
X83010716Y-91326648D01*
X83010718Y-91323795D01*
X86790716Y-91323795D01*
X87039106Y-91924943D01*
X87498637Y-92385278D01*
X88099352Y-92634716D01*
X88749795Y-92635284D01*
X89350943Y-92386894D01*
X89811278Y-91927363D01*
X90060716Y-91326648D01*
X90061284Y-90676205D01*
X89812894Y-90075057D01*
X89353363Y-89614722D01*
X88752648Y-89365284D01*
X88102205Y-89364716D01*
X87501057Y-89613106D01*
X87040722Y-90072637D01*
X86791284Y-90673352D01*
X86790716Y-91323795D01*
X83010718Y-91323795D01*
X83011284Y-90676205D01*
X82762894Y-90075057D01*
X82303363Y-89614722D01*
X81702648Y-89365284D01*
X81052205Y-89364716D01*
X80451057Y-89613106D01*
X79990722Y-90072637D01*
X79741284Y-90673352D01*
X79740716Y-91323795D01*
X79314968Y-91323795D01*
X79362759Y-91208702D01*
X79363240Y-90657715D01*
X79152831Y-90148485D01*
X78763564Y-89758539D01*
X78254702Y-89547241D01*
X77703715Y-89546760D01*
X77194485Y-89757169D01*
X76804539Y-90146436D01*
X76593241Y-90655298D01*
X76592776Y-91188000D01*
X72740851Y-91188000D01*
X72683342Y-91130390D01*
X72328792Y-90983168D01*
X71944892Y-90982833D01*
X71626000Y-91114597D01*
X71626000Y-90266851D01*
X71683610Y-90209342D01*
X71830832Y-89854792D01*
X71831167Y-89470892D01*
X71684564Y-89116086D01*
X71413342Y-88844390D01*
X71058792Y-88697168D01*
X70674892Y-88696833D01*
X70320086Y-88843436D01*
X70048390Y-89114658D01*
X69901168Y-89469208D01*
X69900833Y-89853108D01*
X66953195Y-89853108D01*
X66858564Y-89624086D01*
X66587342Y-89352390D01*
X66232792Y-89205168D01*
X66149898Y-89205096D01*
X65530000Y-88585198D01*
X65530000Y-88323795D01*
X84390716Y-88323795D01*
X84639106Y-88924943D01*
X85098637Y-89385278D01*
X85699352Y-89634716D01*
X86349795Y-89635284D01*
X86950943Y-89386894D01*
X87411278Y-88927363D01*
X87660716Y-88326648D01*
X87661284Y-87676205D01*
X87412894Y-87075057D01*
X86953363Y-86614722D01*
X86352648Y-86365284D01*
X85702205Y-86364716D01*
X85101057Y-86613106D01*
X84640722Y-87072637D01*
X84391284Y-87673352D01*
X84390716Y-88323795D01*
X65530000Y-88323795D01*
X65530000Y-85281108D01*
X71170833Y-85281108D01*
X71317436Y-85635914D01*
X71588658Y-85907610D01*
X71943208Y-86054832D01*
X72327108Y-86055167D01*
X72681914Y-85908564D01*
X72740580Y-85850000D01*
X77037993Y-85850000D01*
X77159436Y-86143914D01*
X77430658Y-86415610D01*
X77785208Y-86562832D01*
X78169108Y-86563167D01*
X78523914Y-86416564D01*
X78795610Y-86145342D01*
X78942832Y-85790792D01*
X78943167Y-85406892D01*
X78796564Y-85052086D01*
X78745864Y-85001298D01*
X78761515Y-84994831D01*
X79151461Y-84605564D01*
X79362759Y-84096702D01*
X79363240Y-83545715D01*
X79152831Y-83036485D01*
X78763564Y-82646539D01*
X78254702Y-82435241D01*
X77703715Y-82434760D01*
X77194485Y-82645169D01*
X76804539Y-83034436D01*
X76593241Y-83543298D01*
X76592760Y-84094285D01*
X76690155Y-84330000D01*
X72740851Y-84330000D01*
X72683342Y-84272390D01*
X72328792Y-84125168D01*
X71944892Y-84124833D01*
X71590086Y-84271436D01*
X71318390Y-84542658D01*
X71171168Y-84897208D01*
X71170833Y-85281108D01*
X65530000Y-85281108D01*
X65530000Y-84678851D01*
X65587610Y-84621342D01*
X65734832Y-84266792D01*
X65735167Y-83882892D01*
X65588564Y-83528086D01*
X65317342Y-83256390D01*
X64962792Y-83109168D01*
X64578892Y-83108833D01*
X64224086Y-83255436D01*
X63952390Y-83526658D01*
X63805168Y-83881208D01*
X63804833Y-84265108D01*
X63951436Y-84619914D01*
X64010000Y-84678580D01*
X64010000Y-88900000D01*
X64067852Y-89190839D01*
X64232599Y-89437401D01*
X64446358Y-89651160D01*
X63958009Y-89650735D01*
X63393629Y-89883932D01*
X62961449Y-90315357D01*
X62727267Y-90879330D01*
X62726735Y-91489991D01*
X60704000Y-91489991D01*
X60704000Y-89864998D01*
X60897108Y-89865167D01*
X61251914Y-89718564D01*
X61310580Y-89660000D01*
X61722000Y-89660000D01*
X62012839Y-89602148D01*
X62259401Y-89437401D01*
X62593706Y-89103096D01*
X62675108Y-89103167D01*
X63029914Y-88956564D01*
X63301610Y-88685342D01*
X63448832Y-88330792D01*
X63449167Y-87946892D01*
X63302564Y-87592086D01*
X63031342Y-87320390D01*
X62676792Y-87173168D01*
X62292892Y-87172833D01*
X61938086Y-87319436D01*
X61666390Y-87590658D01*
X61519168Y-87945208D01*
X61519096Y-88028102D01*
X61407198Y-88140000D01*
X61310851Y-88140000D01*
X61253342Y-88082390D01*
X60898792Y-87935168D01*
X60704000Y-87934998D01*
X60704000Y-86284007D01*
X60997914Y-86162564D01*
X61269610Y-85891342D01*
X61416832Y-85536792D01*
X61417167Y-85152892D01*
X61270564Y-84798086D01*
X60999342Y-84526390D01*
X60644792Y-84379168D01*
X60260892Y-84378833D01*
X59906086Y-84525436D01*
X59634390Y-84796658D01*
X59487168Y-85151208D01*
X59487096Y-85234102D01*
X59406599Y-85314599D01*
X59241852Y-85561161D01*
X59184000Y-85852000D01*
X59184000Y-93375149D01*
X59126390Y-93432658D01*
X58979168Y-93787208D01*
X58978833Y-94171108D01*
X51764833Y-94171108D01*
X51765167Y-93788892D01*
X51618564Y-93434086D01*
X51560000Y-93375420D01*
X51560000Y-92202000D01*
X51540797Y-92105461D01*
X51502148Y-91911160D01*
X51337401Y-91664599D01*
X45767773Y-86094971D01*
X46082303Y-85965010D01*
X46287457Y-85760213D01*
X54191392Y-85760213D01*
X54260857Y-86002397D01*
X54784302Y-86189144D01*
X55339368Y-86161362D01*
X55723143Y-86002397D01*
X55792608Y-85760213D01*
X54992000Y-84959605D01*
X54191392Y-85760213D01*
X46287457Y-85760213D01*
X46475629Y-85572370D01*
X46688757Y-85059100D01*
X46689181Y-84572302D01*
X53582856Y-84572302D01*
X53610638Y-85127368D01*
X53769603Y-85511143D01*
X54011787Y-85580608D01*
X54812395Y-84780000D01*
X55171605Y-84780000D01*
X55972213Y-85580608D01*
X56214397Y-85511143D01*
X56401144Y-84987698D01*
X56373362Y-84432632D01*
X56214397Y-84048857D01*
X55972213Y-83979392D01*
X55171605Y-84780000D01*
X54812395Y-84780000D01*
X54011787Y-83979392D01*
X53769603Y-84048857D01*
X53582856Y-84572302D01*
X46689181Y-84572302D01*
X46689242Y-84503339D01*
X46477010Y-83989697D01*
X46287432Y-83799787D01*
X54191392Y-83799787D01*
X54992000Y-84600395D01*
X55792608Y-83799787D01*
X55723143Y-83557603D01*
X55199698Y-83370856D01*
X54644632Y-83398638D01*
X54260857Y-83557603D01*
X54191392Y-83799787D01*
X46287432Y-83799787D01*
X46084370Y-83596371D01*
X45571100Y-83383243D01*
X45015339Y-83382758D01*
X44501697Y-83594990D01*
X44108371Y-83987630D01*
X43895243Y-84500900D01*
X43894758Y-85056661D01*
X44106990Y-85570303D01*
X44390192Y-85854000D01*
X38784586Y-85854000D01*
X38810832Y-85790792D01*
X38811167Y-85406892D01*
X38664564Y-85052086D01*
X38606000Y-84993420D01*
X38606000Y-84836000D01*
X38548148Y-84545161D01*
X38383401Y-84298599D01*
X37795096Y-83710294D01*
X37795167Y-83628892D01*
X37648564Y-83274086D01*
X37377342Y-83002390D01*
X37022792Y-82855168D01*
X36638892Y-82854833D01*
X36284086Y-83001436D01*
X36012390Y-83272658D01*
X35865168Y-83627208D01*
X35864833Y-84011108D01*
X36011436Y-84365914D01*
X36282658Y-84637610D01*
X36637208Y-84784832D01*
X36720102Y-84784904D01*
X37015910Y-85080712D01*
X36881168Y-85405208D01*
X36880833Y-85789108D01*
X36907646Y-85854000D01*
X31846851Y-85854000D01*
X31789342Y-85796390D01*
X31434792Y-85649168D01*
X31050892Y-85648833D01*
X30696086Y-85795436D01*
X30424390Y-86066658D01*
X30277168Y-86421208D01*
X30276878Y-86753044D01*
X29951715Y-86752760D01*
X29442485Y-86963169D01*
X29052539Y-87352436D01*
X28841241Y-87861298D01*
X28840760Y-88412285D01*
X28493156Y-88412285D01*
X28528716Y-88326648D01*
X28529284Y-87676205D01*
X28280894Y-87075057D01*
X27821363Y-86614722D01*
X27220648Y-86365284D01*
X26570205Y-86364716D01*
X25969057Y-86613106D01*
X25508722Y-87072637D01*
X25259284Y-87673352D01*
X25258716Y-88323795D01*
X21478718Y-88323795D01*
X21479284Y-87676205D01*
X21230894Y-87075057D01*
X20771363Y-86614722D01*
X20170648Y-86365284D01*
X19520205Y-86364716D01*
X18919057Y-86613106D01*
X18458722Y-87072637D01*
X18209284Y-87673352D01*
X18208716Y-88323795D01*
X17982000Y-88323795D01*
X17982000Y-82423000D01*
X21779147Y-82423000D01*
X21319057Y-82613106D01*
X21319057Y-82613106D01*
G37*
X21319057Y-82613106D02*
X20858722Y-83072637D01*
X20609284Y-83673352D01*
X20608716Y-84323795D01*
X20857106Y-84924943D01*
X21316637Y-85385278D01*
X21917352Y-85634716D01*
X22567795Y-85635284D01*
X23168943Y-85386894D01*
X23629278Y-84927363D01*
X23878716Y-84326648D01*
X23879284Y-83676205D01*
X23630894Y-83075057D01*
X23171363Y-82614722D01*
X22709644Y-82423000D01*
X80911147Y-82423000D01*
X80451057Y-82613106D01*
X79990722Y-83072637D01*
X79741284Y-83673352D01*
X79740716Y-84323795D01*
X79989106Y-84924943D01*
X80448637Y-85385278D01*
X81049352Y-85634716D01*
X81699795Y-85635284D01*
X82300943Y-85386894D01*
X82761278Y-84927363D01*
X83010716Y-84326648D01*
X83011284Y-83676205D01*
X82762894Y-83075057D01*
X82303363Y-82614722D01*
X81841644Y-82423000D01*
X87961147Y-82423000D01*
X87501057Y-82613106D01*
X87040722Y-83072637D01*
X86791284Y-83673352D01*
X86790716Y-84323795D01*
X87039106Y-84924943D01*
X87498637Y-85385278D01*
X88099352Y-85634716D01*
X88749795Y-85635284D01*
X89350943Y-85386894D01*
X89811278Y-84927363D01*
X90060716Y-84326648D01*
X90061284Y-83676205D01*
X89812894Y-83075057D01*
X89353363Y-82614722D01*
X88891644Y-82423000D01*
X90222000Y-82423000D01*
X90222000Y-131624000D01*
X86377104Y-131624000D01*
X86950943Y-131386894D01*
X87411278Y-130927363D01*
X87660716Y-130326648D01*
X87661284Y-129676205D01*
X87412894Y-129075057D01*
X86953363Y-128614722D01*
X86352648Y-128365284D01*
X85702205Y-128364716D01*
X85101057Y-128613106D01*
X84640722Y-129072637D01*
X84391284Y-129673352D01*
X84390716Y-130323795D01*
X84639106Y-130924943D01*
X85098637Y-131385278D01*
X85673545Y-131624000D01*
X72112968Y-131624000D01*
X72505816Y-131231837D01*
X72892559Y-130300455D01*
X72893439Y-129291969D01*
X72508322Y-128359914D01*
X72102245Y-127953128D01*
X72427914Y-127818564D01*
X72486580Y-127760000D01*
X75872944Y-127760000D01*
X75889436Y-127799914D01*
X76160658Y-128071610D01*
X76515208Y-128218832D01*
X76899108Y-128219167D01*
X77253914Y-128072564D01*
X77525610Y-127801342D01*
X77672832Y-127446792D01*
X77672910Y-127356971D01*
X77701298Y-127368759D01*
X78252285Y-127369240D01*
X78761515Y-127158831D01*
X79151461Y-126769564D01*
X79336560Y-126323795D01*
X79740716Y-126323795D01*
X79989106Y-126924943D01*
X80448637Y-127385278D01*
X81049352Y-127634716D01*
X81699795Y-127635284D01*
X82300943Y-127386894D01*
X82761278Y-126927363D01*
X83010716Y-126326648D01*
X83010718Y-126323795D01*
X86790716Y-126323795D01*
X87039106Y-126924943D01*
X87498637Y-127385278D01*
X88099352Y-127634716D01*
X88749795Y-127635284D01*
X89350943Y-127386894D01*
X89811278Y-126927363D01*
X90060716Y-126326648D01*
X90061284Y-125676205D01*
X89812894Y-125075057D01*
X89353363Y-124614722D01*
X88752648Y-124365284D01*
X88102205Y-124364716D01*
X87501057Y-124613106D01*
X87040722Y-125072637D01*
X86791284Y-125673352D01*
X86790716Y-126323795D01*
X83010718Y-126323795D01*
X83011284Y-125676205D01*
X82762894Y-125075057D01*
X82303363Y-124614722D01*
X81702648Y-124365284D01*
X81052205Y-124364716D01*
X80451057Y-124613106D01*
X79990722Y-125072637D01*
X79741284Y-125673352D01*
X79740716Y-126323795D01*
X79336560Y-126323795D01*
X79362759Y-126260702D01*
X79363240Y-125709715D01*
X79152831Y-125200485D01*
X78763564Y-124810539D01*
X78254702Y-124599241D01*
X77703715Y-124598760D01*
X77194485Y-124809169D01*
X76804539Y-125198436D01*
X76593241Y-125707298D01*
X76592760Y-126258285D01*
X76596954Y-126268436D01*
X76454000Y-126240000D01*
X72486851Y-126240000D01*
X72429342Y-126182390D01*
X72074792Y-126035168D01*
X71690892Y-126034833D01*
X71336086Y-126181436D01*
X71064390Y-126452658D01*
X70917168Y-126807208D01*
X70916833Y-127191108D01*
X70961763Y-127299847D01*
X70864455Y-127259441D01*
X69855969Y-127258561D01*
X68923914Y-127643678D01*
X68210184Y-128356163D01*
X68049400Y-128743375D01*
X67697363Y-128390722D01*
X67096648Y-128141284D01*
X66446205Y-128140716D01*
X65845057Y-128389106D01*
X65384722Y-128848637D01*
X65135284Y-129449352D01*
X65134716Y-130099795D01*
X65383106Y-130700943D01*
X65842637Y-131161278D01*
X66443352Y-131410716D01*
X67093795Y-131411284D01*
X67694943Y-131162894D01*
X68038878Y-130819559D01*
X68207678Y-131228086D01*
X68602901Y-131624000D01*
X41378968Y-131624000D01*
X41771816Y-131231837D01*
X41965448Y-130765517D01*
X43150088Y-130765517D01*
X43218077Y-131006460D01*
X43737171Y-131191201D01*
X44287448Y-131163230D01*
X44665923Y-131006460D01*
X44733912Y-130765517D01*
X43942000Y-129973605D01*
X43150088Y-130765517D01*
X41965448Y-130765517D01*
X42158559Y-130300455D01*
X42159179Y-129589171D01*
X42544799Y-129589171D01*
X42572770Y-130139448D01*
X42729540Y-130517923D01*
X42970483Y-130585912D01*
X43762395Y-129794000D01*
X44121605Y-129794000D01*
X44913517Y-130585912D01*
X45154460Y-130517923D01*
X45339201Y-129998829D01*
X45311230Y-129448552D01*
X45154460Y-129070077D01*
X44913517Y-129002088D01*
X44121605Y-129794000D01*
X43762395Y-129794000D01*
X42970483Y-129002088D01*
X42729540Y-129070077D01*
X42544799Y-129589171D01*
X42159179Y-129589171D01*
X42159439Y-129291969D01*
X41965452Y-128822483D01*
X43150088Y-128822483D01*
X43942000Y-129614395D01*
X44733912Y-128822483D01*
X44665923Y-128581540D01*
X44146829Y-128396799D01*
X43596552Y-128424770D01*
X43218077Y-128581540D01*
X43150088Y-128822483D01*
X41965452Y-128822483D01*
X41774322Y-128359914D01*
X41245545Y-127830213D01*
X47349392Y-127830213D01*
X47418857Y-128072397D01*
X47942302Y-128259144D01*
X48497368Y-128231362D01*
X48881143Y-128072397D01*
X48950608Y-127830213D01*
X52349392Y-127830213D01*
X52418857Y-128072397D01*
X52942302Y-128259144D01*
X53497368Y-128231362D01*
X53881143Y-128072397D01*
X53950608Y-127830213D01*
X53150000Y-127029605D01*
X52349392Y-127830213D01*
X48950608Y-127830213D01*
X48150000Y-127029605D01*
X47349392Y-127830213D01*
X41245545Y-127830213D01*
X41061837Y-127646184D01*
X40130455Y-127259441D01*
X39121969Y-127258561D01*
X38189914Y-127643678D01*
X37476184Y-128356163D01*
X37089441Y-129287545D01*
X37088561Y-130296031D01*
X37473678Y-131228086D01*
X37868901Y-131624000D01*
X27245104Y-131624000D01*
X27818943Y-131386894D01*
X28279278Y-130927363D01*
X28528716Y-130326648D01*
X28528719Y-130322285D01*
X28840760Y-130322285D01*
X29051169Y-130831515D01*
X29440436Y-131221461D01*
X29949298Y-131432759D01*
X30500285Y-131433240D01*
X31009515Y-131222831D01*
X31399461Y-130833564D01*
X31610759Y-130324702D01*
X31611240Y-129773715D01*
X31400831Y-129264485D01*
X31011564Y-128874539D01*
X30502702Y-128663241D01*
X29951715Y-128662760D01*
X29442485Y-128873169D01*
X29052539Y-129262436D01*
X28841241Y-129771298D01*
X28840760Y-130322285D01*
X28528719Y-130322285D01*
X28529284Y-129676205D01*
X28280894Y-129075057D01*
X27821363Y-128614722D01*
X27220648Y-128365284D01*
X26570205Y-128364716D01*
X25969057Y-128613106D01*
X25508722Y-129072637D01*
X25259284Y-129673352D01*
X25258716Y-130323795D01*
X25507106Y-130924943D01*
X25966637Y-131385278D01*
X26541545Y-131624000D01*
X20195104Y-131624000D01*
X20768943Y-131386894D01*
X21229278Y-130927363D01*
X21478716Y-130326648D01*
X21479284Y-129676205D01*
X21230894Y-129075057D01*
X20771363Y-128614722D01*
X20170648Y-128365284D01*
X19520205Y-128364716D01*
X18919057Y-128613106D01*
X18458722Y-129072637D01*
X18209284Y-129673352D01*
X18208716Y-130323795D01*
X18457106Y-130924943D01*
X18916637Y-131385278D01*
X19491545Y-131624000D01*
X17982000Y-131624000D01*
X17982000Y-126323795D01*
X20608716Y-126323795D01*
X20857106Y-126924943D01*
X21316637Y-127385278D01*
X21917352Y-127634716D01*
X22567795Y-127635284D01*
X23168943Y-127386894D01*
X23629278Y-126927363D01*
X23878716Y-126326648D01*
X23879284Y-125676205D01*
X23630894Y-125075057D01*
X23171363Y-124614722D01*
X22570648Y-124365284D01*
X21920205Y-124364716D01*
X21319057Y-124613106D01*
X20858722Y-125072637D01*
X20609284Y-125673352D01*
X20608716Y-126323795D01*
X17982000Y-126323795D01*
X17982000Y-123323795D01*
X18208716Y-123323795D01*
X18457106Y-123924943D01*
X18916637Y-124385278D01*
X19517352Y-124634716D01*
X20167795Y-124635284D01*
X20768943Y-124386894D01*
X21229278Y-123927363D01*
X21478716Y-123326648D01*
X21478718Y-123323795D01*
X25258716Y-123323795D01*
X25507106Y-123924943D01*
X25966637Y-124385278D01*
X26567352Y-124634716D01*
X27217795Y-124635284D01*
X27818943Y-124386894D01*
X28279278Y-123927363D01*
X28528716Y-123326648D01*
X28529284Y-122676205D01*
X28280894Y-122075057D01*
X27821363Y-121614722D01*
X27220648Y-121365284D01*
X26570205Y-121364716D01*
X25969057Y-121613106D01*
X25508722Y-122072637D01*
X25259284Y-122673352D01*
X25258716Y-123323795D01*
X21478718Y-123323795D01*
X21479284Y-122676205D01*
X21230894Y-122075057D01*
X20771363Y-121614722D01*
X20170648Y-121365284D01*
X19520205Y-121364716D01*
X18919057Y-121613106D01*
X18458722Y-122072637D01*
X18209284Y-122673352D01*
X18208716Y-123323795D01*
X17982000Y-123323795D01*
X17982000Y-119323795D01*
X20608716Y-119323795D01*
X20857106Y-119924943D01*
X21316637Y-120385278D01*
X21917352Y-120634716D01*
X22567795Y-120635284D01*
X23168943Y-120386894D01*
X23629278Y-119927363D01*
X23878716Y-119326648D01*
X23879284Y-118676205D01*
X23630894Y-118075057D01*
X23171363Y-117614722D01*
X22570648Y-117365284D01*
X21920205Y-117364716D01*
X21319057Y-117613106D01*
X20858722Y-118072637D01*
X20609284Y-118673352D01*
X20608716Y-119323795D01*
X17982000Y-119323795D01*
X17982000Y-116323795D01*
X18208716Y-116323795D01*
X18457106Y-116924943D01*
X18916637Y-117385278D01*
X19517352Y-117634716D01*
X20167795Y-117635284D01*
X20768943Y-117386894D01*
X21229278Y-116927363D01*
X21478716Y-116326648D01*
X21478718Y-116323795D01*
X25258716Y-116323795D01*
X25507106Y-116924943D01*
X25966637Y-117385278D01*
X26567352Y-117634716D01*
X27217795Y-117635284D01*
X27818943Y-117386894D01*
X28279278Y-116927363D01*
X28528716Y-116326648D01*
X28529284Y-115676205D01*
X28280894Y-115075057D01*
X27821363Y-114614722D01*
X27220648Y-114365284D01*
X26570205Y-114364716D01*
X25969057Y-114613106D01*
X25508722Y-115072637D01*
X25259284Y-115673352D01*
X25258716Y-116323795D01*
X21478718Y-116323795D01*
X21479284Y-115676205D01*
X21230894Y-115075057D01*
X20771363Y-114614722D01*
X20170648Y-114365284D01*
X19520205Y-114364716D01*
X18919057Y-114613106D01*
X18458722Y-115072637D01*
X18209284Y-115673352D01*
X18208716Y-116323795D01*
X17982000Y-116323795D01*
X17982000Y-112323795D01*
X20608716Y-112323795D01*
X20857106Y-112924943D01*
X21316637Y-113385278D01*
X21917352Y-113634716D01*
X22567795Y-113635284D01*
X23168943Y-113386894D01*
X23629278Y-112927363D01*
X23878716Y-112326648D01*
X23879284Y-111676205D01*
X23630894Y-111075057D01*
X23171363Y-110614722D01*
X22570648Y-110365284D01*
X21920205Y-110364716D01*
X21319057Y-110613106D01*
X20858722Y-111072637D01*
X20609284Y-111673352D01*
X20608716Y-112323795D01*
X17982000Y-112323795D01*
X17982000Y-109323795D01*
X18208716Y-109323795D01*
X18457106Y-109924943D01*
X18916637Y-110385278D01*
X19517352Y-110634716D01*
X20167795Y-110635284D01*
X20768943Y-110386894D01*
X21229278Y-109927363D01*
X21478716Y-109326648D01*
X21478718Y-109323795D01*
X25258716Y-109323795D01*
X25507106Y-109924943D01*
X25966637Y-110385278D01*
X26567352Y-110634716D01*
X27217795Y-110635284D01*
X27818943Y-110386894D01*
X28279278Y-109927363D01*
X28528716Y-109326648D01*
X28529284Y-108676205D01*
X28280894Y-108075057D01*
X27821363Y-107614722D01*
X27220648Y-107365284D01*
X26570205Y-107364716D01*
X25969057Y-107613106D01*
X25508722Y-108072637D01*
X25259284Y-108673352D01*
X25258716Y-109323795D01*
X21478718Y-109323795D01*
X21479284Y-108676205D01*
X21230894Y-108075057D01*
X20771363Y-107614722D01*
X20170648Y-107365284D01*
X19520205Y-107364716D01*
X18919057Y-107613106D01*
X18458722Y-108072637D01*
X18209284Y-108673352D01*
X18208716Y-109323795D01*
X17982000Y-109323795D01*
X17982000Y-105323795D01*
X20608716Y-105323795D01*
X20857106Y-105924943D01*
X21316637Y-106385278D01*
X21917352Y-106634716D01*
X22567795Y-106635284D01*
X23168943Y-106386894D01*
X23629278Y-105927363D01*
X23878716Y-105326648D01*
X23879284Y-104676205D01*
X23630894Y-104075057D01*
X23171363Y-103614722D01*
X22570648Y-103365284D01*
X21920205Y-103364716D01*
X21319057Y-103613106D01*
X20858722Y-104072637D01*
X20609284Y-104673352D01*
X20608716Y-105323795D01*
X17982000Y-105323795D01*
X17982000Y-102323795D01*
X18208716Y-102323795D01*
X18457106Y-102924943D01*
X18916637Y-103385278D01*
X19517352Y-103634716D01*
X20167795Y-103635284D01*
X20768943Y-103386894D01*
X21229278Y-102927363D01*
X21478716Y-102326648D01*
X21478718Y-102323795D01*
X25258716Y-102323795D01*
X25507106Y-102924943D01*
X25966637Y-103385278D01*
X26567352Y-103634716D01*
X27217795Y-103635284D01*
X27818943Y-103386894D01*
X28279278Y-102927363D01*
X28528716Y-102326648D01*
X28529284Y-101676205D01*
X28280894Y-101075057D01*
X27821363Y-100614722D01*
X27220648Y-100365284D01*
X26570205Y-100364716D01*
X25969057Y-100613106D01*
X25508722Y-101072637D01*
X25259284Y-101673352D01*
X25258716Y-102323795D01*
X21478718Y-102323795D01*
X21479284Y-101676205D01*
X21230894Y-101075057D01*
X20771363Y-100614722D01*
X20170648Y-100365284D01*
X19520205Y-100364716D01*
X18919057Y-100613106D01*
X18458722Y-101072637D01*
X18209284Y-101673352D01*
X18208716Y-102323795D01*
X17982000Y-102323795D01*
X17982000Y-98323795D01*
X20608716Y-98323795D01*
X20857106Y-98924943D01*
X21316637Y-99385278D01*
X21917352Y-99634716D01*
X22567795Y-99635284D01*
X23168943Y-99386894D01*
X23629278Y-98927363D01*
X23878716Y-98326648D01*
X23879284Y-97676205D01*
X23630894Y-97075057D01*
X23171363Y-96614722D01*
X22570648Y-96365284D01*
X21920205Y-96364716D01*
X21319057Y-96613106D01*
X20858722Y-97072637D01*
X20609284Y-97673352D01*
X20608716Y-98323795D01*
X17982000Y-98323795D01*
X17982000Y-95323795D01*
X18208716Y-95323795D01*
X18457106Y-95924943D01*
X18916637Y-96385278D01*
X19517352Y-96634716D01*
X20167795Y-96635284D01*
X20768943Y-96386894D01*
X21229278Y-95927363D01*
X21478716Y-95326648D01*
X21478718Y-95323795D01*
X25258716Y-95323795D01*
X25507106Y-95924943D01*
X25966637Y-96385278D01*
X26567352Y-96634716D01*
X27217795Y-96635284D01*
X27818943Y-96386894D01*
X28279278Y-95927363D01*
X28528716Y-95326648D01*
X28529284Y-94676205D01*
X28280894Y-94075057D01*
X27821363Y-93614722D01*
X27220648Y-93365284D01*
X26570205Y-93364716D01*
X25969057Y-93613106D01*
X25508722Y-94072637D01*
X25259284Y-94673352D01*
X25258716Y-95323795D01*
X21478718Y-95323795D01*
X21479284Y-94676205D01*
X21230894Y-94075057D01*
X20771363Y-93614722D01*
X20170648Y-93365284D01*
X19520205Y-93364716D01*
X18919057Y-93613106D01*
X18458722Y-94072637D01*
X18209284Y-94673352D01*
X18208716Y-95323795D01*
X17982000Y-95323795D01*
X17982000Y-91323795D01*
X20608716Y-91323795D01*
X20857106Y-91924943D01*
X21316637Y-92385278D01*
X21917352Y-92634716D01*
X22567795Y-92635284D01*
X23168943Y-92386894D01*
X23629278Y-91927363D01*
X23878716Y-91326648D01*
X23879284Y-90676205D01*
X23630894Y-90075057D01*
X23171363Y-89614722D01*
X22570648Y-89365284D01*
X21920205Y-89364716D01*
X21319057Y-89613106D01*
X20858722Y-90072637D01*
X20609284Y-90673352D01*
X20608716Y-91323795D01*
X17982000Y-91323795D01*
X17982000Y-88323795D01*
X18208716Y-88323795D01*
X18457106Y-88924943D01*
X18916637Y-89385278D01*
X19517352Y-89634716D01*
X20167795Y-89635284D01*
X20768943Y-89386894D01*
X21229278Y-88927363D01*
X21478716Y-88326648D01*
X21478718Y-88323795D01*
X25258716Y-88323795D01*
X25507106Y-88924943D01*
X25966637Y-89385278D01*
X26567352Y-89634716D01*
X27217795Y-89635284D01*
X27818943Y-89386894D01*
X28279278Y-88927363D01*
X28493156Y-88412285D01*
X28840760Y-88412285D01*
X29051169Y-88921515D01*
X29440436Y-89311461D01*
X29949298Y-89522759D01*
X30500285Y-89523240D01*
X31009515Y-89312831D01*
X31399461Y-88923564D01*
X31610759Y-88414702D01*
X31611240Y-87863715D01*
X31484836Y-87557793D01*
X31787914Y-87432564D01*
X31846580Y-87374000D01*
X36907414Y-87374000D01*
X36881168Y-87437208D01*
X36880833Y-87821108D01*
X37027436Y-88175914D01*
X37298658Y-88447610D01*
X37653208Y-88594832D01*
X37736102Y-88594904D01*
X39167125Y-90025927D01*
X39166833Y-90361108D01*
X39313436Y-90715914D01*
X39584658Y-90987610D01*
X39867071Y-91104878D01*
X39866735Y-91489991D01*
X40099932Y-92054371D01*
X40501182Y-92456323D01*
X40101449Y-92855357D01*
X39867267Y-93419330D01*
X39866735Y-94029991D01*
X39951856Y-94236000D01*
X32826802Y-94236000D01*
X32207096Y-93616294D01*
X32207167Y-93534892D01*
X32060564Y-93180086D01*
X31789342Y-92908390D01*
X31434792Y-92761168D01*
X31050892Y-92760833D01*
X30696086Y-92907436D01*
X30424390Y-93178658D01*
X30277168Y-93533208D01*
X30276878Y-93865044D01*
X29951715Y-93864760D01*
X29442485Y-94075169D01*
X29052539Y-94464436D01*
X28841241Y-94973298D01*
X28840760Y-95524285D01*
X29051169Y-96033515D01*
X29440436Y-96423461D01*
X29949298Y-96634759D01*
X30500285Y-96635240D01*
X31009515Y-96424831D01*
X31399461Y-96035564D01*
X31610759Y-95526702D01*
X31611071Y-95169873D01*
X31974599Y-95533401D01*
X32221160Y-95698148D01*
X32512000Y-95756000D01*
X39951697Y-95756000D01*
X39867267Y-95959330D01*
X39866735Y-96569991D01*
X39951856Y-96776000D01*
X34798000Y-96776000D01*
X34507160Y-96833852D01*
X34260599Y-96998599D01*
X31386294Y-99872904D01*
X31304892Y-99872833D01*
X30950086Y-100019436D01*
X30678390Y-100290658D01*
X30531168Y-100645208D01*
X30531090Y-100735029D01*
X30502702Y-100723241D01*
X29951715Y-100722760D01*
X29442485Y-100933169D01*
X29052539Y-101322436D01*
X28841241Y-101831298D01*
X28840760Y-102382285D01*
X29051169Y-102891515D01*
X29440436Y-103281461D01*
X29949298Y-103492759D01*
X30500285Y-103493240D01*
X31009515Y-103282831D01*
X31399461Y-102893564D01*
X31610759Y-102384702D01*
X31611240Y-101833715D01*
X31598586Y-101803090D01*
X31687108Y-101803167D01*
X32041914Y-101656564D01*
X32313610Y-101385342D01*
X32460832Y-101030792D01*
X32460904Y-100947898D01*
X35112802Y-98296000D01*
X39951697Y-98296000D01*
X39867267Y-98499330D01*
X39866735Y-99109991D01*
X39951856Y-99316000D01*
X38862000Y-99316000D01*
X38571161Y-99373852D01*
X38324599Y-99538599D01*
X31386294Y-106476904D01*
X31304892Y-106476833D01*
X30950086Y-106623436D01*
X30678390Y-106894658D01*
X30531168Y-107249208D01*
X30530868Y-107592937D01*
X30502702Y-107581241D01*
X29951715Y-107580760D01*
X29442485Y-107791169D01*
X29052539Y-108180436D01*
X28841241Y-108689298D01*
X28840760Y-109240285D01*
X29051169Y-109749515D01*
X29440436Y-110139461D01*
X29949298Y-110350759D01*
X30500285Y-110351240D01*
X31009515Y-110140831D01*
X31399461Y-109751564D01*
X31610759Y-109242702D01*
X31611240Y-108691715D01*
X31493598Y-108406998D01*
X31687108Y-108407167D01*
X32041914Y-108260564D01*
X32313610Y-107989342D01*
X32460832Y-107634792D01*
X32460904Y-107551898D01*
X39176802Y-100836000D01*
X39951697Y-100836000D01*
X39867267Y-101039330D01*
X39866735Y-101649991D01*
X40001593Y-101976372D01*
X39848599Y-102078599D01*
X38578599Y-103348599D01*
X38413852Y-103595161D01*
X38356000Y-103886000D01*
X38356000Y-106619198D01*
X31386294Y-113588904D01*
X31304892Y-113588833D01*
X30950086Y-113735436D01*
X30678390Y-114006658D01*
X30531168Y-114361208D01*
X30530868Y-114704937D01*
X30502702Y-114693241D01*
X29951715Y-114692760D01*
X29442485Y-114903169D01*
X29052539Y-115292436D01*
X28841241Y-115801298D01*
X28840760Y-116352285D01*
X29051169Y-116861515D01*
X29440436Y-117251461D01*
X29949298Y-117462759D01*
X30500285Y-117463240D01*
X31009515Y-117252831D01*
X31399461Y-116863564D01*
X31610759Y-116354702D01*
X31611240Y-115803715D01*
X31493598Y-115518998D01*
X31687108Y-115519167D01*
X32041914Y-115372564D01*
X32313610Y-115101342D01*
X32460832Y-114746792D01*
X32460904Y-114663898D01*
X39653401Y-107471401D01*
X39818148Y-107224840D01*
X39876000Y-106934000D01*
X39876000Y-106752414D01*
X40099932Y-107294371D01*
X40501182Y-107696323D01*
X40101449Y-108095357D01*
X39867267Y-108659330D01*
X39866735Y-109269991D01*
X40099932Y-109834371D01*
X40531357Y-110266551D01*
X41095330Y-110500733D01*
X41332259Y-110500939D01*
X31386294Y-120446904D01*
X31304892Y-120446833D01*
X30950086Y-120593436D01*
X30678390Y-120864658D01*
X30531168Y-121219208D01*
X30530868Y-121562937D01*
X30502702Y-121551241D01*
X29951715Y-121550760D01*
X29442485Y-121761169D01*
X29052539Y-122150436D01*
X28841241Y-122659298D01*
X28840760Y-123210285D01*
X29051169Y-123719515D01*
X29440436Y-124109461D01*
X29949298Y-124320759D01*
X30500285Y-124321240D01*
X31009515Y-124110831D01*
X31399461Y-123721564D01*
X31610759Y-123212702D01*
X31611240Y-122661715D01*
X31493598Y-122376998D01*
X31687108Y-122377167D01*
X32041914Y-122230564D01*
X32313610Y-121959342D01*
X32460832Y-121604792D01*
X32460904Y-121521898D01*
X36832000Y-117150802D01*
X36832000Y-121605198D01*
X31386294Y-127050904D01*
X31304892Y-127050833D01*
X30950086Y-127197436D01*
X30678390Y-127468658D01*
X30531168Y-127823208D01*
X30530833Y-128207108D01*
X30677436Y-128561914D01*
X30948658Y-128833610D01*
X31303208Y-128980832D01*
X31687108Y-128981167D01*
X32041914Y-128834564D01*
X32313610Y-128563342D01*
X32460832Y-128208792D01*
X32460904Y-128125898D01*
X34074517Y-126512285D01*
X35444760Y-126512285D01*
X35655169Y-127021515D01*
X36044436Y-127411461D01*
X36553298Y-127622759D01*
X37104285Y-127623240D01*
X37613515Y-127412831D01*
X38003461Y-127023564D01*
X38161774Y-126642302D01*
X46740856Y-126642302D01*
X46768638Y-127197368D01*
X46927603Y-127581143D01*
X47169787Y-127650608D01*
X47970395Y-126850000D01*
X48329605Y-126850000D01*
X49130213Y-127650608D01*
X49372397Y-127581143D01*
X49559144Y-127057698D01*
X49538353Y-126642302D01*
X51740856Y-126642302D01*
X51768638Y-127197368D01*
X51927603Y-127581143D01*
X52169787Y-127650608D01*
X52970395Y-126850000D01*
X52169787Y-126049392D01*
X51927603Y-126118857D01*
X51740856Y-126642302D01*
X49538353Y-126642302D01*
X49531362Y-126502632D01*
X49372397Y-126118857D01*
X49130213Y-126049392D01*
X48329605Y-126850000D01*
X47970395Y-126850000D01*
X47169787Y-126049392D01*
X46927603Y-126118857D01*
X46740856Y-126642302D01*
X38161774Y-126642302D01*
X38214759Y-126514702D01*
X38215240Y-125963715D01*
X38004831Y-125454485D01*
X37793001Y-125242285D01*
X38238760Y-125242285D01*
X38449169Y-125751515D01*
X38838436Y-126141461D01*
X39347298Y-126352759D01*
X39898285Y-126353240D01*
X40407515Y-126142831D01*
X40681035Y-125869787D01*
X47349392Y-125869787D01*
X48150000Y-126670395D01*
X48950608Y-125869787D01*
X52349392Y-125869787D01*
X53150000Y-126670395D01*
X53950608Y-125869787D01*
X53881143Y-125627603D01*
X53357698Y-125440856D01*
X52802632Y-125468638D01*
X52418857Y-125627603D01*
X52349392Y-125869787D01*
X48950608Y-125869787D01*
X48881143Y-125627603D01*
X48357698Y-125440856D01*
X47802632Y-125468638D01*
X47418857Y-125627603D01*
X47349392Y-125869787D01*
X40681035Y-125869787D01*
X40797461Y-125753564D01*
X41008759Y-125244702D01*
X41009240Y-124693715D01*
X40798831Y-124184485D01*
X40409564Y-123794539D01*
X39900702Y-123583241D01*
X39349715Y-123582760D01*
X38840485Y-123793169D01*
X38450539Y-124182436D01*
X38239241Y-124691298D01*
X38238760Y-125242285D01*
X37793001Y-125242285D01*
X37615564Y-125064539D01*
X37106702Y-124853241D01*
X36555715Y-124852760D01*
X36046485Y-125063169D01*
X35656539Y-125452436D01*
X35445241Y-125961298D01*
X35444760Y-126512285D01*
X34074517Y-126512285D01*
X38129401Y-122457401D01*
X38294148Y-122210839D01*
X38352000Y-121920000D01*
X38352000Y-116392802D01*
X41529000Y-113215802D01*
X41529000Y-120396000D01*
X41537685Y-120442159D01*
X41564965Y-120484553D01*
X41606590Y-120512994D01*
X41656000Y-120523000D01*
X43126155Y-120523000D01*
X43022539Y-120626436D01*
X42811241Y-121135298D01*
X42810760Y-121686285D01*
X43021169Y-122195515D01*
X43410436Y-122585461D01*
X43919298Y-122796759D01*
X44470285Y-122797240D01*
X44979515Y-122586831D01*
X45093479Y-122473065D01*
X45093685Y-122474159D01*
X45120965Y-122516553D01*
X45162590Y-122544994D01*
X45212000Y-122555000D01*
X54229000Y-122555000D01*
X54229000Y-126077727D01*
X54130213Y-126049392D01*
X53329605Y-126850000D01*
X54130213Y-127650608D01*
X54229000Y-127622273D01*
X54229000Y-131064000D01*
X54237685Y-131110159D01*
X54264965Y-131152553D01*
X54306590Y-131180994D01*
X54356000Y-131191000D01*
X61468000Y-131191000D01*
X61514159Y-131182315D01*
X61556553Y-131155035D01*
X61584994Y-131113410D01*
X61595000Y-131064000D01*
X61595000Y-128513208D01*
X61842637Y-128761278D01*
X62443352Y-129010716D01*
X63093795Y-129011284D01*
X63694943Y-128762894D01*
X64155278Y-128303363D01*
X64404716Y-127702648D01*
X64405284Y-127052205D01*
X64156894Y-126451057D01*
X63697363Y-125990722D01*
X63096648Y-125741284D01*
X62446205Y-125740716D01*
X61845057Y-125989106D01*
X61595000Y-126238726D01*
X61595000Y-123049795D01*
X65134716Y-123049795D01*
X65383106Y-123650943D01*
X65842637Y-124111278D01*
X66443352Y-124360716D01*
X67093795Y-124361284D01*
X67694943Y-124112894D01*
X68155278Y-123653363D01*
X68292126Y-123323795D01*
X84390716Y-123323795D01*
X84639106Y-123924943D01*
X85098637Y-124385278D01*
X85699352Y-124634716D01*
X86349795Y-124635284D01*
X86950943Y-124386894D01*
X87411278Y-123927363D01*
X87660716Y-123326648D01*
X87661284Y-122676205D01*
X87412894Y-122075057D01*
X86953363Y-121614722D01*
X86352648Y-121365284D01*
X85702205Y-121364716D01*
X85101057Y-121613106D01*
X84640722Y-122072637D01*
X84391284Y-122673352D01*
X84390716Y-123323795D01*
X68292126Y-123323795D01*
X68404716Y-123052648D01*
X68405284Y-122402205D01*
X68156894Y-121801057D01*
X67959291Y-121603108D01*
X69900833Y-121603108D01*
X70047436Y-121957914D01*
X70318658Y-122229610D01*
X70673208Y-122376832D01*
X71057108Y-122377167D01*
X71411914Y-122230564D01*
X71683610Y-121959342D01*
X71830832Y-121604792D01*
X71831167Y-121220892D01*
X71684564Y-120866086D01*
X71658678Y-120840155D01*
X71689208Y-120852832D01*
X72073108Y-120853167D01*
X72427914Y-120706564D01*
X72486580Y-120648000D01*
X76021993Y-120648000D01*
X76143436Y-120941914D01*
X76414658Y-121213610D01*
X76769208Y-121360832D01*
X77153108Y-121361167D01*
X77507914Y-121214564D01*
X77779610Y-120943342D01*
X77926832Y-120588792D01*
X77927122Y-120256956D01*
X78252285Y-120257240D01*
X78761515Y-120046831D01*
X79151461Y-119657564D01*
X79290054Y-119323795D01*
X79740716Y-119323795D01*
X79989106Y-119924943D01*
X80448637Y-120385278D01*
X81049352Y-120634716D01*
X81699795Y-120635284D01*
X82300943Y-120386894D01*
X82761278Y-119927363D01*
X83010716Y-119326648D01*
X83010718Y-119323795D01*
X86790716Y-119323795D01*
X87039106Y-119924943D01*
X87498637Y-120385278D01*
X88099352Y-120634716D01*
X88749795Y-120635284D01*
X89350943Y-120386894D01*
X89811278Y-119927363D01*
X90060716Y-119326648D01*
X90061284Y-118676205D01*
X89812894Y-118075057D01*
X89353363Y-117614722D01*
X88752648Y-117365284D01*
X88102205Y-117364716D01*
X87501057Y-117613106D01*
X87040722Y-118072637D01*
X86791284Y-118673352D01*
X86790716Y-119323795D01*
X83010718Y-119323795D01*
X83011284Y-118676205D01*
X82762894Y-118075057D01*
X82303363Y-117614722D01*
X81702648Y-117365284D01*
X81052205Y-117364716D01*
X80451057Y-117613106D01*
X79990722Y-118072637D01*
X79741284Y-118673352D01*
X79740716Y-119323795D01*
X79290054Y-119323795D01*
X79362759Y-119148702D01*
X79363240Y-118597715D01*
X79152831Y-118088485D01*
X78763564Y-117698539D01*
X78254702Y-117487241D01*
X77703715Y-117486760D01*
X77194485Y-117697169D01*
X76804539Y-118086436D01*
X76593241Y-118595298D01*
X76592760Y-119146285D01*
X76596954Y-119156436D01*
X76454000Y-119128000D01*
X72486851Y-119128000D01*
X72429342Y-119070390D01*
X72074792Y-118923168D01*
X71690892Y-118922833D01*
X71626000Y-118949646D01*
X71626000Y-117929056D01*
X71665914Y-117912564D01*
X71937610Y-117641342D01*
X72084832Y-117286792D01*
X72085167Y-116902892D01*
X71938564Y-116548086D01*
X71714665Y-116323795D01*
X84390716Y-116323795D01*
X84639106Y-116924943D01*
X85098637Y-117385278D01*
X85699352Y-117634716D01*
X86349795Y-117635284D01*
X86950943Y-117386894D01*
X87411278Y-116927363D01*
X87660716Y-116326648D01*
X87661284Y-115676205D01*
X87412894Y-115075057D01*
X86953363Y-114614722D01*
X86352648Y-114365284D01*
X85702205Y-114364716D01*
X85101057Y-114613106D01*
X84640722Y-115072637D01*
X84391284Y-115673352D01*
X84390716Y-116323795D01*
X71714665Y-116323795D01*
X71667342Y-116276390D01*
X71312792Y-116129168D01*
X70928892Y-116128833D01*
X70574086Y-116275436D01*
X70302390Y-116546658D01*
X70155168Y-116901208D01*
X70154993Y-117101698D01*
X70106000Y-117348000D01*
X70106000Y-120807149D01*
X70048390Y-120864658D01*
X69901168Y-121219208D01*
X69900833Y-121603108D01*
X67959291Y-121603108D01*
X67697363Y-121340722D01*
X67096648Y-121091284D01*
X66446205Y-121090716D01*
X65845057Y-121339106D01*
X65384722Y-121798637D01*
X65135284Y-122399352D01*
X65134716Y-123049795D01*
X61595000Y-123049795D01*
X61595000Y-122809000D01*
X64770000Y-122809000D01*
X64816159Y-122800315D01*
X64858553Y-122773035D01*
X64886994Y-122731410D01*
X64897000Y-122682000D01*
X64897000Y-119247416D01*
X64972832Y-119064792D01*
X64972904Y-118981898D01*
X66100802Y-117854000D01*
X67213149Y-117854000D01*
X67270658Y-117911610D01*
X67625208Y-118058832D01*
X67642612Y-118058847D01*
X67288485Y-118205169D01*
X66898539Y-118594436D01*
X66687241Y-119103298D01*
X66686760Y-119654285D01*
X66897169Y-120163515D01*
X67286436Y-120553461D01*
X67795298Y-120764759D01*
X68346285Y-120765240D01*
X68855515Y-120554831D01*
X69245461Y-120165564D01*
X69456759Y-119656702D01*
X69457240Y-119105715D01*
X69246831Y-118596485D01*
X68857564Y-118206539D01*
X68348702Y-117995241D01*
X68164210Y-117995080D01*
X68363914Y-117912564D01*
X68635610Y-117641342D01*
X68782832Y-117286792D01*
X68783167Y-116902892D01*
X68636564Y-116548086D01*
X68365342Y-116276390D01*
X68010792Y-116129168D01*
X67626892Y-116128833D01*
X67272086Y-116275436D01*
X67213420Y-116334000D01*
X65786000Y-116334000D01*
X65495161Y-116391852D01*
X65248599Y-116556599D01*
X64897000Y-116908198D01*
X64897000Y-113030000D01*
X64888315Y-112983841D01*
X64861035Y-112941447D01*
X64819410Y-112913006D01*
X64770000Y-112903000D01*
X53467000Y-112903000D01*
X53467000Y-111556661D01*
X53494758Y-111556661D01*
X53706990Y-112070303D01*
X54099630Y-112463629D01*
X54612900Y-112676757D01*
X55168661Y-112677242D01*
X55682303Y-112465010D01*
X55887457Y-112260213D01*
X58991392Y-112260213D01*
X59060857Y-112502397D01*
X59584302Y-112689144D01*
X60139368Y-112661362D01*
X60523143Y-112502397D01*
X60592608Y-112260213D01*
X59792000Y-111459605D01*
X58991392Y-112260213D01*
X55887457Y-112260213D01*
X56075629Y-112072370D01*
X56288757Y-111559100D01*
X56289181Y-111072302D01*
X58382856Y-111072302D01*
X58410638Y-111627368D01*
X58569603Y-112011143D01*
X58811787Y-112080608D01*
X59612395Y-111280000D01*
X59971605Y-111280000D01*
X60772213Y-112080608D01*
X61014397Y-112011143D01*
X61201144Y-111487698D01*
X61173362Y-110932632D01*
X61014397Y-110548857D01*
X60772213Y-110479392D01*
X59971605Y-111280000D01*
X59612395Y-111280000D01*
X58811787Y-110479392D01*
X58569603Y-110548857D01*
X58382856Y-111072302D01*
X56289181Y-111072302D01*
X56289242Y-111003339D01*
X56077010Y-110489697D01*
X55887432Y-110299787D01*
X58991392Y-110299787D01*
X59792000Y-111100395D01*
X60592608Y-110299787D01*
X60523143Y-110057603D01*
X59999698Y-109870856D01*
X59444632Y-109898638D01*
X59060857Y-110057603D01*
X58991392Y-110299787D01*
X55887432Y-110299787D01*
X55684370Y-110096371D01*
X55171100Y-109883243D01*
X54615339Y-109882758D01*
X54101697Y-110094990D01*
X53708371Y-110487630D01*
X53495243Y-111000900D01*
X53494758Y-111556661D01*
X53467000Y-111556661D01*
X53467000Y-109728000D01*
X53458315Y-109681841D01*
X53431035Y-109639447D01*
X53389410Y-109611006D01*
X53340000Y-109601000D01*
X45143802Y-109601000D01*
X45495401Y-109249401D01*
X45660148Y-109002839D01*
X45718000Y-108712000D01*
X45718000Y-104744851D01*
X45775610Y-104687342D01*
X45922832Y-104332792D01*
X45922833Y-104331108D01*
X49580833Y-104331108D01*
X49727436Y-104685914D01*
X49998658Y-104957610D01*
X50353208Y-105104832D01*
X50737108Y-105105167D01*
X51091914Y-104958564D01*
X51150580Y-104900000D01*
X62156944Y-104900000D01*
X62173436Y-104939914D01*
X62444658Y-105211610D01*
X62799208Y-105358832D01*
X63158004Y-105359145D01*
X62961449Y-105555357D01*
X62727267Y-106119330D01*
X62726735Y-106729991D01*
X62959932Y-107294371D01*
X63361182Y-107696323D01*
X62961449Y-108095357D01*
X62727267Y-108659330D01*
X62726735Y-109269991D01*
X62959932Y-109834371D01*
X63391357Y-110266551D01*
X63955330Y-110500733D01*
X64565991Y-110501265D01*
X65130371Y-110268068D01*
X65479941Y-109919108D01*
X67106833Y-109919108D01*
X67253436Y-110273914D01*
X67524658Y-110545610D01*
X67879208Y-110692832D01*
X67962102Y-110692904D01*
X68804599Y-111535401D01*
X69051160Y-111700148D01*
X69342000Y-111758000D01*
X70106000Y-111758000D01*
X70106000Y-114046000D01*
X70155006Y-114292370D01*
X70154833Y-114491108D01*
X70301436Y-114845914D01*
X70572658Y-115117610D01*
X70927208Y-115264832D01*
X71311108Y-115265167D01*
X71665914Y-115118564D01*
X71937610Y-114847342D01*
X72084832Y-114492792D01*
X72085141Y-114139244D01*
X72173914Y-114102564D01*
X72232580Y-114044000D01*
X76103149Y-114044000D01*
X76160658Y-114101610D01*
X76515208Y-114248832D01*
X76899108Y-114249167D01*
X77253914Y-114102564D01*
X77525610Y-113831342D01*
X77672832Y-113476792D01*
X77673132Y-113133063D01*
X77701298Y-113144759D01*
X78252285Y-113145240D01*
X78761515Y-112934831D01*
X79151461Y-112545564D01*
X79243547Y-112323795D01*
X79740716Y-112323795D01*
X79989106Y-112924943D01*
X80448637Y-113385278D01*
X81049352Y-113634716D01*
X81699795Y-113635284D01*
X82300943Y-113386894D01*
X82761278Y-112927363D01*
X83010716Y-112326648D01*
X83010718Y-112323795D01*
X86790716Y-112323795D01*
X87039106Y-112924943D01*
X87498637Y-113385278D01*
X88099352Y-113634716D01*
X88749795Y-113635284D01*
X89350943Y-113386894D01*
X89811278Y-112927363D01*
X90060716Y-112326648D01*
X90061284Y-111676205D01*
X89812894Y-111075057D01*
X89353363Y-110614722D01*
X88752648Y-110365284D01*
X88102205Y-110364716D01*
X87501057Y-110613106D01*
X87040722Y-111072637D01*
X86791284Y-111673352D01*
X86790716Y-112323795D01*
X83010718Y-112323795D01*
X83011284Y-111676205D01*
X82762894Y-111075057D01*
X82303363Y-110614722D01*
X81702648Y-110365284D01*
X81052205Y-110364716D01*
X80451057Y-110613106D01*
X79990722Y-111072637D01*
X79741284Y-111673352D01*
X79740716Y-112323795D01*
X79243547Y-112323795D01*
X79362759Y-112036702D01*
X79363240Y-111485715D01*
X79152831Y-110976485D01*
X78763564Y-110586539D01*
X78254702Y-110375241D01*
X77703715Y-110374760D01*
X77194485Y-110585169D01*
X76804539Y-110974436D01*
X76593241Y-111483298D01*
X76592760Y-112034285D01*
X76710402Y-112319002D01*
X76516892Y-112318833D01*
X76162086Y-112465436D01*
X76103420Y-112524000D01*
X72232851Y-112524000D01*
X72175342Y-112466390D01*
X71820792Y-112319168D01*
X71626000Y-112318998D01*
X71626000Y-111312802D01*
X71991706Y-110947096D01*
X72073108Y-110947167D01*
X72427914Y-110800564D01*
X72699610Y-110529342D01*
X72846832Y-110174792D01*
X72847167Y-109790892D01*
X72700564Y-109436086D01*
X72588469Y-109323795D01*
X84390716Y-109323795D01*
X84639106Y-109924943D01*
X85098637Y-110385278D01*
X85699352Y-110634716D01*
X86349795Y-110635284D01*
X86950943Y-110386894D01*
X87411278Y-109927363D01*
X87660716Y-109326648D01*
X87661284Y-108676205D01*
X87412894Y-108075057D01*
X86953363Y-107614722D01*
X86352648Y-107365284D01*
X85702205Y-107364716D01*
X85101057Y-107613106D01*
X84640722Y-108072637D01*
X84391284Y-108673352D01*
X84390716Y-109323795D01*
X72588469Y-109323795D01*
X72429342Y-109164390D01*
X72074792Y-109017168D01*
X71690892Y-109016833D01*
X71336086Y-109163436D01*
X71064390Y-109434658D01*
X70917168Y-109789208D01*
X70917096Y-109872102D01*
X70551198Y-110238000D01*
X69656802Y-110238000D01*
X69037096Y-109618294D01*
X69037167Y-109536892D01*
X68890564Y-109182086D01*
X68619342Y-108910390D01*
X68264792Y-108763168D01*
X67880892Y-108762833D01*
X67526086Y-108909436D01*
X67254390Y-109180658D01*
X67107168Y-109535208D01*
X67106833Y-109919108D01*
X65479941Y-109919108D01*
X65562551Y-109836643D01*
X65796733Y-109272670D01*
X65797265Y-108662009D01*
X65564068Y-108097629D01*
X65162818Y-107695677D01*
X65562551Y-107296643D01*
X65796733Y-106732670D01*
X65797054Y-106363108D01*
X69900833Y-106363108D01*
X70047436Y-106717914D01*
X70318658Y-106989610D01*
X70673208Y-107136832D01*
X71057108Y-107137167D01*
X71411914Y-106990564D01*
X71500917Y-106901716D01*
X71588658Y-106989610D01*
X71943208Y-107136832D01*
X72327108Y-107137167D01*
X72681914Y-106990564D01*
X72740580Y-106932000D01*
X76380944Y-106932000D01*
X76397436Y-106971914D01*
X76668658Y-107243610D01*
X77023208Y-107390832D01*
X77407108Y-107391167D01*
X77761914Y-107244564D01*
X78033610Y-106973342D01*
X78180832Y-106618792D01*
X78181121Y-106287178D01*
X78252285Y-106287240D01*
X78761515Y-106076831D01*
X79151461Y-105687564D01*
X79302511Y-105323795D01*
X79740716Y-105323795D01*
X79989106Y-105924943D01*
X80448637Y-106385278D01*
X81049352Y-106634716D01*
X81699795Y-106635284D01*
X82300943Y-106386894D01*
X82761278Y-105927363D01*
X83010716Y-105326648D01*
X83010718Y-105323795D01*
X86790716Y-105323795D01*
X87039106Y-105924943D01*
X87498637Y-106385278D01*
X88099352Y-106634716D01*
X88749795Y-106635284D01*
X89350943Y-106386894D01*
X89811278Y-105927363D01*
X90060716Y-105326648D01*
X90061284Y-104676205D01*
X89812894Y-104075057D01*
X89353363Y-103614722D01*
X88752648Y-103365284D01*
X88102205Y-103364716D01*
X87501057Y-103613106D01*
X87040722Y-104072637D01*
X86791284Y-104673352D01*
X86790716Y-105323795D01*
X83010718Y-105323795D01*
X83011284Y-104676205D01*
X82762894Y-104075057D01*
X82303363Y-103614722D01*
X81702648Y-103365284D01*
X81052205Y-103364716D01*
X80451057Y-103613106D01*
X79990722Y-104072637D01*
X79741284Y-104673352D01*
X79740716Y-105323795D01*
X79302511Y-105323795D01*
X79362759Y-105178702D01*
X79363240Y-104627715D01*
X79152831Y-104118485D01*
X78763564Y-103728539D01*
X78254702Y-103517241D01*
X77703715Y-103516760D01*
X77194485Y-103727169D01*
X76804539Y-104116436D01*
X76593241Y-104625298D01*
X76592760Y-105176285D01*
X76690155Y-105412000D01*
X72740851Y-105412000D01*
X72683342Y-105354390D01*
X72328792Y-105207168D01*
X71944892Y-105206833D01*
X71626000Y-105338597D01*
X71626000Y-104318007D01*
X71919914Y-104196564D01*
X72191610Y-103925342D01*
X72338832Y-103570792D01*
X72339167Y-103186892D01*
X72192564Y-102832086D01*
X71921342Y-102560390D01*
X71566792Y-102413168D01*
X71182892Y-102412833D01*
X70828086Y-102559436D01*
X70556390Y-102830658D01*
X70409168Y-103185208D01*
X70409096Y-103268102D01*
X70328599Y-103348599D01*
X70163852Y-103595161D01*
X70106000Y-103886000D01*
X70106000Y-105567149D01*
X70048390Y-105624658D01*
X69901168Y-105979208D01*
X69900833Y-106363108D01*
X65797054Y-106363108D01*
X65797265Y-106122009D01*
X65564068Y-105557629D01*
X65162818Y-105155677D01*
X65562551Y-104756643D01*
X65796733Y-104192670D01*
X65797265Y-103582009D01*
X65564068Y-103017629D01*
X65162818Y-102615677D01*
X65455211Y-102323795D01*
X84390716Y-102323795D01*
X84639106Y-102924943D01*
X85098637Y-103385278D01*
X85699352Y-103634716D01*
X86349795Y-103635284D01*
X86950943Y-103386894D01*
X87411278Y-102927363D01*
X87660716Y-102326648D01*
X87661284Y-101676205D01*
X87412894Y-101075057D01*
X86953363Y-100614722D01*
X86352648Y-100365284D01*
X85702205Y-100364716D01*
X85101057Y-100613106D01*
X84640722Y-101072637D01*
X84391284Y-101673352D01*
X84390716Y-102323795D01*
X65455211Y-102323795D01*
X65562551Y-102216643D01*
X65796733Y-101652670D01*
X65797265Y-101042009D01*
X65564068Y-100477629D01*
X65162818Y-100075677D01*
X65562551Y-99676643D01*
X65796733Y-99112670D01*
X65797265Y-98502009D01*
X65564068Y-97937629D01*
X65162818Y-97535677D01*
X65562551Y-97136643D01*
X65796733Y-96572670D01*
X65796833Y-96457108D01*
X69900833Y-96457108D01*
X70047436Y-96811914D01*
X70106000Y-96870580D01*
X70106000Y-99725149D01*
X70048390Y-99782658D01*
X69901168Y-100137208D01*
X69900833Y-100521108D01*
X70047436Y-100875914D01*
X70318658Y-101147610D01*
X70673208Y-101294832D01*
X71057108Y-101295167D01*
X71411914Y-101148564D01*
X71683610Y-100877342D01*
X71830832Y-100522792D01*
X71831167Y-100138892D01*
X71784073Y-100024915D01*
X72073108Y-100025167D01*
X72427914Y-99878564D01*
X72486580Y-99820000D01*
X76888944Y-99820000D01*
X76905436Y-99859914D01*
X77176658Y-100131610D01*
X77531208Y-100278832D01*
X77915108Y-100279167D01*
X78269914Y-100132564D01*
X78541610Y-99861342D01*
X78688832Y-99506792D01*
X78689167Y-99122892D01*
X78643932Y-99013415D01*
X78761515Y-98964831D01*
X79151461Y-98575564D01*
X79256004Y-98323795D01*
X79740716Y-98323795D01*
X79989106Y-98924943D01*
X80448637Y-99385278D01*
X81049352Y-99634716D01*
X81699795Y-99635284D01*
X82300943Y-99386894D01*
X82761278Y-98927363D01*
X83010716Y-98326648D01*
X83010718Y-98323795D01*
X86790716Y-98323795D01*
X87039106Y-98924943D01*
X87498637Y-99385278D01*
X88099352Y-99634716D01*
X88749795Y-99635284D01*
X89350943Y-99386894D01*
X89811278Y-98927363D01*
X90060716Y-98326648D01*
X90061284Y-97676205D01*
X89812894Y-97075057D01*
X89353363Y-96614722D01*
X88752648Y-96365284D01*
X88102205Y-96364716D01*
X87501057Y-96613106D01*
X87040722Y-97072637D01*
X86791284Y-97673352D01*
X86790716Y-98323795D01*
X83010718Y-98323795D01*
X83011284Y-97676205D01*
X82762894Y-97075057D01*
X82303363Y-96614722D01*
X81702648Y-96365284D01*
X81052205Y-96364716D01*
X80451057Y-96613106D01*
X79990722Y-97072637D01*
X79741284Y-97673352D01*
X79740716Y-98323795D01*
X79256004Y-98323795D01*
X79362759Y-98066702D01*
X79363240Y-97515715D01*
X79152831Y-97006485D01*
X78763564Y-96616539D01*
X78254702Y-96405241D01*
X77703715Y-96404760D01*
X77194485Y-96615169D01*
X76804539Y-97004436D01*
X76593241Y-97513298D01*
X76592760Y-98064285D01*
X76690155Y-98300000D01*
X72486851Y-98300000D01*
X72429342Y-98242390D01*
X72074792Y-98095168D01*
X71690892Y-98094833D01*
X71626000Y-98121646D01*
X71626000Y-96870851D01*
X71683610Y-96813342D01*
X71830832Y-96458792D01*
X71831167Y-96074892D01*
X71684564Y-95720086D01*
X71413342Y-95448390D01*
X71113284Y-95323795D01*
X84390716Y-95323795D01*
X84639106Y-95924943D01*
X85098637Y-96385278D01*
X85699352Y-96634716D01*
X86349795Y-96635284D01*
X86950943Y-96386894D01*
X87411278Y-95927363D01*
X87660716Y-95326648D01*
X87661284Y-94676205D01*
X87412894Y-94075057D01*
X86953363Y-93614722D01*
X86352648Y-93365284D01*
X85702205Y-93364716D01*
X85101057Y-93613106D01*
X84640722Y-94072637D01*
X84391284Y-94673352D01*
X84390716Y-95323795D01*
X71113284Y-95323795D01*
X71058792Y-95301168D01*
X70674892Y-95300833D01*
X70320086Y-95447436D01*
X70048390Y-95718658D01*
X69901168Y-96073208D01*
X69900833Y-96457108D01*
X65796833Y-96457108D01*
X65797265Y-95962009D01*
X65564068Y-95397629D01*
X65132643Y-94965449D01*
X65111806Y-94956797D01*
X65162554Y-94806159D01*
X64262000Y-93905605D01*
X63361446Y-94806159D01*
X63412035Y-94956327D01*
X63393629Y-94963932D01*
X62961449Y-95395357D01*
X62810547Y-95758769D01*
X62794564Y-95720086D01*
X62523342Y-95448390D01*
X62168792Y-95301168D01*
X61784892Y-95300833D01*
X61430086Y-95447436D01*
X61371420Y-95506000D01*
X55214851Y-95506000D01*
X55157342Y-95448390D01*
X54802792Y-95301168D01*
X54418892Y-95300833D01*
X54064086Y-95447436D01*
X53792390Y-95718658D01*
X53645168Y-96073208D01*
X53644833Y-96457108D01*
X53791436Y-96811914D01*
X54062658Y-97083610D01*
X54417208Y-97230832D01*
X54801108Y-97231167D01*
X55155914Y-97084564D01*
X55214580Y-97026000D01*
X61371149Y-97026000D01*
X61428658Y-97083610D01*
X61783208Y-97230832D01*
X62167108Y-97231167D01*
X62521914Y-97084564D01*
X62793610Y-96813342D01*
X62810489Y-96772692D01*
X62959932Y-97134371D01*
X63361182Y-97536323D01*
X62961449Y-97935357D01*
X62952945Y-97955837D01*
X62676792Y-97841168D01*
X62292892Y-97840833D01*
X61938086Y-97987436D01*
X61879420Y-98046000D01*
X56738851Y-98046000D01*
X56681342Y-97988390D01*
X56326792Y-97841168D01*
X55942892Y-97840833D01*
X55588086Y-97987436D01*
X55316390Y-98258658D01*
X55169168Y-98613208D01*
X55168833Y-98997108D01*
X55315436Y-99351914D01*
X55586658Y-99623610D01*
X55941208Y-99770832D01*
X56325108Y-99771167D01*
X56679914Y-99624564D01*
X56738580Y-99566000D01*
X61879149Y-99566000D01*
X61936658Y-99623610D01*
X62291208Y-99770832D01*
X62675108Y-99771167D01*
X62952559Y-99656527D01*
X62959932Y-99674371D01*
X63361182Y-100076323D01*
X62961449Y-100475357D01*
X62915506Y-100586000D01*
X53182851Y-100586000D01*
X53125342Y-100528390D01*
X52770792Y-100381168D01*
X52386892Y-100380833D01*
X52032086Y-100527436D01*
X51760390Y-100798658D01*
X51613168Y-101153208D01*
X51612833Y-101537108D01*
X51759436Y-101891914D01*
X52030658Y-102163610D01*
X52385208Y-102310832D01*
X52769108Y-102311167D01*
X53123914Y-102164564D01*
X53182580Y-102106000D01*
X62915154Y-102106000D01*
X62959932Y-102214371D01*
X63361182Y-102616323D01*
X62961449Y-103015357D01*
X62804540Y-103393236D01*
X62738000Y-103380000D01*
X51150851Y-103380000D01*
X51093342Y-103322390D01*
X50738792Y-103175168D01*
X50354892Y-103174833D01*
X50000086Y-103321436D01*
X49728390Y-103592658D01*
X49581168Y-103947208D01*
X49580833Y-104331108D01*
X45922833Y-104331108D01*
X45923167Y-103948892D01*
X45776564Y-103594086D01*
X45505342Y-103322390D01*
X45160952Y-103179387D01*
X45161167Y-102932892D01*
X45014564Y-102578086D01*
X44780844Y-102343958D01*
X46845706Y-100279096D01*
X46927108Y-100279167D01*
X47281914Y-100132564D01*
X47553610Y-99861342D01*
X47700832Y-99506792D01*
X47701167Y-99122892D01*
X47554564Y-98768086D01*
X47465716Y-98679083D01*
X47553610Y-98591342D01*
X47700832Y-98236792D01*
X47701167Y-97852892D01*
X47554564Y-97498086D01*
X47322676Y-97265793D01*
X47446832Y-96966792D01*
X47447167Y-96582892D01*
X47300564Y-96228086D01*
X47084716Y-96011861D01*
X47299610Y-95797342D01*
X47446832Y-95442792D01*
X47447167Y-95058892D01*
X47300564Y-94704086D01*
X47029342Y-94432390D01*
X46674792Y-94285168D01*
X46474302Y-94284993D01*
X46228000Y-94236000D01*
X42852303Y-94236000D01*
X42936733Y-94032670D01*
X42937265Y-93422009D01*
X42704068Y-92857629D01*
X42302818Y-92455677D01*
X42702551Y-92056643D01*
X42936733Y-91492670D01*
X42937265Y-90882009D01*
X42704068Y-90317629D01*
X42272643Y-89885449D01*
X41708670Y-89651267D01*
X41098009Y-89650735D01*
X40981471Y-89698887D01*
X40950564Y-89624086D01*
X40679342Y-89352390D01*
X40617522Y-89326720D01*
X38811096Y-87520294D01*
X38811167Y-87438892D01*
X38784354Y-87374000D01*
X44897198Y-87374000D01*
X50040000Y-92516802D01*
X50040000Y-93375149D01*
X49982390Y-93432658D01*
X49835168Y-93787208D01*
X49834833Y-94171108D01*
X49981436Y-94525914D01*
X50252658Y-94797610D01*
X50607208Y-94944832D01*
X50991108Y-94945167D01*
X51345914Y-94798564D01*
X51617610Y-94527342D01*
X51764832Y-94172792D01*
X51764833Y-94171108D01*
X58978833Y-94171108D01*
X59125436Y-94525914D01*
X59396658Y-94797610D01*
X59751208Y-94944832D01*
X60135108Y-94945167D01*
X60489914Y-94798564D01*
X60761610Y-94527342D01*
X60908832Y-94172792D01*
X60909167Y-93788892D01*
X60783741Y-93485336D01*
X62715542Y-93485336D01*
X62741161Y-94095460D01*
X62925357Y-94540148D01*
X63181841Y-94626554D01*
X64082395Y-93726000D01*
X64441605Y-93726000D01*
X65342159Y-94626554D01*
X65598643Y-94540148D01*
X65808458Y-93966664D01*
X65782839Y-93356540D01*
X65598643Y-92911852D01*
X65342159Y-92825446D01*
X64441605Y-93726000D01*
X64082395Y-93726000D01*
X63181841Y-92825446D01*
X62925357Y-92911852D01*
X62715542Y-93485336D01*
X60783741Y-93485336D01*
X60762564Y-93434086D01*
X60704000Y-93375420D01*
X60704000Y-91489991D01*
X62726735Y-91489991D01*
X62959932Y-92054371D01*
X63391357Y-92486551D01*
X63412194Y-92495203D01*
X63361446Y-92645841D01*
X64262000Y-93546395D01*
X65162554Y-92645841D01*
X65111965Y-92495673D01*
X65130371Y-92488068D01*
X65562551Y-92056643D01*
X65796733Y-91492670D01*
X65797063Y-91114010D01*
X65847208Y-91134832D01*
X66231108Y-91135167D01*
X66585914Y-90988564D01*
X66857610Y-90717342D01*
X67004832Y-90362792D01*
X67005167Y-89978892D01*
X66953195Y-89853108D01*
X69900833Y-89853108D01*
X70047436Y-90207914D01*
X70106000Y-90266580D01*
X70106000Y-93629149D01*
X70048390Y-93686658D01*
X69901168Y-94041208D01*
X69900833Y-94425108D01*
X70047436Y-94779914D01*
X70318658Y-95051610D01*
X70673208Y-95198832D01*
X71057108Y-95199167D01*
X71411914Y-95052564D01*
X71683610Y-94781342D01*
X71830832Y-94426792D01*
X71831167Y-94042892D01*
X71684564Y-93688086D01*
X71626000Y-93629420D01*
X71626000Y-92781116D01*
X71943208Y-92912832D01*
X72327108Y-92913167D01*
X72681914Y-92766564D01*
X72740580Y-92708000D01*
X77037993Y-92708000D01*
X77159436Y-93001914D01*
X77430658Y-93273610D01*
X77785208Y-93420832D01*
X78169108Y-93421167D01*
X78523914Y-93274564D01*
X78795610Y-93003342D01*
X78942832Y-92648792D01*
X78943167Y-92264892D01*
X78843883Y-92024606D01*
X79151461Y-91717564D01*
X79314968Y-91323795D01*
X79740716Y-91323795D01*
X79989106Y-91924943D01*
X80448637Y-92385278D01*
X81049352Y-92634716D01*
X81699795Y-92635284D01*
X82300943Y-92386894D01*
X82761278Y-91927363D01*
X83010716Y-91326648D01*
X83010718Y-91323795D01*
X86790716Y-91323795D01*
X87039106Y-91924943D01*
X87498637Y-92385278D01*
X88099352Y-92634716D01*
X88749795Y-92635284D01*
X89350943Y-92386894D01*
X89811278Y-91927363D01*
X90060716Y-91326648D01*
X90061284Y-90676205D01*
X89812894Y-90075057D01*
X89353363Y-89614722D01*
X88752648Y-89365284D01*
X88102205Y-89364716D01*
X87501057Y-89613106D01*
X87040722Y-90072637D01*
X86791284Y-90673352D01*
X86790716Y-91323795D01*
X83010718Y-91323795D01*
X83011284Y-90676205D01*
X82762894Y-90075057D01*
X82303363Y-89614722D01*
X81702648Y-89365284D01*
X81052205Y-89364716D01*
X80451057Y-89613106D01*
X79990722Y-90072637D01*
X79741284Y-90673352D01*
X79740716Y-91323795D01*
X79314968Y-91323795D01*
X79362759Y-91208702D01*
X79363240Y-90657715D01*
X79152831Y-90148485D01*
X78763564Y-89758539D01*
X78254702Y-89547241D01*
X77703715Y-89546760D01*
X77194485Y-89757169D01*
X76804539Y-90146436D01*
X76593241Y-90655298D01*
X76592776Y-91188000D01*
X72740851Y-91188000D01*
X72683342Y-91130390D01*
X72328792Y-90983168D01*
X71944892Y-90982833D01*
X71626000Y-91114597D01*
X71626000Y-90266851D01*
X71683610Y-90209342D01*
X71830832Y-89854792D01*
X71831167Y-89470892D01*
X71684564Y-89116086D01*
X71413342Y-88844390D01*
X71058792Y-88697168D01*
X70674892Y-88696833D01*
X70320086Y-88843436D01*
X70048390Y-89114658D01*
X69901168Y-89469208D01*
X69900833Y-89853108D01*
X66953195Y-89853108D01*
X66858564Y-89624086D01*
X66587342Y-89352390D01*
X66232792Y-89205168D01*
X66149898Y-89205096D01*
X65530000Y-88585198D01*
X65530000Y-88323795D01*
X84390716Y-88323795D01*
X84639106Y-88924943D01*
X85098637Y-89385278D01*
X85699352Y-89634716D01*
X86349795Y-89635284D01*
X86950943Y-89386894D01*
X87411278Y-88927363D01*
X87660716Y-88326648D01*
X87661284Y-87676205D01*
X87412894Y-87075057D01*
X86953363Y-86614722D01*
X86352648Y-86365284D01*
X85702205Y-86364716D01*
X85101057Y-86613106D01*
X84640722Y-87072637D01*
X84391284Y-87673352D01*
X84390716Y-88323795D01*
X65530000Y-88323795D01*
X65530000Y-85281108D01*
X71170833Y-85281108D01*
X71317436Y-85635914D01*
X71588658Y-85907610D01*
X71943208Y-86054832D01*
X72327108Y-86055167D01*
X72681914Y-85908564D01*
X72740580Y-85850000D01*
X77037993Y-85850000D01*
X77159436Y-86143914D01*
X77430658Y-86415610D01*
X77785208Y-86562832D01*
X78169108Y-86563167D01*
X78523914Y-86416564D01*
X78795610Y-86145342D01*
X78942832Y-85790792D01*
X78943167Y-85406892D01*
X78796564Y-85052086D01*
X78745864Y-85001298D01*
X78761515Y-84994831D01*
X79151461Y-84605564D01*
X79362759Y-84096702D01*
X79363240Y-83545715D01*
X79152831Y-83036485D01*
X78763564Y-82646539D01*
X78254702Y-82435241D01*
X77703715Y-82434760D01*
X77194485Y-82645169D01*
X76804539Y-83034436D01*
X76593241Y-83543298D01*
X76592760Y-84094285D01*
X76690155Y-84330000D01*
X72740851Y-84330000D01*
X72683342Y-84272390D01*
X72328792Y-84125168D01*
X71944892Y-84124833D01*
X71590086Y-84271436D01*
X71318390Y-84542658D01*
X71171168Y-84897208D01*
X71170833Y-85281108D01*
X65530000Y-85281108D01*
X65530000Y-84678851D01*
X65587610Y-84621342D01*
X65734832Y-84266792D01*
X65735167Y-83882892D01*
X65588564Y-83528086D01*
X65317342Y-83256390D01*
X64962792Y-83109168D01*
X64578892Y-83108833D01*
X64224086Y-83255436D01*
X63952390Y-83526658D01*
X63805168Y-83881208D01*
X63804833Y-84265108D01*
X63951436Y-84619914D01*
X64010000Y-84678580D01*
X64010000Y-88900000D01*
X64067852Y-89190839D01*
X64232599Y-89437401D01*
X64446358Y-89651160D01*
X63958009Y-89650735D01*
X63393629Y-89883932D01*
X62961449Y-90315357D01*
X62727267Y-90879330D01*
X62726735Y-91489991D01*
X60704000Y-91489991D01*
X60704000Y-89864998D01*
X60897108Y-89865167D01*
X61251914Y-89718564D01*
X61310580Y-89660000D01*
X61722000Y-89660000D01*
X62012839Y-89602148D01*
X62259401Y-89437401D01*
X62593706Y-89103096D01*
X62675108Y-89103167D01*
X63029914Y-88956564D01*
X63301610Y-88685342D01*
X63448832Y-88330792D01*
X63449167Y-87946892D01*
X63302564Y-87592086D01*
X63031342Y-87320390D01*
X62676792Y-87173168D01*
X62292892Y-87172833D01*
X61938086Y-87319436D01*
X61666390Y-87590658D01*
X61519168Y-87945208D01*
X61519096Y-88028102D01*
X61407198Y-88140000D01*
X61310851Y-88140000D01*
X61253342Y-88082390D01*
X60898792Y-87935168D01*
X60704000Y-87934998D01*
X60704000Y-86284007D01*
X60997914Y-86162564D01*
X61269610Y-85891342D01*
X61416832Y-85536792D01*
X61417167Y-85152892D01*
X61270564Y-84798086D01*
X60999342Y-84526390D01*
X60644792Y-84379168D01*
X60260892Y-84378833D01*
X59906086Y-84525436D01*
X59634390Y-84796658D01*
X59487168Y-85151208D01*
X59487096Y-85234102D01*
X59406599Y-85314599D01*
X59241852Y-85561161D01*
X59184000Y-85852000D01*
X59184000Y-93375149D01*
X59126390Y-93432658D01*
X58979168Y-93787208D01*
X58978833Y-94171108D01*
X51764833Y-94171108D01*
X51765167Y-93788892D01*
X51618564Y-93434086D01*
X51560000Y-93375420D01*
X51560000Y-92202000D01*
X51540797Y-92105461D01*
X51502148Y-91911160D01*
X51337401Y-91664599D01*
X45767773Y-86094971D01*
X46082303Y-85965010D01*
X46287457Y-85760213D01*
X54191392Y-85760213D01*
X54260857Y-86002397D01*
X54784302Y-86189144D01*
X55339368Y-86161362D01*
X55723143Y-86002397D01*
X55792608Y-85760213D01*
X54992000Y-84959605D01*
X54191392Y-85760213D01*
X46287457Y-85760213D01*
X46475629Y-85572370D01*
X46688757Y-85059100D01*
X46689181Y-84572302D01*
X53582856Y-84572302D01*
X53610638Y-85127368D01*
X53769603Y-85511143D01*
X54011787Y-85580608D01*
X54812395Y-84780000D01*
X55171605Y-84780000D01*
X55972213Y-85580608D01*
X56214397Y-85511143D01*
X56401144Y-84987698D01*
X56373362Y-84432632D01*
X56214397Y-84048857D01*
X55972213Y-83979392D01*
X55171605Y-84780000D01*
X54812395Y-84780000D01*
X54011787Y-83979392D01*
X53769603Y-84048857D01*
X53582856Y-84572302D01*
X46689181Y-84572302D01*
X46689242Y-84503339D01*
X46477010Y-83989697D01*
X46287432Y-83799787D01*
X54191392Y-83799787D01*
X54992000Y-84600395D01*
X55792608Y-83799787D01*
X55723143Y-83557603D01*
X55199698Y-83370856D01*
X54644632Y-83398638D01*
X54260857Y-83557603D01*
X54191392Y-83799787D01*
X46287432Y-83799787D01*
X46084370Y-83596371D01*
X45571100Y-83383243D01*
X45015339Y-83382758D01*
X44501697Y-83594990D01*
X44108371Y-83987630D01*
X43895243Y-84500900D01*
X43894758Y-85056661D01*
X44106990Y-85570303D01*
X44390192Y-85854000D01*
X38784586Y-85854000D01*
X38810832Y-85790792D01*
X38811167Y-85406892D01*
X38664564Y-85052086D01*
X38606000Y-84993420D01*
X38606000Y-84836000D01*
X38548148Y-84545161D01*
X38383401Y-84298599D01*
X37795096Y-83710294D01*
X37795167Y-83628892D01*
X37648564Y-83274086D01*
X37377342Y-83002390D01*
X37022792Y-82855168D01*
X36638892Y-82854833D01*
X36284086Y-83001436D01*
X36012390Y-83272658D01*
X35865168Y-83627208D01*
X35864833Y-84011108D01*
X36011436Y-84365914D01*
X36282658Y-84637610D01*
X36637208Y-84784832D01*
X36720102Y-84784904D01*
X37015910Y-85080712D01*
X36881168Y-85405208D01*
X36880833Y-85789108D01*
X36907646Y-85854000D01*
X31846851Y-85854000D01*
X31789342Y-85796390D01*
X31434792Y-85649168D01*
X31050892Y-85648833D01*
X30696086Y-85795436D01*
X30424390Y-86066658D01*
X30277168Y-86421208D01*
X30276878Y-86753044D01*
X29951715Y-86752760D01*
X29442485Y-86963169D01*
X29052539Y-87352436D01*
X28841241Y-87861298D01*
X28840760Y-88412285D01*
X28493156Y-88412285D01*
X28528716Y-88326648D01*
X28529284Y-87676205D01*
X28280894Y-87075057D01*
X27821363Y-86614722D01*
X27220648Y-86365284D01*
X26570205Y-86364716D01*
X25969057Y-86613106D01*
X25508722Y-87072637D01*
X25259284Y-87673352D01*
X25258716Y-88323795D01*
X21478718Y-88323795D01*
X21479284Y-87676205D01*
X21230894Y-87075057D01*
X20771363Y-86614722D01*
X20170648Y-86365284D01*
X19520205Y-86364716D01*
X18919057Y-86613106D01*
X18458722Y-87072637D01*
X18209284Y-87673352D01*
X18208716Y-88323795D01*
X17982000Y-88323795D01*
X17982000Y-82423000D01*
X21779147Y-82423000D01*
X21319057Y-82613106D01*
M02*
