G04 #@! TF.FileFunction,Legend,Bot*
%FSLAX46Y46*%
G04 Gerber Fmt 4.6, Leading zero omitted, Abs format (unit mm)*
G04 Created by KiCad (PCBNEW 4.0.7) date Tuesday, June 05, 2018 'PMt' 05:00:48 PM*
%MOMM*%
%LPD*%
G01*
G04 APERTURE LIST*
%ADD10C,0.100000*%
%ADD11C,0.150000*%
G04 APERTURE END LIST*
D10*
D11*
X59182000Y-94996000D02*
X59182000Y-108966000D01*
X59182000Y-108966000D02*
X46482000Y-108966000D01*
X46482000Y-108966000D02*
X46482000Y-94996000D01*
X46482000Y-94996000D02*
X59182000Y-94996000D01*
X61722000Y-93726000D02*
X43942000Y-93726000D01*
X43942000Y-93726000D02*
X43942000Y-116586000D01*
X43942000Y-116586000D02*
X61722000Y-116586000D01*
X61722000Y-116586000D02*
X61722000Y-93726000D01*
X62992000Y-113030000D02*
X62992000Y-83030000D01*
X62992000Y-83030000D02*
X42992000Y-83030000D01*
X42992000Y-83030000D02*
X42992000Y-113030000D01*
X42992000Y-113030000D02*
X62992000Y-113030000D01*
X64644381Y-98628095D02*
X65453905Y-98628095D01*
X65549143Y-98675714D01*
X65596762Y-98723333D01*
X65644381Y-98818571D01*
X65644381Y-99009048D01*
X65596762Y-99104286D01*
X65549143Y-99151905D01*
X65453905Y-99199524D01*
X64644381Y-99199524D01*
X64644381Y-99580476D02*
X64644381Y-100199524D01*
X65025333Y-99866190D01*
X65025333Y-100009048D01*
X65072952Y-100104286D01*
X65120571Y-100151905D01*
X65215810Y-100199524D01*
X65453905Y-100199524D01*
X65549143Y-100151905D01*
X65596762Y-100104286D01*
X65644381Y-100009048D01*
X65644381Y-99723333D01*
X65596762Y-99628095D01*
X65549143Y-99580476D01*
M02*
