M48
;DRILL file {KiCad 4.0.7} date Thursday, May 31, 2018 'PMt' 11:14:35 PM
;FORMAT={-:-/ absolute / inch / decimal}
FMAT,2
INCH,TZ
T1C0.016
T2C0.030
T3C0.031
T4C0.040
T5C0.059
T6C0.087
%
G90
G05
M72
T1
X1.9417Y-3.0862
X1.9496Y-3.3681
X2.063Y-2.6299
X2.075Y-3.325
X2.1063Y-2.874
X2.1142Y-2.6728
X2.122Y-1.6181
X2.15Y-1.52
X2.15Y-1.815
X2.1811Y-2.6299
X2.1815Y-2.6697
X2.1969Y-2.874
X2.1969Y-2.9803
X2.2087Y-1.6181
X2.21Y-1.99
X2.2559Y-2.9843
X2.26Y-3.325
X2.26Y-3.415
X2.2717Y-2.0551
X2.33Y-1.99
X2.4409Y-2.437
X2.4449Y-1.4055
X2.4724Y-2.2362
X2.4764Y-3.8898
X2.5098Y-1.8776
X2.51Y-2.03
X2.5102Y-3.6709
X2.52Y-3.235
X2.525Y-3.405
X2.5551Y-1.8031
X2.5634Y-1.6815
X2.5827Y-3.6811
X2.5984Y-3.0709
X2.6024Y-1.7717
X2.6146Y-1.6524
X2.6437Y-2.522
X2.6614Y-1.5449
X2.6614Y-1.622
X2.6693Y-3.5512
X2.7165Y-1.8701
X2.76Y-4.14
X2.763Y-2.424
X2.7677Y-3.2835
X2.7913Y-2.5669
X2.7913Y-2.7008
X2.7913Y-2.8228
X2.7953Y-2.9567
X2.7953Y-3.1614
X2.8346Y-2.3583
X2.84Y-3.98
X2.8795Y-2.1591
X2.88Y-4.14
X2.93Y-1.42
X2.94Y-4.14
X2.9783Y-4.4262
X2.9813Y-4.1407
X3.02Y-3.54
X3.065Y-3.11
X3.07Y-3.18
X3.1Y-3.075
X3.11Y-4.06
X3.12Y-1.42
X3.12Y-2.03
X3.125Y-3.31
X3.13Y-2.16
X3.15Y-3.89
X3.2283Y-3.6382
X3.245Y-3.55
X3.245Y-3.855
X3.27Y-3.385
X3.2744Y-3.7906
X3.28Y-1.42
X3.2827Y-3.6906
X3.2835Y-2.8228
X3.2913Y-3.0748
X3.2913Y-3.1496
X3.295Y-3.76
X3.2992Y-1.5217
X3.3Y-3.92
X3.3031Y-2.689
X3.3228Y-2.5354
X3.3256Y-1.5724
X3.33Y-3.3
X3.3425Y-2.4094
X3.3583Y-1.622
X3.37Y-3.73
X3.3701Y-2.311
X3.3898Y-1.6693
X3.3976Y-3.3346
X3.4154Y-1.9315
X3.4331Y-2.0276
X3.4366Y-1.7161
X3.4567Y-1.7717
X3.4606Y-1.9291
X3.4882Y-2.0079
X3.4961Y-1.811
X3.51Y-1.87
X3.54Y-3.11
X3.545Y-3.78
X3.55Y-3.975
X3.555Y-3.66
X3.6417Y-2.4764
X3.6417Y-2.5787
X3.66Y-4.04
X3.68Y-1.53
X3.7165Y-1.9803
X3.7165Y-2.6772
X3.74Y-4.24
X3.7441Y-2.0276
X3.7441Y-2.7795
X3.76Y-4.035
X3.7913Y-2.5197
X3.7992Y-2.7283
X3.8028Y-3.6587
X3.8031Y-2.4252
X3.811Y-2.8386
X3.813Y-3.798
X3.8189Y-2.3268
X3.885Y-4.075
X3.8858Y-2.3937
X3.8858Y-2.7598
X3.8862Y-3.6575
X3.8953Y-2.5
X3.8969Y-3.7996
X3.8976Y-2.3189
X3.9094Y-2.9685
T2
X2.415Y-4.0081
X2.4665Y-4.3642
X2.635Y-4.0081
X2.6634Y-4.3642
X2.8531Y-3.2374
X2.8602Y-4.3642
X3.0232Y-2.1697
X3.0717Y-3.2374
X3.1933Y-2.1697
T3
X2.3307Y-3.8268
X2.3386Y-3.6717
X3.Y-1.42
X3.0748Y-4.4252
X3.36Y-3.9
X3.4882Y-3.8976
X3.5787Y-2.2165
X3.8465Y-4.4921
X4.122Y-2.2441
X4.122Y-2.6772
X4.126Y-1.7913
T4
X2.5657Y-2.289
X2.5657Y-2.389
X2.5657Y-2.489
X2.5657Y-2.589
X2.5657Y-2.689
X2.5657Y-2.789
X2.5657Y-2.889
X2.5657Y-2.989
X3.4657Y-2.289
X3.4657Y-2.389
X3.4657Y-2.489
X3.4657Y-2.589
X3.4657Y-2.689
X3.4657Y-2.789
X3.4657Y-2.889
X3.4657Y-2.989
T5
X1.8779Y-1.4469
X1.8779Y-1.88
X1.8779Y-2.313
X1.8779Y-2.7461
X1.8779Y-3.1792
X1.8779Y-3.6123
X1.8779Y-4.0453
X1.996Y-1.7067
X1.996Y-2.1398
X1.996Y-2.5729
X1.996Y-3.006
X1.996Y-3.439
X1.996Y-3.8721
X1.996Y-4.3052
X2.1535Y-1.4469
X2.1535Y-1.88
X2.1535Y-2.313
X2.1535Y-2.7461
X2.1535Y-3.1792
X2.1535Y-3.6123
X2.1535Y-4.0453
X3.2264Y-4.1566
X3.2264Y-4.4322
X3.4863Y-4.3141
X3.8505Y-1.7027
X3.8505Y-2.1358
X3.8505Y-2.5688
X3.8505Y-3.0019
X3.8505Y-3.435
X3.8505Y-3.8681
X3.8505Y-4.3011
X4.008Y-1.4429
X4.008Y-1.8759
X4.008Y-2.309
X4.008Y-2.7421
X4.008Y-3.1751
X4.008Y-3.6082
X4.008Y-4.0413
X4.1261Y-1.7027
X4.1261Y-2.1358
X4.1261Y-2.5688
X4.1261Y-3.0019
X4.1261Y-3.435
X4.1261Y-3.8681
X4.1261Y-4.3011
T6
X1.8492Y-4.4717
X2.0031Y-1.311
X3.8634Y-1.311
X4.1504Y-4.4701
T0
M30
