G04 #@! TF.FileFunction,Legend,Bot*
%FSLAX46Y46*%
G04 Gerber Fmt 4.6, Leading zero omitted, Abs format (unit mm)*
G04 Created by KiCad (PCBNEW 4.0.7) date Thursday, May 31, 2018 'PMt' 11:14:33 PM*
%MOMM*%
%LPD*%
G01*
G04 APERTURE LIST*
%ADD10C,0.100000*%
%ADD11C,0.150000*%
%ADD12C,0.254000*%
G04 APERTURE END LIST*
D10*
D11*
X85090000Y-53930000D02*
X64520000Y-53930000D01*
X64520000Y-83820000D02*
X64520000Y-53930000D01*
X85090000Y-83820000D02*
X64520000Y-83820000D01*
X85090000Y-83820000D02*
X85090000Y-53930000D01*
D10*
X65782528Y-84577228D02*
X71593820Y-84577228D01*
X71593820Y-84577228D02*
X71620151Y-83293795D01*
X71620151Y-83293795D02*
X80451373Y-83300483D01*
X80451373Y-83300483D02*
X80449397Y-84502736D01*
X80449397Y-84502736D02*
X89530193Y-84476658D01*
X89530193Y-84476658D02*
X89516195Y-53306507D01*
X89516195Y-53306507D02*
X89283384Y-52703714D01*
X89283384Y-52703714D02*
X88999901Y-52158833D01*
X88999901Y-52158833D02*
X88665253Y-51672423D01*
X88665253Y-51672423D02*
X88278953Y-51245048D01*
X88278953Y-51245048D02*
X87840512Y-50877259D01*
X87840512Y-50877259D02*
X87349440Y-50569623D01*
X87349440Y-50569623D02*
X86805250Y-50322690D01*
X86805250Y-50322690D02*
X86207453Y-50137024D01*
X86207453Y-50137024D02*
X67169540Y-50108266D01*
X67169540Y-50108266D02*
X66550176Y-50342259D01*
X66550176Y-50342259D02*
X65961982Y-50626742D01*
X65961982Y-50626742D02*
X65418555Y-50976257D01*
X65418555Y-50976257D02*
X64933497Y-51405342D01*
X64933497Y-51405342D02*
X64520405Y-51928540D01*
X64520405Y-51928540D02*
X64192878Y-52560387D01*
X64192878Y-52560387D02*
X63964518Y-53315425D01*
X63964518Y-53315425D02*
X63848922Y-54208193D01*
X63848922Y-54208193D02*
X63823974Y-76763285D01*
X63823974Y-76763285D02*
X65767520Y-77724181D01*
X65767520Y-77724181D02*
X65797314Y-84532524D01*
X79779650Y-78351451D02*
X72640069Y-78351451D01*
X72640069Y-78351451D02*
X72640069Y-84165188D01*
X72640069Y-84165188D02*
X79779650Y-84165188D01*
X79779650Y-84165188D02*
X79779650Y-78351451D01*
X65856400Y-77702349D02*
X67408622Y-77702349D01*
X67408622Y-77702349D02*
X67937789Y-78231515D01*
X67937789Y-78231515D02*
X69190150Y-78231515D01*
X69190150Y-78231515D02*
X69190150Y-83293876D01*
X69190150Y-83293876D02*
X67902511Y-83293876D01*
X67902511Y-83293876D02*
X67373344Y-83787765D01*
X67373344Y-83787765D02*
X65803483Y-83787765D01*
X65803483Y-83787765D02*
X65856400Y-77702349D01*
X65821122Y-79783738D02*
X65168483Y-79783738D01*
X65168483Y-79783738D02*
X65168483Y-81776932D01*
X65168483Y-81776932D02*
X65785844Y-81776932D01*
D12*
X108000000Y-43300000D02*
X108000000Y-36720000D01*
X101012160Y-36699460D02*
X95892240Y-36699460D01*
X108000000Y-36699460D02*
X102592240Y-36699460D01*
X95800380Y-43299460D02*
X95800380Y-36700540D01*
X95800380Y-43299460D02*
X97001800Y-43299460D01*
X104002040Y-43299460D02*
X98602000Y-43299460D01*
X108000000Y-43299460D02*
X105602240Y-43299460D01*
X108000000Y-54300000D02*
X108000000Y-47720000D01*
X101012160Y-47699460D02*
X95892240Y-47699460D01*
X108000000Y-47699460D02*
X102592240Y-47699460D01*
X95800380Y-54299460D02*
X95800380Y-47700540D01*
X95800380Y-54299460D02*
X97001800Y-54299460D01*
X104002040Y-54299460D02*
X98602000Y-54299460D01*
X108000000Y-54299460D02*
X105602240Y-54299460D01*
X108000000Y-65300000D02*
X108000000Y-58720000D01*
X101012160Y-58699460D02*
X95892240Y-58699460D01*
X108000000Y-58699460D02*
X102592240Y-58699460D01*
X95800380Y-65299460D02*
X95800380Y-58700540D01*
X95800380Y-65299460D02*
X97001800Y-65299460D01*
X104002040Y-65299460D02*
X98602000Y-65299460D01*
X108000000Y-65299460D02*
X105602240Y-65299460D01*
X108000000Y-76300000D02*
X108000000Y-69720000D01*
X101012160Y-69699460D02*
X95892240Y-69699460D01*
X108000000Y-69699460D02*
X102592240Y-69699460D01*
X95800380Y-76299460D02*
X95800380Y-69700540D01*
X95800380Y-76299460D02*
X97001800Y-76299460D01*
X104002040Y-76299460D02*
X98602000Y-76299460D01*
X108000000Y-76299460D02*
X105602240Y-76299460D01*
X108000000Y-87300000D02*
X108000000Y-80720000D01*
X101012160Y-80699460D02*
X95892240Y-80699460D01*
X108000000Y-80699460D02*
X102592240Y-80699460D01*
X95800380Y-87299460D02*
X95800380Y-80700540D01*
X95800380Y-87299460D02*
X97001800Y-87299460D01*
X104002040Y-87299460D02*
X98602000Y-87299460D01*
X108000000Y-87299460D02*
X105602240Y-87299460D01*
X108000000Y-98300000D02*
X108000000Y-91720000D01*
X101012160Y-91699460D02*
X95892240Y-91699460D01*
X108000000Y-91699460D02*
X102592240Y-91699460D01*
X95800380Y-98299460D02*
X95800380Y-91700540D01*
X95800380Y-98299460D02*
X97001800Y-98299460D01*
X104002040Y-98299460D02*
X98602000Y-98299460D01*
X108000000Y-98299460D02*
X105602240Y-98299460D01*
X108000000Y-109300000D02*
X108000000Y-102720000D01*
X101012160Y-102699460D02*
X95892240Y-102699460D01*
X108000000Y-102699460D02*
X102592240Y-102699460D01*
X95800380Y-109299460D02*
X95800380Y-102700540D01*
X95800380Y-109299460D02*
X97001800Y-109299460D01*
X104002040Y-109299460D02*
X98602000Y-109299460D01*
X108000000Y-109299460D02*
X105602240Y-109299460D01*
X81900000Y-115775000D02*
X88480000Y-115775000D01*
X88500540Y-108787160D02*
X88500540Y-103667240D01*
X88500540Y-115775000D02*
X88500540Y-110367240D01*
X81900540Y-103575380D02*
X88499460Y-103575380D01*
X81900540Y-103575380D02*
X81900540Y-104776800D01*
X81900540Y-111777040D02*
X81900540Y-106377000D01*
X81900540Y-115775000D02*
X81900540Y-113377240D01*
X44500000Y-36700000D02*
X44500000Y-43280000D01*
X51487840Y-43300540D02*
X56607760Y-43300540D01*
X44500000Y-43300540D02*
X49907760Y-43300540D01*
X56699620Y-36700540D02*
X56699620Y-43299460D01*
X56699620Y-36700540D02*
X55498200Y-36700540D01*
X48497960Y-36700540D02*
X53898000Y-36700540D01*
X44500000Y-36700540D02*
X46897760Y-36700540D01*
X44500000Y-47700000D02*
X44500000Y-54280000D01*
X51487840Y-54300540D02*
X56607760Y-54300540D01*
X44500000Y-54300540D02*
X49907760Y-54300540D01*
X56699620Y-47700540D02*
X56699620Y-54299460D01*
X56699620Y-47700540D02*
X55498200Y-47700540D01*
X48497960Y-47700540D02*
X53898000Y-47700540D01*
X44500000Y-47700540D02*
X46897760Y-47700540D01*
X44500000Y-58700000D02*
X44500000Y-65280000D01*
X51487840Y-65300540D02*
X56607760Y-65300540D01*
X44500000Y-65300540D02*
X49907760Y-65300540D01*
X56699620Y-58700540D02*
X56699620Y-65299460D01*
X56699620Y-58700540D02*
X55498200Y-58700540D01*
X48497960Y-58700540D02*
X53898000Y-58700540D01*
X44500000Y-58700540D02*
X46897760Y-58700540D01*
X44500000Y-69700000D02*
X44500000Y-76280000D01*
X51487840Y-76300540D02*
X56607760Y-76300540D01*
X44500000Y-76300540D02*
X49907760Y-76300540D01*
X56699620Y-69700540D02*
X56699620Y-76299460D01*
X56699620Y-69700540D02*
X55498200Y-69700540D01*
X48497960Y-69700540D02*
X53898000Y-69700540D01*
X44500000Y-69700540D02*
X46897760Y-69700540D01*
X44500000Y-80700000D02*
X44500000Y-87280000D01*
X51487840Y-87300540D02*
X56607760Y-87300540D01*
X44500000Y-87300540D02*
X49907760Y-87300540D01*
X56699620Y-80700540D02*
X56699620Y-87299460D01*
X56699620Y-80700540D02*
X55498200Y-80700540D01*
X48497960Y-80700540D02*
X53898000Y-80700540D01*
X44500000Y-80700540D02*
X46897760Y-80700540D01*
X44500000Y-91700000D02*
X44500000Y-98280000D01*
X51487840Y-98300540D02*
X56607760Y-98300540D01*
X44500000Y-98300540D02*
X49907760Y-98300540D01*
X56699620Y-91700540D02*
X56699620Y-98299460D01*
X56699620Y-91700540D02*
X55498200Y-91700540D01*
X48497960Y-91700540D02*
X53898000Y-91700540D01*
X44500000Y-91700540D02*
X46897760Y-91700540D01*
X44500000Y-102700000D02*
X44500000Y-109280000D01*
X51487840Y-109300540D02*
X56607760Y-109300540D01*
X44500000Y-109300540D02*
X49907760Y-109300540D01*
X56699620Y-102700540D02*
X56699620Y-109299460D01*
X56699620Y-102700540D02*
X55498200Y-102700540D01*
X48497960Y-102700540D02*
X53898000Y-102700540D01*
X44500000Y-102700540D02*
X46897760Y-102700540D01*
D11*
X85592381Y-67798095D02*
X86401905Y-67798095D01*
X86497143Y-67845714D01*
X86544762Y-67893333D01*
X86592381Y-67988571D01*
X86592381Y-68179048D01*
X86544762Y-68274286D01*
X86497143Y-68321905D01*
X86401905Y-68369524D01*
X85592381Y-68369524D01*
X85925714Y-69274286D02*
X86592381Y-69274286D01*
X85544762Y-69036190D02*
X86259048Y-68798095D01*
X86259048Y-69417143D01*
X76091905Y-86562381D02*
X76091905Y-87371905D01*
X76044286Y-87467143D01*
X75996667Y-87514762D01*
X75901429Y-87562381D01*
X75710952Y-87562381D01*
X75615714Y-87514762D01*
X75568095Y-87467143D01*
X75520476Y-87371905D01*
X75520476Y-86562381D01*
X74568095Y-86562381D02*
X75044286Y-86562381D01*
X75091905Y-87038571D01*
X75044286Y-86990952D01*
X74949048Y-86943333D01*
X74710952Y-86943333D01*
X74615714Y-86990952D01*
X74568095Y-87038571D01*
X74520476Y-87133810D01*
X74520476Y-87371905D01*
X74568095Y-87467143D01*
X74615714Y-87514762D01*
X74710952Y-87562381D01*
X74949048Y-87562381D01*
X75044286Y-87514762D01*
X75091905Y-87467143D01*
X83457143Y-51417143D02*
X82742857Y-54417143D01*
X82171428Y-52274286D01*
X81600000Y-54417143D01*
X80885714Y-51417143D01*
X78600000Y-54274286D02*
X78885714Y-54417143D01*
X79457143Y-54417143D01*
X79742857Y-54274286D01*
X79885714Y-53988571D01*
X79885714Y-52845714D01*
X79742857Y-52560000D01*
X79457143Y-52417143D01*
X78885714Y-52417143D01*
X78600000Y-52560000D01*
X78457143Y-52845714D01*
X78457143Y-53131429D01*
X79885714Y-53417143D01*
X77171428Y-54417143D02*
X77171428Y-51417143D01*
X76171428Y-53560000D01*
X75171428Y-51417143D01*
X75171428Y-54417143D01*
X73314286Y-54417143D02*
X73600000Y-54274286D01*
X73742857Y-54131429D01*
X73885714Y-53845714D01*
X73885714Y-52988571D01*
X73742857Y-52702857D01*
X73600000Y-52560000D01*
X73314286Y-52417143D01*
X72885714Y-52417143D01*
X72600000Y-52560000D01*
X72457143Y-52702857D01*
X72314286Y-52988571D01*
X72314286Y-53845714D01*
X72457143Y-54131429D01*
X72600000Y-54274286D01*
X72885714Y-54417143D01*
X73314286Y-54417143D01*
X71171428Y-54274286D02*
X70885714Y-54417143D01*
X70314286Y-54417143D01*
X70028571Y-54274286D01*
X69885714Y-53988571D01*
X69885714Y-53845714D01*
X70028571Y-53560000D01*
X70314286Y-53417143D01*
X70742857Y-53417143D01*
X71028571Y-53274286D01*
X71171428Y-52988571D01*
X71171428Y-52845714D01*
X71028571Y-52560000D01*
X70742857Y-52417143D01*
X70314286Y-52417143D01*
X70028571Y-52560000D01*
M02*
