G04 #@! TF.FileFunction,Copper,L2,Bot,Signal*
%FSLAX46Y46*%
G04 Gerber Fmt 4.6, Leading zero omitted, Abs format (unit mm)*
G04 Created by KiCad (PCBNEW 4.0.7) date Thursday, May 31, 2018 'PMt' 11:14:33 PM*
%MOMM*%
%LPD*%
G01*
G04 APERTURE LIST*
%ADD10C,0.100000*%
%ADD11C,1.524000*%
%ADD12C,1.500000*%
%ADD13C,1.800000*%
%ADD14C,2.000000*%
%ADD15C,3.800000*%
%ADD16C,0.660000*%
%ADD17C,0.250000*%
%ADD18C,0.254000*%
G04 APERTURE END LIST*
D10*
D11*
X66930000Y-101805000D03*
X61340000Y-101805000D03*
X62650000Y-110850000D03*
X67650000Y-110850000D03*
X72650000Y-110850000D03*
D12*
X76200000Y-36068000D03*
D11*
X78020000Y-82230000D03*
X72470000Y-82230000D03*
X81110000Y-55110000D03*
X76790000Y-55110000D03*
D12*
X85344000Y-99060000D03*
D13*
X88030000Y-58140000D03*
X88030000Y-60680000D03*
X88030000Y-63220000D03*
X88030000Y-65760000D03*
X88030000Y-68300000D03*
X88030000Y-70840000D03*
X88030000Y-73380000D03*
X88030000Y-75920000D03*
X65170000Y-75920000D03*
X65170000Y-73380000D03*
X65170000Y-70840000D03*
X65170000Y-68300000D03*
X65170000Y-65760000D03*
X65170000Y-63220000D03*
X65170000Y-60680000D03*
X65170000Y-58140000D03*
D12*
X104800000Y-45500000D03*
X104700000Y-57000000D03*
X104700000Y-68000000D03*
X97700000Y-114100000D03*
X90900000Y-56300000D03*
X88600000Y-99000000D03*
X78100000Y-112400000D03*
X59400000Y-93260000D03*
X59200000Y-97200000D03*
D14*
X101802400Y-36648660D03*
X104802140Y-43248660D03*
X97801900Y-43248660D03*
X101802400Y-47648660D03*
X104802140Y-54248660D03*
X97801900Y-54248660D03*
X101802400Y-58648660D03*
X104802140Y-65248660D03*
X97801900Y-65248660D03*
X101802400Y-69648660D03*
X104802140Y-76248660D03*
X97801900Y-76248660D03*
X101802400Y-80648660D03*
X104802140Y-87248660D03*
X97801900Y-87248660D03*
X101802400Y-91648660D03*
X104802140Y-98248660D03*
X97801900Y-98248660D03*
X101802400Y-102648660D03*
X104802140Y-109248660D03*
X97801900Y-109248660D03*
X88551340Y-109577400D03*
X81951340Y-112577140D03*
X81951340Y-105576900D03*
X50697600Y-43351340D03*
X47697860Y-36751340D03*
X54698100Y-36751340D03*
X50697600Y-54351340D03*
X47697860Y-47751340D03*
X54698100Y-47751340D03*
X50697600Y-65351340D03*
X47697860Y-58751340D03*
X54698100Y-58751340D03*
X50697600Y-76351340D03*
X47697860Y-69751340D03*
X54698100Y-69751340D03*
X50697600Y-87351340D03*
X47697860Y-80751340D03*
X54698100Y-80751340D03*
X50697600Y-98351340D03*
X47697860Y-91751340D03*
X54698100Y-91751340D03*
X50697600Y-109351340D03*
X47697860Y-102751340D03*
X54698100Y-102751340D03*
D15*
X50880000Y-33300000D03*
X98130000Y-33300000D03*
X46970000Y-113580000D03*
X105420000Y-113540000D03*
D16*
X82000000Y-92410000D03*
X63754000Y-51562000D03*
X63750000Y-47690000D03*
X87200000Y-51500000D03*
X87900000Y-49000000D03*
X54610000Y-46101000D03*
X54610000Y-38608000D03*
X79248000Y-51562000D03*
X79502000Y-54864000D03*
X80010000Y-98806000D03*
X78994000Y-103124000D03*
X59182000Y-50546000D03*
X56134000Y-50546000D03*
X92964000Y-102616000D03*
X89154000Y-47498000D03*
X75650000Y-112425000D03*
X75725000Y-105175000D03*
X73152000Y-105156000D03*
X70104000Y-105156000D03*
X62900000Y-98800000D03*
X62800000Y-56800000D03*
X96500000Y-69300000D03*
X98700000Y-70100000D03*
X96800000Y-72100000D03*
X99300000Y-75400000D03*
X83058000Y-85979000D03*
X83170000Y-96280000D03*
X96850000Y-96470000D03*
X98980000Y-96510000D03*
X98679000Y-103505000D03*
X95504000Y-102489000D03*
X90170000Y-100965000D03*
X90043000Y-96012000D03*
X83693000Y-95504000D03*
X84582000Y-83820000D03*
X57700000Y-52200000D03*
X62000000Y-61900000D03*
X52400000Y-66800000D03*
X55400000Y-66800000D03*
X55410000Y-67810000D03*
X53700000Y-67890000D03*
X53500000Y-73000000D03*
X55800000Y-73000000D03*
X55800000Y-75700000D03*
X49320000Y-78390000D03*
X49520000Y-85550000D03*
X57404000Y-86741000D03*
X64135000Y-86487000D03*
X64008000Y-82169000D03*
X57404000Y-84455000D03*
X52705000Y-84455000D03*
X89916000Y-78994000D03*
X90297000Y-92964000D03*
X98710000Y-92900000D03*
X96590000Y-92930000D03*
X77978000Y-80772000D03*
X77851000Y-78994000D03*
X94400000Y-50300000D03*
X94400000Y-68000000D03*
X88600000Y-51000000D03*
X92500000Y-65500000D03*
X92500000Y-62900000D03*
X86750000Y-49060000D03*
X67800000Y-90200000D03*
X67150000Y-64060000D03*
X72136000Y-101092000D03*
X74676000Y-105156000D03*
X74422000Y-36068000D03*
X73140000Y-54840000D03*
X85600000Y-58700000D03*
X88800000Y-46000000D03*
X84900000Y-61200000D03*
X87800000Y-45000000D03*
X87290000Y-43590000D03*
X84400000Y-64400000D03*
X83900000Y-68300000D03*
X86100000Y-42400000D03*
X83400000Y-71700000D03*
X85300000Y-41200000D03*
X84470000Y-39940000D03*
X79375000Y-84074000D03*
X78740000Y-78105000D03*
X86300000Y-84700000D03*
X83800000Y-38650000D03*
X83600000Y-80000000D03*
X83600000Y-78100000D03*
X93472000Y-38862000D03*
X94996000Y-107696000D03*
X67600000Y-39240000D03*
X70180000Y-61570000D03*
X70900000Y-65200000D03*
X67600000Y-41200000D03*
X70900000Y-68600000D03*
X66410000Y-41970000D03*
X65110000Y-42710000D03*
X70900000Y-71700000D03*
X71000000Y-75100000D03*
X66100000Y-45000000D03*
X64900000Y-45800000D03*
X71000000Y-80300000D03*
X70300000Y-83400000D03*
X69000000Y-47500000D03*
X95100000Y-70600000D03*
X95100000Y-51500000D03*
X99000000Y-58900000D03*
X97000000Y-59100000D03*
X98700000Y-60800000D03*
X96600000Y-61600000D03*
X98940000Y-63500000D03*
X96300000Y-64000000D03*
X66000000Y-78000000D03*
X65600000Y-93500000D03*
X57300000Y-75800000D03*
X63760000Y-93240000D03*
X62100000Y-35700000D03*
X56100000Y-41100000D03*
X53900000Y-41100000D03*
X83820000Y-99568000D03*
X85598000Y-94742000D03*
X83312000Y-36068000D03*
X79248000Y-36068000D03*
X82423000Y-90170000D03*
X76708000Y-89916000D03*
X72000000Y-59900000D03*
X83380000Y-93740000D03*
X82423000Y-97917000D03*
D17*
X81785000Y-92625000D02*
X81785000Y-97285000D01*
X82000000Y-92410000D02*
X81785000Y-92625000D01*
X63754000Y-47694000D02*
X63754000Y-51562000D01*
X63750000Y-47690000D02*
X63754000Y-47694000D01*
X87200000Y-51500000D02*
X87900000Y-50800000D01*
X87900000Y-50800000D02*
X87900000Y-49000000D01*
X54610000Y-38608000D02*
X54610000Y-46101000D01*
X80010000Y-98806000D02*
X80264000Y-98806000D01*
X80264000Y-98806000D02*
X81785000Y-97285000D01*
X81785000Y-97285000D02*
X81788000Y-97282000D01*
X79502000Y-51816000D02*
X79502000Y-54864000D01*
X79248000Y-51562000D02*
X79502000Y-51816000D01*
X79502000Y-99314000D02*
X80010000Y-98806000D01*
X79502000Y-102616000D02*
X79502000Y-99314000D01*
X78994000Y-103124000D02*
X79502000Y-102616000D01*
X59182000Y-50546000D02*
X56134000Y-50546000D01*
X93218000Y-102362000D02*
X92964000Y-102616000D01*
X93218000Y-54864000D02*
X93218000Y-102362000D01*
X92202000Y-53848000D02*
X93218000Y-54864000D01*
X92202000Y-50546000D02*
X92202000Y-53848000D01*
X89154000Y-47498000D02*
X92202000Y-50546000D01*
X75650000Y-105250000D02*
X75650000Y-112425000D01*
X75725000Y-105175000D02*
X75650000Y-105250000D01*
X73152000Y-105156000D02*
X70104000Y-105156000D01*
X62900000Y-56900000D02*
X62900000Y-98800000D01*
X62800000Y-56800000D02*
X62900000Y-56900000D01*
X97900000Y-69300000D02*
X96500000Y-69300000D01*
X98700000Y-70100000D02*
X97900000Y-69300000D01*
X96800000Y-72900000D02*
X96800000Y-72100000D01*
X99300000Y-75400000D02*
X96800000Y-72900000D01*
X83058000Y-85979000D02*
X83099000Y-85979000D01*
X84070000Y-94190000D02*
X82970000Y-95290000D01*
X84070000Y-86950000D02*
X84070000Y-94190000D01*
X83099000Y-85979000D02*
X84070000Y-86950000D01*
X82970000Y-96080000D02*
X82970000Y-95290000D01*
X83170000Y-96280000D02*
X82970000Y-96080000D01*
X98940000Y-96470000D02*
X96850000Y-96470000D01*
X98980000Y-96510000D02*
X98940000Y-96470000D01*
X98679000Y-103505000D02*
X97663000Y-102489000D01*
X97663000Y-102489000D02*
X95504000Y-102489000D01*
X90170000Y-100965000D02*
X90043000Y-100838000D01*
X90043000Y-100838000D02*
X90043000Y-96012000D01*
X83693000Y-95504000D02*
X84582000Y-94615000D01*
X84582000Y-94615000D02*
X84582000Y-83820000D01*
X57700000Y-52200000D02*
X59200000Y-52200000D01*
X59200000Y-52200000D02*
X62000000Y-55000000D01*
X62000000Y-55000000D02*
X62000000Y-61900000D01*
X52400000Y-66800000D02*
X55400000Y-66800000D01*
X53780000Y-67810000D02*
X55410000Y-67810000D01*
X53700000Y-67890000D02*
X53780000Y-67810000D01*
X53500000Y-73000000D02*
X55800000Y-73000000D01*
X49320000Y-78390000D02*
X55800000Y-75700000D01*
X49520000Y-85550000D02*
X57404000Y-86741000D01*
X64135000Y-86487000D02*
X64008000Y-86360000D01*
X64008000Y-86360000D02*
X64008000Y-82169000D01*
X52705000Y-84455000D02*
X57404000Y-84455000D01*
X89916000Y-78994000D02*
X90297000Y-79375000D01*
X90297000Y-79375000D02*
X90297000Y-92964000D01*
X96620000Y-92900000D02*
X98710000Y-92900000D01*
X96590000Y-92930000D02*
X96620000Y-92900000D01*
X77851000Y-80645000D02*
X77851000Y-78994000D01*
X77978000Y-80772000D02*
X77851000Y-80645000D01*
X94400000Y-50300000D02*
X94400000Y-68000000D01*
X88600000Y-51000000D02*
X90800000Y-51000000D01*
X90800000Y-51000000D02*
X91249998Y-51449998D01*
X91249998Y-51449998D02*
X91249998Y-54449998D01*
X91249998Y-54449998D02*
X92317996Y-55517996D01*
X92317996Y-55517996D02*
X92317996Y-62082004D01*
X91800000Y-63200000D02*
X92500000Y-63900000D01*
X92500000Y-63900000D02*
X92500000Y-65500000D01*
X92317996Y-62082004D02*
X91800000Y-62600000D01*
X91800000Y-62600000D02*
X91800000Y-63200000D01*
X87500000Y-48200000D02*
X89051998Y-48200000D01*
X89051998Y-48200000D02*
X91700000Y-50848002D01*
X91700000Y-50848002D02*
X91700000Y-54100000D01*
X91700000Y-54100000D02*
X92767998Y-55167998D01*
X92767998Y-55167998D02*
X92767998Y-62632002D01*
X92767998Y-62632002D02*
X92500000Y-62900000D01*
X87500000Y-48310000D02*
X87500000Y-48200000D01*
X86750000Y-49060000D02*
X87500000Y-48310000D01*
X67900000Y-64500000D02*
X67590000Y-64500000D01*
X67900000Y-90100000D02*
X67800000Y-90200000D01*
X67900000Y-64500000D02*
X67900000Y-90100000D01*
X67590000Y-64500000D02*
X67150000Y-64060000D01*
X73406000Y-102362000D02*
X72136000Y-101092000D01*
X73406000Y-103886000D02*
X73406000Y-102362000D01*
X74676000Y-105156000D02*
X73406000Y-103886000D01*
X73152000Y-54229000D02*
X73152000Y-54828000D01*
X73152000Y-37338000D02*
X73152000Y-54229000D01*
X74422000Y-36068000D02*
X73152000Y-37338000D01*
X73152000Y-54828000D02*
X73140000Y-54840000D01*
X85200000Y-58300000D02*
X85600000Y-58700000D01*
X85200000Y-48300000D02*
X85200000Y-58300000D01*
X86881801Y-46618199D02*
X85200000Y-48300000D01*
X88181801Y-46618199D02*
X86881801Y-46618199D01*
X88800000Y-46000000D02*
X88181801Y-46618199D01*
X84700000Y-61000000D02*
X84900000Y-61200000D01*
X84700000Y-48100000D02*
X84700000Y-61000000D01*
X87800000Y-45000000D02*
X84700000Y-48100000D01*
X84440000Y-46440000D02*
X84200000Y-46440000D01*
X87290000Y-43590000D02*
X84440000Y-46440000D01*
X84200000Y-46440000D02*
X84200000Y-64200000D01*
X84200000Y-64200000D02*
X84400000Y-64400000D01*
X84200000Y-46400000D02*
X84200000Y-46440000D01*
X83700000Y-68100000D02*
X83900000Y-68300000D01*
X83700000Y-44800000D02*
X83700000Y-68100000D01*
X86100000Y-42400000D02*
X83700000Y-44800000D01*
X83200000Y-71500000D02*
X83400000Y-71700000D01*
X83200000Y-43300000D02*
X83200000Y-71500000D01*
X85300000Y-41200000D02*
X83200000Y-43300000D01*
X82700000Y-41700000D02*
X82700000Y-76200000D01*
X82700000Y-76200000D02*
X84000000Y-77500000D01*
X84000000Y-77500000D02*
X86300000Y-77500000D01*
X82700000Y-41710000D02*
X82700000Y-41700000D01*
X84470000Y-39940000D02*
X82700000Y-41710000D01*
X78740000Y-78105000D02*
X79375000Y-78740000D01*
X79375000Y-78740000D02*
X79375000Y-84074000D01*
X86300000Y-77500000D02*
X86300000Y-77500000D01*
X86300000Y-77500000D02*
X86300000Y-78100000D01*
X86300000Y-78600000D02*
X86300000Y-84700000D01*
X86300000Y-78100000D02*
X86300000Y-78600000D01*
X82200000Y-40250000D02*
X82200000Y-40200000D01*
X83800000Y-38650000D02*
X82200000Y-40250000D01*
X82200000Y-40200000D02*
X82200000Y-76700000D01*
X82200000Y-76700000D02*
X83600000Y-78100000D01*
X83600000Y-80000000D02*
X83600000Y-78100000D01*
X93472000Y-38862000D02*
X93726000Y-39116000D01*
X93726000Y-39116000D02*
X93726000Y-104394000D01*
X93726000Y-104394000D02*
X94996000Y-105664000D01*
X94996000Y-105664000D02*
X94996000Y-107696000D01*
X67600000Y-39240000D02*
X68570000Y-40210000D01*
X68570000Y-40210000D02*
X68570000Y-41740000D01*
X70180000Y-61570000D02*
X70120000Y-61510000D01*
X70120000Y-61510000D02*
X70120000Y-55020000D01*
X70120000Y-55020000D02*
X69490000Y-54390000D01*
X69490000Y-54390000D02*
X69490000Y-49020000D01*
X69490000Y-49020000D02*
X68250002Y-47780002D01*
X68250002Y-47780002D02*
X68250002Y-42059998D01*
X68250002Y-42059998D02*
X68570000Y-41740000D01*
X68570000Y-41740000D02*
X68570000Y-41730000D01*
X70900000Y-63400000D02*
X70900000Y-65200000D01*
X69400000Y-61900000D02*
X70900000Y-63400000D01*
X69400000Y-61300000D02*
X69400000Y-61900000D01*
X69600000Y-61100000D02*
X69400000Y-61300000D01*
X69600000Y-55200000D02*
X69600000Y-61100000D01*
X68700000Y-54300000D02*
X69600000Y-55200000D01*
X68700000Y-53600000D02*
X68700000Y-54300000D01*
X69000000Y-53300000D02*
X68700000Y-53600000D01*
X69000000Y-49300000D02*
X69000000Y-53300000D01*
X67800000Y-48100000D02*
X69000000Y-49300000D01*
X67800000Y-41400000D02*
X67800000Y-48100000D01*
X67600000Y-41200000D02*
X67800000Y-41400000D01*
X67300000Y-42800000D02*
X67300000Y-48300000D01*
X67300000Y-48300000D02*
X68500000Y-49500000D01*
X68500000Y-49500000D02*
X68500000Y-53000000D01*
X68500000Y-53000000D02*
X68200000Y-53300000D01*
X68200000Y-53300000D02*
X68200000Y-54550002D01*
X68200000Y-54550002D02*
X69149998Y-55500000D01*
X69149998Y-55500000D02*
X69149998Y-60850002D01*
X69149998Y-60850002D02*
X68900000Y-61100000D01*
X68900000Y-61100000D02*
X68900000Y-62036398D01*
X68900000Y-62036398D02*
X70200000Y-63336398D01*
X70200000Y-63336398D02*
X70200000Y-65600000D01*
X70200000Y-65600000D02*
X70900000Y-66300000D01*
X70900000Y-66300000D02*
X70900000Y-68600000D01*
X67240000Y-42800000D02*
X67300000Y-42800000D01*
X66410000Y-41970000D02*
X67240000Y-42800000D01*
X66610000Y-44210000D02*
X66800000Y-44210000D01*
X65110000Y-42710000D02*
X66610000Y-44210000D01*
X66800000Y-44210000D02*
X66800000Y-48450002D01*
X66800000Y-48450002D02*
X68000000Y-49650002D01*
X68000000Y-49650002D02*
X68000000Y-52800000D01*
X68000000Y-52800000D02*
X67749998Y-53050002D01*
X67749998Y-53050002D02*
X67749998Y-54750002D01*
X67749998Y-54750002D02*
X68681801Y-55681805D01*
X68681801Y-55681805D02*
X68681801Y-60618199D01*
X68681801Y-60618199D02*
X68400000Y-60900000D01*
X68400000Y-60900000D02*
X68400000Y-62172796D01*
X68400000Y-62172796D02*
X69700000Y-63472796D01*
X69700000Y-63472796D02*
X69700000Y-65850002D01*
X69700000Y-65850002D02*
X70100000Y-66250002D01*
X70100000Y-66250002D02*
X70100000Y-68900000D01*
X70100000Y-68900000D02*
X70900000Y-69700000D01*
X70900000Y-69700000D02*
X70900000Y-71700000D01*
X66800000Y-44200000D02*
X66800000Y-44210000D01*
X71000000Y-72800000D02*
X71000000Y-75100000D01*
X70100000Y-71900000D02*
X71000000Y-72800000D01*
X70100000Y-71400000D02*
X70100000Y-71900000D01*
X70400000Y-71100000D02*
X70100000Y-71400000D01*
X70400000Y-69950002D02*
X70400000Y-71100000D01*
X69600000Y-69150002D02*
X70400000Y-69950002D01*
X69600000Y-66550002D02*
X69600000Y-69150002D01*
X69200000Y-66150002D02*
X69600000Y-66550002D01*
X69200000Y-63700000D02*
X69200000Y-66150002D01*
X67900000Y-62400000D02*
X69200000Y-63700000D01*
X67900000Y-60700000D02*
X67900000Y-62400000D01*
X68200000Y-60400000D02*
X67900000Y-60700000D01*
X68200000Y-56000000D02*
X68200000Y-60400000D01*
X67200000Y-55000000D02*
X68200000Y-56000000D01*
X67200000Y-52900000D02*
X67200000Y-55000000D01*
X67500000Y-52600000D02*
X67200000Y-52900000D01*
X67500000Y-49900000D02*
X67500000Y-52600000D01*
X66300000Y-48700000D02*
X67500000Y-49900000D01*
X66300000Y-45200000D02*
X66300000Y-48700000D01*
X66100000Y-45000000D02*
X66300000Y-45200000D01*
X64900000Y-45800000D02*
X65800000Y-46700000D01*
X65800000Y-46700000D02*
X65800000Y-48900000D01*
X65800000Y-48900000D02*
X67000000Y-50100000D01*
X67000000Y-50100000D02*
X67000000Y-52400000D01*
X67000000Y-52400000D02*
X66700000Y-52700000D01*
X66700000Y-52700000D02*
X66700000Y-55150002D01*
X66700000Y-55150002D02*
X67700000Y-56150002D01*
X67700000Y-56150002D02*
X67700000Y-60200000D01*
X67700000Y-60200000D02*
X67400000Y-60500000D01*
X67400000Y-60500000D02*
X67400000Y-62600000D01*
X67400000Y-62600000D02*
X68749998Y-63949998D01*
X68749998Y-63949998D02*
X68749998Y-66336398D01*
X68749998Y-66336398D02*
X69100000Y-66686400D01*
X69100000Y-66686400D02*
X69100000Y-69400000D01*
X69100000Y-69400000D02*
X69900000Y-70200000D01*
X69900000Y-70200000D02*
X69900000Y-70900000D01*
X69900000Y-70900000D02*
X69600000Y-71200000D01*
X69600000Y-71200000D02*
X69600000Y-72100000D01*
X69600000Y-72100000D02*
X70400000Y-72900000D01*
X70400000Y-72900000D02*
X70400000Y-74800000D01*
X70400000Y-74800000D02*
X70200000Y-75000000D01*
X70200000Y-75000000D02*
X70200000Y-75300000D01*
X70200000Y-75300000D02*
X71000000Y-76100000D01*
X71000000Y-80300000D02*
X71000000Y-76100000D01*
X70300000Y-82000000D02*
X70300000Y-83400000D01*
X71800000Y-80500000D02*
X70300000Y-82000000D01*
X71800000Y-62200000D02*
X71800000Y-80500000D01*
X70700000Y-61100000D02*
X71800000Y-62200000D01*
X70700000Y-54900000D02*
X70700000Y-61100000D01*
X70000000Y-54200000D02*
X70700000Y-54900000D01*
X70000000Y-48500000D02*
X70000000Y-54200000D01*
X69000000Y-47500000D02*
X70000000Y-48500000D01*
X95100000Y-51500000D02*
X95100000Y-70600000D01*
X99000000Y-58900000D02*
X98800000Y-59100000D01*
X98800000Y-59100000D02*
X97000000Y-59100000D01*
X98700000Y-60800000D02*
X97900000Y-61600000D01*
X97900000Y-61600000D02*
X96600000Y-61600000D01*
X98940000Y-63500000D02*
X96300000Y-64000000D01*
X66000000Y-93100000D02*
X66000000Y-78000000D01*
X65600000Y-93500000D02*
X66000000Y-93100000D01*
X64020000Y-93500000D02*
X65600000Y-93500000D01*
X63760000Y-93240000D02*
X64020000Y-93500000D01*
X56400000Y-74900000D02*
X57300000Y-75800000D01*
X62100000Y-35700000D02*
X56100000Y-35700000D01*
X56100000Y-35700000D02*
X56100000Y-41100000D01*
X53900000Y-41100000D02*
X52490000Y-42890000D01*
X52490000Y-42890000D02*
X51900000Y-49400000D01*
X51900000Y-49400000D02*
X49100000Y-52200000D01*
X49100000Y-52200000D02*
X49100000Y-72200000D01*
X49100000Y-72200000D02*
X51800000Y-74900000D01*
X51800000Y-74900000D02*
X56400000Y-74900000D01*
X83820000Y-96520000D02*
X83820000Y-99568000D01*
X85598000Y-94742000D02*
X83820000Y-96520000D01*
X79248000Y-36068000D02*
X83312000Y-36068000D01*
X76708000Y-84508000D02*
X76708000Y-89916000D01*
X72300000Y-80100000D02*
X76708000Y-84508000D01*
X72300000Y-60200000D02*
X72300000Y-80100000D01*
X72000000Y-59900000D02*
X72300000Y-60200000D01*
X83380000Y-91127000D02*
X83380000Y-93740000D01*
X82423000Y-90170000D02*
X83380000Y-91127000D01*
X83380000Y-93740000D02*
X82423000Y-94697000D01*
X82423000Y-94697000D02*
X82423000Y-97917000D01*
D18*
G36*
X47329449Y-35134491D02*
X46772917Y-35364446D01*
X46312582Y-35823977D01*
X46063144Y-36424692D01*
X46062576Y-37075135D01*
X46310966Y-37676283D01*
X46770497Y-38136618D01*
X47371212Y-38386056D01*
X48021655Y-38386624D01*
X48622803Y-38138234D01*
X49083138Y-37678703D01*
X49332576Y-37077988D01*
X49333092Y-36486801D01*
X53052192Y-36486801D01*
X53076244Y-37136800D01*
X53278713Y-37625604D01*
X53545568Y-37724267D01*
X54518495Y-36751340D01*
X53545568Y-35778413D01*
X53278713Y-35877076D01*
X53052192Y-36486801D01*
X49333092Y-36486801D01*
X49333144Y-36427545D01*
X49084754Y-35826397D01*
X48625223Y-35366062D01*
X48073296Y-35136883D01*
X49135180Y-35140297D01*
X49442163Y-35447816D01*
X50373545Y-35834559D01*
X51382031Y-35835439D01*
X52314086Y-35450322D01*
X52613449Y-35151481D01*
X54246854Y-35156733D01*
X53823836Y-35331953D01*
X53725173Y-35598808D01*
X54698100Y-36571735D01*
X54712243Y-36557593D01*
X54891848Y-36737198D01*
X54877705Y-36751340D01*
X54891848Y-36765483D01*
X54712243Y-36945088D01*
X54698100Y-36930945D01*
X53725173Y-37903872D01*
X53823836Y-38170727D01*
X54433561Y-38397248D01*
X55083560Y-38373196D01*
X55340000Y-38266975D01*
X55340000Y-40495149D01*
X55282390Y-40552658D01*
X55135168Y-40907208D01*
X55134833Y-41291108D01*
X55281436Y-41645914D01*
X55552658Y-41917610D01*
X55907208Y-42064832D01*
X56291108Y-42065167D01*
X56645914Y-41918564D01*
X56917610Y-41647342D01*
X57064832Y-41292792D01*
X57065167Y-40908892D01*
X56918564Y-40554086D01*
X56860000Y-40495420D01*
X56860000Y-36460000D01*
X61495149Y-36460000D01*
X61552658Y-36517610D01*
X61907208Y-36664832D01*
X62291108Y-36665167D01*
X62645914Y-36518564D01*
X62917610Y-36247342D01*
X63064832Y-35892792D01*
X63065167Y-35508892D01*
X62931196Y-35184657D01*
X73947137Y-35220078D01*
X73876086Y-35249436D01*
X73604390Y-35520658D01*
X73457168Y-35875208D01*
X73457096Y-35958102D01*
X72614599Y-36800599D01*
X72449852Y-37047161D01*
X72392000Y-37338000D01*
X72392000Y-54223169D01*
X72322390Y-54292658D01*
X72175168Y-54647208D01*
X72174833Y-55031108D01*
X72321436Y-55385914D01*
X72592658Y-55657610D01*
X72947208Y-55804832D01*
X73331108Y-55805167D01*
X73685914Y-55658564D01*
X73957610Y-55387342D01*
X73957892Y-55386661D01*
X75392758Y-55386661D01*
X75604990Y-55900303D01*
X75997630Y-56293629D01*
X76510900Y-56506757D01*
X77066661Y-56507242D01*
X77580303Y-56295010D01*
X77973629Y-55902370D01*
X78186757Y-55389100D01*
X78187181Y-54902302D01*
X79700856Y-54902302D01*
X79728638Y-55457368D01*
X79887603Y-55841143D01*
X80129787Y-55910608D01*
X80930395Y-55110000D01*
X80129787Y-54309392D01*
X79887603Y-54378857D01*
X79700856Y-54902302D01*
X78187181Y-54902302D01*
X78187242Y-54833339D01*
X77975010Y-54319697D01*
X77785432Y-54129787D01*
X80309392Y-54129787D01*
X81110000Y-54930395D01*
X81124143Y-54916253D01*
X81303748Y-55095858D01*
X81289605Y-55110000D01*
X81303748Y-55124143D01*
X81124143Y-55303748D01*
X81110000Y-55289605D01*
X80309392Y-56090213D01*
X80378857Y-56332397D01*
X80902302Y-56519144D01*
X81440000Y-56492231D01*
X81440000Y-76700000D01*
X81497852Y-76990839D01*
X81662599Y-77237401D01*
X82634904Y-78209706D01*
X82634833Y-78291108D01*
X82781436Y-78645914D01*
X82840000Y-78704580D01*
X82840000Y-79395149D01*
X82782390Y-79452658D01*
X82635168Y-79807208D01*
X82634833Y-80191108D01*
X82781436Y-80545914D01*
X83052658Y-80817610D01*
X83407208Y-80964832D01*
X83791108Y-80965167D01*
X84145914Y-80818564D01*
X84417610Y-80547342D01*
X84564832Y-80192792D01*
X84565167Y-79808892D01*
X84418564Y-79454086D01*
X84360000Y-79395420D01*
X84360000Y-78704851D01*
X84417610Y-78647342D01*
X84564832Y-78292792D01*
X84564861Y-78260000D01*
X85540000Y-78260000D01*
X85540000Y-83611547D01*
X85400564Y-83274086D01*
X85129342Y-83002390D01*
X84774792Y-82855168D01*
X84390892Y-82854833D01*
X84036086Y-83001436D01*
X83764390Y-83272658D01*
X83617168Y-83627208D01*
X83616833Y-84011108D01*
X83763436Y-84365914D01*
X83822000Y-84424580D01*
X83822000Y-85378427D01*
X83605342Y-85161390D01*
X83250792Y-85014168D01*
X82866892Y-85013833D01*
X82512086Y-85160436D01*
X82240390Y-85431658D01*
X82093168Y-85786208D01*
X82092833Y-86170108D01*
X82239436Y-86524914D01*
X82510658Y-86796610D01*
X82865208Y-86943832D01*
X82989138Y-86943940D01*
X83310000Y-87264802D01*
X83310000Y-89789714D01*
X83241564Y-89624086D01*
X82970342Y-89352390D01*
X82615792Y-89205168D01*
X82231892Y-89204833D01*
X81877086Y-89351436D01*
X81605390Y-89622658D01*
X81458168Y-89977208D01*
X81457833Y-90361108D01*
X81604436Y-90715914D01*
X81875658Y-90987610D01*
X82230208Y-91134832D01*
X82313102Y-91134904D01*
X82620000Y-91441802D01*
X82620000Y-93135149D01*
X82562390Y-93192658D01*
X82415168Y-93547208D01*
X82415096Y-93630102D01*
X81885599Y-94159599D01*
X81720852Y-94406161D01*
X81663000Y-94697000D01*
X81663000Y-97312149D01*
X81605390Y-97369658D01*
X81458168Y-97724208D01*
X81457833Y-98108108D01*
X81604436Y-98462914D01*
X81875658Y-98734610D01*
X82230208Y-98881832D01*
X82614108Y-98882167D01*
X82968914Y-98735564D01*
X83060000Y-98644637D01*
X83060000Y-98963149D01*
X83002390Y-99020658D01*
X82855168Y-99375208D01*
X82854833Y-99759108D01*
X83001436Y-100113914D01*
X83272658Y-100385610D01*
X83627208Y-100532832D01*
X84011108Y-100533167D01*
X84365914Y-100386564D01*
X84538894Y-100213885D01*
X84558436Y-100233461D01*
X85067298Y-100444759D01*
X85618285Y-100445240D01*
X86127515Y-100234831D01*
X86517461Y-99845564D01*
X86728759Y-99336702D01*
X86728813Y-99274285D01*
X87214760Y-99274285D01*
X87425169Y-99783515D01*
X87814436Y-100173461D01*
X88323298Y-100384759D01*
X88874285Y-100385240D01*
X89283000Y-100216363D01*
X89283000Y-100584768D01*
X89205168Y-100772208D01*
X89204833Y-101156108D01*
X89351436Y-101510914D01*
X89622658Y-101782610D01*
X89977208Y-101929832D01*
X90361108Y-101930167D01*
X90715914Y-101783564D01*
X90987610Y-101512342D01*
X91134832Y-101157792D01*
X91135167Y-100773892D01*
X90988564Y-100419086D01*
X90803000Y-100233198D01*
X90803000Y-96616851D01*
X90860610Y-96559342D01*
X91007832Y-96204792D01*
X91008167Y-95820892D01*
X90861564Y-95466086D01*
X90590342Y-95194390D01*
X90235792Y-95047168D01*
X89851892Y-95046833D01*
X89497086Y-95193436D01*
X89225390Y-95464658D01*
X89078168Y-95819208D01*
X89077833Y-96203108D01*
X89224436Y-96557914D01*
X89283000Y-96616580D01*
X89283000Y-97783951D01*
X88876702Y-97615241D01*
X88325715Y-97614760D01*
X87816485Y-97825169D01*
X87426539Y-98214436D01*
X87215241Y-98723298D01*
X87214760Y-99274285D01*
X86728813Y-99274285D01*
X86729240Y-98785715D01*
X86518831Y-98276485D01*
X86129564Y-97886539D01*
X85620702Y-97675241D01*
X85069715Y-97674760D01*
X84580000Y-97877106D01*
X84580000Y-96834802D01*
X85707706Y-95707096D01*
X85789108Y-95707167D01*
X86143914Y-95560564D01*
X86415610Y-95289342D01*
X86562832Y-94934792D01*
X86563167Y-94550892D01*
X86416564Y-94196086D01*
X86145342Y-93924390D01*
X85790792Y-93777168D01*
X85406892Y-93776833D01*
X85342000Y-93803646D01*
X85342000Y-84908453D01*
X85481436Y-85245914D01*
X85752658Y-85517610D01*
X86107208Y-85664832D01*
X86491108Y-85665167D01*
X86845914Y-85518564D01*
X87117610Y-85247342D01*
X87264832Y-84892792D01*
X87265167Y-84508892D01*
X87118564Y-84154086D01*
X87060000Y-84095420D01*
X87060000Y-79185108D01*
X88950833Y-79185108D01*
X89097436Y-79539914D01*
X89368658Y-79811610D01*
X89537000Y-79881512D01*
X89537000Y-92359149D01*
X89479390Y-92416658D01*
X89332168Y-92771208D01*
X89331833Y-93155108D01*
X89478436Y-93509914D01*
X89749658Y-93781610D01*
X90104208Y-93928832D01*
X90488108Y-93929167D01*
X90842914Y-93782564D01*
X91114610Y-93511342D01*
X91261832Y-93156792D01*
X91262167Y-92772892D01*
X91115564Y-92418086D01*
X91057000Y-92359420D01*
X91057000Y-79375000D01*
X91018687Y-79182390D01*
X90999148Y-79084160D01*
X90881076Y-78907453D01*
X90881167Y-78802892D01*
X90734564Y-78448086D01*
X90463342Y-78176390D01*
X90108792Y-78029168D01*
X89724892Y-78028833D01*
X89370086Y-78175436D01*
X89098390Y-78446658D01*
X88951168Y-78801208D01*
X88950833Y-79185108D01*
X87060000Y-79185108D01*
X87060000Y-77500000D01*
X87002148Y-77209161D01*
X86837401Y-76962599D01*
X86590839Y-76797852D01*
X86300000Y-76740000D01*
X84314802Y-76740000D01*
X83798793Y-76223991D01*
X86494735Y-76223991D01*
X86727932Y-76788371D01*
X87159357Y-77220551D01*
X87723330Y-77454733D01*
X88333991Y-77455265D01*
X88898371Y-77222068D01*
X89330551Y-76790643D01*
X89564733Y-76226670D01*
X89565265Y-75616009D01*
X89332068Y-75051629D01*
X88900643Y-74619449D01*
X88879806Y-74610797D01*
X88930554Y-74460159D01*
X88030000Y-73559605D01*
X87129446Y-74460159D01*
X87180035Y-74610327D01*
X87161629Y-74617932D01*
X86729449Y-75049357D01*
X86495267Y-75613330D01*
X86494735Y-76223991D01*
X83798793Y-76223991D01*
X83460000Y-75885198D01*
X83460000Y-73139336D01*
X86483542Y-73139336D01*
X86509161Y-73749460D01*
X86693357Y-74194148D01*
X86949841Y-74280554D01*
X87850395Y-73380000D01*
X88209605Y-73380000D01*
X89110159Y-74280554D01*
X89366643Y-74194148D01*
X89576458Y-73620664D01*
X89550839Y-73010540D01*
X89366643Y-72565852D01*
X89110159Y-72479446D01*
X88209605Y-73380000D01*
X87850395Y-73380000D01*
X86949841Y-72479446D01*
X86693357Y-72565852D01*
X86483542Y-73139336D01*
X83460000Y-73139336D01*
X83460000Y-72665053D01*
X83591108Y-72665167D01*
X83945914Y-72518564D01*
X84217610Y-72247342D01*
X84364832Y-71892792D01*
X84365167Y-71508892D01*
X84218564Y-71154086D01*
X83960000Y-70895070D01*
X83960000Y-69265053D01*
X84091108Y-69265167D01*
X84445914Y-69118564D01*
X84717610Y-68847342D01*
X84864832Y-68492792D01*
X84865167Y-68108892D01*
X84718564Y-67754086D01*
X84460000Y-67495070D01*
X84460000Y-65365053D01*
X84591108Y-65365167D01*
X84945914Y-65218564D01*
X85217610Y-64947342D01*
X85364832Y-64592792D01*
X85365167Y-64208892D01*
X85218564Y-63854086D01*
X84960000Y-63595070D01*
X84960000Y-62165053D01*
X85091108Y-62165167D01*
X85445914Y-62018564D01*
X85717610Y-61747342D01*
X85864832Y-61392792D01*
X85865167Y-61008892D01*
X85718564Y-60654086D01*
X85460000Y-60395070D01*
X85460000Y-59664878D01*
X85791108Y-59665167D01*
X86145914Y-59518564D01*
X86417610Y-59247342D01*
X86564832Y-58892792D01*
X86565075Y-58614227D01*
X86727932Y-59008371D01*
X87129182Y-59410323D01*
X86729449Y-59809357D01*
X86495267Y-60373330D01*
X86494735Y-60983991D01*
X86727932Y-61548371D01*
X87129182Y-61950323D01*
X86729449Y-62349357D01*
X86495267Y-62913330D01*
X86494735Y-63523991D01*
X86727932Y-64088371D01*
X87129182Y-64490323D01*
X86729449Y-64889357D01*
X86495267Y-65453330D01*
X86494735Y-66063991D01*
X86727932Y-66628371D01*
X87129182Y-67030323D01*
X86729449Y-67429357D01*
X86495267Y-67993330D01*
X86494735Y-68603991D01*
X86727932Y-69168371D01*
X87129182Y-69570323D01*
X86729449Y-69969357D01*
X86495267Y-70533330D01*
X86494735Y-71143991D01*
X86727932Y-71708371D01*
X87159357Y-72140551D01*
X87180194Y-72149203D01*
X87129446Y-72299841D01*
X88030000Y-73200395D01*
X88930554Y-72299841D01*
X88879965Y-72149673D01*
X88898371Y-72142068D01*
X89330551Y-71710643D01*
X89564733Y-71146670D01*
X89565265Y-70536009D01*
X89332068Y-69971629D01*
X88930818Y-69569677D01*
X89330551Y-69170643D01*
X89564733Y-68606670D01*
X89565265Y-67996009D01*
X89332068Y-67431629D01*
X88930818Y-67029677D01*
X89330551Y-66630643D01*
X89564733Y-66066670D01*
X89565265Y-65456009D01*
X89332068Y-64891629D01*
X88930818Y-64489677D01*
X89330551Y-64090643D01*
X89564733Y-63526670D01*
X89565265Y-62916009D01*
X89332068Y-62351629D01*
X88930818Y-61949677D01*
X89330551Y-61550643D01*
X89564733Y-60986670D01*
X89565265Y-60376009D01*
X89332068Y-59811629D01*
X88930818Y-59409677D01*
X89330551Y-59010643D01*
X89564733Y-58446670D01*
X89565265Y-57836009D01*
X89332068Y-57271629D01*
X88900643Y-56839449D01*
X88336670Y-56605267D01*
X87726009Y-56604735D01*
X87161629Y-56837932D01*
X86729449Y-57269357D01*
X86495267Y-57833330D01*
X86494827Y-58338656D01*
X86418564Y-58154086D01*
X86147342Y-57882390D01*
X85960000Y-57804599D01*
X85960000Y-49634528D01*
X86202658Y-49877610D01*
X86557208Y-50024832D01*
X86941108Y-50025167D01*
X87295914Y-49878564D01*
X87567610Y-49607342D01*
X87714832Y-49252792D01*
X87714904Y-49169898D01*
X87924802Y-48960000D01*
X88737196Y-48960000D01*
X90017196Y-50240000D01*
X89204851Y-50240000D01*
X89147342Y-50182390D01*
X88792792Y-50035168D01*
X88408892Y-50034833D01*
X88054086Y-50181436D01*
X87782390Y-50452658D01*
X87635168Y-50807208D01*
X87634833Y-51191108D01*
X87781436Y-51545914D01*
X88052658Y-51817610D01*
X88407208Y-51964832D01*
X88791108Y-51965167D01*
X89145914Y-51818564D01*
X89204580Y-51760000D01*
X90485198Y-51760000D01*
X90489998Y-51764800D01*
X90489998Y-54449998D01*
X90547850Y-54740837D01*
X90664084Y-54914793D01*
X90625715Y-54914760D01*
X90116485Y-55125169D01*
X89726539Y-55514436D01*
X89515241Y-56023298D01*
X89514760Y-56574285D01*
X89725169Y-57083515D01*
X90114436Y-57473461D01*
X90623298Y-57684759D01*
X91174285Y-57685240D01*
X91557996Y-57526694D01*
X91557996Y-61767202D01*
X91262599Y-62062599D01*
X91097852Y-62309161D01*
X91040000Y-62600000D01*
X91040000Y-63200000D01*
X91097852Y-63490839D01*
X91262599Y-63737401D01*
X91740000Y-64214803D01*
X91740000Y-64895149D01*
X91682390Y-64952658D01*
X91535168Y-65307208D01*
X91534833Y-65691108D01*
X91681436Y-66045914D01*
X91952658Y-66317610D01*
X92307208Y-66464832D01*
X92458000Y-66464964D01*
X92458000Y-101780944D01*
X92418086Y-101797436D01*
X92146390Y-102068658D01*
X91999168Y-102423208D01*
X91998833Y-102807108D01*
X92145436Y-103161914D01*
X92416658Y-103433610D01*
X92771208Y-103580832D01*
X92966000Y-103581002D01*
X92966000Y-104394000D01*
X93023852Y-104684839D01*
X93188599Y-104931401D01*
X94236000Y-105978802D01*
X94236000Y-107091149D01*
X94178390Y-107148658D01*
X94031168Y-107503208D01*
X94030833Y-107887108D01*
X94177436Y-108241914D01*
X94448658Y-108513610D01*
X94803208Y-108660832D01*
X95187108Y-108661167D01*
X95541914Y-108514564D01*
X95813610Y-108243342D01*
X95874738Y-108096128D01*
X96828973Y-108096128D01*
X97801900Y-109069055D01*
X98774827Y-108096128D01*
X98676164Y-107829273D01*
X98066439Y-107602752D01*
X97416440Y-107626804D01*
X96927636Y-107829273D01*
X96828973Y-108096128D01*
X95874738Y-108096128D01*
X95960832Y-107888792D01*
X95961167Y-107504892D01*
X95814564Y-107150086D01*
X95756000Y-107091420D01*
X95756000Y-105664000D01*
X95698148Y-105373161D01*
X95698148Y-105373160D01*
X95533401Y-105126599D01*
X94486000Y-104079198D01*
X94486000Y-102680108D01*
X94538833Y-102680108D01*
X94685436Y-103034914D01*
X94956658Y-103306610D01*
X95311208Y-103453832D01*
X95695108Y-103454167D01*
X96049914Y-103307564D01*
X96108580Y-103249000D01*
X97348198Y-103249000D01*
X97713904Y-103614706D01*
X97713833Y-103696108D01*
X97860436Y-104050914D01*
X98131658Y-104322610D01*
X98486208Y-104469832D01*
X98870108Y-104470167D01*
X99224914Y-104323564D01*
X99496610Y-104052342D01*
X99643832Y-103697792D01*
X99644167Y-103313892D01*
X99503088Y-102972455D01*
X100167116Y-102972455D01*
X100415506Y-103573603D01*
X100875037Y-104033938D01*
X101475752Y-104283376D01*
X102126195Y-104283944D01*
X102727343Y-104035554D01*
X103187678Y-103576023D01*
X103437116Y-102975308D01*
X103437684Y-102324865D01*
X103189294Y-101723717D01*
X102729763Y-101263382D01*
X102129048Y-101013944D01*
X101478605Y-101013376D01*
X100877457Y-101261766D01*
X100417122Y-101721297D01*
X100167684Y-102322012D01*
X100167116Y-102972455D01*
X99503088Y-102972455D01*
X99497564Y-102959086D01*
X99226342Y-102687390D01*
X98871792Y-102540168D01*
X98788898Y-102540096D01*
X98200401Y-101951599D01*
X97953839Y-101786852D01*
X97663000Y-101729000D01*
X96108851Y-101729000D01*
X96051342Y-101671390D01*
X95696792Y-101524168D01*
X95312892Y-101523833D01*
X94958086Y-101670436D01*
X94686390Y-101941658D01*
X94539168Y-102296208D01*
X94538833Y-102680108D01*
X94486000Y-102680108D01*
X94486000Y-99401192D01*
X96828973Y-99401192D01*
X96927636Y-99668047D01*
X97537361Y-99894568D01*
X98187360Y-99870516D01*
X98676164Y-99668047D01*
X98774827Y-99401192D01*
X97801900Y-98428265D01*
X96828973Y-99401192D01*
X94486000Y-99401192D01*
X94486000Y-96661108D01*
X95884833Y-96661108D01*
X96031436Y-97015914D01*
X96302658Y-97287610D01*
X96450831Y-97349137D01*
X96382513Y-97374396D01*
X96155992Y-97984121D01*
X96180044Y-98634120D01*
X96382513Y-99122924D01*
X96649368Y-99221587D01*
X97622295Y-98248660D01*
X97608153Y-98234518D01*
X97787758Y-98054913D01*
X97801900Y-98069055D01*
X97816043Y-98054913D01*
X97995648Y-98234518D01*
X97981505Y-98248660D01*
X98954432Y-99221587D01*
X99221287Y-99122924D01*
X99425793Y-98572455D01*
X103166856Y-98572455D01*
X103415246Y-99173603D01*
X103874777Y-99633938D01*
X104475492Y-99883376D01*
X105125935Y-99883944D01*
X105727083Y-99635554D01*
X106187418Y-99176023D01*
X106436856Y-98575308D01*
X106437424Y-97924865D01*
X106189034Y-97323717D01*
X105729503Y-96863382D01*
X105128788Y-96613944D01*
X104478345Y-96613376D01*
X103877197Y-96861766D01*
X103416862Y-97321297D01*
X103167424Y-97922012D01*
X103166856Y-98572455D01*
X99425793Y-98572455D01*
X99447808Y-98513199D01*
X99423756Y-97863200D01*
X99249595Y-97442737D01*
X99525914Y-97328564D01*
X99797610Y-97057342D01*
X99944832Y-96702792D01*
X99945167Y-96318892D01*
X99798564Y-95964086D01*
X99527342Y-95692390D01*
X99172792Y-95545168D01*
X98788892Y-95544833D01*
X98434086Y-95691436D01*
X98415490Y-95710000D01*
X97454851Y-95710000D01*
X97397342Y-95652390D01*
X97042792Y-95505168D01*
X96658892Y-95504833D01*
X96304086Y-95651436D01*
X96032390Y-95922658D01*
X95885168Y-96277208D01*
X95884833Y-96661108D01*
X94486000Y-96661108D01*
X94486000Y-93121108D01*
X95624833Y-93121108D01*
X95771436Y-93475914D01*
X96042658Y-93747610D01*
X96397208Y-93894832D01*
X96781108Y-93895167D01*
X97135914Y-93748564D01*
X97224633Y-93660000D01*
X98105149Y-93660000D01*
X98162658Y-93717610D01*
X98517208Y-93864832D01*
X98901108Y-93865167D01*
X99255914Y-93718564D01*
X99527610Y-93447342D01*
X99674832Y-93092792D01*
X99675167Y-92708892D01*
X99528564Y-92354086D01*
X99257342Y-92082390D01*
X98992590Y-91972455D01*
X100167116Y-91972455D01*
X100415506Y-92573603D01*
X100875037Y-93033938D01*
X101475752Y-93283376D01*
X102126195Y-93283944D01*
X102727343Y-93035554D01*
X103187678Y-92576023D01*
X103437116Y-91975308D01*
X103437684Y-91324865D01*
X103189294Y-90723717D01*
X102729763Y-90263382D01*
X102129048Y-90013944D01*
X101478605Y-90013376D01*
X100877457Y-90261766D01*
X100417122Y-90721297D01*
X100167684Y-91322012D01*
X100167116Y-91972455D01*
X98992590Y-91972455D01*
X98902792Y-91935168D01*
X98518892Y-91934833D01*
X98164086Y-92081436D01*
X98105420Y-92140000D01*
X97164904Y-92140000D01*
X97137342Y-92112390D01*
X96782792Y-91965168D01*
X96398892Y-91964833D01*
X96044086Y-92111436D01*
X95772390Y-92382658D01*
X95625168Y-92737208D01*
X95624833Y-93121108D01*
X94486000Y-93121108D01*
X94486000Y-88401192D01*
X96828973Y-88401192D01*
X96927636Y-88668047D01*
X97537361Y-88894568D01*
X98187360Y-88870516D01*
X98676164Y-88668047D01*
X98774827Y-88401192D01*
X97801900Y-87428265D01*
X96828973Y-88401192D01*
X94486000Y-88401192D01*
X94486000Y-86984121D01*
X96155992Y-86984121D01*
X96180044Y-87634120D01*
X96382513Y-88122924D01*
X96649368Y-88221587D01*
X97622295Y-87248660D01*
X97981505Y-87248660D01*
X98954432Y-88221587D01*
X99221287Y-88122924D01*
X99425793Y-87572455D01*
X103166856Y-87572455D01*
X103415246Y-88173603D01*
X103874777Y-88633938D01*
X104475492Y-88883376D01*
X105125935Y-88883944D01*
X105727083Y-88635554D01*
X106187418Y-88176023D01*
X106436856Y-87575308D01*
X106437424Y-86924865D01*
X106189034Y-86323717D01*
X105729503Y-85863382D01*
X105128788Y-85613944D01*
X104478345Y-85613376D01*
X103877197Y-85861766D01*
X103416862Y-86321297D01*
X103167424Y-86922012D01*
X103166856Y-87572455D01*
X99425793Y-87572455D01*
X99447808Y-87513199D01*
X99423756Y-86863200D01*
X99221287Y-86374396D01*
X98954432Y-86275733D01*
X97981505Y-87248660D01*
X97622295Y-87248660D01*
X96649368Y-86275733D01*
X96382513Y-86374396D01*
X96155992Y-86984121D01*
X94486000Y-86984121D01*
X94486000Y-86096128D01*
X96828973Y-86096128D01*
X97801900Y-87069055D01*
X98774827Y-86096128D01*
X98676164Y-85829273D01*
X98066439Y-85602752D01*
X97416440Y-85626804D01*
X96927636Y-85829273D01*
X96828973Y-86096128D01*
X94486000Y-86096128D01*
X94486000Y-80972455D01*
X100167116Y-80972455D01*
X100415506Y-81573603D01*
X100875037Y-82033938D01*
X101475752Y-82283376D01*
X102126195Y-82283944D01*
X102727343Y-82035554D01*
X103187678Y-81576023D01*
X103437116Y-80975308D01*
X103437684Y-80324865D01*
X103189294Y-79723717D01*
X102729763Y-79263382D01*
X102129048Y-79013944D01*
X101478605Y-79013376D01*
X100877457Y-79261766D01*
X100417122Y-79721297D01*
X100167684Y-80322012D01*
X100167116Y-80972455D01*
X94486000Y-80972455D01*
X94486000Y-77401192D01*
X96828973Y-77401192D01*
X96927636Y-77668047D01*
X97537361Y-77894568D01*
X98187360Y-77870516D01*
X98676164Y-77668047D01*
X98774827Y-77401192D01*
X97801900Y-76428265D01*
X96828973Y-77401192D01*
X94486000Y-77401192D01*
X94486000Y-75984121D01*
X96155992Y-75984121D01*
X96180044Y-76634120D01*
X96382513Y-77122924D01*
X96649368Y-77221587D01*
X97622295Y-76248660D01*
X96649368Y-75275733D01*
X96382513Y-75374396D01*
X96155992Y-75984121D01*
X94486000Y-75984121D01*
X94486000Y-72291108D01*
X95834833Y-72291108D01*
X95981436Y-72645914D01*
X96040000Y-72704580D01*
X96040000Y-72900000D01*
X96097852Y-73190839D01*
X96262599Y-73437401D01*
X97450733Y-74625535D01*
X97416440Y-74626804D01*
X96927636Y-74829273D01*
X96828973Y-75096128D01*
X97801900Y-76069055D01*
X97816043Y-76054913D01*
X97995648Y-76234518D01*
X97981505Y-76248660D01*
X98954432Y-77221587D01*
X99221287Y-77122924D01*
X99425793Y-76572455D01*
X103166856Y-76572455D01*
X103415246Y-77173603D01*
X103874777Y-77633938D01*
X104475492Y-77883376D01*
X105125935Y-77883944D01*
X105727083Y-77635554D01*
X106187418Y-77176023D01*
X106436856Y-76575308D01*
X106437424Y-75924865D01*
X106189034Y-75323717D01*
X105729503Y-74863382D01*
X105128788Y-74613944D01*
X104478345Y-74613376D01*
X103877197Y-74861766D01*
X103416862Y-75321297D01*
X103167424Y-75922012D01*
X103166856Y-76572455D01*
X99425793Y-76572455D01*
X99447808Y-76513199D01*
X99442329Y-76365124D01*
X99491108Y-76365167D01*
X99845914Y-76218564D01*
X100117610Y-75947342D01*
X100264832Y-75592792D01*
X100265167Y-75208892D01*
X100118564Y-74854086D01*
X99847342Y-74582390D01*
X99492792Y-74435168D01*
X99409898Y-74435096D01*
X97618940Y-72644138D01*
X97764832Y-72292792D01*
X97765167Y-71908892D01*
X97618564Y-71554086D01*
X97347342Y-71282390D01*
X96992792Y-71135168D01*
X96608892Y-71134833D01*
X96254086Y-71281436D01*
X95982390Y-71552658D01*
X95835168Y-71907208D01*
X95834833Y-72291108D01*
X94486000Y-72291108D01*
X94486000Y-71350836D01*
X94552658Y-71417610D01*
X94907208Y-71564832D01*
X95291108Y-71565167D01*
X95645914Y-71418564D01*
X95917610Y-71147342D01*
X96064832Y-70792792D01*
X96065167Y-70408892D01*
X95939270Y-70104199D01*
X95952658Y-70117610D01*
X96307208Y-70264832D01*
X96691108Y-70265167D01*
X97045914Y-70118564D01*
X97104580Y-70060000D01*
X97585198Y-70060000D01*
X97734904Y-70209706D01*
X97734833Y-70291108D01*
X97881436Y-70645914D01*
X98152658Y-70917610D01*
X98507208Y-71064832D01*
X98891108Y-71065167D01*
X99245914Y-70918564D01*
X99517610Y-70647342D01*
X99664832Y-70292792D01*
X99665111Y-69972455D01*
X100167116Y-69972455D01*
X100415506Y-70573603D01*
X100875037Y-71033938D01*
X101475752Y-71283376D01*
X102126195Y-71283944D01*
X102727343Y-71035554D01*
X103187678Y-70576023D01*
X103437116Y-69975308D01*
X103437684Y-69324865D01*
X103189294Y-68723717D01*
X102729763Y-68263382D01*
X102129048Y-68013944D01*
X101478605Y-68013376D01*
X100877457Y-68261766D01*
X100417122Y-68721297D01*
X100167684Y-69322012D01*
X100167116Y-69972455D01*
X99665111Y-69972455D01*
X99665167Y-69908892D01*
X99518564Y-69554086D01*
X99247342Y-69282390D01*
X98892792Y-69135168D01*
X98809898Y-69135096D01*
X98437401Y-68762599D01*
X98190839Y-68597852D01*
X97900000Y-68540000D01*
X97104851Y-68540000D01*
X97047342Y-68482390D01*
X96692792Y-68335168D01*
X96308892Y-68334833D01*
X95954086Y-68481436D01*
X95860000Y-68575358D01*
X95860000Y-66401192D01*
X96828973Y-66401192D01*
X96927636Y-66668047D01*
X97537361Y-66894568D01*
X98187360Y-66870516D01*
X98676164Y-66668047D01*
X98774827Y-66401192D01*
X97801900Y-65428265D01*
X96828973Y-66401192D01*
X95860000Y-66401192D01*
X95860000Y-64862182D01*
X96107208Y-64964832D01*
X96163140Y-64964881D01*
X96155992Y-64984121D01*
X96180044Y-65634120D01*
X96382513Y-66122924D01*
X96649368Y-66221587D01*
X97622295Y-65248660D01*
X97608153Y-65234518D01*
X97787758Y-65054913D01*
X97801900Y-65069055D01*
X97816043Y-65054913D01*
X97995648Y-65234518D01*
X97981505Y-65248660D01*
X98954432Y-66221587D01*
X99221287Y-66122924D01*
X99425793Y-65572455D01*
X103166856Y-65572455D01*
X103415246Y-66173603D01*
X103874777Y-66633938D01*
X104126416Y-66738427D01*
X103916485Y-66825169D01*
X103526539Y-67214436D01*
X103315241Y-67723298D01*
X103314760Y-68274285D01*
X103525169Y-68783515D01*
X103914436Y-69173461D01*
X104423298Y-69384759D01*
X104974285Y-69385240D01*
X105483515Y-69174831D01*
X105873461Y-68785564D01*
X106084759Y-68276702D01*
X106085240Y-67725715D01*
X105874831Y-67216485D01*
X105485564Y-66826539D01*
X105375487Y-66780831D01*
X105727083Y-66635554D01*
X106187418Y-66176023D01*
X106436856Y-65575308D01*
X106437424Y-64924865D01*
X106189034Y-64323717D01*
X105729503Y-63863382D01*
X105128788Y-63613944D01*
X104478345Y-63613376D01*
X103877197Y-63861766D01*
X103416862Y-64321297D01*
X103167424Y-64922012D01*
X103166856Y-65572455D01*
X99425793Y-65572455D01*
X99447808Y-65513199D01*
X99423756Y-64863200D01*
X99240212Y-64420086D01*
X99485914Y-64318564D01*
X99757610Y-64047342D01*
X99904832Y-63692792D01*
X99905167Y-63308892D01*
X99758564Y-62954086D01*
X99487342Y-62682390D01*
X99132792Y-62535168D01*
X98748892Y-62534833D01*
X98394086Y-62681436D01*
X98210561Y-62864641D01*
X96748830Y-63141484D01*
X96492792Y-63035168D01*
X96108892Y-63034833D01*
X95860000Y-63137673D01*
X95860000Y-62224615D01*
X96052658Y-62417610D01*
X96407208Y-62564832D01*
X96791108Y-62565167D01*
X97145914Y-62418564D01*
X97204580Y-62360000D01*
X97900000Y-62360000D01*
X98190839Y-62302148D01*
X98437401Y-62137401D01*
X98809706Y-61765096D01*
X98891108Y-61765167D01*
X99245914Y-61618564D01*
X99517610Y-61347342D01*
X99664832Y-60992792D01*
X99665167Y-60608892D01*
X99518564Y-60254086D01*
X99247342Y-59982390D01*
X98964562Y-59864969D01*
X99191108Y-59865167D01*
X99545914Y-59718564D01*
X99817610Y-59447342D01*
X99964832Y-59092792D01*
X99964937Y-58972455D01*
X100167116Y-58972455D01*
X100415506Y-59573603D01*
X100875037Y-60033938D01*
X101475752Y-60283376D01*
X102126195Y-60283944D01*
X102727343Y-60035554D01*
X103187678Y-59576023D01*
X103437116Y-58975308D01*
X103437684Y-58324865D01*
X103189294Y-57723717D01*
X102729763Y-57263382D01*
X102129048Y-57013944D01*
X101478605Y-57013376D01*
X100877457Y-57261766D01*
X100417122Y-57721297D01*
X100167684Y-58322012D01*
X100167116Y-58972455D01*
X99964937Y-58972455D01*
X99965167Y-58708892D01*
X99818564Y-58354086D01*
X99547342Y-58082390D01*
X99192792Y-57935168D01*
X98808892Y-57934833D01*
X98454086Y-58081436D01*
X98195070Y-58340000D01*
X97604851Y-58340000D01*
X97547342Y-58282390D01*
X97192792Y-58135168D01*
X96808892Y-58134833D01*
X96454086Y-58281436D01*
X96182390Y-58552658D01*
X96035168Y-58907208D01*
X96034833Y-59291108D01*
X96181436Y-59645914D01*
X96452658Y-59917610D01*
X96807208Y-60064832D01*
X97191108Y-60065167D01*
X97545914Y-59918564D01*
X97604580Y-59860000D01*
X98447983Y-59860000D01*
X98154086Y-59981436D01*
X97882390Y-60252658D01*
X97735168Y-60607208D01*
X97735096Y-60690102D01*
X97585198Y-60840000D01*
X97204851Y-60840000D01*
X97147342Y-60782390D01*
X96792792Y-60635168D01*
X96408892Y-60634833D01*
X96054086Y-60781436D01*
X95860000Y-60975183D01*
X95860000Y-55401192D01*
X96828973Y-55401192D01*
X96927636Y-55668047D01*
X97537361Y-55894568D01*
X98187360Y-55870516D01*
X98676164Y-55668047D01*
X98774827Y-55401192D01*
X97801900Y-54428265D01*
X96828973Y-55401192D01*
X95860000Y-55401192D01*
X95860000Y-53984121D01*
X96155992Y-53984121D01*
X96180044Y-54634120D01*
X96382513Y-55122924D01*
X96649368Y-55221587D01*
X97622295Y-54248660D01*
X97981505Y-54248660D01*
X98954432Y-55221587D01*
X99221287Y-55122924D01*
X99425793Y-54572455D01*
X103166856Y-54572455D01*
X103415246Y-55173603D01*
X103874777Y-55633938D01*
X104126416Y-55738427D01*
X103916485Y-55825169D01*
X103526539Y-56214436D01*
X103315241Y-56723298D01*
X103314760Y-57274285D01*
X103525169Y-57783515D01*
X103914436Y-58173461D01*
X104423298Y-58384759D01*
X104974285Y-58385240D01*
X105483515Y-58174831D01*
X105873461Y-57785564D01*
X106084759Y-57276702D01*
X106085240Y-56725715D01*
X105874831Y-56216485D01*
X105485564Y-55826539D01*
X105375487Y-55780831D01*
X105727083Y-55635554D01*
X106187418Y-55176023D01*
X106436856Y-54575308D01*
X106437424Y-53924865D01*
X106189034Y-53323717D01*
X105729503Y-52863382D01*
X105128788Y-52613944D01*
X104478345Y-52613376D01*
X103877197Y-52861766D01*
X103416862Y-53321297D01*
X103167424Y-53922012D01*
X103166856Y-54572455D01*
X99425793Y-54572455D01*
X99447808Y-54513199D01*
X99423756Y-53863200D01*
X99221287Y-53374396D01*
X98954432Y-53275733D01*
X97981505Y-54248660D01*
X97622295Y-54248660D01*
X96649368Y-53275733D01*
X96382513Y-53374396D01*
X96155992Y-53984121D01*
X95860000Y-53984121D01*
X95860000Y-53096128D01*
X96828973Y-53096128D01*
X97801900Y-54069055D01*
X98774827Y-53096128D01*
X98676164Y-52829273D01*
X98066439Y-52602752D01*
X97416440Y-52626804D01*
X96927636Y-52829273D01*
X96828973Y-53096128D01*
X95860000Y-53096128D01*
X95860000Y-52104851D01*
X95917610Y-52047342D01*
X96064832Y-51692792D01*
X96065167Y-51308892D01*
X95918564Y-50954086D01*
X95647342Y-50682390D01*
X95339229Y-50554450D01*
X95364832Y-50492792D01*
X95365167Y-50108892D01*
X95218564Y-49754086D01*
X94947342Y-49482390D01*
X94592792Y-49335168D01*
X94486000Y-49335075D01*
X94486000Y-47972455D01*
X100167116Y-47972455D01*
X100415506Y-48573603D01*
X100875037Y-49033938D01*
X101475752Y-49283376D01*
X102126195Y-49283944D01*
X102727343Y-49035554D01*
X103187678Y-48576023D01*
X103437116Y-47975308D01*
X103437684Y-47324865D01*
X103189294Y-46723717D01*
X102729763Y-46263382D01*
X102129048Y-46013944D01*
X101478605Y-46013376D01*
X100877457Y-46261766D01*
X100417122Y-46721297D01*
X100167684Y-47322012D01*
X100167116Y-47972455D01*
X94486000Y-47972455D01*
X94486000Y-44401192D01*
X96828973Y-44401192D01*
X96927636Y-44668047D01*
X97537361Y-44894568D01*
X98187360Y-44870516D01*
X98676164Y-44668047D01*
X98774827Y-44401192D01*
X97801900Y-43428265D01*
X96828973Y-44401192D01*
X94486000Y-44401192D01*
X94486000Y-42984121D01*
X96155992Y-42984121D01*
X96180044Y-43634120D01*
X96382513Y-44122924D01*
X96649368Y-44221587D01*
X97622295Y-43248660D01*
X97981505Y-43248660D01*
X98954432Y-44221587D01*
X99221287Y-44122924D01*
X99425793Y-43572455D01*
X103166856Y-43572455D01*
X103415246Y-44173603D01*
X103791123Y-44550138D01*
X103626539Y-44714436D01*
X103415241Y-45223298D01*
X103414760Y-45774285D01*
X103625169Y-46283515D01*
X104014436Y-46673461D01*
X104523298Y-46884759D01*
X105074285Y-46885240D01*
X105583515Y-46674831D01*
X105973461Y-46285564D01*
X106184759Y-45776702D01*
X106185240Y-45225715D01*
X105974831Y-44716485D01*
X105810708Y-44552075D01*
X106187418Y-44176023D01*
X106436856Y-43575308D01*
X106437424Y-42924865D01*
X106189034Y-42323717D01*
X105729503Y-41863382D01*
X105128788Y-41613944D01*
X104478345Y-41613376D01*
X103877197Y-41861766D01*
X103416862Y-42321297D01*
X103167424Y-42922012D01*
X103166856Y-43572455D01*
X99425793Y-43572455D01*
X99447808Y-43513199D01*
X99423756Y-42863200D01*
X99221287Y-42374396D01*
X98954432Y-42275733D01*
X97981505Y-43248660D01*
X97622295Y-43248660D01*
X96649368Y-42275733D01*
X96382513Y-42374396D01*
X96155992Y-42984121D01*
X94486000Y-42984121D01*
X94486000Y-42096128D01*
X96828973Y-42096128D01*
X97801900Y-43069055D01*
X98774827Y-42096128D01*
X98676164Y-41829273D01*
X98066439Y-41602752D01*
X97416440Y-41626804D01*
X96927636Y-41829273D01*
X96828973Y-42096128D01*
X94486000Y-42096128D01*
X94486000Y-39116000D01*
X94436994Y-38869630D01*
X94437167Y-38670892D01*
X94290564Y-38316086D01*
X94019342Y-38044390D01*
X93664792Y-37897168D01*
X93280892Y-37896833D01*
X92926086Y-38043436D01*
X92654390Y-38314658D01*
X92507168Y-38669208D01*
X92506833Y-39053108D01*
X92653436Y-39407914D01*
X92924658Y-39679610D01*
X92966000Y-39696777D01*
X92966000Y-53537198D01*
X92962000Y-53533198D01*
X92962000Y-50546000D01*
X92904148Y-50255161D01*
X92739401Y-50008599D01*
X90119096Y-47388294D01*
X90119167Y-47306892D01*
X89972564Y-46952086D01*
X89701342Y-46680390D01*
X89548080Y-46616750D01*
X89617610Y-46547342D01*
X89764832Y-46192792D01*
X89765167Y-45808892D01*
X89618564Y-45454086D01*
X89347342Y-45182390D01*
X88992792Y-45035168D01*
X88764970Y-45034969D01*
X88765167Y-44808892D01*
X88618564Y-44454086D01*
X88347342Y-44182390D01*
X88126911Y-44090859D01*
X88254832Y-43782792D01*
X88255167Y-43398892D01*
X88108564Y-43044086D01*
X87837342Y-42772390D01*
X87482792Y-42625168D01*
X87098892Y-42624833D01*
X87041718Y-42648457D01*
X87064832Y-42592792D01*
X87065167Y-42208892D01*
X86918564Y-41854086D01*
X86647342Y-41582390D01*
X86292792Y-41435168D01*
X86247252Y-41435128D01*
X86264832Y-41392792D01*
X86265167Y-41008892D01*
X86118564Y-40654086D01*
X85847342Y-40382390D01*
X85492792Y-40235168D01*
X85392358Y-40235080D01*
X85434832Y-40132792D01*
X85435167Y-39748892D01*
X85288564Y-39394086D01*
X85017342Y-39122390D01*
X84702942Y-38991840D01*
X84764832Y-38842792D01*
X84765167Y-38458892D01*
X84618564Y-38104086D01*
X84347342Y-37832390D01*
X83992792Y-37685168D01*
X83608892Y-37684833D01*
X83254086Y-37831436D01*
X82982390Y-38102658D01*
X82835168Y-38457208D01*
X82835096Y-38540102D01*
X81813282Y-39561916D01*
X81662599Y-39662599D01*
X81497852Y-39909161D01*
X81440000Y-40200000D01*
X81440000Y-53744489D01*
X81317698Y-53700856D01*
X80762632Y-53728638D01*
X80378857Y-53887603D01*
X80309392Y-54129787D01*
X77785432Y-54129787D01*
X77582370Y-53926371D01*
X77069100Y-53713243D01*
X76513339Y-53712758D01*
X75999697Y-53924990D01*
X75606371Y-54317630D01*
X75393243Y-54830900D01*
X75392758Y-55386661D01*
X73957892Y-55386661D01*
X74104832Y-55032792D01*
X74105167Y-54648892D01*
X73958564Y-54294086D01*
X73912000Y-54247441D01*
X73912000Y-37652802D01*
X74531706Y-37033096D01*
X74613108Y-37033167D01*
X74967914Y-36886564D01*
X75018702Y-36835864D01*
X75025169Y-36851515D01*
X75414436Y-37241461D01*
X75923298Y-37452759D01*
X76474285Y-37453240D01*
X76983515Y-37242831D01*
X77373461Y-36853564D01*
X77584759Y-36344702D01*
X77585240Y-35793715D01*
X77374831Y-35284485D01*
X77321367Y-35230928D01*
X78735872Y-35235476D01*
X78702086Y-35249436D01*
X78430390Y-35520658D01*
X78283168Y-35875208D01*
X78282833Y-36259108D01*
X78429436Y-36613914D01*
X78700658Y-36885610D01*
X79055208Y-37032832D01*
X79439108Y-37033167D01*
X79793914Y-36886564D01*
X79852580Y-36828000D01*
X82707149Y-36828000D01*
X82764658Y-36885610D01*
X83119208Y-37032832D01*
X83503108Y-37033167D01*
X83857914Y-36886564D01*
X84129610Y-36615342D01*
X84276832Y-36260792D01*
X84277167Y-35876892D01*
X84130564Y-35522086D01*
X83860904Y-35251955D01*
X96537333Y-35292715D01*
X96692163Y-35447816D01*
X97623545Y-35834559D01*
X98632031Y-35835439D01*
X99564086Y-35450322D01*
X99711743Y-35302922D01*
X100832618Y-35306526D01*
X100417122Y-35721297D01*
X100167684Y-36322012D01*
X100167116Y-36972455D01*
X100415506Y-37573603D01*
X100875037Y-38033938D01*
X101475752Y-38283376D01*
X102126195Y-38283944D01*
X102727343Y-38035554D01*
X103187678Y-37576023D01*
X103437116Y-36975308D01*
X103437684Y-36324865D01*
X103189294Y-35723717D01*
X102779080Y-35312785D01*
X106986000Y-35326312D01*
X106986000Y-111520571D01*
X106857837Y-111392184D01*
X105926455Y-111005441D01*
X104917969Y-111004561D01*
X103985914Y-111389678D01*
X103272184Y-112102163D01*
X102885441Y-113033545D01*
X102884561Y-114042031D01*
X103269678Y-114974086D01*
X103409348Y-115114000D01*
X98479924Y-115114000D01*
X98491912Y-115071517D01*
X97700000Y-114279605D01*
X96908088Y-115071517D01*
X96920076Y-115114000D01*
X49021485Y-115114000D01*
X49117816Y-115017837D01*
X49504559Y-114086455D01*
X49505439Y-113077969D01*
X49120322Y-112145914D01*
X48805172Y-111830213D01*
X61849392Y-111830213D01*
X61918857Y-112072397D01*
X62442302Y-112259144D01*
X62997368Y-112231362D01*
X63381143Y-112072397D01*
X63450608Y-111830213D01*
X66849392Y-111830213D01*
X66918857Y-112072397D01*
X67442302Y-112259144D01*
X67997368Y-112231362D01*
X68381143Y-112072397D01*
X68450608Y-111830213D01*
X67650000Y-111029605D01*
X66849392Y-111830213D01*
X63450608Y-111830213D01*
X62650000Y-111029605D01*
X61849392Y-111830213D01*
X48805172Y-111830213D01*
X48407837Y-111432184D01*
X47476455Y-111045441D01*
X46467969Y-111044561D01*
X45535914Y-111429678D01*
X45414000Y-111551379D01*
X45414000Y-109675135D01*
X49062316Y-109675135D01*
X49310706Y-110276283D01*
X49770237Y-110736618D01*
X50370952Y-110986056D01*
X51021395Y-110986624D01*
X51622543Y-110738234D01*
X51718642Y-110642302D01*
X61240856Y-110642302D01*
X61268638Y-111197368D01*
X61427603Y-111581143D01*
X61669787Y-111650608D01*
X62470395Y-110850000D01*
X62829605Y-110850000D01*
X63630213Y-111650608D01*
X63872397Y-111581143D01*
X64059144Y-111057698D01*
X64038353Y-110642302D01*
X66240856Y-110642302D01*
X66268638Y-111197368D01*
X66427603Y-111581143D01*
X66669787Y-111650608D01*
X67470395Y-110850000D01*
X67829605Y-110850000D01*
X68630213Y-111650608D01*
X68872397Y-111581143D01*
X69034540Y-111126661D01*
X71252758Y-111126661D01*
X71464990Y-111640303D01*
X71857630Y-112033629D01*
X72370900Y-112246757D01*
X72926661Y-112247242D01*
X73440303Y-112035010D01*
X73833629Y-111642370D01*
X74046757Y-111129100D01*
X74047242Y-110573339D01*
X73835010Y-110059697D01*
X73442370Y-109666371D01*
X72929100Y-109453243D01*
X72373339Y-109452758D01*
X71859697Y-109664990D01*
X71466371Y-110057630D01*
X71253243Y-110570900D01*
X71252758Y-111126661D01*
X69034540Y-111126661D01*
X69059144Y-111057698D01*
X69031362Y-110502632D01*
X68872397Y-110118857D01*
X68630213Y-110049392D01*
X67829605Y-110850000D01*
X67470395Y-110850000D01*
X66669787Y-110049392D01*
X66427603Y-110118857D01*
X66240856Y-110642302D01*
X64038353Y-110642302D01*
X64031362Y-110502632D01*
X63872397Y-110118857D01*
X63630213Y-110049392D01*
X62829605Y-110850000D01*
X62470395Y-110850000D01*
X61669787Y-110049392D01*
X61427603Y-110118857D01*
X61240856Y-110642302D01*
X51718642Y-110642302D01*
X52082878Y-110278703D01*
X52252674Y-109869787D01*
X61849392Y-109869787D01*
X62650000Y-110670395D01*
X63450608Y-109869787D01*
X66849392Y-109869787D01*
X67650000Y-110670395D01*
X68450608Y-109869787D01*
X68381143Y-109627603D01*
X67857698Y-109440856D01*
X67302632Y-109468638D01*
X66918857Y-109627603D01*
X66849392Y-109869787D01*
X63450608Y-109869787D01*
X63381143Y-109627603D01*
X62857698Y-109440856D01*
X62302632Y-109468638D01*
X61918857Y-109627603D01*
X61849392Y-109869787D01*
X52252674Y-109869787D01*
X52332316Y-109677988D01*
X52332884Y-109027545D01*
X52084494Y-108426397D01*
X51624963Y-107966062D01*
X51024248Y-107716624D01*
X50373805Y-107716056D01*
X49772657Y-107964446D01*
X49312322Y-108423977D01*
X49062884Y-109024692D01*
X49062316Y-109675135D01*
X45414000Y-109675135D01*
X45414000Y-105347108D01*
X69138833Y-105347108D01*
X69285436Y-105701914D01*
X69556658Y-105973610D01*
X69911208Y-106120832D01*
X70295108Y-106121167D01*
X70649914Y-105974564D01*
X70708580Y-105916000D01*
X72547149Y-105916000D01*
X72604658Y-105973610D01*
X72959208Y-106120832D01*
X73343108Y-106121167D01*
X73697914Y-105974564D01*
X73914139Y-105758716D01*
X74128658Y-105973610D01*
X74483208Y-106120832D01*
X74867108Y-106121167D01*
X74890000Y-106111708D01*
X74890000Y-111820149D01*
X74832390Y-111877658D01*
X74685168Y-112232208D01*
X74684833Y-112616108D01*
X74831436Y-112970914D01*
X75102658Y-113242610D01*
X75457208Y-113389832D01*
X75841108Y-113390167D01*
X76195914Y-113243564D01*
X76467610Y-112972342D01*
X76591374Y-112674285D01*
X76714760Y-112674285D01*
X76925169Y-113183515D01*
X77314436Y-113573461D01*
X77823298Y-113784759D01*
X78374285Y-113785240D01*
X78883515Y-113574831D01*
X79273461Y-113185564D01*
X79391649Y-112900935D01*
X80316056Y-112900935D01*
X80564446Y-113502083D01*
X81023977Y-113962418D01*
X81624692Y-114211856D01*
X82275135Y-114212424D01*
X82876283Y-113964034D01*
X82945266Y-113895171D01*
X96302799Y-113895171D01*
X96330770Y-114445448D01*
X96487540Y-114823923D01*
X96728483Y-114891912D01*
X97520395Y-114100000D01*
X97879605Y-114100000D01*
X98671517Y-114891912D01*
X98912460Y-114823923D01*
X99097201Y-114304829D01*
X99069230Y-113754552D01*
X98912460Y-113376077D01*
X98671517Y-113308088D01*
X97879605Y-114100000D01*
X97520395Y-114100000D01*
X96728483Y-113308088D01*
X96487540Y-113376077D01*
X96302799Y-113895171D01*
X82945266Y-113895171D01*
X83336618Y-113504503D01*
X83492754Y-113128483D01*
X96908088Y-113128483D01*
X97700000Y-113920395D01*
X98491912Y-113128483D01*
X98423923Y-112887540D01*
X97904829Y-112702799D01*
X97354552Y-112730770D01*
X96976077Y-112887540D01*
X96908088Y-113128483D01*
X83492754Y-113128483D01*
X83586056Y-112903788D01*
X83586624Y-112253345D01*
X83338234Y-111652197D01*
X82878703Y-111191862D01*
X82277988Y-110942424D01*
X81627545Y-110941856D01*
X81026397Y-111190246D01*
X80566062Y-111649777D01*
X80316624Y-112250492D01*
X80316056Y-112900935D01*
X79391649Y-112900935D01*
X79484759Y-112676702D01*
X79485240Y-112125715D01*
X79274831Y-111616485D01*
X78885564Y-111226539D01*
X78376702Y-111015241D01*
X77825715Y-111014760D01*
X77316485Y-111225169D01*
X76926539Y-111614436D01*
X76715241Y-112123298D01*
X76714760Y-112674285D01*
X76591374Y-112674285D01*
X76614832Y-112617792D01*
X76615167Y-112233892D01*
X76468564Y-111879086D01*
X76410000Y-111820420D01*
X76410000Y-109901195D01*
X86916056Y-109901195D01*
X87164446Y-110502343D01*
X87623977Y-110962678D01*
X88224692Y-111212116D01*
X88875135Y-111212684D01*
X89476283Y-110964294D01*
X89936618Y-110504763D01*
X89979624Y-110401192D01*
X96828973Y-110401192D01*
X96927636Y-110668047D01*
X97537361Y-110894568D01*
X98187360Y-110870516D01*
X98676164Y-110668047D01*
X98774827Y-110401192D01*
X97801900Y-109428265D01*
X96828973Y-110401192D01*
X89979624Y-110401192D01*
X90186056Y-109904048D01*
X90186624Y-109253605D01*
X90075276Y-108984121D01*
X96155992Y-108984121D01*
X96180044Y-109634120D01*
X96382513Y-110122924D01*
X96649368Y-110221587D01*
X97622295Y-109248660D01*
X97981505Y-109248660D01*
X98954432Y-110221587D01*
X99221287Y-110122924D01*
X99425793Y-109572455D01*
X103166856Y-109572455D01*
X103415246Y-110173603D01*
X103874777Y-110633938D01*
X104475492Y-110883376D01*
X105125935Y-110883944D01*
X105727083Y-110635554D01*
X106187418Y-110176023D01*
X106436856Y-109575308D01*
X106437424Y-108924865D01*
X106189034Y-108323717D01*
X105729503Y-107863382D01*
X105128788Y-107613944D01*
X104478345Y-107613376D01*
X103877197Y-107861766D01*
X103416862Y-108321297D01*
X103167424Y-108922012D01*
X103166856Y-109572455D01*
X99425793Y-109572455D01*
X99447808Y-109513199D01*
X99423756Y-108863200D01*
X99221287Y-108374396D01*
X98954432Y-108275733D01*
X97981505Y-109248660D01*
X97622295Y-109248660D01*
X96649368Y-108275733D01*
X96382513Y-108374396D01*
X96155992Y-108984121D01*
X90075276Y-108984121D01*
X89938234Y-108652457D01*
X89478703Y-108192122D01*
X88877988Y-107942684D01*
X88227545Y-107942116D01*
X87626397Y-108190506D01*
X87166062Y-108650037D01*
X86916624Y-109250752D01*
X86916056Y-109901195D01*
X76410000Y-109901195D01*
X76410000Y-106729432D01*
X80978413Y-106729432D01*
X81077076Y-106996287D01*
X81686801Y-107222808D01*
X82336800Y-107198756D01*
X82825604Y-106996287D01*
X82924267Y-106729432D01*
X81951340Y-105756505D01*
X80978413Y-106729432D01*
X76410000Y-106729432D01*
X76410000Y-105854721D01*
X76542610Y-105722342D01*
X76689832Y-105367792D01*
X76689880Y-105312361D01*
X80305432Y-105312361D01*
X80329484Y-105962360D01*
X80531953Y-106451164D01*
X80798808Y-106549827D01*
X81771735Y-105576900D01*
X82130945Y-105576900D01*
X83103872Y-106549827D01*
X83370727Y-106451164D01*
X83597248Y-105841439D01*
X83573196Y-105191440D01*
X83370727Y-104702636D01*
X83103872Y-104603973D01*
X82130945Y-105576900D01*
X81771735Y-105576900D01*
X80798808Y-104603973D01*
X80531953Y-104702636D01*
X80305432Y-105312361D01*
X76689880Y-105312361D01*
X76690167Y-104983892D01*
X76543564Y-104629086D01*
X76339204Y-104424368D01*
X80978413Y-104424368D01*
X81951340Y-105397295D01*
X82924267Y-104424368D01*
X82825604Y-104157513D01*
X82215879Y-103930992D01*
X81565880Y-103955044D01*
X81077076Y-104157513D01*
X80978413Y-104424368D01*
X76339204Y-104424368D01*
X76272342Y-104357390D01*
X75917792Y-104210168D01*
X75533892Y-104209833D01*
X75223052Y-104338270D01*
X74868792Y-104191168D01*
X74785898Y-104191096D01*
X74166000Y-103571198D01*
X74166000Y-102362000D01*
X74108148Y-102071161D01*
X74108148Y-102071160D01*
X73943401Y-101824599D01*
X73101096Y-100982294D01*
X73101167Y-100900892D01*
X72954564Y-100546086D01*
X72683342Y-100274390D01*
X72328792Y-100127168D01*
X71944892Y-100126833D01*
X71590086Y-100273436D01*
X71318390Y-100544658D01*
X71171168Y-100899208D01*
X71170833Y-101283108D01*
X71317436Y-101637914D01*
X71588658Y-101909610D01*
X71943208Y-102056832D01*
X72026102Y-102056904D01*
X72646000Y-102676802D01*
X72646000Y-103886000D01*
X72703852Y-104176839D01*
X72766791Y-104271034D01*
X72606086Y-104337436D01*
X72547420Y-104396000D01*
X70708851Y-104396000D01*
X70651342Y-104338390D01*
X70296792Y-104191168D01*
X69912892Y-104190833D01*
X69558086Y-104337436D01*
X69286390Y-104608658D01*
X69139168Y-104963208D01*
X69138833Y-105347108D01*
X45414000Y-105347108D01*
X45414000Y-103075135D01*
X46062576Y-103075135D01*
X46310966Y-103676283D01*
X46770497Y-104136618D01*
X47371212Y-104386056D01*
X48021655Y-104386624D01*
X48622803Y-104138234D01*
X48857575Y-103903872D01*
X53725173Y-103903872D01*
X53823836Y-104170727D01*
X54433561Y-104397248D01*
X55083560Y-104373196D01*
X55572364Y-104170727D01*
X55671027Y-103903872D01*
X54698100Y-102930945D01*
X53725173Y-103903872D01*
X48857575Y-103903872D01*
X49083138Y-103678703D01*
X49332576Y-103077988D01*
X49333092Y-102486801D01*
X53052192Y-102486801D01*
X53076244Y-103136800D01*
X53278713Y-103625604D01*
X53545568Y-103724267D01*
X54518495Y-102751340D01*
X54877705Y-102751340D01*
X55850632Y-103724267D01*
X56117487Y-103625604D01*
X56344008Y-103015879D01*
X56319956Y-102365880D01*
X56202229Y-102081661D01*
X59942758Y-102081661D01*
X60154990Y-102595303D01*
X60547630Y-102988629D01*
X61060900Y-103201757D01*
X61616661Y-103202242D01*
X62130303Y-102990010D01*
X62523629Y-102597370D01*
X62736757Y-102084100D01*
X62736759Y-102081661D01*
X65532758Y-102081661D01*
X65744990Y-102595303D01*
X66137630Y-102988629D01*
X66650900Y-103201757D01*
X67206661Y-103202242D01*
X67720303Y-102990010D01*
X68113629Y-102597370D01*
X68326757Y-102084100D01*
X68327242Y-101528339D01*
X68115010Y-101014697D01*
X67722370Y-100621371D01*
X67209100Y-100408243D01*
X66653339Y-100407758D01*
X66139697Y-100619990D01*
X65746371Y-101012630D01*
X65533243Y-101525900D01*
X65532758Y-102081661D01*
X62736759Y-102081661D01*
X62737242Y-101528339D01*
X62525010Y-101014697D01*
X62132370Y-100621371D01*
X61619100Y-100408243D01*
X61063339Y-100407758D01*
X60549697Y-100619990D01*
X60156371Y-101012630D01*
X59943243Y-101525900D01*
X59942758Y-102081661D01*
X56202229Y-102081661D01*
X56117487Y-101877076D01*
X55850632Y-101778413D01*
X54877705Y-102751340D01*
X54518495Y-102751340D01*
X53545568Y-101778413D01*
X53278713Y-101877076D01*
X53052192Y-102486801D01*
X49333092Y-102486801D01*
X49333144Y-102427545D01*
X49084754Y-101826397D01*
X48857563Y-101598808D01*
X53725173Y-101598808D01*
X54698100Y-102571735D01*
X55671027Y-101598808D01*
X55572364Y-101331953D01*
X54962639Y-101105432D01*
X54312640Y-101129484D01*
X53823836Y-101331953D01*
X53725173Y-101598808D01*
X48857563Y-101598808D01*
X48625223Y-101366062D01*
X48024508Y-101116624D01*
X47374065Y-101116056D01*
X46772917Y-101364446D01*
X46312582Y-101823977D01*
X46063144Y-102424692D01*
X46062576Y-103075135D01*
X45414000Y-103075135D01*
X45414000Y-98675135D01*
X49062316Y-98675135D01*
X49310706Y-99276283D01*
X49770237Y-99736618D01*
X50370952Y-99986056D01*
X51021395Y-99986624D01*
X51622543Y-99738234D01*
X52082878Y-99278703D01*
X52332316Y-98677988D01*
X52332884Y-98027545D01*
X52104281Y-97474285D01*
X57814760Y-97474285D01*
X58025169Y-97983515D01*
X58414436Y-98373461D01*
X58923298Y-98584759D01*
X59474285Y-98585240D01*
X59983515Y-98374831D01*
X60373461Y-97985564D01*
X60584759Y-97476702D01*
X60585240Y-96925715D01*
X60374831Y-96416485D01*
X59985564Y-96026539D01*
X59476702Y-95815241D01*
X58925715Y-95814760D01*
X58416485Y-96025169D01*
X58026539Y-96414436D01*
X57815241Y-96923298D01*
X57814760Y-97474285D01*
X52104281Y-97474285D01*
X52084494Y-97426397D01*
X51624963Y-96966062D01*
X51024248Y-96716624D01*
X50373805Y-96716056D01*
X49772657Y-96964446D01*
X49312322Y-97423977D01*
X49062884Y-98024692D01*
X49062316Y-98675135D01*
X45414000Y-98675135D01*
X45414000Y-93534285D01*
X58014760Y-93534285D01*
X58225169Y-94043515D01*
X58614436Y-94433461D01*
X59123298Y-94644759D01*
X59674285Y-94645240D01*
X60183515Y-94434831D01*
X60573461Y-94045564D01*
X60784759Y-93536702D01*
X60785240Y-92985715D01*
X60574831Y-92476485D01*
X60185564Y-92086539D01*
X59676702Y-91875241D01*
X59125715Y-91874760D01*
X58616485Y-92085169D01*
X58226539Y-92474436D01*
X58015241Y-92983298D01*
X58014760Y-93534285D01*
X45414000Y-93534285D01*
X45414000Y-92075135D01*
X46062576Y-92075135D01*
X46310966Y-92676283D01*
X46770497Y-93136618D01*
X47371212Y-93386056D01*
X48021655Y-93386624D01*
X48622803Y-93138234D01*
X48857575Y-92903872D01*
X53725173Y-92903872D01*
X53823836Y-93170727D01*
X54433561Y-93397248D01*
X55083560Y-93373196D01*
X55572364Y-93170727D01*
X55671027Y-92903872D01*
X54698100Y-91930945D01*
X53725173Y-92903872D01*
X48857575Y-92903872D01*
X49083138Y-92678703D01*
X49332576Y-92077988D01*
X49333092Y-91486801D01*
X53052192Y-91486801D01*
X53076244Y-92136800D01*
X53278713Y-92625604D01*
X53545568Y-92724267D01*
X54518495Y-91751340D01*
X54877705Y-91751340D01*
X55850632Y-92724267D01*
X56117487Y-92625604D01*
X56344008Y-92015879D01*
X56319956Y-91365880D01*
X56117487Y-90877076D01*
X55850632Y-90778413D01*
X54877705Y-91751340D01*
X54518495Y-91751340D01*
X53545568Y-90778413D01*
X53278713Y-90877076D01*
X53052192Y-91486801D01*
X49333092Y-91486801D01*
X49333144Y-91427545D01*
X49084754Y-90826397D01*
X48857563Y-90598808D01*
X53725173Y-90598808D01*
X54698100Y-91571735D01*
X55671027Y-90598808D01*
X55572364Y-90331953D01*
X54962639Y-90105432D01*
X54312640Y-90129484D01*
X53823836Y-90331953D01*
X53725173Y-90598808D01*
X48857563Y-90598808D01*
X48625223Y-90366062D01*
X48024508Y-90116624D01*
X47374065Y-90116056D01*
X46772917Y-90364446D01*
X46312582Y-90823977D01*
X46063144Y-91424692D01*
X46062576Y-92075135D01*
X45414000Y-92075135D01*
X45414000Y-85741108D01*
X48554833Y-85741108D01*
X48701436Y-86095914D01*
X48972658Y-86367610D01*
X49282333Y-86496198D01*
X49062884Y-87024692D01*
X49062316Y-87675135D01*
X49310706Y-88276283D01*
X49770237Y-88736618D01*
X50370952Y-88986056D01*
X51021395Y-88986624D01*
X51622543Y-88738234D01*
X52082878Y-88278703D01*
X52332316Y-87677988D01*
X52332884Y-87027545D01*
X52207728Y-86724646D01*
X56701875Y-87403556D01*
X56856658Y-87558610D01*
X57211208Y-87705832D01*
X57595108Y-87706167D01*
X57949914Y-87559564D01*
X58221610Y-87288342D01*
X58368832Y-86933792D01*
X58369167Y-86549892D01*
X58222564Y-86195086D01*
X57951342Y-85923390D01*
X57596792Y-85776168D01*
X57212892Y-85775833D01*
X56915733Y-85898617D01*
X53124332Y-85325867D01*
X53250914Y-85273564D01*
X53309580Y-85215000D01*
X56799149Y-85215000D01*
X56856658Y-85272610D01*
X57211208Y-85419832D01*
X57595108Y-85420167D01*
X57949914Y-85273564D01*
X58221610Y-85002342D01*
X58368832Y-84647792D01*
X58369167Y-84263892D01*
X58222564Y-83909086D01*
X57951342Y-83637390D01*
X57596792Y-83490168D01*
X57212892Y-83489833D01*
X56858086Y-83636436D01*
X56799420Y-83695000D01*
X53309851Y-83695000D01*
X53252342Y-83637390D01*
X52897792Y-83490168D01*
X52513892Y-83489833D01*
X52159086Y-83636436D01*
X51887390Y-83907658D01*
X51740168Y-84262208D01*
X51739833Y-84646108D01*
X51886436Y-85000914D01*
X52048599Y-85163361D01*
X50222125Y-84887444D01*
X50067342Y-84732390D01*
X49712792Y-84585168D01*
X49328892Y-84584833D01*
X48974086Y-84731436D01*
X48702390Y-85002658D01*
X48555168Y-85357208D01*
X48554833Y-85741108D01*
X45414000Y-85741108D01*
X45414000Y-81075135D01*
X46062576Y-81075135D01*
X46310966Y-81676283D01*
X46770497Y-82136618D01*
X47371212Y-82386056D01*
X48021655Y-82386624D01*
X48622803Y-82138234D01*
X48857575Y-81903872D01*
X53725173Y-81903872D01*
X53823836Y-82170727D01*
X54433561Y-82397248D01*
X55083560Y-82373196D01*
X55572364Y-82170727D01*
X55671027Y-81903872D01*
X54698100Y-80930945D01*
X53725173Y-81903872D01*
X48857575Y-81903872D01*
X49083138Y-81678703D01*
X49332576Y-81077988D01*
X49333092Y-80486801D01*
X53052192Y-80486801D01*
X53076244Y-81136800D01*
X53278713Y-81625604D01*
X53545568Y-81724267D01*
X54518495Y-80751340D01*
X54877705Y-80751340D01*
X55850632Y-81724267D01*
X56117487Y-81625604D01*
X56344008Y-81015879D01*
X56319956Y-80365880D01*
X56117487Y-79877076D01*
X55850632Y-79778413D01*
X54877705Y-80751340D01*
X54518495Y-80751340D01*
X53545568Y-79778413D01*
X53278713Y-79877076D01*
X53052192Y-80486801D01*
X49333092Y-80486801D01*
X49333144Y-80427545D01*
X49084754Y-79826397D01*
X48857563Y-79598808D01*
X53725173Y-79598808D01*
X54698100Y-80571735D01*
X55671027Y-79598808D01*
X55572364Y-79331953D01*
X54962639Y-79105432D01*
X54312640Y-79129484D01*
X53823836Y-79331953D01*
X53725173Y-79598808D01*
X48857563Y-79598808D01*
X48625223Y-79366062D01*
X48024508Y-79116624D01*
X47374065Y-79116056D01*
X46772917Y-79364446D01*
X46312582Y-79823977D01*
X46063144Y-80424692D01*
X46062576Y-81075135D01*
X45414000Y-81075135D01*
X45414000Y-59075135D01*
X46062576Y-59075135D01*
X46310966Y-59676283D01*
X46770497Y-60136618D01*
X47371212Y-60386056D01*
X48021655Y-60386624D01*
X48340000Y-60255086D01*
X48340000Y-68247627D01*
X48024508Y-68116624D01*
X47374065Y-68116056D01*
X46772917Y-68364446D01*
X46312582Y-68823977D01*
X46063144Y-69424692D01*
X46062576Y-70075135D01*
X46310966Y-70676283D01*
X46770497Y-71136618D01*
X47371212Y-71386056D01*
X48021655Y-71386624D01*
X48340000Y-71255086D01*
X48340000Y-72200000D01*
X48397852Y-72490839D01*
X48562599Y-72737401D01*
X50541400Y-74716202D01*
X50373805Y-74716056D01*
X49772657Y-74964446D01*
X49312322Y-75423977D01*
X49062884Y-76024692D01*
X49062316Y-76675135D01*
X49310706Y-77276283D01*
X49459284Y-77425121D01*
X49128892Y-77424833D01*
X48774086Y-77571436D01*
X48502390Y-77842658D01*
X48355168Y-78197208D01*
X48354833Y-78581108D01*
X48501436Y-78935914D01*
X48772658Y-79207610D01*
X49127208Y-79354832D01*
X49511108Y-79355167D01*
X49865914Y-79208564D01*
X50137610Y-78937342D01*
X50169654Y-78860171D01*
X55532642Y-76633869D01*
X55607208Y-76664832D01*
X55991108Y-76665167D01*
X56345914Y-76518564D01*
X56500118Y-76364629D01*
X56752658Y-76617610D01*
X57107208Y-76764832D01*
X57491108Y-76765167D01*
X57845914Y-76618564D01*
X58117610Y-76347342D01*
X58264832Y-75992792D01*
X58265167Y-75608892D01*
X58118564Y-75254086D01*
X57847342Y-74982390D01*
X57492792Y-74835168D01*
X57409898Y-74835096D01*
X56937401Y-74362599D01*
X56690839Y-74197852D01*
X56400000Y-74140000D01*
X52114802Y-74140000D01*
X51165910Y-73191108D01*
X52534833Y-73191108D01*
X52681436Y-73545914D01*
X52952658Y-73817610D01*
X53307208Y-73964832D01*
X53691108Y-73965167D01*
X54045914Y-73818564D01*
X54104580Y-73760000D01*
X55195149Y-73760000D01*
X55252658Y-73817610D01*
X55607208Y-73964832D01*
X55991108Y-73965167D01*
X56345914Y-73818564D01*
X56617610Y-73547342D01*
X56764832Y-73192792D01*
X56765167Y-72808892D01*
X56618564Y-72454086D01*
X56347342Y-72182390D01*
X55992792Y-72035168D01*
X55608892Y-72034833D01*
X55254086Y-72181436D01*
X55195420Y-72240000D01*
X54104851Y-72240000D01*
X54047342Y-72182390D01*
X53692792Y-72035168D01*
X53308892Y-72034833D01*
X52954086Y-72181436D01*
X52682390Y-72452658D01*
X52535168Y-72807208D01*
X52534833Y-73191108D01*
X51165910Y-73191108D01*
X49860000Y-71885198D01*
X49860000Y-70903872D01*
X53725173Y-70903872D01*
X53823836Y-71170727D01*
X54433561Y-71397248D01*
X55083560Y-71373196D01*
X55572364Y-71170727D01*
X55671027Y-70903872D01*
X54698100Y-69930945D01*
X53725173Y-70903872D01*
X49860000Y-70903872D01*
X49860000Y-66773891D01*
X50370952Y-66986056D01*
X51021395Y-66986624D01*
X51434986Y-66815731D01*
X51434833Y-66991108D01*
X51581436Y-67345914D01*
X51852658Y-67617610D01*
X52207208Y-67764832D01*
X52591108Y-67765167D01*
X52735161Y-67705646D01*
X52734833Y-68081108D01*
X52881436Y-68435914D01*
X53152658Y-68707610D01*
X53427922Y-68821910D01*
X53278713Y-68877076D01*
X53052192Y-69486801D01*
X53076244Y-70136800D01*
X53278713Y-70625604D01*
X53545568Y-70724267D01*
X54518495Y-69751340D01*
X54504353Y-69737198D01*
X54683958Y-69557593D01*
X54698100Y-69571735D01*
X54712243Y-69557593D01*
X54891848Y-69737198D01*
X54877705Y-69751340D01*
X55850632Y-70724267D01*
X56117487Y-70625604D01*
X56344008Y-70015879D01*
X56319956Y-69365880D01*
X56117487Y-68877076D01*
X55850634Y-68778414D01*
X55964914Y-68664134D01*
X55937113Y-68636333D01*
X55955914Y-68628564D01*
X56227610Y-68357342D01*
X56374832Y-68002792D01*
X56375167Y-67618892D01*
X56240343Y-67292594D01*
X56364832Y-66992792D01*
X56365167Y-66608892D01*
X56218564Y-66254086D01*
X55947342Y-65982390D01*
X55592792Y-65835168D01*
X55208892Y-65834833D01*
X54854086Y-65981436D01*
X54795420Y-66040000D01*
X53004851Y-66040000D01*
X52947342Y-65982390D01*
X52592792Y-65835168D01*
X52267167Y-65834884D01*
X52332316Y-65677988D01*
X52332884Y-65027545D01*
X52084494Y-64426397D01*
X51624963Y-63966062D01*
X51024248Y-63716624D01*
X50373805Y-63716056D01*
X49860000Y-63928357D01*
X49860000Y-59903872D01*
X53725173Y-59903872D01*
X53823836Y-60170727D01*
X54433561Y-60397248D01*
X55083560Y-60373196D01*
X55572364Y-60170727D01*
X55671027Y-59903872D01*
X54698100Y-58930945D01*
X53725173Y-59903872D01*
X49860000Y-59903872D01*
X49860000Y-58486801D01*
X53052192Y-58486801D01*
X53076244Y-59136800D01*
X53278713Y-59625604D01*
X53545568Y-59724267D01*
X54518495Y-58751340D01*
X54877705Y-58751340D01*
X55850632Y-59724267D01*
X56117487Y-59625604D01*
X56344008Y-59015879D01*
X56319956Y-58365880D01*
X56117487Y-57877076D01*
X55850632Y-57778413D01*
X54877705Y-58751340D01*
X54518495Y-58751340D01*
X53545568Y-57778413D01*
X53278713Y-57877076D01*
X53052192Y-58486801D01*
X49860000Y-58486801D01*
X49860000Y-57598808D01*
X53725173Y-57598808D01*
X54698100Y-58571735D01*
X55671027Y-57598808D01*
X55572364Y-57331953D01*
X54962639Y-57105432D01*
X54312640Y-57129484D01*
X53823836Y-57331953D01*
X53725173Y-57598808D01*
X49860000Y-57598808D01*
X49860000Y-55773891D01*
X50370952Y-55986056D01*
X51021395Y-55986624D01*
X51622543Y-55738234D01*
X52082878Y-55278703D01*
X52332316Y-54677988D01*
X52332884Y-54027545D01*
X52084494Y-53426397D01*
X51624963Y-52966062D01*
X51024248Y-52716624D01*
X50373805Y-52716056D01*
X49860000Y-52928357D01*
X49860000Y-52514802D01*
X49983694Y-52391108D01*
X56734833Y-52391108D01*
X56881436Y-52745914D01*
X57152658Y-53017610D01*
X57507208Y-53164832D01*
X57891108Y-53165167D01*
X58245914Y-53018564D01*
X58304580Y-52960000D01*
X58885198Y-52960000D01*
X61240000Y-55314802D01*
X61240000Y-61295149D01*
X61182390Y-61352658D01*
X61035168Y-61707208D01*
X61034833Y-62091108D01*
X61181436Y-62445914D01*
X61452658Y-62717610D01*
X61807208Y-62864832D01*
X62140000Y-62865122D01*
X62140000Y-98195149D01*
X62082390Y-98252658D01*
X61935168Y-98607208D01*
X61934833Y-98991108D01*
X62081436Y-99345914D01*
X62352658Y-99617610D01*
X62707208Y-99764832D01*
X63091108Y-99765167D01*
X63445914Y-99618564D01*
X63717610Y-99347342D01*
X63864832Y-98992792D01*
X63865167Y-98608892D01*
X63718564Y-98254086D01*
X63660000Y-98195420D01*
X63660000Y-94204913D01*
X63743427Y-94204986D01*
X64020000Y-94260000D01*
X64995149Y-94260000D01*
X65052658Y-94317610D01*
X65407208Y-94464832D01*
X65791108Y-94465167D01*
X66145914Y-94318564D01*
X66417610Y-94047342D01*
X66564832Y-93692792D01*
X66564916Y-93596222D01*
X66702148Y-93390840D01*
X66738286Y-93209161D01*
X66760000Y-93100000D01*
X66760000Y-78604851D01*
X66817610Y-78547342D01*
X66964832Y-78192792D01*
X66965167Y-77808892D01*
X66818564Y-77454086D01*
X66547342Y-77182390D01*
X66215961Y-77044789D01*
X66470551Y-76790643D01*
X66704733Y-76226670D01*
X66705265Y-75616009D01*
X66472068Y-75051629D01*
X66070818Y-74649677D01*
X66470551Y-74250643D01*
X66704733Y-73686670D01*
X66705265Y-73076009D01*
X66472068Y-72511629D01*
X66070818Y-72109677D01*
X66470551Y-71710643D01*
X66704733Y-71146670D01*
X66705265Y-70536009D01*
X66472068Y-69971629D01*
X66070818Y-69569677D01*
X66470551Y-69170643D01*
X66704733Y-68606670D01*
X66705265Y-67996009D01*
X66472068Y-67431629D01*
X66070818Y-67029677D01*
X66470551Y-66630643D01*
X66704733Y-66066670D01*
X66705265Y-65456009D01*
X66472068Y-64891629D01*
X66070818Y-64489677D01*
X66221327Y-64339431D01*
X66331436Y-64605914D01*
X66602658Y-64877610D01*
X66957208Y-65024832D01*
X67040102Y-65024904D01*
X67052599Y-65037401D01*
X67140000Y-65095800D01*
X67140000Y-89495323D01*
X66982390Y-89652658D01*
X66835168Y-90007208D01*
X66834833Y-90391108D01*
X66981436Y-90745914D01*
X67252658Y-91017610D01*
X67607208Y-91164832D01*
X67991108Y-91165167D01*
X68345914Y-91018564D01*
X68617610Y-90747342D01*
X68764832Y-90392792D01*
X68765167Y-90008892D01*
X68660000Y-89754369D01*
X68660000Y-70034802D01*
X69140000Y-70514802D01*
X69140000Y-70585198D01*
X69062599Y-70662599D01*
X68897852Y-70909161D01*
X68840000Y-71200000D01*
X68840000Y-72100000D01*
X68897852Y-72390839D01*
X69062599Y-72637401D01*
X69640000Y-73214802D01*
X69640000Y-74496421D01*
X69497852Y-74709161D01*
X69440000Y-75000000D01*
X69440000Y-75300000D01*
X69497852Y-75590839D01*
X69662599Y-75837401D01*
X70240000Y-76414802D01*
X70240000Y-79695149D01*
X70182390Y-79752658D01*
X70035168Y-80107208D01*
X70034833Y-80491108D01*
X70181436Y-80845914D01*
X70280274Y-80944924D01*
X69762599Y-81462599D01*
X69597852Y-81709161D01*
X69540000Y-82000000D01*
X69540000Y-82795149D01*
X69482390Y-82852658D01*
X69335168Y-83207208D01*
X69334833Y-83591108D01*
X69481436Y-83945914D01*
X69752658Y-84217610D01*
X70107208Y-84364832D01*
X70491108Y-84365167D01*
X70845914Y-84218564D01*
X71117610Y-83947342D01*
X71264832Y-83592792D01*
X71265165Y-83210213D01*
X71669392Y-83210213D01*
X71738857Y-83452397D01*
X72262302Y-83639144D01*
X72817368Y-83611362D01*
X73201143Y-83452397D01*
X73270608Y-83210213D01*
X72470000Y-82409605D01*
X71669392Y-83210213D01*
X71265165Y-83210213D01*
X71265167Y-83208892D01*
X71118564Y-82854086D01*
X71060000Y-82795420D01*
X71060000Y-82314802D01*
X71074757Y-82300045D01*
X71088638Y-82577368D01*
X71247603Y-82961143D01*
X71489787Y-83030608D01*
X72290395Y-82230000D01*
X72276253Y-82215858D01*
X72455858Y-82036253D01*
X72470000Y-82050395D01*
X72484143Y-82036253D01*
X72663748Y-82215858D01*
X72649605Y-82230000D01*
X73450213Y-83030608D01*
X73692397Y-82961143D01*
X73795986Y-82670788D01*
X75948000Y-84822802D01*
X75948000Y-89311149D01*
X75890390Y-89368658D01*
X75743168Y-89723208D01*
X75742833Y-90107108D01*
X75889436Y-90461914D01*
X76160658Y-90733610D01*
X76515208Y-90880832D01*
X76899108Y-90881167D01*
X77253914Y-90734564D01*
X77525610Y-90463342D01*
X77672832Y-90108792D01*
X77673167Y-89724892D01*
X77526564Y-89370086D01*
X77468000Y-89311420D01*
X77468000Y-84508000D01*
X77439737Y-84365914D01*
X77410148Y-84217160D01*
X77245401Y-83970599D01*
X75781463Y-82506661D01*
X76622758Y-82506661D01*
X76834990Y-83020303D01*
X77227630Y-83413629D01*
X77740900Y-83626757D01*
X78296661Y-83627242D01*
X78569605Y-83514464D01*
X78557390Y-83526658D01*
X78410168Y-83881208D01*
X78409833Y-84265108D01*
X78556436Y-84619914D01*
X78827658Y-84891610D01*
X79182208Y-85038832D01*
X79566108Y-85039167D01*
X79920914Y-84892564D01*
X80192610Y-84621342D01*
X80339832Y-84266792D01*
X80340167Y-83882892D01*
X80193564Y-83528086D01*
X80135000Y-83469420D01*
X80135000Y-78740000D01*
X80077148Y-78449161D01*
X79912401Y-78202599D01*
X79705096Y-77995294D01*
X79705167Y-77913892D01*
X79558564Y-77559086D01*
X79287342Y-77287390D01*
X78932792Y-77140168D01*
X78548892Y-77139833D01*
X78194086Y-77286436D01*
X77922390Y-77557658D01*
X77775168Y-77912208D01*
X77775066Y-78028934D01*
X77659892Y-78028833D01*
X77305086Y-78175436D01*
X77033390Y-78446658D01*
X76886168Y-78801208D01*
X76885833Y-79185108D01*
X77032436Y-79539914D01*
X77091000Y-79598580D01*
X77091000Y-80391768D01*
X77013168Y-80579208D01*
X77012833Y-80963108D01*
X77100115Y-81174346D01*
X76836371Y-81437630D01*
X76623243Y-81950900D01*
X76622758Y-82506661D01*
X75781463Y-82506661D01*
X73060000Y-79785198D01*
X73060000Y-60200000D01*
X73002148Y-59909161D01*
X72965041Y-59853626D01*
X72965167Y-59708892D01*
X72818564Y-59354086D01*
X72547342Y-59082390D01*
X72192792Y-58935168D01*
X71808892Y-58934833D01*
X71460000Y-59078992D01*
X71460000Y-54900000D01*
X71402148Y-54609161D01*
X71295799Y-54449998D01*
X71237401Y-54362598D01*
X70760000Y-53885198D01*
X70760000Y-48500000D01*
X70702148Y-48209161D01*
X70537401Y-47962599D01*
X69965096Y-47390294D01*
X69965167Y-47308892D01*
X69818564Y-46954086D01*
X69547342Y-46682390D01*
X69192792Y-46535168D01*
X69010002Y-46535008D01*
X69010002Y-42374800D01*
X69107401Y-42277401D01*
X69272148Y-42030839D01*
X69330000Y-41740000D01*
X69330000Y-40210000D01*
X69272148Y-39919161D01*
X69107401Y-39672599D01*
X68565096Y-39130294D01*
X68565167Y-39048892D01*
X68418564Y-38694086D01*
X68147342Y-38422390D01*
X67792792Y-38275168D01*
X67408892Y-38274833D01*
X67054086Y-38421436D01*
X66782390Y-38692658D01*
X66635168Y-39047208D01*
X66634833Y-39431108D01*
X66781436Y-39785914D01*
X67052658Y-40057610D01*
X67407208Y-40204832D01*
X67490102Y-40204904D01*
X67520128Y-40234930D01*
X67408892Y-40234833D01*
X67054086Y-40381436D01*
X66782390Y-40652658D01*
X66635168Y-41007208D01*
X66635158Y-41018608D01*
X66602792Y-41005168D01*
X66218892Y-41004833D01*
X65864086Y-41151436D01*
X65592390Y-41422658D01*
X65445168Y-41777208D01*
X65445144Y-41804278D01*
X65302792Y-41745168D01*
X64918892Y-41744833D01*
X64564086Y-41891436D01*
X64292390Y-42162658D01*
X64145168Y-42517208D01*
X64144833Y-42901108D01*
X64291436Y-43255914D01*
X64562658Y-43527610D01*
X64917208Y-43674832D01*
X65000102Y-43674904D01*
X65530339Y-44205141D01*
X65282390Y-44452658D01*
X65135168Y-44807208D01*
X65135128Y-44852748D01*
X65092792Y-44835168D01*
X64708892Y-44834833D01*
X64354086Y-44981436D01*
X64082390Y-45252658D01*
X63935168Y-45607208D01*
X63934833Y-45991108D01*
X64081436Y-46345914D01*
X64352658Y-46617610D01*
X64707208Y-46764832D01*
X64790102Y-46764904D01*
X65040000Y-47014802D01*
X65040000Y-48900000D01*
X65097852Y-49190839D01*
X65262599Y-49437401D01*
X66240000Y-50414802D01*
X66240000Y-52085198D01*
X66162599Y-52162599D01*
X65997852Y-52409161D01*
X65940000Y-52700000D01*
X65940000Y-55150002D01*
X65997852Y-55440841D01*
X66162599Y-55687403D01*
X66940000Y-56464804D01*
X66940000Y-59885198D01*
X66862599Y-59962599D01*
X66697852Y-60209161D01*
X66677858Y-60309678D01*
X66472068Y-59811629D01*
X66070818Y-59409677D01*
X66470551Y-59010643D01*
X66704733Y-58446670D01*
X66705265Y-57836009D01*
X66472068Y-57271629D01*
X66040643Y-56839449D01*
X65476670Y-56605267D01*
X64866009Y-56604735D01*
X64301629Y-56837932D01*
X63869449Y-57269357D01*
X63660000Y-57773766D01*
X63660000Y-57245256D01*
X63764832Y-56992792D01*
X63765167Y-56608892D01*
X63618564Y-56254086D01*
X63347342Y-55982390D01*
X62992792Y-55835168D01*
X62760000Y-55834965D01*
X62760000Y-55000000D01*
X62702148Y-54709161D01*
X62537401Y-54462599D01*
X59737401Y-51662599D01*
X59490839Y-51497852D01*
X59200000Y-51440000D01*
X58304851Y-51440000D01*
X58247342Y-51382390D01*
X57892792Y-51235168D01*
X57508892Y-51234833D01*
X57154086Y-51381436D01*
X56882390Y-51652658D01*
X56735168Y-52007208D01*
X56734833Y-52391108D01*
X49983694Y-52391108D01*
X52437401Y-49937401D01*
X52501046Y-49842149D01*
X52573031Y-49753028D01*
X52582854Y-49719715D01*
X52602148Y-49690839D01*
X52624497Y-49578484D01*
X52656898Y-49468598D01*
X52708078Y-48903872D01*
X53725173Y-48903872D01*
X53823836Y-49170727D01*
X54433561Y-49397248D01*
X55083560Y-49373196D01*
X55572364Y-49170727D01*
X55671027Y-48903872D01*
X54698100Y-47930945D01*
X53725173Y-48903872D01*
X52708078Y-48903872D01*
X52836507Y-47486801D01*
X53052192Y-47486801D01*
X53076244Y-48136800D01*
X53278713Y-48625604D01*
X53545568Y-48724267D01*
X54518495Y-47751340D01*
X54877705Y-47751340D01*
X55850632Y-48724267D01*
X56117487Y-48625604D01*
X56344008Y-48015879D01*
X56319956Y-47365880D01*
X56117487Y-46877076D01*
X55850632Y-46778413D01*
X54877705Y-47751340D01*
X54518495Y-47751340D01*
X53545568Y-46778413D01*
X53278713Y-46877076D01*
X53052192Y-47486801D01*
X52836507Y-47486801D01*
X52916985Y-46598808D01*
X53725173Y-46598808D01*
X54698100Y-47571735D01*
X55671027Y-46598808D01*
X55572364Y-46331953D01*
X54962639Y-46105432D01*
X54312640Y-46129484D01*
X53823836Y-46331953D01*
X53725173Y-46598808D01*
X52916985Y-46598808D01*
X53226546Y-43183155D01*
X54114959Y-42055312D01*
X54445914Y-41918564D01*
X54717610Y-41647342D01*
X54864832Y-41292792D01*
X54865167Y-40908892D01*
X54718564Y-40554086D01*
X54447342Y-40282390D01*
X54092792Y-40135168D01*
X53708892Y-40134833D01*
X53354086Y-40281436D01*
X53082390Y-40552658D01*
X52935168Y-40907208D01*
X52935003Y-41096864D01*
X51974506Y-42316217D01*
X51624963Y-41966062D01*
X51024248Y-41716624D01*
X50373805Y-41716056D01*
X49772657Y-41964446D01*
X49312322Y-42423977D01*
X49062884Y-43024692D01*
X49062316Y-43675135D01*
X49310706Y-44276283D01*
X49770237Y-44736618D01*
X50370952Y-44986056D01*
X51021395Y-44986624D01*
X51556923Y-44765348D01*
X51167948Y-49057250D01*
X48562599Y-51662599D01*
X48397852Y-51909161D01*
X48340000Y-52200000D01*
X48340000Y-57247627D01*
X48024508Y-57116624D01*
X47374065Y-57116056D01*
X46772917Y-57364446D01*
X46312582Y-57823977D01*
X46063144Y-58424692D01*
X46062576Y-59075135D01*
X45414000Y-59075135D01*
X45414000Y-48075135D01*
X46062576Y-48075135D01*
X46310966Y-48676283D01*
X46770497Y-49136618D01*
X47371212Y-49386056D01*
X48021655Y-49386624D01*
X48622803Y-49138234D01*
X49083138Y-48678703D01*
X49332576Y-48077988D01*
X49333144Y-47427545D01*
X49084754Y-46826397D01*
X48625223Y-46366062D01*
X48024508Y-46116624D01*
X47374065Y-46116056D01*
X46772917Y-46364446D01*
X46312582Y-46823977D01*
X46063144Y-47424692D01*
X46062576Y-48075135D01*
X45414000Y-48075135D01*
X45414000Y-35128332D01*
X47329449Y-35134491D01*
X47329449Y-35134491D01*
G37*
X47329449Y-35134491D02*
X46772917Y-35364446D01*
X46312582Y-35823977D01*
X46063144Y-36424692D01*
X46062576Y-37075135D01*
X46310966Y-37676283D01*
X46770497Y-38136618D01*
X47371212Y-38386056D01*
X48021655Y-38386624D01*
X48622803Y-38138234D01*
X49083138Y-37678703D01*
X49332576Y-37077988D01*
X49333092Y-36486801D01*
X53052192Y-36486801D01*
X53076244Y-37136800D01*
X53278713Y-37625604D01*
X53545568Y-37724267D01*
X54518495Y-36751340D01*
X53545568Y-35778413D01*
X53278713Y-35877076D01*
X53052192Y-36486801D01*
X49333092Y-36486801D01*
X49333144Y-36427545D01*
X49084754Y-35826397D01*
X48625223Y-35366062D01*
X48073296Y-35136883D01*
X49135180Y-35140297D01*
X49442163Y-35447816D01*
X50373545Y-35834559D01*
X51382031Y-35835439D01*
X52314086Y-35450322D01*
X52613449Y-35151481D01*
X54246854Y-35156733D01*
X53823836Y-35331953D01*
X53725173Y-35598808D01*
X54698100Y-36571735D01*
X54712243Y-36557593D01*
X54891848Y-36737198D01*
X54877705Y-36751340D01*
X54891848Y-36765483D01*
X54712243Y-36945088D01*
X54698100Y-36930945D01*
X53725173Y-37903872D01*
X53823836Y-38170727D01*
X54433561Y-38397248D01*
X55083560Y-38373196D01*
X55340000Y-38266975D01*
X55340000Y-40495149D01*
X55282390Y-40552658D01*
X55135168Y-40907208D01*
X55134833Y-41291108D01*
X55281436Y-41645914D01*
X55552658Y-41917610D01*
X55907208Y-42064832D01*
X56291108Y-42065167D01*
X56645914Y-41918564D01*
X56917610Y-41647342D01*
X57064832Y-41292792D01*
X57065167Y-40908892D01*
X56918564Y-40554086D01*
X56860000Y-40495420D01*
X56860000Y-36460000D01*
X61495149Y-36460000D01*
X61552658Y-36517610D01*
X61907208Y-36664832D01*
X62291108Y-36665167D01*
X62645914Y-36518564D01*
X62917610Y-36247342D01*
X63064832Y-35892792D01*
X63065167Y-35508892D01*
X62931196Y-35184657D01*
X73947137Y-35220078D01*
X73876086Y-35249436D01*
X73604390Y-35520658D01*
X73457168Y-35875208D01*
X73457096Y-35958102D01*
X72614599Y-36800599D01*
X72449852Y-37047161D01*
X72392000Y-37338000D01*
X72392000Y-54223169D01*
X72322390Y-54292658D01*
X72175168Y-54647208D01*
X72174833Y-55031108D01*
X72321436Y-55385914D01*
X72592658Y-55657610D01*
X72947208Y-55804832D01*
X73331108Y-55805167D01*
X73685914Y-55658564D01*
X73957610Y-55387342D01*
X73957892Y-55386661D01*
X75392758Y-55386661D01*
X75604990Y-55900303D01*
X75997630Y-56293629D01*
X76510900Y-56506757D01*
X77066661Y-56507242D01*
X77580303Y-56295010D01*
X77973629Y-55902370D01*
X78186757Y-55389100D01*
X78187181Y-54902302D01*
X79700856Y-54902302D01*
X79728638Y-55457368D01*
X79887603Y-55841143D01*
X80129787Y-55910608D01*
X80930395Y-55110000D01*
X80129787Y-54309392D01*
X79887603Y-54378857D01*
X79700856Y-54902302D01*
X78187181Y-54902302D01*
X78187242Y-54833339D01*
X77975010Y-54319697D01*
X77785432Y-54129787D01*
X80309392Y-54129787D01*
X81110000Y-54930395D01*
X81124143Y-54916253D01*
X81303748Y-55095858D01*
X81289605Y-55110000D01*
X81303748Y-55124143D01*
X81124143Y-55303748D01*
X81110000Y-55289605D01*
X80309392Y-56090213D01*
X80378857Y-56332397D01*
X80902302Y-56519144D01*
X81440000Y-56492231D01*
X81440000Y-76700000D01*
X81497852Y-76990839D01*
X81662599Y-77237401D01*
X82634904Y-78209706D01*
X82634833Y-78291108D01*
X82781436Y-78645914D01*
X82840000Y-78704580D01*
X82840000Y-79395149D01*
X82782390Y-79452658D01*
X82635168Y-79807208D01*
X82634833Y-80191108D01*
X82781436Y-80545914D01*
X83052658Y-80817610D01*
X83407208Y-80964832D01*
X83791108Y-80965167D01*
X84145914Y-80818564D01*
X84417610Y-80547342D01*
X84564832Y-80192792D01*
X84565167Y-79808892D01*
X84418564Y-79454086D01*
X84360000Y-79395420D01*
X84360000Y-78704851D01*
X84417610Y-78647342D01*
X84564832Y-78292792D01*
X84564861Y-78260000D01*
X85540000Y-78260000D01*
X85540000Y-83611547D01*
X85400564Y-83274086D01*
X85129342Y-83002390D01*
X84774792Y-82855168D01*
X84390892Y-82854833D01*
X84036086Y-83001436D01*
X83764390Y-83272658D01*
X83617168Y-83627208D01*
X83616833Y-84011108D01*
X83763436Y-84365914D01*
X83822000Y-84424580D01*
X83822000Y-85378427D01*
X83605342Y-85161390D01*
X83250792Y-85014168D01*
X82866892Y-85013833D01*
X82512086Y-85160436D01*
X82240390Y-85431658D01*
X82093168Y-85786208D01*
X82092833Y-86170108D01*
X82239436Y-86524914D01*
X82510658Y-86796610D01*
X82865208Y-86943832D01*
X82989138Y-86943940D01*
X83310000Y-87264802D01*
X83310000Y-89789714D01*
X83241564Y-89624086D01*
X82970342Y-89352390D01*
X82615792Y-89205168D01*
X82231892Y-89204833D01*
X81877086Y-89351436D01*
X81605390Y-89622658D01*
X81458168Y-89977208D01*
X81457833Y-90361108D01*
X81604436Y-90715914D01*
X81875658Y-90987610D01*
X82230208Y-91134832D01*
X82313102Y-91134904D01*
X82620000Y-91441802D01*
X82620000Y-93135149D01*
X82562390Y-93192658D01*
X82415168Y-93547208D01*
X82415096Y-93630102D01*
X81885599Y-94159599D01*
X81720852Y-94406161D01*
X81663000Y-94697000D01*
X81663000Y-97312149D01*
X81605390Y-97369658D01*
X81458168Y-97724208D01*
X81457833Y-98108108D01*
X81604436Y-98462914D01*
X81875658Y-98734610D01*
X82230208Y-98881832D01*
X82614108Y-98882167D01*
X82968914Y-98735564D01*
X83060000Y-98644637D01*
X83060000Y-98963149D01*
X83002390Y-99020658D01*
X82855168Y-99375208D01*
X82854833Y-99759108D01*
X83001436Y-100113914D01*
X83272658Y-100385610D01*
X83627208Y-100532832D01*
X84011108Y-100533167D01*
X84365914Y-100386564D01*
X84538894Y-100213885D01*
X84558436Y-100233461D01*
X85067298Y-100444759D01*
X85618285Y-100445240D01*
X86127515Y-100234831D01*
X86517461Y-99845564D01*
X86728759Y-99336702D01*
X86728813Y-99274285D01*
X87214760Y-99274285D01*
X87425169Y-99783515D01*
X87814436Y-100173461D01*
X88323298Y-100384759D01*
X88874285Y-100385240D01*
X89283000Y-100216363D01*
X89283000Y-100584768D01*
X89205168Y-100772208D01*
X89204833Y-101156108D01*
X89351436Y-101510914D01*
X89622658Y-101782610D01*
X89977208Y-101929832D01*
X90361108Y-101930167D01*
X90715914Y-101783564D01*
X90987610Y-101512342D01*
X91134832Y-101157792D01*
X91135167Y-100773892D01*
X90988564Y-100419086D01*
X90803000Y-100233198D01*
X90803000Y-96616851D01*
X90860610Y-96559342D01*
X91007832Y-96204792D01*
X91008167Y-95820892D01*
X90861564Y-95466086D01*
X90590342Y-95194390D01*
X90235792Y-95047168D01*
X89851892Y-95046833D01*
X89497086Y-95193436D01*
X89225390Y-95464658D01*
X89078168Y-95819208D01*
X89077833Y-96203108D01*
X89224436Y-96557914D01*
X89283000Y-96616580D01*
X89283000Y-97783951D01*
X88876702Y-97615241D01*
X88325715Y-97614760D01*
X87816485Y-97825169D01*
X87426539Y-98214436D01*
X87215241Y-98723298D01*
X87214760Y-99274285D01*
X86728813Y-99274285D01*
X86729240Y-98785715D01*
X86518831Y-98276485D01*
X86129564Y-97886539D01*
X85620702Y-97675241D01*
X85069715Y-97674760D01*
X84580000Y-97877106D01*
X84580000Y-96834802D01*
X85707706Y-95707096D01*
X85789108Y-95707167D01*
X86143914Y-95560564D01*
X86415610Y-95289342D01*
X86562832Y-94934792D01*
X86563167Y-94550892D01*
X86416564Y-94196086D01*
X86145342Y-93924390D01*
X85790792Y-93777168D01*
X85406892Y-93776833D01*
X85342000Y-93803646D01*
X85342000Y-84908453D01*
X85481436Y-85245914D01*
X85752658Y-85517610D01*
X86107208Y-85664832D01*
X86491108Y-85665167D01*
X86845914Y-85518564D01*
X87117610Y-85247342D01*
X87264832Y-84892792D01*
X87265167Y-84508892D01*
X87118564Y-84154086D01*
X87060000Y-84095420D01*
X87060000Y-79185108D01*
X88950833Y-79185108D01*
X89097436Y-79539914D01*
X89368658Y-79811610D01*
X89537000Y-79881512D01*
X89537000Y-92359149D01*
X89479390Y-92416658D01*
X89332168Y-92771208D01*
X89331833Y-93155108D01*
X89478436Y-93509914D01*
X89749658Y-93781610D01*
X90104208Y-93928832D01*
X90488108Y-93929167D01*
X90842914Y-93782564D01*
X91114610Y-93511342D01*
X91261832Y-93156792D01*
X91262167Y-92772892D01*
X91115564Y-92418086D01*
X91057000Y-92359420D01*
X91057000Y-79375000D01*
X91018687Y-79182390D01*
X90999148Y-79084160D01*
X90881076Y-78907453D01*
X90881167Y-78802892D01*
X90734564Y-78448086D01*
X90463342Y-78176390D01*
X90108792Y-78029168D01*
X89724892Y-78028833D01*
X89370086Y-78175436D01*
X89098390Y-78446658D01*
X88951168Y-78801208D01*
X88950833Y-79185108D01*
X87060000Y-79185108D01*
X87060000Y-77500000D01*
X87002148Y-77209161D01*
X86837401Y-76962599D01*
X86590839Y-76797852D01*
X86300000Y-76740000D01*
X84314802Y-76740000D01*
X83798793Y-76223991D01*
X86494735Y-76223991D01*
X86727932Y-76788371D01*
X87159357Y-77220551D01*
X87723330Y-77454733D01*
X88333991Y-77455265D01*
X88898371Y-77222068D01*
X89330551Y-76790643D01*
X89564733Y-76226670D01*
X89565265Y-75616009D01*
X89332068Y-75051629D01*
X88900643Y-74619449D01*
X88879806Y-74610797D01*
X88930554Y-74460159D01*
X88030000Y-73559605D01*
X87129446Y-74460159D01*
X87180035Y-74610327D01*
X87161629Y-74617932D01*
X86729449Y-75049357D01*
X86495267Y-75613330D01*
X86494735Y-76223991D01*
X83798793Y-76223991D01*
X83460000Y-75885198D01*
X83460000Y-73139336D01*
X86483542Y-73139336D01*
X86509161Y-73749460D01*
X86693357Y-74194148D01*
X86949841Y-74280554D01*
X87850395Y-73380000D01*
X88209605Y-73380000D01*
X89110159Y-74280554D01*
X89366643Y-74194148D01*
X89576458Y-73620664D01*
X89550839Y-73010540D01*
X89366643Y-72565852D01*
X89110159Y-72479446D01*
X88209605Y-73380000D01*
X87850395Y-73380000D01*
X86949841Y-72479446D01*
X86693357Y-72565852D01*
X86483542Y-73139336D01*
X83460000Y-73139336D01*
X83460000Y-72665053D01*
X83591108Y-72665167D01*
X83945914Y-72518564D01*
X84217610Y-72247342D01*
X84364832Y-71892792D01*
X84365167Y-71508892D01*
X84218564Y-71154086D01*
X83960000Y-70895070D01*
X83960000Y-69265053D01*
X84091108Y-69265167D01*
X84445914Y-69118564D01*
X84717610Y-68847342D01*
X84864832Y-68492792D01*
X84865167Y-68108892D01*
X84718564Y-67754086D01*
X84460000Y-67495070D01*
X84460000Y-65365053D01*
X84591108Y-65365167D01*
X84945914Y-65218564D01*
X85217610Y-64947342D01*
X85364832Y-64592792D01*
X85365167Y-64208892D01*
X85218564Y-63854086D01*
X84960000Y-63595070D01*
X84960000Y-62165053D01*
X85091108Y-62165167D01*
X85445914Y-62018564D01*
X85717610Y-61747342D01*
X85864832Y-61392792D01*
X85865167Y-61008892D01*
X85718564Y-60654086D01*
X85460000Y-60395070D01*
X85460000Y-59664878D01*
X85791108Y-59665167D01*
X86145914Y-59518564D01*
X86417610Y-59247342D01*
X86564832Y-58892792D01*
X86565075Y-58614227D01*
X86727932Y-59008371D01*
X87129182Y-59410323D01*
X86729449Y-59809357D01*
X86495267Y-60373330D01*
X86494735Y-60983991D01*
X86727932Y-61548371D01*
X87129182Y-61950323D01*
X86729449Y-62349357D01*
X86495267Y-62913330D01*
X86494735Y-63523991D01*
X86727932Y-64088371D01*
X87129182Y-64490323D01*
X86729449Y-64889357D01*
X86495267Y-65453330D01*
X86494735Y-66063991D01*
X86727932Y-66628371D01*
X87129182Y-67030323D01*
X86729449Y-67429357D01*
X86495267Y-67993330D01*
X86494735Y-68603991D01*
X86727932Y-69168371D01*
X87129182Y-69570323D01*
X86729449Y-69969357D01*
X86495267Y-70533330D01*
X86494735Y-71143991D01*
X86727932Y-71708371D01*
X87159357Y-72140551D01*
X87180194Y-72149203D01*
X87129446Y-72299841D01*
X88030000Y-73200395D01*
X88930554Y-72299841D01*
X88879965Y-72149673D01*
X88898371Y-72142068D01*
X89330551Y-71710643D01*
X89564733Y-71146670D01*
X89565265Y-70536009D01*
X89332068Y-69971629D01*
X88930818Y-69569677D01*
X89330551Y-69170643D01*
X89564733Y-68606670D01*
X89565265Y-67996009D01*
X89332068Y-67431629D01*
X88930818Y-67029677D01*
X89330551Y-66630643D01*
X89564733Y-66066670D01*
X89565265Y-65456009D01*
X89332068Y-64891629D01*
X88930818Y-64489677D01*
X89330551Y-64090643D01*
X89564733Y-63526670D01*
X89565265Y-62916009D01*
X89332068Y-62351629D01*
X88930818Y-61949677D01*
X89330551Y-61550643D01*
X89564733Y-60986670D01*
X89565265Y-60376009D01*
X89332068Y-59811629D01*
X88930818Y-59409677D01*
X89330551Y-59010643D01*
X89564733Y-58446670D01*
X89565265Y-57836009D01*
X89332068Y-57271629D01*
X88900643Y-56839449D01*
X88336670Y-56605267D01*
X87726009Y-56604735D01*
X87161629Y-56837932D01*
X86729449Y-57269357D01*
X86495267Y-57833330D01*
X86494827Y-58338656D01*
X86418564Y-58154086D01*
X86147342Y-57882390D01*
X85960000Y-57804599D01*
X85960000Y-49634528D01*
X86202658Y-49877610D01*
X86557208Y-50024832D01*
X86941108Y-50025167D01*
X87295914Y-49878564D01*
X87567610Y-49607342D01*
X87714832Y-49252792D01*
X87714904Y-49169898D01*
X87924802Y-48960000D01*
X88737196Y-48960000D01*
X90017196Y-50240000D01*
X89204851Y-50240000D01*
X89147342Y-50182390D01*
X88792792Y-50035168D01*
X88408892Y-50034833D01*
X88054086Y-50181436D01*
X87782390Y-50452658D01*
X87635168Y-50807208D01*
X87634833Y-51191108D01*
X87781436Y-51545914D01*
X88052658Y-51817610D01*
X88407208Y-51964832D01*
X88791108Y-51965167D01*
X89145914Y-51818564D01*
X89204580Y-51760000D01*
X90485198Y-51760000D01*
X90489998Y-51764800D01*
X90489998Y-54449998D01*
X90547850Y-54740837D01*
X90664084Y-54914793D01*
X90625715Y-54914760D01*
X90116485Y-55125169D01*
X89726539Y-55514436D01*
X89515241Y-56023298D01*
X89514760Y-56574285D01*
X89725169Y-57083515D01*
X90114436Y-57473461D01*
X90623298Y-57684759D01*
X91174285Y-57685240D01*
X91557996Y-57526694D01*
X91557996Y-61767202D01*
X91262599Y-62062599D01*
X91097852Y-62309161D01*
X91040000Y-62600000D01*
X91040000Y-63200000D01*
X91097852Y-63490839D01*
X91262599Y-63737401D01*
X91740000Y-64214803D01*
X91740000Y-64895149D01*
X91682390Y-64952658D01*
X91535168Y-65307208D01*
X91534833Y-65691108D01*
X91681436Y-66045914D01*
X91952658Y-66317610D01*
X92307208Y-66464832D01*
X92458000Y-66464964D01*
X92458000Y-101780944D01*
X92418086Y-101797436D01*
X92146390Y-102068658D01*
X91999168Y-102423208D01*
X91998833Y-102807108D01*
X92145436Y-103161914D01*
X92416658Y-103433610D01*
X92771208Y-103580832D01*
X92966000Y-103581002D01*
X92966000Y-104394000D01*
X93023852Y-104684839D01*
X93188599Y-104931401D01*
X94236000Y-105978802D01*
X94236000Y-107091149D01*
X94178390Y-107148658D01*
X94031168Y-107503208D01*
X94030833Y-107887108D01*
X94177436Y-108241914D01*
X94448658Y-108513610D01*
X94803208Y-108660832D01*
X95187108Y-108661167D01*
X95541914Y-108514564D01*
X95813610Y-108243342D01*
X95874738Y-108096128D01*
X96828973Y-108096128D01*
X97801900Y-109069055D01*
X98774827Y-108096128D01*
X98676164Y-107829273D01*
X98066439Y-107602752D01*
X97416440Y-107626804D01*
X96927636Y-107829273D01*
X96828973Y-108096128D01*
X95874738Y-108096128D01*
X95960832Y-107888792D01*
X95961167Y-107504892D01*
X95814564Y-107150086D01*
X95756000Y-107091420D01*
X95756000Y-105664000D01*
X95698148Y-105373161D01*
X95698148Y-105373160D01*
X95533401Y-105126599D01*
X94486000Y-104079198D01*
X94486000Y-102680108D01*
X94538833Y-102680108D01*
X94685436Y-103034914D01*
X94956658Y-103306610D01*
X95311208Y-103453832D01*
X95695108Y-103454167D01*
X96049914Y-103307564D01*
X96108580Y-103249000D01*
X97348198Y-103249000D01*
X97713904Y-103614706D01*
X97713833Y-103696108D01*
X97860436Y-104050914D01*
X98131658Y-104322610D01*
X98486208Y-104469832D01*
X98870108Y-104470167D01*
X99224914Y-104323564D01*
X99496610Y-104052342D01*
X99643832Y-103697792D01*
X99644167Y-103313892D01*
X99503088Y-102972455D01*
X100167116Y-102972455D01*
X100415506Y-103573603D01*
X100875037Y-104033938D01*
X101475752Y-104283376D01*
X102126195Y-104283944D01*
X102727343Y-104035554D01*
X103187678Y-103576023D01*
X103437116Y-102975308D01*
X103437684Y-102324865D01*
X103189294Y-101723717D01*
X102729763Y-101263382D01*
X102129048Y-101013944D01*
X101478605Y-101013376D01*
X100877457Y-101261766D01*
X100417122Y-101721297D01*
X100167684Y-102322012D01*
X100167116Y-102972455D01*
X99503088Y-102972455D01*
X99497564Y-102959086D01*
X99226342Y-102687390D01*
X98871792Y-102540168D01*
X98788898Y-102540096D01*
X98200401Y-101951599D01*
X97953839Y-101786852D01*
X97663000Y-101729000D01*
X96108851Y-101729000D01*
X96051342Y-101671390D01*
X95696792Y-101524168D01*
X95312892Y-101523833D01*
X94958086Y-101670436D01*
X94686390Y-101941658D01*
X94539168Y-102296208D01*
X94538833Y-102680108D01*
X94486000Y-102680108D01*
X94486000Y-99401192D01*
X96828973Y-99401192D01*
X96927636Y-99668047D01*
X97537361Y-99894568D01*
X98187360Y-99870516D01*
X98676164Y-99668047D01*
X98774827Y-99401192D01*
X97801900Y-98428265D01*
X96828973Y-99401192D01*
X94486000Y-99401192D01*
X94486000Y-96661108D01*
X95884833Y-96661108D01*
X96031436Y-97015914D01*
X96302658Y-97287610D01*
X96450831Y-97349137D01*
X96382513Y-97374396D01*
X96155992Y-97984121D01*
X96180044Y-98634120D01*
X96382513Y-99122924D01*
X96649368Y-99221587D01*
X97622295Y-98248660D01*
X97608153Y-98234518D01*
X97787758Y-98054913D01*
X97801900Y-98069055D01*
X97816043Y-98054913D01*
X97995648Y-98234518D01*
X97981505Y-98248660D01*
X98954432Y-99221587D01*
X99221287Y-99122924D01*
X99425793Y-98572455D01*
X103166856Y-98572455D01*
X103415246Y-99173603D01*
X103874777Y-99633938D01*
X104475492Y-99883376D01*
X105125935Y-99883944D01*
X105727083Y-99635554D01*
X106187418Y-99176023D01*
X106436856Y-98575308D01*
X106437424Y-97924865D01*
X106189034Y-97323717D01*
X105729503Y-96863382D01*
X105128788Y-96613944D01*
X104478345Y-96613376D01*
X103877197Y-96861766D01*
X103416862Y-97321297D01*
X103167424Y-97922012D01*
X103166856Y-98572455D01*
X99425793Y-98572455D01*
X99447808Y-98513199D01*
X99423756Y-97863200D01*
X99249595Y-97442737D01*
X99525914Y-97328564D01*
X99797610Y-97057342D01*
X99944832Y-96702792D01*
X99945167Y-96318892D01*
X99798564Y-95964086D01*
X99527342Y-95692390D01*
X99172792Y-95545168D01*
X98788892Y-95544833D01*
X98434086Y-95691436D01*
X98415490Y-95710000D01*
X97454851Y-95710000D01*
X97397342Y-95652390D01*
X97042792Y-95505168D01*
X96658892Y-95504833D01*
X96304086Y-95651436D01*
X96032390Y-95922658D01*
X95885168Y-96277208D01*
X95884833Y-96661108D01*
X94486000Y-96661108D01*
X94486000Y-93121108D01*
X95624833Y-93121108D01*
X95771436Y-93475914D01*
X96042658Y-93747610D01*
X96397208Y-93894832D01*
X96781108Y-93895167D01*
X97135914Y-93748564D01*
X97224633Y-93660000D01*
X98105149Y-93660000D01*
X98162658Y-93717610D01*
X98517208Y-93864832D01*
X98901108Y-93865167D01*
X99255914Y-93718564D01*
X99527610Y-93447342D01*
X99674832Y-93092792D01*
X99675167Y-92708892D01*
X99528564Y-92354086D01*
X99257342Y-92082390D01*
X98992590Y-91972455D01*
X100167116Y-91972455D01*
X100415506Y-92573603D01*
X100875037Y-93033938D01*
X101475752Y-93283376D01*
X102126195Y-93283944D01*
X102727343Y-93035554D01*
X103187678Y-92576023D01*
X103437116Y-91975308D01*
X103437684Y-91324865D01*
X103189294Y-90723717D01*
X102729763Y-90263382D01*
X102129048Y-90013944D01*
X101478605Y-90013376D01*
X100877457Y-90261766D01*
X100417122Y-90721297D01*
X100167684Y-91322012D01*
X100167116Y-91972455D01*
X98992590Y-91972455D01*
X98902792Y-91935168D01*
X98518892Y-91934833D01*
X98164086Y-92081436D01*
X98105420Y-92140000D01*
X97164904Y-92140000D01*
X97137342Y-92112390D01*
X96782792Y-91965168D01*
X96398892Y-91964833D01*
X96044086Y-92111436D01*
X95772390Y-92382658D01*
X95625168Y-92737208D01*
X95624833Y-93121108D01*
X94486000Y-93121108D01*
X94486000Y-88401192D01*
X96828973Y-88401192D01*
X96927636Y-88668047D01*
X97537361Y-88894568D01*
X98187360Y-88870516D01*
X98676164Y-88668047D01*
X98774827Y-88401192D01*
X97801900Y-87428265D01*
X96828973Y-88401192D01*
X94486000Y-88401192D01*
X94486000Y-86984121D01*
X96155992Y-86984121D01*
X96180044Y-87634120D01*
X96382513Y-88122924D01*
X96649368Y-88221587D01*
X97622295Y-87248660D01*
X97981505Y-87248660D01*
X98954432Y-88221587D01*
X99221287Y-88122924D01*
X99425793Y-87572455D01*
X103166856Y-87572455D01*
X103415246Y-88173603D01*
X103874777Y-88633938D01*
X104475492Y-88883376D01*
X105125935Y-88883944D01*
X105727083Y-88635554D01*
X106187418Y-88176023D01*
X106436856Y-87575308D01*
X106437424Y-86924865D01*
X106189034Y-86323717D01*
X105729503Y-85863382D01*
X105128788Y-85613944D01*
X104478345Y-85613376D01*
X103877197Y-85861766D01*
X103416862Y-86321297D01*
X103167424Y-86922012D01*
X103166856Y-87572455D01*
X99425793Y-87572455D01*
X99447808Y-87513199D01*
X99423756Y-86863200D01*
X99221287Y-86374396D01*
X98954432Y-86275733D01*
X97981505Y-87248660D01*
X97622295Y-87248660D01*
X96649368Y-86275733D01*
X96382513Y-86374396D01*
X96155992Y-86984121D01*
X94486000Y-86984121D01*
X94486000Y-86096128D01*
X96828973Y-86096128D01*
X97801900Y-87069055D01*
X98774827Y-86096128D01*
X98676164Y-85829273D01*
X98066439Y-85602752D01*
X97416440Y-85626804D01*
X96927636Y-85829273D01*
X96828973Y-86096128D01*
X94486000Y-86096128D01*
X94486000Y-80972455D01*
X100167116Y-80972455D01*
X100415506Y-81573603D01*
X100875037Y-82033938D01*
X101475752Y-82283376D01*
X102126195Y-82283944D01*
X102727343Y-82035554D01*
X103187678Y-81576023D01*
X103437116Y-80975308D01*
X103437684Y-80324865D01*
X103189294Y-79723717D01*
X102729763Y-79263382D01*
X102129048Y-79013944D01*
X101478605Y-79013376D01*
X100877457Y-79261766D01*
X100417122Y-79721297D01*
X100167684Y-80322012D01*
X100167116Y-80972455D01*
X94486000Y-80972455D01*
X94486000Y-77401192D01*
X96828973Y-77401192D01*
X96927636Y-77668047D01*
X97537361Y-77894568D01*
X98187360Y-77870516D01*
X98676164Y-77668047D01*
X98774827Y-77401192D01*
X97801900Y-76428265D01*
X96828973Y-77401192D01*
X94486000Y-77401192D01*
X94486000Y-75984121D01*
X96155992Y-75984121D01*
X96180044Y-76634120D01*
X96382513Y-77122924D01*
X96649368Y-77221587D01*
X97622295Y-76248660D01*
X96649368Y-75275733D01*
X96382513Y-75374396D01*
X96155992Y-75984121D01*
X94486000Y-75984121D01*
X94486000Y-72291108D01*
X95834833Y-72291108D01*
X95981436Y-72645914D01*
X96040000Y-72704580D01*
X96040000Y-72900000D01*
X96097852Y-73190839D01*
X96262599Y-73437401D01*
X97450733Y-74625535D01*
X97416440Y-74626804D01*
X96927636Y-74829273D01*
X96828973Y-75096128D01*
X97801900Y-76069055D01*
X97816043Y-76054913D01*
X97995648Y-76234518D01*
X97981505Y-76248660D01*
X98954432Y-77221587D01*
X99221287Y-77122924D01*
X99425793Y-76572455D01*
X103166856Y-76572455D01*
X103415246Y-77173603D01*
X103874777Y-77633938D01*
X104475492Y-77883376D01*
X105125935Y-77883944D01*
X105727083Y-77635554D01*
X106187418Y-77176023D01*
X106436856Y-76575308D01*
X106437424Y-75924865D01*
X106189034Y-75323717D01*
X105729503Y-74863382D01*
X105128788Y-74613944D01*
X104478345Y-74613376D01*
X103877197Y-74861766D01*
X103416862Y-75321297D01*
X103167424Y-75922012D01*
X103166856Y-76572455D01*
X99425793Y-76572455D01*
X99447808Y-76513199D01*
X99442329Y-76365124D01*
X99491108Y-76365167D01*
X99845914Y-76218564D01*
X100117610Y-75947342D01*
X100264832Y-75592792D01*
X100265167Y-75208892D01*
X100118564Y-74854086D01*
X99847342Y-74582390D01*
X99492792Y-74435168D01*
X99409898Y-74435096D01*
X97618940Y-72644138D01*
X97764832Y-72292792D01*
X97765167Y-71908892D01*
X97618564Y-71554086D01*
X97347342Y-71282390D01*
X96992792Y-71135168D01*
X96608892Y-71134833D01*
X96254086Y-71281436D01*
X95982390Y-71552658D01*
X95835168Y-71907208D01*
X95834833Y-72291108D01*
X94486000Y-72291108D01*
X94486000Y-71350836D01*
X94552658Y-71417610D01*
X94907208Y-71564832D01*
X95291108Y-71565167D01*
X95645914Y-71418564D01*
X95917610Y-71147342D01*
X96064832Y-70792792D01*
X96065167Y-70408892D01*
X95939270Y-70104199D01*
X95952658Y-70117610D01*
X96307208Y-70264832D01*
X96691108Y-70265167D01*
X97045914Y-70118564D01*
X97104580Y-70060000D01*
X97585198Y-70060000D01*
X97734904Y-70209706D01*
X97734833Y-70291108D01*
X97881436Y-70645914D01*
X98152658Y-70917610D01*
X98507208Y-71064832D01*
X98891108Y-71065167D01*
X99245914Y-70918564D01*
X99517610Y-70647342D01*
X99664832Y-70292792D01*
X99665111Y-69972455D01*
X100167116Y-69972455D01*
X100415506Y-70573603D01*
X100875037Y-71033938D01*
X101475752Y-71283376D01*
X102126195Y-71283944D01*
X102727343Y-71035554D01*
X103187678Y-70576023D01*
X103437116Y-69975308D01*
X103437684Y-69324865D01*
X103189294Y-68723717D01*
X102729763Y-68263382D01*
X102129048Y-68013944D01*
X101478605Y-68013376D01*
X100877457Y-68261766D01*
X100417122Y-68721297D01*
X100167684Y-69322012D01*
X100167116Y-69972455D01*
X99665111Y-69972455D01*
X99665167Y-69908892D01*
X99518564Y-69554086D01*
X99247342Y-69282390D01*
X98892792Y-69135168D01*
X98809898Y-69135096D01*
X98437401Y-68762599D01*
X98190839Y-68597852D01*
X97900000Y-68540000D01*
X97104851Y-68540000D01*
X97047342Y-68482390D01*
X96692792Y-68335168D01*
X96308892Y-68334833D01*
X95954086Y-68481436D01*
X95860000Y-68575358D01*
X95860000Y-66401192D01*
X96828973Y-66401192D01*
X96927636Y-66668047D01*
X97537361Y-66894568D01*
X98187360Y-66870516D01*
X98676164Y-66668047D01*
X98774827Y-66401192D01*
X97801900Y-65428265D01*
X96828973Y-66401192D01*
X95860000Y-66401192D01*
X95860000Y-64862182D01*
X96107208Y-64964832D01*
X96163140Y-64964881D01*
X96155992Y-64984121D01*
X96180044Y-65634120D01*
X96382513Y-66122924D01*
X96649368Y-66221587D01*
X97622295Y-65248660D01*
X97608153Y-65234518D01*
X97787758Y-65054913D01*
X97801900Y-65069055D01*
X97816043Y-65054913D01*
X97995648Y-65234518D01*
X97981505Y-65248660D01*
X98954432Y-66221587D01*
X99221287Y-66122924D01*
X99425793Y-65572455D01*
X103166856Y-65572455D01*
X103415246Y-66173603D01*
X103874777Y-66633938D01*
X104126416Y-66738427D01*
X103916485Y-66825169D01*
X103526539Y-67214436D01*
X103315241Y-67723298D01*
X103314760Y-68274285D01*
X103525169Y-68783515D01*
X103914436Y-69173461D01*
X104423298Y-69384759D01*
X104974285Y-69385240D01*
X105483515Y-69174831D01*
X105873461Y-68785564D01*
X106084759Y-68276702D01*
X106085240Y-67725715D01*
X105874831Y-67216485D01*
X105485564Y-66826539D01*
X105375487Y-66780831D01*
X105727083Y-66635554D01*
X106187418Y-66176023D01*
X106436856Y-65575308D01*
X106437424Y-64924865D01*
X106189034Y-64323717D01*
X105729503Y-63863382D01*
X105128788Y-63613944D01*
X104478345Y-63613376D01*
X103877197Y-63861766D01*
X103416862Y-64321297D01*
X103167424Y-64922012D01*
X103166856Y-65572455D01*
X99425793Y-65572455D01*
X99447808Y-65513199D01*
X99423756Y-64863200D01*
X99240212Y-64420086D01*
X99485914Y-64318564D01*
X99757610Y-64047342D01*
X99904832Y-63692792D01*
X99905167Y-63308892D01*
X99758564Y-62954086D01*
X99487342Y-62682390D01*
X99132792Y-62535168D01*
X98748892Y-62534833D01*
X98394086Y-62681436D01*
X98210561Y-62864641D01*
X96748830Y-63141484D01*
X96492792Y-63035168D01*
X96108892Y-63034833D01*
X95860000Y-63137673D01*
X95860000Y-62224615D01*
X96052658Y-62417610D01*
X96407208Y-62564832D01*
X96791108Y-62565167D01*
X97145914Y-62418564D01*
X97204580Y-62360000D01*
X97900000Y-62360000D01*
X98190839Y-62302148D01*
X98437401Y-62137401D01*
X98809706Y-61765096D01*
X98891108Y-61765167D01*
X99245914Y-61618564D01*
X99517610Y-61347342D01*
X99664832Y-60992792D01*
X99665167Y-60608892D01*
X99518564Y-60254086D01*
X99247342Y-59982390D01*
X98964562Y-59864969D01*
X99191108Y-59865167D01*
X99545914Y-59718564D01*
X99817610Y-59447342D01*
X99964832Y-59092792D01*
X99964937Y-58972455D01*
X100167116Y-58972455D01*
X100415506Y-59573603D01*
X100875037Y-60033938D01*
X101475752Y-60283376D01*
X102126195Y-60283944D01*
X102727343Y-60035554D01*
X103187678Y-59576023D01*
X103437116Y-58975308D01*
X103437684Y-58324865D01*
X103189294Y-57723717D01*
X102729763Y-57263382D01*
X102129048Y-57013944D01*
X101478605Y-57013376D01*
X100877457Y-57261766D01*
X100417122Y-57721297D01*
X100167684Y-58322012D01*
X100167116Y-58972455D01*
X99964937Y-58972455D01*
X99965167Y-58708892D01*
X99818564Y-58354086D01*
X99547342Y-58082390D01*
X99192792Y-57935168D01*
X98808892Y-57934833D01*
X98454086Y-58081436D01*
X98195070Y-58340000D01*
X97604851Y-58340000D01*
X97547342Y-58282390D01*
X97192792Y-58135168D01*
X96808892Y-58134833D01*
X96454086Y-58281436D01*
X96182390Y-58552658D01*
X96035168Y-58907208D01*
X96034833Y-59291108D01*
X96181436Y-59645914D01*
X96452658Y-59917610D01*
X96807208Y-60064832D01*
X97191108Y-60065167D01*
X97545914Y-59918564D01*
X97604580Y-59860000D01*
X98447983Y-59860000D01*
X98154086Y-59981436D01*
X97882390Y-60252658D01*
X97735168Y-60607208D01*
X97735096Y-60690102D01*
X97585198Y-60840000D01*
X97204851Y-60840000D01*
X97147342Y-60782390D01*
X96792792Y-60635168D01*
X96408892Y-60634833D01*
X96054086Y-60781436D01*
X95860000Y-60975183D01*
X95860000Y-55401192D01*
X96828973Y-55401192D01*
X96927636Y-55668047D01*
X97537361Y-55894568D01*
X98187360Y-55870516D01*
X98676164Y-55668047D01*
X98774827Y-55401192D01*
X97801900Y-54428265D01*
X96828973Y-55401192D01*
X95860000Y-55401192D01*
X95860000Y-53984121D01*
X96155992Y-53984121D01*
X96180044Y-54634120D01*
X96382513Y-55122924D01*
X96649368Y-55221587D01*
X97622295Y-54248660D01*
X97981505Y-54248660D01*
X98954432Y-55221587D01*
X99221287Y-55122924D01*
X99425793Y-54572455D01*
X103166856Y-54572455D01*
X103415246Y-55173603D01*
X103874777Y-55633938D01*
X104126416Y-55738427D01*
X103916485Y-55825169D01*
X103526539Y-56214436D01*
X103315241Y-56723298D01*
X103314760Y-57274285D01*
X103525169Y-57783515D01*
X103914436Y-58173461D01*
X104423298Y-58384759D01*
X104974285Y-58385240D01*
X105483515Y-58174831D01*
X105873461Y-57785564D01*
X106084759Y-57276702D01*
X106085240Y-56725715D01*
X105874831Y-56216485D01*
X105485564Y-55826539D01*
X105375487Y-55780831D01*
X105727083Y-55635554D01*
X106187418Y-55176023D01*
X106436856Y-54575308D01*
X106437424Y-53924865D01*
X106189034Y-53323717D01*
X105729503Y-52863382D01*
X105128788Y-52613944D01*
X104478345Y-52613376D01*
X103877197Y-52861766D01*
X103416862Y-53321297D01*
X103167424Y-53922012D01*
X103166856Y-54572455D01*
X99425793Y-54572455D01*
X99447808Y-54513199D01*
X99423756Y-53863200D01*
X99221287Y-53374396D01*
X98954432Y-53275733D01*
X97981505Y-54248660D01*
X97622295Y-54248660D01*
X96649368Y-53275733D01*
X96382513Y-53374396D01*
X96155992Y-53984121D01*
X95860000Y-53984121D01*
X95860000Y-53096128D01*
X96828973Y-53096128D01*
X97801900Y-54069055D01*
X98774827Y-53096128D01*
X98676164Y-52829273D01*
X98066439Y-52602752D01*
X97416440Y-52626804D01*
X96927636Y-52829273D01*
X96828973Y-53096128D01*
X95860000Y-53096128D01*
X95860000Y-52104851D01*
X95917610Y-52047342D01*
X96064832Y-51692792D01*
X96065167Y-51308892D01*
X95918564Y-50954086D01*
X95647342Y-50682390D01*
X95339229Y-50554450D01*
X95364832Y-50492792D01*
X95365167Y-50108892D01*
X95218564Y-49754086D01*
X94947342Y-49482390D01*
X94592792Y-49335168D01*
X94486000Y-49335075D01*
X94486000Y-47972455D01*
X100167116Y-47972455D01*
X100415506Y-48573603D01*
X100875037Y-49033938D01*
X101475752Y-49283376D01*
X102126195Y-49283944D01*
X102727343Y-49035554D01*
X103187678Y-48576023D01*
X103437116Y-47975308D01*
X103437684Y-47324865D01*
X103189294Y-46723717D01*
X102729763Y-46263382D01*
X102129048Y-46013944D01*
X101478605Y-46013376D01*
X100877457Y-46261766D01*
X100417122Y-46721297D01*
X100167684Y-47322012D01*
X100167116Y-47972455D01*
X94486000Y-47972455D01*
X94486000Y-44401192D01*
X96828973Y-44401192D01*
X96927636Y-44668047D01*
X97537361Y-44894568D01*
X98187360Y-44870516D01*
X98676164Y-44668047D01*
X98774827Y-44401192D01*
X97801900Y-43428265D01*
X96828973Y-44401192D01*
X94486000Y-44401192D01*
X94486000Y-42984121D01*
X96155992Y-42984121D01*
X96180044Y-43634120D01*
X96382513Y-44122924D01*
X96649368Y-44221587D01*
X97622295Y-43248660D01*
X97981505Y-43248660D01*
X98954432Y-44221587D01*
X99221287Y-44122924D01*
X99425793Y-43572455D01*
X103166856Y-43572455D01*
X103415246Y-44173603D01*
X103791123Y-44550138D01*
X103626539Y-44714436D01*
X103415241Y-45223298D01*
X103414760Y-45774285D01*
X103625169Y-46283515D01*
X104014436Y-46673461D01*
X104523298Y-46884759D01*
X105074285Y-46885240D01*
X105583515Y-46674831D01*
X105973461Y-46285564D01*
X106184759Y-45776702D01*
X106185240Y-45225715D01*
X105974831Y-44716485D01*
X105810708Y-44552075D01*
X106187418Y-44176023D01*
X106436856Y-43575308D01*
X106437424Y-42924865D01*
X106189034Y-42323717D01*
X105729503Y-41863382D01*
X105128788Y-41613944D01*
X104478345Y-41613376D01*
X103877197Y-41861766D01*
X103416862Y-42321297D01*
X103167424Y-42922012D01*
X103166856Y-43572455D01*
X99425793Y-43572455D01*
X99447808Y-43513199D01*
X99423756Y-42863200D01*
X99221287Y-42374396D01*
X98954432Y-42275733D01*
X97981505Y-43248660D01*
X97622295Y-43248660D01*
X96649368Y-42275733D01*
X96382513Y-42374396D01*
X96155992Y-42984121D01*
X94486000Y-42984121D01*
X94486000Y-42096128D01*
X96828973Y-42096128D01*
X97801900Y-43069055D01*
X98774827Y-42096128D01*
X98676164Y-41829273D01*
X98066439Y-41602752D01*
X97416440Y-41626804D01*
X96927636Y-41829273D01*
X96828973Y-42096128D01*
X94486000Y-42096128D01*
X94486000Y-39116000D01*
X94436994Y-38869630D01*
X94437167Y-38670892D01*
X94290564Y-38316086D01*
X94019342Y-38044390D01*
X93664792Y-37897168D01*
X93280892Y-37896833D01*
X92926086Y-38043436D01*
X92654390Y-38314658D01*
X92507168Y-38669208D01*
X92506833Y-39053108D01*
X92653436Y-39407914D01*
X92924658Y-39679610D01*
X92966000Y-39696777D01*
X92966000Y-53537198D01*
X92962000Y-53533198D01*
X92962000Y-50546000D01*
X92904148Y-50255161D01*
X92739401Y-50008599D01*
X90119096Y-47388294D01*
X90119167Y-47306892D01*
X89972564Y-46952086D01*
X89701342Y-46680390D01*
X89548080Y-46616750D01*
X89617610Y-46547342D01*
X89764832Y-46192792D01*
X89765167Y-45808892D01*
X89618564Y-45454086D01*
X89347342Y-45182390D01*
X88992792Y-45035168D01*
X88764970Y-45034969D01*
X88765167Y-44808892D01*
X88618564Y-44454086D01*
X88347342Y-44182390D01*
X88126911Y-44090859D01*
X88254832Y-43782792D01*
X88255167Y-43398892D01*
X88108564Y-43044086D01*
X87837342Y-42772390D01*
X87482792Y-42625168D01*
X87098892Y-42624833D01*
X87041718Y-42648457D01*
X87064832Y-42592792D01*
X87065167Y-42208892D01*
X86918564Y-41854086D01*
X86647342Y-41582390D01*
X86292792Y-41435168D01*
X86247252Y-41435128D01*
X86264832Y-41392792D01*
X86265167Y-41008892D01*
X86118564Y-40654086D01*
X85847342Y-40382390D01*
X85492792Y-40235168D01*
X85392358Y-40235080D01*
X85434832Y-40132792D01*
X85435167Y-39748892D01*
X85288564Y-39394086D01*
X85017342Y-39122390D01*
X84702942Y-38991840D01*
X84764832Y-38842792D01*
X84765167Y-38458892D01*
X84618564Y-38104086D01*
X84347342Y-37832390D01*
X83992792Y-37685168D01*
X83608892Y-37684833D01*
X83254086Y-37831436D01*
X82982390Y-38102658D01*
X82835168Y-38457208D01*
X82835096Y-38540102D01*
X81813282Y-39561916D01*
X81662599Y-39662599D01*
X81497852Y-39909161D01*
X81440000Y-40200000D01*
X81440000Y-53744489D01*
X81317698Y-53700856D01*
X80762632Y-53728638D01*
X80378857Y-53887603D01*
X80309392Y-54129787D01*
X77785432Y-54129787D01*
X77582370Y-53926371D01*
X77069100Y-53713243D01*
X76513339Y-53712758D01*
X75999697Y-53924990D01*
X75606371Y-54317630D01*
X75393243Y-54830900D01*
X75392758Y-55386661D01*
X73957892Y-55386661D01*
X74104832Y-55032792D01*
X74105167Y-54648892D01*
X73958564Y-54294086D01*
X73912000Y-54247441D01*
X73912000Y-37652802D01*
X74531706Y-37033096D01*
X74613108Y-37033167D01*
X74967914Y-36886564D01*
X75018702Y-36835864D01*
X75025169Y-36851515D01*
X75414436Y-37241461D01*
X75923298Y-37452759D01*
X76474285Y-37453240D01*
X76983515Y-37242831D01*
X77373461Y-36853564D01*
X77584759Y-36344702D01*
X77585240Y-35793715D01*
X77374831Y-35284485D01*
X77321367Y-35230928D01*
X78735872Y-35235476D01*
X78702086Y-35249436D01*
X78430390Y-35520658D01*
X78283168Y-35875208D01*
X78282833Y-36259108D01*
X78429436Y-36613914D01*
X78700658Y-36885610D01*
X79055208Y-37032832D01*
X79439108Y-37033167D01*
X79793914Y-36886564D01*
X79852580Y-36828000D01*
X82707149Y-36828000D01*
X82764658Y-36885610D01*
X83119208Y-37032832D01*
X83503108Y-37033167D01*
X83857914Y-36886564D01*
X84129610Y-36615342D01*
X84276832Y-36260792D01*
X84277167Y-35876892D01*
X84130564Y-35522086D01*
X83860904Y-35251955D01*
X96537333Y-35292715D01*
X96692163Y-35447816D01*
X97623545Y-35834559D01*
X98632031Y-35835439D01*
X99564086Y-35450322D01*
X99711743Y-35302922D01*
X100832618Y-35306526D01*
X100417122Y-35721297D01*
X100167684Y-36322012D01*
X100167116Y-36972455D01*
X100415506Y-37573603D01*
X100875037Y-38033938D01*
X101475752Y-38283376D01*
X102126195Y-38283944D01*
X102727343Y-38035554D01*
X103187678Y-37576023D01*
X103437116Y-36975308D01*
X103437684Y-36324865D01*
X103189294Y-35723717D01*
X102779080Y-35312785D01*
X106986000Y-35326312D01*
X106986000Y-111520571D01*
X106857837Y-111392184D01*
X105926455Y-111005441D01*
X104917969Y-111004561D01*
X103985914Y-111389678D01*
X103272184Y-112102163D01*
X102885441Y-113033545D01*
X102884561Y-114042031D01*
X103269678Y-114974086D01*
X103409348Y-115114000D01*
X98479924Y-115114000D01*
X98491912Y-115071517D01*
X97700000Y-114279605D01*
X96908088Y-115071517D01*
X96920076Y-115114000D01*
X49021485Y-115114000D01*
X49117816Y-115017837D01*
X49504559Y-114086455D01*
X49505439Y-113077969D01*
X49120322Y-112145914D01*
X48805172Y-111830213D01*
X61849392Y-111830213D01*
X61918857Y-112072397D01*
X62442302Y-112259144D01*
X62997368Y-112231362D01*
X63381143Y-112072397D01*
X63450608Y-111830213D01*
X66849392Y-111830213D01*
X66918857Y-112072397D01*
X67442302Y-112259144D01*
X67997368Y-112231362D01*
X68381143Y-112072397D01*
X68450608Y-111830213D01*
X67650000Y-111029605D01*
X66849392Y-111830213D01*
X63450608Y-111830213D01*
X62650000Y-111029605D01*
X61849392Y-111830213D01*
X48805172Y-111830213D01*
X48407837Y-111432184D01*
X47476455Y-111045441D01*
X46467969Y-111044561D01*
X45535914Y-111429678D01*
X45414000Y-111551379D01*
X45414000Y-109675135D01*
X49062316Y-109675135D01*
X49310706Y-110276283D01*
X49770237Y-110736618D01*
X50370952Y-110986056D01*
X51021395Y-110986624D01*
X51622543Y-110738234D01*
X51718642Y-110642302D01*
X61240856Y-110642302D01*
X61268638Y-111197368D01*
X61427603Y-111581143D01*
X61669787Y-111650608D01*
X62470395Y-110850000D01*
X62829605Y-110850000D01*
X63630213Y-111650608D01*
X63872397Y-111581143D01*
X64059144Y-111057698D01*
X64038353Y-110642302D01*
X66240856Y-110642302D01*
X66268638Y-111197368D01*
X66427603Y-111581143D01*
X66669787Y-111650608D01*
X67470395Y-110850000D01*
X67829605Y-110850000D01*
X68630213Y-111650608D01*
X68872397Y-111581143D01*
X69034540Y-111126661D01*
X71252758Y-111126661D01*
X71464990Y-111640303D01*
X71857630Y-112033629D01*
X72370900Y-112246757D01*
X72926661Y-112247242D01*
X73440303Y-112035010D01*
X73833629Y-111642370D01*
X74046757Y-111129100D01*
X74047242Y-110573339D01*
X73835010Y-110059697D01*
X73442370Y-109666371D01*
X72929100Y-109453243D01*
X72373339Y-109452758D01*
X71859697Y-109664990D01*
X71466371Y-110057630D01*
X71253243Y-110570900D01*
X71252758Y-111126661D01*
X69034540Y-111126661D01*
X69059144Y-111057698D01*
X69031362Y-110502632D01*
X68872397Y-110118857D01*
X68630213Y-110049392D01*
X67829605Y-110850000D01*
X67470395Y-110850000D01*
X66669787Y-110049392D01*
X66427603Y-110118857D01*
X66240856Y-110642302D01*
X64038353Y-110642302D01*
X64031362Y-110502632D01*
X63872397Y-110118857D01*
X63630213Y-110049392D01*
X62829605Y-110850000D01*
X62470395Y-110850000D01*
X61669787Y-110049392D01*
X61427603Y-110118857D01*
X61240856Y-110642302D01*
X51718642Y-110642302D01*
X52082878Y-110278703D01*
X52252674Y-109869787D01*
X61849392Y-109869787D01*
X62650000Y-110670395D01*
X63450608Y-109869787D01*
X66849392Y-109869787D01*
X67650000Y-110670395D01*
X68450608Y-109869787D01*
X68381143Y-109627603D01*
X67857698Y-109440856D01*
X67302632Y-109468638D01*
X66918857Y-109627603D01*
X66849392Y-109869787D01*
X63450608Y-109869787D01*
X63381143Y-109627603D01*
X62857698Y-109440856D01*
X62302632Y-109468638D01*
X61918857Y-109627603D01*
X61849392Y-109869787D01*
X52252674Y-109869787D01*
X52332316Y-109677988D01*
X52332884Y-109027545D01*
X52084494Y-108426397D01*
X51624963Y-107966062D01*
X51024248Y-107716624D01*
X50373805Y-107716056D01*
X49772657Y-107964446D01*
X49312322Y-108423977D01*
X49062884Y-109024692D01*
X49062316Y-109675135D01*
X45414000Y-109675135D01*
X45414000Y-105347108D01*
X69138833Y-105347108D01*
X69285436Y-105701914D01*
X69556658Y-105973610D01*
X69911208Y-106120832D01*
X70295108Y-106121167D01*
X70649914Y-105974564D01*
X70708580Y-105916000D01*
X72547149Y-105916000D01*
X72604658Y-105973610D01*
X72959208Y-106120832D01*
X73343108Y-106121167D01*
X73697914Y-105974564D01*
X73914139Y-105758716D01*
X74128658Y-105973610D01*
X74483208Y-106120832D01*
X74867108Y-106121167D01*
X74890000Y-106111708D01*
X74890000Y-111820149D01*
X74832390Y-111877658D01*
X74685168Y-112232208D01*
X74684833Y-112616108D01*
X74831436Y-112970914D01*
X75102658Y-113242610D01*
X75457208Y-113389832D01*
X75841108Y-113390167D01*
X76195914Y-113243564D01*
X76467610Y-112972342D01*
X76591374Y-112674285D01*
X76714760Y-112674285D01*
X76925169Y-113183515D01*
X77314436Y-113573461D01*
X77823298Y-113784759D01*
X78374285Y-113785240D01*
X78883515Y-113574831D01*
X79273461Y-113185564D01*
X79391649Y-112900935D01*
X80316056Y-112900935D01*
X80564446Y-113502083D01*
X81023977Y-113962418D01*
X81624692Y-114211856D01*
X82275135Y-114212424D01*
X82876283Y-113964034D01*
X82945266Y-113895171D01*
X96302799Y-113895171D01*
X96330770Y-114445448D01*
X96487540Y-114823923D01*
X96728483Y-114891912D01*
X97520395Y-114100000D01*
X97879605Y-114100000D01*
X98671517Y-114891912D01*
X98912460Y-114823923D01*
X99097201Y-114304829D01*
X99069230Y-113754552D01*
X98912460Y-113376077D01*
X98671517Y-113308088D01*
X97879605Y-114100000D01*
X97520395Y-114100000D01*
X96728483Y-113308088D01*
X96487540Y-113376077D01*
X96302799Y-113895171D01*
X82945266Y-113895171D01*
X83336618Y-113504503D01*
X83492754Y-113128483D01*
X96908088Y-113128483D01*
X97700000Y-113920395D01*
X98491912Y-113128483D01*
X98423923Y-112887540D01*
X97904829Y-112702799D01*
X97354552Y-112730770D01*
X96976077Y-112887540D01*
X96908088Y-113128483D01*
X83492754Y-113128483D01*
X83586056Y-112903788D01*
X83586624Y-112253345D01*
X83338234Y-111652197D01*
X82878703Y-111191862D01*
X82277988Y-110942424D01*
X81627545Y-110941856D01*
X81026397Y-111190246D01*
X80566062Y-111649777D01*
X80316624Y-112250492D01*
X80316056Y-112900935D01*
X79391649Y-112900935D01*
X79484759Y-112676702D01*
X79485240Y-112125715D01*
X79274831Y-111616485D01*
X78885564Y-111226539D01*
X78376702Y-111015241D01*
X77825715Y-111014760D01*
X77316485Y-111225169D01*
X76926539Y-111614436D01*
X76715241Y-112123298D01*
X76714760Y-112674285D01*
X76591374Y-112674285D01*
X76614832Y-112617792D01*
X76615167Y-112233892D01*
X76468564Y-111879086D01*
X76410000Y-111820420D01*
X76410000Y-109901195D01*
X86916056Y-109901195D01*
X87164446Y-110502343D01*
X87623977Y-110962678D01*
X88224692Y-111212116D01*
X88875135Y-111212684D01*
X89476283Y-110964294D01*
X89936618Y-110504763D01*
X89979624Y-110401192D01*
X96828973Y-110401192D01*
X96927636Y-110668047D01*
X97537361Y-110894568D01*
X98187360Y-110870516D01*
X98676164Y-110668047D01*
X98774827Y-110401192D01*
X97801900Y-109428265D01*
X96828973Y-110401192D01*
X89979624Y-110401192D01*
X90186056Y-109904048D01*
X90186624Y-109253605D01*
X90075276Y-108984121D01*
X96155992Y-108984121D01*
X96180044Y-109634120D01*
X96382513Y-110122924D01*
X96649368Y-110221587D01*
X97622295Y-109248660D01*
X97981505Y-109248660D01*
X98954432Y-110221587D01*
X99221287Y-110122924D01*
X99425793Y-109572455D01*
X103166856Y-109572455D01*
X103415246Y-110173603D01*
X103874777Y-110633938D01*
X104475492Y-110883376D01*
X105125935Y-110883944D01*
X105727083Y-110635554D01*
X106187418Y-110176023D01*
X106436856Y-109575308D01*
X106437424Y-108924865D01*
X106189034Y-108323717D01*
X105729503Y-107863382D01*
X105128788Y-107613944D01*
X104478345Y-107613376D01*
X103877197Y-107861766D01*
X103416862Y-108321297D01*
X103167424Y-108922012D01*
X103166856Y-109572455D01*
X99425793Y-109572455D01*
X99447808Y-109513199D01*
X99423756Y-108863200D01*
X99221287Y-108374396D01*
X98954432Y-108275733D01*
X97981505Y-109248660D01*
X97622295Y-109248660D01*
X96649368Y-108275733D01*
X96382513Y-108374396D01*
X96155992Y-108984121D01*
X90075276Y-108984121D01*
X89938234Y-108652457D01*
X89478703Y-108192122D01*
X88877988Y-107942684D01*
X88227545Y-107942116D01*
X87626397Y-108190506D01*
X87166062Y-108650037D01*
X86916624Y-109250752D01*
X86916056Y-109901195D01*
X76410000Y-109901195D01*
X76410000Y-106729432D01*
X80978413Y-106729432D01*
X81077076Y-106996287D01*
X81686801Y-107222808D01*
X82336800Y-107198756D01*
X82825604Y-106996287D01*
X82924267Y-106729432D01*
X81951340Y-105756505D01*
X80978413Y-106729432D01*
X76410000Y-106729432D01*
X76410000Y-105854721D01*
X76542610Y-105722342D01*
X76689832Y-105367792D01*
X76689880Y-105312361D01*
X80305432Y-105312361D01*
X80329484Y-105962360D01*
X80531953Y-106451164D01*
X80798808Y-106549827D01*
X81771735Y-105576900D01*
X82130945Y-105576900D01*
X83103872Y-106549827D01*
X83370727Y-106451164D01*
X83597248Y-105841439D01*
X83573196Y-105191440D01*
X83370727Y-104702636D01*
X83103872Y-104603973D01*
X82130945Y-105576900D01*
X81771735Y-105576900D01*
X80798808Y-104603973D01*
X80531953Y-104702636D01*
X80305432Y-105312361D01*
X76689880Y-105312361D01*
X76690167Y-104983892D01*
X76543564Y-104629086D01*
X76339204Y-104424368D01*
X80978413Y-104424368D01*
X81951340Y-105397295D01*
X82924267Y-104424368D01*
X82825604Y-104157513D01*
X82215879Y-103930992D01*
X81565880Y-103955044D01*
X81077076Y-104157513D01*
X80978413Y-104424368D01*
X76339204Y-104424368D01*
X76272342Y-104357390D01*
X75917792Y-104210168D01*
X75533892Y-104209833D01*
X75223052Y-104338270D01*
X74868792Y-104191168D01*
X74785898Y-104191096D01*
X74166000Y-103571198D01*
X74166000Y-102362000D01*
X74108148Y-102071161D01*
X74108148Y-102071160D01*
X73943401Y-101824599D01*
X73101096Y-100982294D01*
X73101167Y-100900892D01*
X72954564Y-100546086D01*
X72683342Y-100274390D01*
X72328792Y-100127168D01*
X71944892Y-100126833D01*
X71590086Y-100273436D01*
X71318390Y-100544658D01*
X71171168Y-100899208D01*
X71170833Y-101283108D01*
X71317436Y-101637914D01*
X71588658Y-101909610D01*
X71943208Y-102056832D01*
X72026102Y-102056904D01*
X72646000Y-102676802D01*
X72646000Y-103886000D01*
X72703852Y-104176839D01*
X72766791Y-104271034D01*
X72606086Y-104337436D01*
X72547420Y-104396000D01*
X70708851Y-104396000D01*
X70651342Y-104338390D01*
X70296792Y-104191168D01*
X69912892Y-104190833D01*
X69558086Y-104337436D01*
X69286390Y-104608658D01*
X69139168Y-104963208D01*
X69138833Y-105347108D01*
X45414000Y-105347108D01*
X45414000Y-103075135D01*
X46062576Y-103075135D01*
X46310966Y-103676283D01*
X46770497Y-104136618D01*
X47371212Y-104386056D01*
X48021655Y-104386624D01*
X48622803Y-104138234D01*
X48857575Y-103903872D01*
X53725173Y-103903872D01*
X53823836Y-104170727D01*
X54433561Y-104397248D01*
X55083560Y-104373196D01*
X55572364Y-104170727D01*
X55671027Y-103903872D01*
X54698100Y-102930945D01*
X53725173Y-103903872D01*
X48857575Y-103903872D01*
X49083138Y-103678703D01*
X49332576Y-103077988D01*
X49333092Y-102486801D01*
X53052192Y-102486801D01*
X53076244Y-103136800D01*
X53278713Y-103625604D01*
X53545568Y-103724267D01*
X54518495Y-102751340D01*
X54877705Y-102751340D01*
X55850632Y-103724267D01*
X56117487Y-103625604D01*
X56344008Y-103015879D01*
X56319956Y-102365880D01*
X56202229Y-102081661D01*
X59942758Y-102081661D01*
X60154990Y-102595303D01*
X60547630Y-102988629D01*
X61060900Y-103201757D01*
X61616661Y-103202242D01*
X62130303Y-102990010D01*
X62523629Y-102597370D01*
X62736757Y-102084100D01*
X62736759Y-102081661D01*
X65532758Y-102081661D01*
X65744990Y-102595303D01*
X66137630Y-102988629D01*
X66650900Y-103201757D01*
X67206661Y-103202242D01*
X67720303Y-102990010D01*
X68113629Y-102597370D01*
X68326757Y-102084100D01*
X68327242Y-101528339D01*
X68115010Y-101014697D01*
X67722370Y-100621371D01*
X67209100Y-100408243D01*
X66653339Y-100407758D01*
X66139697Y-100619990D01*
X65746371Y-101012630D01*
X65533243Y-101525900D01*
X65532758Y-102081661D01*
X62736759Y-102081661D01*
X62737242Y-101528339D01*
X62525010Y-101014697D01*
X62132370Y-100621371D01*
X61619100Y-100408243D01*
X61063339Y-100407758D01*
X60549697Y-100619990D01*
X60156371Y-101012630D01*
X59943243Y-101525900D01*
X59942758Y-102081661D01*
X56202229Y-102081661D01*
X56117487Y-101877076D01*
X55850632Y-101778413D01*
X54877705Y-102751340D01*
X54518495Y-102751340D01*
X53545568Y-101778413D01*
X53278713Y-101877076D01*
X53052192Y-102486801D01*
X49333092Y-102486801D01*
X49333144Y-102427545D01*
X49084754Y-101826397D01*
X48857563Y-101598808D01*
X53725173Y-101598808D01*
X54698100Y-102571735D01*
X55671027Y-101598808D01*
X55572364Y-101331953D01*
X54962639Y-101105432D01*
X54312640Y-101129484D01*
X53823836Y-101331953D01*
X53725173Y-101598808D01*
X48857563Y-101598808D01*
X48625223Y-101366062D01*
X48024508Y-101116624D01*
X47374065Y-101116056D01*
X46772917Y-101364446D01*
X46312582Y-101823977D01*
X46063144Y-102424692D01*
X46062576Y-103075135D01*
X45414000Y-103075135D01*
X45414000Y-98675135D01*
X49062316Y-98675135D01*
X49310706Y-99276283D01*
X49770237Y-99736618D01*
X50370952Y-99986056D01*
X51021395Y-99986624D01*
X51622543Y-99738234D01*
X52082878Y-99278703D01*
X52332316Y-98677988D01*
X52332884Y-98027545D01*
X52104281Y-97474285D01*
X57814760Y-97474285D01*
X58025169Y-97983515D01*
X58414436Y-98373461D01*
X58923298Y-98584759D01*
X59474285Y-98585240D01*
X59983515Y-98374831D01*
X60373461Y-97985564D01*
X60584759Y-97476702D01*
X60585240Y-96925715D01*
X60374831Y-96416485D01*
X59985564Y-96026539D01*
X59476702Y-95815241D01*
X58925715Y-95814760D01*
X58416485Y-96025169D01*
X58026539Y-96414436D01*
X57815241Y-96923298D01*
X57814760Y-97474285D01*
X52104281Y-97474285D01*
X52084494Y-97426397D01*
X51624963Y-96966062D01*
X51024248Y-96716624D01*
X50373805Y-96716056D01*
X49772657Y-96964446D01*
X49312322Y-97423977D01*
X49062884Y-98024692D01*
X49062316Y-98675135D01*
X45414000Y-98675135D01*
X45414000Y-93534285D01*
X58014760Y-93534285D01*
X58225169Y-94043515D01*
X58614436Y-94433461D01*
X59123298Y-94644759D01*
X59674285Y-94645240D01*
X60183515Y-94434831D01*
X60573461Y-94045564D01*
X60784759Y-93536702D01*
X60785240Y-92985715D01*
X60574831Y-92476485D01*
X60185564Y-92086539D01*
X59676702Y-91875241D01*
X59125715Y-91874760D01*
X58616485Y-92085169D01*
X58226539Y-92474436D01*
X58015241Y-92983298D01*
X58014760Y-93534285D01*
X45414000Y-93534285D01*
X45414000Y-92075135D01*
X46062576Y-92075135D01*
X46310966Y-92676283D01*
X46770497Y-93136618D01*
X47371212Y-93386056D01*
X48021655Y-93386624D01*
X48622803Y-93138234D01*
X48857575Y-92903872D01*
X53725173Y-92903872D01*
X53823836Y-93170727D01*
X54433561Y-93397248D01*
X55083560Y-93373196D01*
X55572364Y-93170727D01*
X55671027Y-92903872D01*
X54698100Y-91930945D01*
X53725173Y-92903872D01*
X48857575Y-92903872D01*
X49083138Y-92678703D01*
X49332576Y-92077988D01*
X49333092Y-91486801D01*
X53052192Y-91486801D01*
X53076244Y-92136800D01*
X53278713Y-92625604D01*
X53545568Y-92724267D01*
X54518495Y-91751340D01*
X54877705Y-91751340D01*
X55850632Y-92724267D01*
X56117487Y-92625604D01*
X56344008Y-92015879D01*
X56319956Y-91365880D01*
X56117487Y-90877076D01*
X55850632Y-90778413D01*
X54877705Y-91751340D01*
X54518495Y-91751340D01*
X53545568Y-90778413D01*
X53278713Y-90877076D01*
X53052192Y-91486801D01*
X49333092Y-91486801D01*
X49333144Y-91427545D01*
X49084754Y-90826397D01*
X48857563Y-90598808D01*
X53725173Y-90598808D01*
X54698100Y-91571735D01*
X55671027Y-90598808D01*
X55572364Y-90331953D01*
X54962639Y-90105432D01*
X54312640Y-90129484D01*
X53823836Y-90331953D01*
X53725173Y-90598808D01*
X48857563Y-90598808D01*
X48625223Y-90366062D01*
X48024508Y-90116624D01*
X47374065Y-90116056D01*
X46772917Y-90364446D01*
X46312582Y-90823977D01*
X46063144Y-91424692D01*
X46062576Y-92075135D01*
X45414000Y-92075135D01*
X45414000Y-85741108D01*
X48554833Y-85741108D01*
X48701436Y-86095914D01*
X48972658Y-86367610D01*
X49282333Y-86496198D01*
X49062884Y-87024692D01*
X49062316Y-87675135D01*
X49310706Y-88276283D01*
X49770237Y-88736618D01*
X50370952Y-88986056D01*
X51021395Y-88986624D01*
X51622543Y-88738234D01*
X52082878Y-88278703D01*
X52332316Y-87677988D01*
X52332884Y-87027545D01*
X52207728Y-86724646D01*
X56701875Y-87403556D01*
X56856658Y-87558610D01*
X57211208Y-87705832D01*
X57595108Y-87706167D01*
X57949914Y-87559564D01*
X58221610Y-87288342D01*
X58368832Y-86933792D01*
X58369167Y-86549892D01*
X58222564Y-86195086D01*
X57951342Y-85923390D01*
X57596792Y-85776168D01*
X57212892Y-85775833D01*
X56915733Y-85898617D01*
X53124332Y-85325867D01*
X53250914Y-85273564D01*
X53309580Y-85215000D01*
X56799149Y-85215000D01*
X56856658Y-85272610D01*
X57211208Y-85419832D01*
X57595108Y-85420167D01*
X57949914Y-85273564D01*
X58221610Y-85002342D01*
X58368832Y-84647792D01*
X58369167Y-84263892D01*
X58222564Y-83909086D01*
X57951342Y-83637390D01*
X57596792Y-83490168D01*
X57212892Y-83489833D01*
X56858086Y-83636436D01*
X56799420Y-83695000D01*
X53309851Y-83695000D01*
X53252342Y-83637390D01*
X52897792Y-83490168D01*
X52513892Y-83489833D01*
X52159086Y-83636436D01*
X51887390Y-83907658D01*
X51740168Y-84262208D01*
X51739833Y-84646108D01*
X51886436Y-85000914D01*
X52048599Y-85163361D01*
X50222125Y-84887444D01*
X50067342Y-84732390D01*
X49712792Y-84585168D01*
X49328892Y-84584833D01*
X48974086Y-84731436D01*
X48702390Y-85002658D01*
X48555168Y-85357208D01*
X48554833Y-85741108D01*
X45414000Y-85741108D01*
X45414000Y-81075135D01*
X46062576Y-81075135D01*
X46310966Y-81676283D01*
X46770497Y-82136618D01*
X47371212Y-82386056D01*
X48021655Y-82386624D01*
X48622803Y-82138234D01*
X48857575Y-81903872D01*
X53725173Y-81903872D01*
X53823836Y-82170727D01*
X54433561Y-82397248D01*
X55083560Y-82373196D01*
X55572364Y-82170727D01*
X55671027Y-81903872D01*
X54698100Y-80930945D01*
X53725173Y-81903872D01*
X48857575Y-81903872D01*
X49083138Y-81678703D01*
X49332576Y-81077988D01*
X49333092Y-80486801D01*
X53052192Y-80486801D01*
X53076244Y-81136800D01*
X53278713Y-81625604D01*
X53545568Y-81724267D01*
X54518495Y-80751340D01*
X54877705Y-80751340D01*
X55850632Y-81724267D01*
X56117487Y-81625604D01*
X56344008Y-81015879D01*
X56319956Y-80365880D01*
X56117487Y-79877076D01*
X55850632Y-79778413D01*
X54877705Y-80751340D01*
X54518495Y-80751340D01*
X53545568Y-79778413D01*
X53278713Y-79877076D01*
X53052192Y-80486801D01*
X49333092Y-80486801D01*
X49333144Y-80427545D01*
X49084754Y-79826397D01*
X48857563Y-79598808D01*
X53725173Y-79598808D01*
X54698100Y-80571735D01*
X55671027Y-79598808D01*
X55572364Y-79331953D01*
X54962639Y-79105432D01*
X54312640Y-79129484D01*
X53823836Y-79331953D01*
X53725173Y-79598808D01*
X48857563Y-79598808D01*
X48625223Y-79366062D01*
X48024508Y-79116624D01*
X47374065Y-79116056D01*
X46772917Y-79364446D01*
X46312582Y-79823977D01*
X46063144Y-80424692D01*
X46062576Y-81075135D01*
X45414000Y-81075135D01*
X45414000Y-59075135D01*
X46062576Y-59075135D01*
X46310966Y-59676283D01*
X46770497Y-60136618D01*
X47371212Y-60386056D01*
X48021655Y-60386624D01*
X48340000Y-60255086D01*
X48340000Y-68247627D01*
X48024508Y-68116624D01*
X47374065Y-68116056D01*
X46772917Y-68364446D01*
X46312582Y-68823977D01*
X46063144Y-69424692D01*
X46062576Y-70075135D01*
X46310966Y-70676283D01*
X46770497Y-71136618D01*
X47371212Y-71386056D01*
X48021655Y-71386624D01*
X48340000Y-71255086D01*
X48340000Y-72200000D01*
X48397852Y-72490839D01*
X48562599Y-72737401D01*
X50541400Y-74716202D01*
X50373805Y-74716056D01*
X49772657Y-74964446D01*
X49312322Y-75423977D01*
X49062884Y-76024692D01*
X49062316Y-76675135D01*
X49310706Y-77276283D01*
X49459284Y-77425121D01*
X49128892Y-77424833D01*
X48774086Y-77571436D01*
X48502390Y-77842658D01*
X48355168Y-78197208D01*
X48354833Y-78581108D01*
X48501436Y-78935914D01*
X48772658Y-79207610D01*
X49127208Y-79354832D01*
X49511108Y-79355167D01*
X49865914Y-79208564D01*
X50137610Y-78937342D01*
X50169654Y-78860171D01*
X55532642Y-76633869D01*
X55607208Y-76664832D01*
X55991108Y-76665167D01*
X56345914Y-76518564D01*
X56500118Y-76364629D01*
X56752658Y-76617610D01*
X57107208Y-76764832D01*
X57491108Y-76765167D01*
X57845914Y-76618564D01*
X58117610Y-76347342D01*
X58264832Y-75992792D01*
X58265167Y-75608892D01*
X58118564Y-75254086D01*
X57847342Y-74982390D01*
X57492792Y-74835168D01*
X57409898Y-74835096D01*
X56937401Y-74362599D01*
X56690839Y-74197852D01*
X56400000Y-74140000D01*
X52114802Y-74140000D01*
X51165910Y-73191108D01*
X52534833Y-73191108D01*
X52681436Y-73545914D01*
X52952658Y-73817610D01*
X53307208Y-73964832D01*
X53691108Y-73965167D01*
X54045914Y-73818564D01*
X54104580Y-73760000D01*
X55195149Y-73760000D01*
X55252658Y-73817610D01*
X55607208Y-73964832D01*
X55991108Y-73965167D01*
X56345914Y-73818564D01*
X56617610Y-73547342D01*
X56764832Y-73192792D01*
X56765167Y-72808892D01*
X56618564Y-72454086D01*
X56347342Y-72182390D01*
X55992792Y-72035168D01*
X55608892Y-72034833D01*
X55254086Y-72181436D01*
X55195420Y-72240000D01*
X54104851Y-72240000D01*
X54047342Y-72182390D01*
X53692792Y-72035168D01*
X53308892Y-72034833D01*
X52954086Y-72181436D01*
X52682390Y-72452658D01*
X52535168Y-72807208D01*
X52534833Y-73191108D01*
X51165910Y-73191108D01*
X49860000Y-71885198D01*
X49860000Y-70903872D01*
X53725173Y-70903872D01*
X53823836Y-71170727D01*
X54433561Y-71397248D01*
X55083560Y-71373196D01*
X55572364Y-71170727D01*
X55671027Y-70903872D01*
X54698100Y-69930945D01*
X53725173Y-70903872D01*
X49860000Y-70903872D01*
X49860000Y-66773891D01*
X50370952Y-66986056D01*
X51021395Y-66986624D01*
X51434986Y-66815731D01*
X51434833Y-66991108D01*
X51581436Y-67345914D01*
X51852658Y-67617610D01*
X52207208Y-67764832D01*
X52591108Y-67765167D01*
X52735161Y-67705646D01*
X52734833Y-68081108D01*
X52881436Y-68435914D01*
X53152658Y-68707610D01*
X53427922Y-68821910D01*
X53278713Y-68877076D01*
X53052192Y-69486801D01*
X53076244Y-70136800D01*
X53278713Y-70625604D01*
X53545568Y-70724267D01*
X54518495Y-69751340D01*
X54504353Y-69737198D01*
X54683958Y-69557593D01*
X54698100Y-69571735D01*
X54712243Y-69557593D01*
X54891848Y-69737198D01*
X54877705Y-69751340D01*
X55850632Y-70724267D01*
X56117487Y-70625604D01*
X56344008Y-70015879D01*
X56319956Y-69365880D01*
X56117487Y-68877076D01*
X55850634Y-68778414D01*
X55964914Y-68664134D01*
X55937113Y-68636333D01*
X55955914Y-68628564D01*
X56227610Y-68357342D01*
X56374832Y-68002792D01*
X56375167Y-67618892D01*
X56240343Y-67292594D01*
X56364832Y-66992792D01*
X56365167Y-66608892D01*
X56218564Y-66254086D01*
X55947342Y-65982390D01*
X55592792Y-65835168D01*
X55208892Y-65834833D01*
X54854086Y-65981436D01*
X54795420Y-66040000D01*
X53004851Y-66040000D01*
X52947342Y-65982390D01*
X52592792Y-65835168D01*
X52267167Y-65834884D01*
X52332316Y-65677988D01*
X52332884Y-65027545D01*
X52084494Y-64426397D01*
X51624963Y-63966062D01*
X51024248Y-63716624D01*
X50373805Y-63716056D01*
X49860000Y-63928357D01*
X49860000Y-59903872D01*
X53725173Y-59903872D01*
X53823836Y-60170727D01*
X54433561Y-60397248D01*
X55083560Y-60373196D01*
X55572364Y-60170727D01*
X55671027Y-59903872D01*
X54698100Y-58930945D01*
X53725173Y-59903872D01*
X49860000Y-59903872D01*
X49860000Y-58486801D01*
X53052192Y-58486801D01*
X53076244Y-59136800D01*
X53278713Y-59625604D01*
X53545568Y-59724267D01*
X54518495Y-58751340D01*
X54877705Y-58751340D01*
X55850632Y-59724267D01*
X56117487Y-59625604D01*
X56344008Y-59015879D01*
X56319956Y-58365880D01*
X56117487Y-57877076D01*
X55850632Y-57778413D01*
X54877705Y-58751340D01*
X54518495Y-58751340D01*
X53545568Y-57778413D01*
X53278713Y-57877076D01*
X53052192Y-58486801D01*
X49860000Y-58486801D01*
X49860000Y-57598808D01*
X53725173Y-57598808D01*
X54698100Y-58571735D01*
X55671027Y-57598808D01*
X55572364Y-57331953D01*
X54962639Y-57105432D01*
X54312640Y-57129484D01*
X53823836Y-57331953D01*
X53725173Y-57598808D01*
X49860000Y-57598808D01*
X49860000Y-55773891D01*
X50370952Y-55986056D01*
X51021395Y-55986624D01*
X51622543Y-55738234D01*
X52082878Y-55278703D01*
X52332316Y-54677988D01*
X52332884Y-54027545D01*
X52084494Y-53426397D01*
X51624963Y-52966062D01*
X51024248Y-52716624D01*
X50373805Y-52716056D01*
X49860000Y-52928357D01*
X49860000Y-52514802D01*
X49983694Y-52391108D01*
X56734833Y-52391108D01*
X56881436Y-52745914D01*
X57152658Y-53017610D01*
X57507208Y-53164832D01*
X57891108Y-53165167D01*
X58245914Y-53018564D01*
X58304580Y-52960000D01*
X58885198Y-52960000D01*
X61240000Y-55314802D01*
X61240000Y-61295149D01*
X61182390Y-61352658D01*
X61035168Y-61707208D01*
X61034833Y-62091108D01*
X61181436Y-62445914D01*
X61452658Y-62717610D01*
X61807208Y-62864832D01*
X62140000Y-62865122D01*
X62140000Y-98195149D01*
X62082390Y-98252658D01*
X61935168Y-98607208D01*
X61934833Y-98991108D01*
X62081436Y-99345914D01*
X62352658Y-99617610D01*
X62707208Y-99764832D01*
X63091108Y-99765167D01*
X63445914Y-99618564D01*
X63717610Y-99347342D01*
X63864832Y-98992792D01*
X63865167Y-98608892D01*
X63718564Y-98254086D01*
X63660000Y-98195420D01*
X63660000Y-94204913D01*
X63743427Y-94204986D01*
X64020000Y-94260000D01*
X64995149Y-94260000D01*
X65052658Y-94317610D01*
X65407208Y-94464832D01*
X65791108Y-94465167D01*
X66145914Y-94318564D01*
X66417610Y-94047342D01*
X66564832Y-93692792D01*
X66564916Y-93596222D01*
X66702148Y-93390840D01*
X66738286Y-93209161D01*
X66760000Y-93100000D01*
X66760000Y-78604851D01*
X66817610Y-78547342D01*
X66964832Y-78192792D01*
X66965167Y-77808892D01*
X66818564Y-77454086D01*
X66547342Y-77182390D01*
X66215961Y-77044789D01*
X66470551Y-76790643D01*
X66704733Y-76226670D01*
X66705265Y-75616009D01*
X66472068Y-75051629D01*
X66070818Y-74649677D01*
X66470551Y-74250643D01*
X66704733Y-73686670D01*
X66705265Y-73076009D01*
X66472068Y-72511629D01*
X66070818Y-72109677D01*
X66470551Y-71710643D01*
X66704733Y-71146670D01*
X66705265Y-70536009D01*
X66472068Y-69971629D01*
X66070818Y-69569677D01*
X66470551Y-69170643D01*
X66704733Y-68606670D01*
X66705265Y-67996009D01*
X66472068Y-67431629D01*
X66070818Y-67029677D01*
X66470551Y-66630643D01*
X66704733Y-66066670D01*
X66705265Y-65456009D01*
X66472068Y-64891629D01*
X66070818Y-64489677D01*
X66221327Y-64339431D01*
X66331436Y-64605914D01*
X66602658Y-64877610D01*
X66957208Y-65024832D01*
X67040102Y-65024904D01*
X67052599Y-65037401D01*
X67140000Y-65095800D01*
X67140000Y-89495323D01*
X66982390Y-89652658D01*
X66835168Y-90007208D01*
X66834833Y-90391108D01*
X66981436Y-90745914D01*
X67252658Y-91017610D01*
X67607208Y-91164832D01*
X67991108Y-91165167D01*
X68345914Y-91018564D01*
X68617610Y-90747342D01*
X68764832Y-90392792D01*
X68765167Y-90008892D01*
X68660000Y-89754369D01*
X68660000Y-70034802D01*
X69140000Y-70514802D01*
X69140000Y-70585198D01*
X69062599Y-70662599D01*
X68897852Y-70909161D01*
X68840000Y-71200000D01*
X68840000Y-72100000D01*
X68897852Y-72390839D01*
X69062599Y-72637401D01*
X69640000Y-73214802D01*
X69640000Y-74496421D01*
X69497852Y-74709161D01*
X69440000Y-75000000D01*
X69440000Y-75300000D01*
X69497852Y-75590839D01*
X69662599Y-75837401D01*
X70240000Y-76414802D01*
X70240000Y-79695149D01*
X70182390Y-79752658D01*
X70035168Y-80107208D01*
X70034833Y-80491108D01*
X70181436Y-80845914D01*
X70280274Y-80944924D01*
X69762599Y-81462599D01*
X69597852Y-81709161D01*
X69540000Y-82000000D01*
X69540000Y-82795149D01*
X69482390Y-82852658D01*
X69335168Y-83207208D01*
X69334833Y-83591108D01*
X69481436Y-83945914D01*
X69752658Y-84217610D01*
X70107208Y-84364832D01*
X70491108Y-84365167D01*
X70845914Y-84218564D01*
X71117610Y-83947342D01*
X71264832Y-83592792D01*
X71265165Y-83210213D01*
X71669392Y-83210213D01*
X71738857Y-83452397D01*
X72262302Y-83639144D01*
X72817368Y-83611362D01*
X73201143Y-83452397D01*
X73270608Y-83210213D01*
X72470000Y-82409605D01*
X71669392Y-83210213D01*
X71265165Y-83210213D01*
X71265167Y-83208892D01*
X71118564Y-82854086D01*
X71060000Y-82795420D01*
X71060000Y-82314802D01*
X71074757Y-82300045D01*
X71088638Y-82577368D01*
X71247603Y-82961143D01*
X71489787Y-83030608D01*
X72290395Y-82230000D01*
X72276253Y-82215858D01*
X72455858Y-82036253D01*
X72470000Y-82050395D01*
X72484143Y-82036253D01*
X72663748Y-82215858D01*
X72649605Y-82230000D01*
X73450213Y-83030608D01*
X73692397Y-82961143D01*
X73795986Y-82670788D01*
X75948000Y-84822802D01*
X75948000Y-89311149D01*
X75890390Y-89368658D01*
X75743168Y-89723208D01*
X75742833Y-90107108D01*
X75889436Y-90461914D01*
X76160658Y-90733610D01*
X76515208Y-90880832D01*
X76899108Y-90881167D01*
X77253914Y-90734564D01*
X77525610Y-90463342D01*
X77672832Y-90108792D01*
X77673167Y-89724892D01*
X77526564Y-89370086D01*
X77468000Y-89311420D01*
X77468000Y-84508000D01*
X77439737Y-84365914D01*
X77410148Y-84217160D01*
X77245401Y-83970599D01*
X75781463Y-82506661D01*
X76622758Y-82506661D01*
X76834990Y-83020303D01*
X77227630Y-83413629D01*
X77740900Y-83626757D01*
X78296661Y-83627242D01*
X78569605Y-83514464D01*
X78557390Y-83526658D01*
X78410168Y-83881208D01*
X78409833Y-84265108D01*
X78556436Y-84619914D01*
X78827658Y-84891610D01*
X79182208Y-85038832D01*
X79566108Y-85039167D01*
X79920914Y-84892564D01*
X80192610Y-84621342D01*
X80339832Y-84266792D01*
X80340167Y-83882892D01*
X80193564Y-83528086D01*
X80135000Y-83469420D01*
X80135000Y-78740000D01*
X80077148Y-78449161D01*
X79912401Y-78202599D01*
X79705096Y-77995294D01*
X79705167Y-77913892D01*
X79558564Y-77559086D01*
X79287342Y-77287390D01*
X78932792Y-77140168D01*
X78548892Y-77139833D01*
X78194086Y-77286436D01*
X77922390Y-77557658D01*
X77775168Y-77912208D01*
X77775066Y-78028934D01*
X77659892Y-78028833D01*
X77305086Y-78175436D01*
X77033390Y-78446658D01*
X76886168Y-78801208D01*
X76885833Y-79185108D01*
X77032436Y-79539914D01*
X77091000Y-79598580D01*
X77091000Y-80391768D01*
X77013168Y-80579208D01*
X77012833Y-80963108D01*
X77100115Y-81174346D01*
X76836371Y-81437630D01*
X76623243Y-81950900D01*
X76622758Y-82506661D01*
X75781463Y-82506661D01*
X73060000Y-79785198D01*
X73060000Y-60200000D01*
X73002148Y-59909161D01*
X72965041Y-59853626D01*
X72965167Y-59708892D01*
X72818564Y-59354086D01*
X72547342Y-59082390D01*
X72192792Y-58935168D01*
X71808892Y-58934833D01*
X71460000Y-59078992D01*
X71460000Y-54900000D01*
X71402148Y-54609161D01*
X71295799Y-54449998D01*
X71237401Y-54362598D01*
X70760000Y-53885198D01*
X70760000Y-48500000D01*
X70702148Y-48209161D01*
X70537401Y-47962599D01*
X69965096Y-47390294D01*
X69965167Y-47308892D01*
X69818564Y-46954086D01*
X69547342Y-46682390D01*
X69192792Y-46535168D01*
X69010002Y-46535008D01*
X69010002Y-42374800D01*
X69107401Y-42277401D01*
X69272148Y-42030839D01*
X69330000Y-41740000D01*
X69330000Y-40210000D01*
X69272148Y-39919161D01*
X69107401Y-39672599D01*
X68565096Y-39130294D01*
X68565167Y-39048892D01*
X68418564Y-38694086D01*
X68147342Y-38422390D01*
X67792792Y-38275168D01*
X67408892Y-38274833D01*
X67054086Y-38421436D01*
X66782390Y-38692658D01*
X66635168Y-39047208D01*
X66634833Y-39431108D01*
X66781436Y-39785914D01*
X67052658Y-40057610D01*
X67407208Y-40204832D01*
X67490102Y-40204904D01*
X67520128Y-40234930D01*
X67408892Y-40234833D01*
X67054086Y-40381436D01*
X66782390Y-40652658D01*
X66635168Y-41007208D01*
X66635158Y-41018608D01*
X66602792Y-41005168D01*
X66218892Y-41004833D01*
X65864086Y-41151436D01*
X65592390Y-41422658D01*
X65445168Y-41777208D01*
X65445144Y-41804278D01*
X65302792Y-41745168D01*
X64918892Y-41744833D01*
X64564086Y-41891436D01*
X64292390Y-42162658D01*
X64145168Y-42517208D01*
X64144833Y-42901108D01*
X64291436Y-43255914D01*
X64562658Y-43527610D01*
X64917208Y-43674832D01*
X65000102Y-43674904D01*
X65530339Y-44205141D01*
X65282390Y-44452658D01*
X65135168Y-44807208D01*
X65135128Y-44852748D01*
X65092792Y-44835168D01*
X64708892Y-44834833D01*
X64354086Y-44981436D01*
X64082390Y-45252658D01*
X63935168Y-45607208D01*
X63934833Y-45991108D01*
X64081436Y-46345914D01*
X64352658Y-46617610D01*
X64707208Y-46764832D01*
X64790102Y-46764904D01*
X65040000Y-47014802D01*
X65040000Y-48900000D01*
X65097852Y-49190839D01*
X65262599Y-49437401D01*
X66240000Y-50414802D01*
X66240000Y-52085198D01*
X66162599Y-52162599D01*
X65997852Y-52409161D01*
X65940000Y-52700000D01*
X65940000Y-55150002D01*
X65997852Y-55440841D01*
X66162599Y-55687403D01*
X66940000Y-56464804D01*
X66940000Y-59885198D01*
X66862599Y-59962599D01*
X66697852Y-60209161D01*
X66677858Y-60309678D01*
X66472068Y-59811629D01*
X66070818Y-59409677D01*
X66470551Y-59010643D01*
X66704733Y-58446670D01*
X66705265Y-57836009D01*
X66472068Y-57271629D01*
X66040643Y-56839449D01*
X65476670Y-56605267D01*
X64866009Y-56604735D01*
X64301629Y-56837932D01*
X63869449Y-57269357D01*
X63660000Y-57773766D01*
X63660000Y-57245256D01*
X63764832Y-56992792D01*
X63765167Y-56608892D01*
X63618564Y-56254086D01*
X63347342Y-55982390D01*
X62992792Y-55835168D01*
X62760000Y-55834965D01*
X62760000Y-55000000D01*
X62702148Y-54709161D01*
X62537401Y-54462599D01*
X59737401Y-51662599D01*
X59490839Y-51497852D01*
X59200000Y-51440000D01*
X58304851Y-51440000D01*
X58247342Y-51382390D01*
X57892792Y-51235168D01*
X57508892Y-51234833D01*
X57154086Y-51381436D01*
X56882390Y-51652658D01*
X56735168Y-52007208D01*
X56734833Y-52391108D01*
X49983694Y-52391108D01*
X52437401Y-49937401D01*
X52501046Y-49842149D01*
X52573031Y-49753028D01*
X52582854Y-49719715D01*
X52602148Y-49690839D01*
X52624497Y-49578484D01*
X52656898Y-49468598D01*
X52708078Y-48903872D01*
X53725173Y-48903872D01*
X53823836Y-49170727D01*
X54433561Y-49397248D01*
X55083560Y-49373196D01*
X55572364Y-49170727D01*
X55671027Y-48903872D01*
X54698100Y-47930945D01*
X53725173Y-48903872D01*
X52708078Y-48903872D01*
X52836507Y-47486801D01*
X53052192Y-47486801D01*
X53076244Y-48136800D01*
X53278713Y-48625604D01*
X53545568Y-48724267D01*
X54518495Y-47751340D01*
X54877705Y-47751340D01*
X55850632Y-48724267D01*
X56117487Y-48625604D01*
X56344008Y-48015879D01*
X56319956Y-47365880D01*
X56117487Y-46877076D01*
X55850632Y-46778413D01*
X54877705Y-47751340D01*
X54518495Y-47751340D01*
X53545568Y-46778413D01*
X53278713Y-46877076D01*
X53052192Y-47486801D01*
X52836507Y-47486801D01*
X52916985Y-46598808D01*
X53725173Y-46598808D01*
X54698100Y-47571735D01*
X55671027Y-46598808D01*
X55572364Y-46331953D01*
X54962639Y-46105432D01*
X54312640Y-46129484D01*
X53823836Y-46331953D01*
X53725173Y-46598808D01*
X52916985Y-46598808D01*
X53226546Y-43183155D01*
X54114959Y-42055312D01*
X54445914Y-41918564D01*
X54717610Y-41647342D01*
X54864832Y-41292792D01*
X54865167Y-40908892D01*
X54718564Y-40554086D01*
X54447342Y-40282390D01*
X54092792Y-40135168D01*
X53708892Y-40134833D01*
X53354086Y-40281436D01*
X53082390Y-40552658D01*
X52935168Y-40907208D01*
X52935003Y-41096864D01*
X51974506Y-42316217D01*
X51624963Y-41966062D01*
X51024248Y-41716624D01*
X50373805Y-41716056D01*
X49772657Y-41964446D01*
X49312322Y-42423977D01*
X49062884Y-43024692D01*
X49062316Y-43675135D01*
X49310706Y-44276283D01*
X49770237Y-44736618D01*
X50370952Y-44986056D01*
X51021395Y-44986624D01*
X51556923Y-44765348D01*
X51167948Y-49057250D01*
X48562599Y-51662599D01*
X48397852Y-51909161D01*
X48340000Y-52200000D01*
X48340000Y-57247627D01*
X48024508Y-57116624D01*
X47374065Y-57116056D01*
X46772917Y-57364446D01*
X46312582Y-57823977D01*
X46063144Y-58424692D01*
X46062576Y-59075135D01*
X45414000Y-59075135D01*
X45414000Y-48075135D01*
X46062576Y-48075135D01*
X46310966Y-48676283D01*
X46770497Y-49136618D01*
X47371212Y-49386056D01*
X48021655Y-49386624D01*
X48622803Y-49138234D01*
X49083138Y-48678703D01*
X49332576Y-48077988D01*
X49333144Y-47427545D01*
X49084754Y-46826397D01*
X48625223Y-46366062D01*
X48024508Y-46116624D01*
X47374065Y-46116056D01*
X46772917Y-46364446D01*
X46312582Y-46823977D01*
X46063144Y-47424692D01*
X46062576Y-48075135D01*
X45414000Y-48075135D01*
X45414000Y-35128332D01*
X47329449Y-35134491D01*
M02*
