G04 #@! TF.FileFunction,Soldermask,Bot*
%FSLAX46Y46*%
G04 Gerber Fmt 4.6, Leading zero omitted, Abs format (unit mm)*
G04 Created by KiCad (PCBNEW 4.0.7) date Thursday, May 31, 2018 'PMt' 11:14:33 PM*
%MOMM*%
%LPD*%
G01*
G04 APERTURE LIST*
%ADD10C,0.100000*%
%ADD11C,1.924000*%
%ADD12C,1.900000*%
%ADD13C,2.200000*%
%ADD14C,2.400000*%
%ADD15C,4.200000*%
G04 APERTURE END LIST*
D10*
D11*
X66930000Y-101805000D03*
X61340000Y-101805000D03*
X62650000Y-110850000D03*
X67650000Y-110850000D03*
X72650000Y-110850000D03*
D12*
X76200000Y-36068000D03*
D11*
X78020000Y-82230000D03*
X72470000Y-82230000D03*
X81110000Y-55110000D03*
X76790000Y-55110000D03*
D12*
X85344000Y-99060000D03*
D13*
X88030000Y-58140000D03*
X88030000Y-60680000D03*
X88030000Y-63220000D03*
X88030000Y-65760000D03*
X88030000Y-68300000D03*
X88030000Y-70840000D03*
X88030000Y-73380000D03*
X88030000Y-75920000D03*
X65170000Y-75920000D03*
X65170000Y-73380000D03*
X65170000Y-70840000D03*
X65170000Y-68300000D03*
X65170000Y-65760000D03*
X65170000Y-63220000D03*
X65170000Y-60680000D03*
X65170000Y-58140000D03*
D12*
X104800000Y-45500000D03*
X104700000Y-57000000D03*
X104700000Y-68000000D03*
X97700000Y-114100000D03*
X90900000Y-56300000D03*
X88600000Y-99000000D03*
X78100000Y-112400000D03*
X59400000Y-93260000D03*
X59200000Y-97200000D03*
D14*
X101802400Y-36648660D03*
X104802140Y-43248660D03*
X97801900Y-43248660D03*
X101802400Y-47648660D03*
X104802140Y-54248660D03*
X97801900Y-54248660D03*
X101802400Y-58648660D03*
X104802140Y-65248660D03*
X97801900Y-65248660D03*
X101802400Y-69648660D03*
X104802140Y-76248660D03*
X97801900Y-76248660D03*
X101802400Y-80648660D03*
X104802140Y-87248660D03*
X97801900Y-87248660D03*
X101802400Y-91648660D03*
X104802140Y-98248660D03*
X97801900Y-98248660D03*
X101802400Y-102648660D03*
X104802140Y-109248660D03*
X97801900Y-109248660D03*
X88551340Y-109577400D03*
X81951340Y-112577140D03*
X81951340Y-105576900D03*
X50697600Y-43351340D03*
X47697860Y-36751340D03*
X54698100Y-36751340D03*
X50697600Y-54351340D03*
X47697860Y-47751340D03*
X54698100Y-47751340D03*
X50697600Y-65351340D03*
X47697860Y-58751340D03*
X54698100Y-58751340D03*
X50697600Y-76351340D03*
X47697860Y-69751340D03*
X54698100Y-69751340D03*
X50697600Y-87351340D03*
X47697860Y-80751340D03*
X54698100Y-80751340D03*
X50697600Y-98351340D03*
X47697860Y-91751340D03*
X54698100Y-91751340D03*
X50697600Y-109351340D03*
X47697860Y-102751340D03*
X54698100Y-102751340D03*
D15*
X50880000Y-33300000D03*
X98130000Y-33300000D03*
X46970000Y-113580000D03*
X105420000Y-113540000D03*
M02*
