G04 #@! TF.FileFunction,Soldermask,Top*
%FSLAX46Y46*%
G04 Gerber Fmt 4.6, Leading zero omitted, Abs format (unit mm)*
G04 Created by KiCad (PCBNEW 4.0.7) date Thursday, May 31, 2018 'PMt' 11:14:33 PM*
%MOMM*%
%LPD*%
G01*
G04 APERTURE LIST*
%ADD10C,0.100000*%
%ADD11R,1.650000X1.400000*%
%ADD12R,1.400000X1.650000*%
%ADD13C,1.924000*%
%ADD14C,1.900000*%
%ADD15R,1.700000X1.100000*%
%ADD16R,1.100000X1.700000*%
%ADD17R,2.400000X1.000000*%
%ADD18R,2.400000X2.180000*%
%ADD19C,2.200000*%
%ADD20C,2.400000*%
%ADD21C,4.200000*%
G04 APERTURE END LIST*
D10*
D11*
X85852000Y-93456000D03*
X85852000Y-91456000D03*
D12*
X77200000Y-103124000D03*
X75200000Y-103124000D03*
D11*
X95250000Y-44720000D03*
X95250000Y-46720000D03*
X58420000Y-37100000D03*
X58420000Y-39100000D03*
D13*
X66930000Y-101805000D03*
X61340000Y-101805000D03*
X62650000Y-110850000D03*
X67650000Y-110850000D03*
X72650000Y-110850000D03*
D14*
X76200000Y-36068000D03*
D15*
X73100000Y-59050000D03*
X73100000Y-57150000D03*
X67564000Y-93406000D03*
X67564000Y-91506000D03*
D16*
X76774000Y-106680000D03*
X78674000Y-106680000D03*
X55560000Y-56388000D03*
X53660000Y-56388000D03*
X81350000Y-60000000D03*
X83250000Y-60000000D03*
X81350000Y-63300000D03*
X83250000Y-63300000D03*
X81350000Y-66500000D03*
X83250000Y-66500000D03*
X81350000Y-69800000D03*
X83250000Y-69800000D03*
D15*
X58420000Y-56830000D03*
X58420000Y-54930000D03*
D16*
X79050000Y-60000000D03*
X77150000Y-60000000D03*
X79050000Y-63300000D03*
X77150000Y-63300000D03*
X79050000Y-66500000D03*
X77150000Y-66500000D03*
X79050000Y-69800000D03*
X77150000Y-69800000D03*
X81350000Y-73100000D03*
X83250000Y-73100000D03*
X80076000Y-85852000D03*
X81976000Y-85852000D03*
D15*
X81407000Y-80203000D03*
X81407000Y-82103000D03*
X92964000Y-107630000D03*
X92964000Y-105730000D03*
D16*
X79050000Y-73100000D03*
X77150000Y-73100000D03*
X79050000Y-76400000D03*
X77150000Y-76400000D03*
X83350000Y-76400000D03*
X81450000Y-76400000D03*
D15*
X92964000Y-109794000D03*
X92964000Y-111694000D03*
D16*
X70950000Y-63300000D03*
X69050000Y-63300000D03*
X70950000Y-66500000D03*
X69050000Y-66500000D03*
X70950000Y-69800000D03*
X69050000Y-69800000D03*
X70950000Y-73100000D03*
X69050000Y-73100000D03*
X73350000Y-63300000D03*
X75250000Y-63300000D03*
X73350000Y-66500000D03*
X75250000Y-66500000D03*
X73350000Y-69800000D03*
X75250000Y-69800000D03*
X73450000Y-73100000D03*
X75350000Y-73100000D03*
X71050000Y-76400000D03*
X69150000Y-76400000D03*
X67498000Y-81788000D03*
X65598000Y-81788000D03*
X67498000Y-85344000D03*
X65598000Y-85344000D03*
X70170000Y-103124000D03*
X72070000Y-103124000D03*
X73450000Y-76400000D03*
X75350000Y-76400000D03*
D15*
X75184000Y-80330000D03*
X75184000Y-82230000D03*
D16*
X70170000Y-85344000D03*
X72070000Y-85344000D03*
D15*
X74168000Y-100518000D03*
X74168000Y-98618000D03*
X80772000Y-100650000D03*
X80772000Y-102550000D03*
X78232000Y-100518000D03*
X78232000Y-98618000D03*
D17*
X61340000Y-37465000D03*
X61340000Y-38735000D03*
X61340000Y-40005000D03*
X61340000Y-41275000D03*
X61340000Y-42545000D03*
X61340000Y-43815000D03*
X61340000Y-45085000D03*
X61340000Y-46355000D03*
X61340000Y-47625000D03*
X61340000Y-48895000D03*
X61340000Y-50165000D03*
X61340000Y-51435000D03*
X70740000Y-51435000D03*
X70740000Y-50165000D03*
X70740000Y-48895000D03*
X70740000Y-47625000D03*
X70740000Y-46355000D03*
X70740000Y-45085000D03*
X70740000Y-43815000D03*
X70740000Y-42545000D03*
X70740000Y-41275000D03*
X70740000Y-40005000D03*
X70740000Y-38735000D03*
X70740000Y-37465000D03*
X81660000Y-37465000D03*
X81660000Y-38735000D03*
X81660000Y-40005000D03*
X81660000Y-41275000D03*
X81660000Y-42545000D03*
X81660000Y-43815000D03*
X81660000Y-45085000D03*
X81660000Y-46355000D03*
X81660000Y-47625000D03*
X81660000Y-48895000D03*
X81660000Y-50165000D03*
X81660000Y-51435000D03*
X91060000Y-51435000D03*
X91060000Y-50165000D03*
X91060000Y-48895000D03*
X91060000Y-47625000D03*
X91060000Y-46355000D03*
X91060000Y-45085000D03*
X91060000Y-43815000D03*
X91060000Y-42545000D03*
X91060000Y-41275000D03*
X91060000Y-40005000D03*
X91060000Y-38735000D03*
X91060000Y-37465000D03*
D18*
X80184000Y-96266000D03*
X80184000Y-93726000D03*
X80184000Y-91186000D03*
X80184000Y-88646000D03*
X70184000Y-88646000D03*
X70184000Y-91186000D03*
X70184000Y-93726000D03*
X70184000Y-96266000D03*
D13*
X78020000Y-82230000D03*
X72470000Y-82230000D03*
X81110000Y-55110000D03*
X76790000Y-55110000D03*
D14*
X85344000Y-99060000D03*
D19*
X88030000Y-58140000D03*
X88030000Y-60680000D03*
X88030000Y-63220000D03*
X88030000Y-65760000D03*
X88030000Y-68300000D03*
X88030000Y-70840000D03*
X88030000Y-73380000D03*
X88030000Y-75920000D03*
X65170000Y-75920000D03*
X65170000Y-73380000D03*
X65170000Y-70840000D03*
X65170000Y-68300000D03*
X65170000Y-65760000D03*
X65170000Y-63220000D03*
X65170000Y-60680000D03*
X65170000Y-58140000D03*
D14*
X104800000Y-45500000D03*
X104700000Y-57000000D03*
X104700000Y-68000000D03*
X97700000Y-114100000D03*
X90900000Y-56300000D03*
X88600000Y-99000000D03*
X78100000Y-112400000D03*
X59400000Y-93260000D03*
X59200000Y-97200000D03*
D20*
X101802400Y-36648660D03*
X104802140Y-43248660D03*
X97801900Y-43248660D03*
X101802400Y-47648660D03*
X104802140Y-54248660D03*
X97801900Y-54248660D03*
X101802400Y-58648660D03*
X104802140Y-65248660D03*
X97801900Y-65248660D03*
X101802400Y-69648660D03*
X104802140Y-76248660D03*
X97801900Y-76248660D03*
X101802400Y-80648660D03*
X104802140Y-87248660D03*
X97801900Y-87248660D03*
X101802400Y-91648660D03*
X104802140Y-98248660D03*
X97801900Y-98248660D03*
X101802400Y-102648660D03*
X104802140Y-109248660D03*
X97801900Y-109248660D03*
X88551340Y-109577400D03*
X81951340Y-112577140D03*
X81951340Y-105576900D03*
X50697600Y-43351340D03*
X47697860Y-36751340D03*
X54698100Y-36751340D03*
X50697600Y-54351340D03*
X47697860Y-47751340D03*
X54698100Y-47751340D03*
X50697600Y-65351340D03*
X47697860Y-58751340D03*
X54698100Y-58751340D03*
X50697600Y-76351340D03*
X47697860Y-69751340D03*
X54698100Y-69751340D03*
X50697600Y-87351340D03*
X47697860Y-80751340D03*
X54698100Y-80751340D03*
X50697600Y-98351340D03*
X47697860Y-91751340D03*
X54698100Y-91751340D03*
X50697600Y-109351340D03*
X47697860Y-102751340D03*
X54698100Y-102751340D03*
D21*
X50880000Y-33300000D03*
X98130000Y-33300000D03*
X46970000Y-113580000D03*
X105420000Y-113540000D03*
M02*
